%TF.GenerationSoftware,Altium Limited,Altium Designer,24.6.1 (21)*%
G04 Layer_Physical_Order=2*
G04 Layer_Color=16711680*
%FSLAX45Y45*%
%MOMM*%
%TF.SameCoordinates,02EA3464-56A9-4D0A-92B1-D56C91FA6429*%
%TF.FilePolarity,Positive*%
%TF.FileFunction,Copper,L2,Bot,Signal*%
%TF.Part,Single*%
G01*
G75*
%TA.AperFunction,Conductor*%
%ADD37C,0.30000*%
%ADD38C,0.20000*%
%ADD40C,0.50000*%
%ADD41C,0.25000*%
%TA.AperFunction,ComponentPad*%
%ADD43C,0.90000*%
%TA.AperFunction,ViaPad*%
%ADD44C,3.20000*%
%TA.AperFunction,ComponentPad*%
%ADD45O,1.80000X1.00000*%
%ADD46O,2.10000X1.00000*%
%ADD47C,0.65000*%
%TA.AperFunction,ViaPad*%
%ADD48C,0.80000*%
%ADD49C,0.50000*%
G36*
X4320089Y4490239D02*
X4366314Y4471092D01*
X4407915Y4443294D01*
X4443294Y4407915D01*
X4471092Y4366314D01*
X4490239Y4320089D01*
X4500000Y4271017D01*
Y4246000D01*
Y254000D01*
Y228983D01*
X4490239Y179911D01*
X4471092Y133686D01*
X4443294Y92084D01*
X4407915Y56705D01*
X4366314Y28908D01*
X4320089Y9761D01*
X4271017Y0D01*
X228983D01*
X179911Y9761D01*
X133686Y28908D01*
X92084Y56705D01*
X56705Y92084D01*
X28908Y133686D01*
X9761Y179911D01*
X0Y228983D01*
Y254000D01*
Y4246000D01*
Y4271017D01*
X9761Y4320089D01*
X28908Y4366314D01*
X56705Y4407915D01*
X92084Y4443294D01*
X133686Y4471092D01*
X179911Y4490239D01*
X228983Y4500000D01*
X4271017D01*
X4320089Y4490239D01*
D02*
G37*
%LPC*%
G36*
X4217728Y4380000D02*
X4182272D01*
X4147496Y4373083D01*
X4114738Y4359514D01*
X4085257Y4339815D01*
X4060185Y4314743D01*
X4040486Y4285262D01*
X4026917Y4252504D01*
X4020000Y4217728D01*
Y4182272D01*
X4026917Y4147496D01*
X4040486Y4114738D01*
X4060185Y4085257D01*
X4085257Y4060185D01*
X4114738Y4040486D01*
X4147496Y4026917D01*
X4182272Y4020000D01*
X4217728D01*
X4252504Y4026917D01*
X4285262Y4040486D01*
X4314743Y4060185D01*
X4339815Y4085257D01*
X4359514Y4114738D01*
X4373083Y4147496D01*
X4380000Y4182272D01*
Y4217728D01*
X4373083Y4252504D01*
X4359514Y4285262D01*
X4339815Y4314743D01*
X4314743Y4339815D01*
X4285262Y4359514D01*
X4252504Y4373083D01*
X4217728Y4380000D01*
D02*
G37*
G36*
X317728D02*
X282271D01*
X247496Y4373083D01*
X214738Y4359514D01*
X185257Y4339815D01*
X160185Y4314743D01*
X140486Y4285262D01*
X126917Y4252504D01*
X120000Y4217728D01*
Y4182272D01*
X126917Y4147496D01*
X140486Y4114738D01*
X160185Y4085257D01*
X185257Y4060185D01*
X214738Y4040486D01*
X247496Y4026917D01*
X282271Y4020000D01*
X317728D01*
X352504Y4026917D01*
X385262Y4040486D01*
X414743Y4060185D01*
X439815Y4085257D01*
X459514Y4114738D01*
X473083Y4147496D01*
X480000Y4182272D01*
Y4217728D01*
X473083Y4252504D01*
X459514Y4285262D01*
X439815Y4314743D01*
X414743Y4339815D01*
X385262Y4359514D01*
X352504Y4373083D01*
X317728Y4380000D01*
D02*
G37*
G36*
X1622500Y3988088D02*
X1622499Y3988088D01*
X1075000D01*
X1063295Y3985759D01*
X1053371Y3979129D01*
X1053371Y3979128D01*
X1003371Y3929129D01*
X996741Y3919205D01*
X994412Y3907500D01*
X994412Y3907499D01*
Y3737274D01*
X991013Y3735866D01*
X974134Y3718987D01*
X965000Y3696935D01*
Y3673065D01*
X974134Y3651013D01*
X991013Y3634134D01*
X1013065Y3625000D01*
X1036935D01*
X1058987Y3634134D01*
X1075866Y3651013D01*
X1085000Y3673065D01*
Y3696935D01*
X1075866Y3718987D01*
X1058987Y3735866D01*
X1055588Y3737274D01*
Y3894830D01*
X1087670Y3926912D01*
X1609830D01*
X1631216Y3905527D01*
X1632208Y3901462D01*
X1630973Y3880826D01*
X1619134Y3868987D01*
X1610000Y3846935D01*
Y3823065D01*
X1619134Y3801013D01*
X1636013Y3784134D01*
X1658065Y3775000D01*
X1681935D01*
X1703987Y3784134D01*
X1720865Y3801013D01*
X1730000Y3823065D01*
Y3846935D01*
X1720865Y3868987D01*
X1703987Y3885865D01*
X1700588Y3887274D01*
Y3910000D01*
X1698259Y3921705D01*
X1691629Y3931629D01*
X1691628Y3931629D01*
X1644129Y3979129D01*
X1634205Y3985759D01*
X1622500Y3988088D01*
D02*
G37*
G36*
X4244500Y3632604D02*
X4164500D01*
X4146226Y3630198D01*
X4129198Y3623145D01*
X4114575Y3611925D01*
X4103355Y3597302D01*
X4096302Y3580274D01*
X4093896Y3562000D01*
X4096302Y3543727D01*
X4103355Y3526698D01*
X4114575Y3512076D01*
X4129198Y3500856D01*
X4146226Y3493802D01*
X4164500Y3491396D01*
X4244500D01*
X4262773Y3493802D01*
X4279802Y3500856D01*
X4294424Y3512076D01*
X4305644Y3526698D01*
X4312698Y3543727D01*
X4315104Y3562000D01*
X4312698Y3580274D01*
X4305644Y3597302D01*
X4294424Y3611925D01*
X4279802Y3623145D01*
X4262773Y3630198D01*
X4244500Y3632604D01*
D02*
G37*
G36*
X3841500D02*
X3731500D01*
X3713226Y3630198D01*
X3696198Y3623145D01*
X3681575Y3611925D01*
X3670355Y3597302D01*
X3663302Y3580274D01*
X3660896Y3562000D01*
X3663302Y3543727D01*
X3670355Y3526698D01*
X3681575Y3512076D01*
X3696198Y3500856D01*
X3713226Y3493802D01*
X3731500Y3491396D01*
X3821602D01*
X3825805Y3491396D01*
X3826056Y3471501D01*
X3822310Y3469948D01*
X3806761Y3463508D01*
X3791992Y3448739D01*
X3784000Y3429443D01*
Y3408557D01*
X3791992Y3389261D01*
X3806761Y3374493D01*
X3826057Y3366500D01*
X3846943D01*
X3866239Y3374493D01*
X3881007Y3389261D01*
X3889000Y3408557D01*
Y3429443D01*
X3881007Y3448739D01*
X3866239Y3463508D01*
X3846943Y3471500D01*
X3841751Y3471501D01*
X3841500Y3491396D01*
X3845677Y3491946D01*
X3859773Y3493802D01*
X3876802Y3500856D01*
X3891424Y3512076D01*
X3902644Y3526698D01*
X3909698Y3543727D01*
X3912104Y3562000D01*
X3909698Y3580274D01*
X3902644Y3597302D01*
X3891424Y3611925D01*
X3876802Y3623145D01*
X3859773Y3630198D01*
X3841500Y3632604D01*
D02*
G37*
G36*
X1471935Y3165000D02*
X1448065D01*
X1426013Y3155865D01*
X1409134Y3138987D01*
X1400000Y3116935D01*
Y3093065D01*
X1409134Y3071013D01*
X1426013Y3054134D01*
X1448065Y3045000D01*
X1471935D01*
X1493987Y3054134D01*
X1510865Y3071013D01*
X1511238Y3071912D01*
X2267091D01*
X2269535Y3066013D01*
X2286413Y3049134D01*
X2308466Y3040000D01*
X2332335D01*
X2354387Y3049134D01*
X2371266Y3066013D01*
X2380400Y3088065D01*
Y3111935D01*
X2371266Y3133987D01*
X2354387Y3150865D01*
X2332335Y3160000D01*
X2308466D01*
X2286413Y3150865D01*
X2269535Y3133987D01*
X2269162Y3133087D01*
X1513309D01*
X1510865Y3138987D01*
X1493987Y3155865D01*
X1471935Y3165000D01*
D02*
G37*
G36*
X1111935Y3050000D02*
X1088065D01*
X1066013Y3040866D01*
X1049135Y3023987D01*
X1040000Y3001935D01*
Y2978065D01*
X1041408Y2974666D01*
X798810Y2732068D01*
X792785D01*
X783987Y2740865D01*
X761935Y2750000D01*
X738065D01*
X716013Y2740865D01*
X699134Y2723987D01*
X690000Y2701935D01*
Y2678065D01*
X699134Y2656013D01*
X716013Y2639134D01*
X738065Y2630000D01*
X761935D01*
X783987Y2639134D01*
X800866Y2656013D01*
X807029Y2670893D01*
X811479D01*
X811480Y2670892D01*
X823186Y2673221D01*
X833109Y2679851D01*
X1084666Y2931408D01*
X1088065Y2930000D01*
X1111935D01*
X1133987Y2939135D01*
X1150866Y2956013D01*
X1160000Y2978065D01*
Y3001935D01*
X1150866Y3023987D01*
X1133987Y3040866D01*
X1111935Y3050000D01*
D02*
G37*
G36*
X1291935Y3145000D02*
X1268065D01*
X1246013Y3135866D01*
X1229134Y3118987D01*
X1220000Y3096935D01*
Y3073065D01*
X1229134Y3051013D01*
X1244314Y3035833D01*
Y2774782D01*
X1145218Y2675686D01*
X1139167D01*
X1123987Y2690866D01*
X1101935Y2700000D01*
X1078065D01*
X1056013Y2690866D01*
X1039135Y2673987D01*
X1030000Y2651935D01*
Y2628065D01*
X1039135Y2606013D01*
X1056013Y2589135D01*
X1078065Y2580000D01*
X1101935D01*
X1123987Y2589135D01*
X1139167Y2604314D01*
X1160000D01*
X1173656Y2607031D01*
X1185234Y2614766D01*
X1305234Y2734766D01*
X1312969Y2746344D01*
X1315686Y2760000D01*
Y3035833D01*
X1330866Y3051013D01*
X1340000Y3073065D01*
Y3096935D01*
X1330866Y3118987D01*
X1313987Y3135866D01*
X1291935Y3145000D01*
D02*
G37*
G36*
X4244500Y2768604D02*
X4164500D01*
X4146226Y2766198D01*
X4129198Y2759145D01*
X4114575Y2747925D01*
X4103355Y2733302D01*
X4096302Y2716274D01*
X4093896Y2698000D01*
X4096302Y2679727D01*
X4103355Y2662699D01*
X4114575Y2648076D01*
X4129198Y2636856D01*
X4146226Y2629802D01*
X4164500Y2627397D01*
X4244500D01*
X4262773Y2629802D01*
X4279802Y2636856D01*
X4294424Y2648076D01*
X4305644Y2662699D01*
X4312698Y2679727D01*
X4315104Y2698000D01*
X4312698Y2716274D01*
X4305644Y2733302D01*
X4294424Y2747925D01*
X4279802Y2759145D01*
X4262773Y2766198D01*
X4244500Y2768604D01*
D02*
G37*
G36*
X3846943Y2893500D02*
X3826057D01*
X3806761Y2885508D01*
X3791992Y2870739D01*
X3784000Y2851443D01*
Y2830557D01*
X3791992Y2811262D01*
X3806761Y2796493D01*
X3822310Y2790052D01*
X3826056Y2788500D01*
X3825805Y2768605D01*
X3821602Y2768604D01*
X3731500D01*
X3713226Y2766198D01*
X3696198Y2759145D01*
X3681575Y2747925D01*
X3670355Y2733302D01*
X3663302Y2716274D01*
X3660896Y2698000D01*
X3663302Y2679727D01*
X3670355Y2662699D01*
X3681575Y2648076D01*
X3696198Y2636856D01*
X3713226Y2629802D01*
X3731500Y2627397D01*
X3841500D01*
X3859773Y2629802D01*
X3876802Y2636856D01*
X3891424Y2648076D01*
X3902644Y2662699D01*
X3909698Y2679727D01*
X3912104Y2698000D01*
X3909698Y2716274D01*
X3902644Y2733302D01*
X3891424Y2747925D01*
X3876802Y2759145D01*
X3859773Y2766198D01*
X3845677Y2768054D01*
X3841500Y2768605D01*
X3841751Y2788500D01*
X3846943Y2788500D01*
X3866239Y2796493D01*
X3881007Y2811262D01*
X3889000Y2830557D01*
Y2851443D01*
X3881007Y2870739D01*
X3866239Y2885508D01*
X3846943Y2893500D01*
D02*
G37*
G36*
X273557Y2335000D02*
X256442D01*
X239911Y2330570D01*
X225089Y2322013D01*
X212987Y2309911D01*
X204430Y2295089D01*
X200000Y2278558D01*
Y2261443D01*
X204430Y2244911D01*
X212987Y2230089D01*
X225089Y2217987D01*
X239911Y2209430D01*
X256442Y2205000D01*
X273557D01*
X290089Y2209430D01*
X304911Y2217987D01*
X317013Y2230089D01*
X325570Y2244911D01*
X330000Y2261443D01*
Y2278558D01*
X325570Y2295089D01*
X317013Y2309911D01*
X304911Y2322013D01*
X290089Y2330570D01*
X273557Y2335000D01*
D02*
G37*
G36*
X281935Y2790000D02*
X258065D01*
X236013Y2780865D01*
X219134Y2763987D01*
X210000Y2741935D01*
Y2718065D01*
X219134Y2696013D01*
X236013Y2679134D01*
X258065Y2670000D01*
X281935D01*
X303987Y2679134D01*
X320865Y2696013D01*
X322274Y2699412D01*
X397330D01*
X539412Y2557330D01*
Y2380002D01*
X539412Y2380001D01*
X541741Y2368295D01*
X548371Y2358372D01*
X816891Y2089852D01*
X816891Y2089852D01*
X826814Y2083221D01*
X838520Y2080893D01*
X1052971D01*
X1059135Y2066013D01*
X1076013Y2049135D01*
X1098065Y2040000D01*
X1121935D01*
X1143987Y2049135D01*
X1160866Y2066013D01*
X1170000Y2088065D01*
Y2111935D01*
X1160866Y2133987D01*
X1143987Y2150866D01*
X1121935Y2160000D01*
X1098065D01*
X1076013Y2150866D01*
X1067215Y2142068D01*
X851190D01*
X600588Y2392671D01*
Y2569999D01*
X600588Y2570000D01*
X598259Y2581705D01*
X591629Y2591629D01*
X431629Y2751629D01*
X421705Y2758259D01*
X410000Y2760588D01*
X409999Y2760588D01*
X322274D01*
X320865Y2763987D01*
X303987Y2780865D01*
X281935Y2790000D01*
D02*
G37*
G36*
X273557Y2035000D02*
X256442D01*
X239911Y2030570D01*
X225089Y2022013D01*
X212987Y2009911D01*
X204430Y1995089D01*
X200000Y1978558D01*
Y1961443D01*
X204430Y1944911D01*
X212987Y1930089D01*
X225089Y1917987D01*
X239911Y1909430D01*
X256442Y1905000D01*
X273557D01*
X290089Y1909430D01*
X304911Y1917987D01*
X317013Y1930089D01*
X325570Y1944911D01*
X330000Y1961443D01*
Y1978558D01*
X325570Y1995089D01*
X317013Y2009911D01*
X304911Y2022013D01*
X290089Y2030570D01*
X273557Y2035000D01*
D02*
G37*
G36*
X1791935Y2480000D02*
X1768065D01*
X1746013Y2470866D01*
X1729134Y2453987D01*
X1720000Y2431935D01*
Y2408065D01*
X1729134Y2386013D01*
X1746013Y2369134D01*
X1746863Y2368782D01*
Y1903726D01*
X1596275Y1753137D01*
X1496274D01*
X1487989Y1773137D01*
X1490865Y1776013D01*
X1500000Y1798065D01*
Y1821935D01*
X1490865Y1843987D01*
X1473987Y1860865D01*
X1451935Y1870000D01*
X1428065D01*
X1406013Y1860865D01*
X1401029Y1855881D01*
X899005D01*
X852443Y1902443D01*
X837558Y1912389D01*
X820000Y1915882D01*
X690000D01*
X672442Y1912389D01*
X657557Y1902443D01*
X635686Y1880572D01*
X615686Y1888857D01*
Y1990833D01*
X630866Y2006013D01*
X640000Y2028065D01*
Y2051935D01*
X630866Y2073987D01*
X613987Y2090866D01*
X591935Y2100000D01*
X568065D01*
X546013Y2090866D01*
X529135Y2073987D01*
X520000Y2051935D01*
Y2028065D01*
X529135Y2006013D01*
X544314Y1990833D01*
Y1861421D01*
X547031Y1847764D01*
X554766Y1836187D01*
X584829Y1806125D01*
Y1649682D01*
X579134Y1643987D01*
X570000Y1621935D01*
Y1598065D01*
X579134Y1576013D01*
X596013Y1559135D01*
X618065Y1550000D01*
X625114D01*
X727557Y1447557D01*
X742442Y1437611D01*
X760000Y1434119D01*
X1110995D01*
X1287557Y1257557D01*
X1302442Y1247611D01*
X1320000Y1244118D01*
X2550000D01*
X2567558Y1247611D01*
X2582443Y1257557D01*
X2744887Y1420000D01*
X2751935D01*
X2773987Y1429135D01*
X2778971Y1434119D01*
X3222877D01*
X3240757Y1416239D01*
X3249134Y1396013D01*
X3266013Y1379134D01*
X3288065Y1370000D01*
X3311935D01*
X3333987Y1379134D01*
X3350866Y1396013D01*
X3360000Y1418065D01*
Y1441935D01*
X3350866Y1463987D01*
X3333987Y1480865D01*
X3311935Y1490000D01*
X3296768D01*
X3274325Y1512443D01*
X3259440Y1522389D01*
X3241882Y1525882D01*
X2778971D01*
X2773987Y1530866D01*
X2751935Y1540000D01*
X2728065D01*
X2706013Y1530866D01*
X2689135Y1513987D01*
X2680000Y1491935D01*
Y1484887D01*
X2530995Y1335882D01*
X1352216D01*
X1352076Y1335952D01*
X1349771Y1340000D01*
X1361397Y1360000D01*
X1361935D01*
X1383987Y1369134D01*
X1394265Y1379412D01*
X2449999D01*
X2450000Y1379412D01*
X2461706Y1381741D01*
X2471629Y1388371D01*
X3114666Y2031408D01*
X3118065Y2030000D01*
X3141935D01*
X3163987Y2039134D01*
X3180866Y2056013D01*
X3190000Y2078065D01*
Y2101935D01*
X3180866Y2123987D01*
X3163987Y2140865D01*
X3141935Y2150000D01*
X3118065D01*
X3096013Y2140865D01*
X3079135Y2123987D01*
X3070000Y2101935D01*
Y2078065D01*
X3071408Y2074666D01*
X2437330Y1440588D01*
X1406416D01*
X1400866Y1453987D01*
X1383987Y1470865D01*
X1361935Y1480000D01*
X1338065D01*
X1316013Y1470865D01*
X1299135Y1453987D01*
X1290000Y1431935D01*
Y1413170D01*
X1274935Y1404232D01*
X1271522Y1403364D01*
X1162443Y1512443D01*
X1147558Y1522389D01*
X1130000Y1525882D01*
X779005D01*
X690000Y1614887D01*
Y1621935D01*
X680866Y1643987D01*
X676592Y1648261D01*
Y1791706D01*
X709005Y1824119D01*
X800995D01*
X847557Y1777557D01*
X854172Y1773137D01*
X848105Y1753137D01*
X829502D01*
X820866Y1773987D01*
X803987Y1790866D01*
X781935Y1800000D01*
X758065D01*
X736013Y1790866D01*
X719134Y1773987D01*
X710000Y1751935D01*
Y1728065D01*
X719134Y1706013D01*
X736013Y1689135D01*
X758065Y1680000D01*
X781935D01*
X800574Y1687721D01*
X804883Y1686864D01*
X1610000D01*
X1622681Y1689386D01*
X1633431Y1696569D01*
X1803431Y1866569D01*
X1810614Y1877319D01*
X1813137Y1890000D01*
Y2368782D01*
X1813987Y2369134D01*
X1830866Y2386013D01*
X1840000Y2408065D01*
Y2431935D01*
X1830866Y2453987D01*
X1813987Y2470866D01*
X1791935Y2480000D01*
D02*
G37*
G36*
X4217728Y480000D02*
X4182272D01*
X4147496Y473083D01*
X4114738Y459514D01*
X4085257Y439815D01*
X4060185Y414743D01*
X4040486Y385262D01*
X4026917Y352504D01*
X4020000Y317729D01*
Y282272D01*
X4026917Y247496D01*
X4040486Y214738D01*
X4060185Y185257D01*
X4085257Y160185D01*
X4114738Y140486D01*
X4147496Y126917D01*
X4182272Y120000D01*
X4217728D01*
X4252504Y126917D01*
X4285262Y140486D01*
X4314743Y160185D01*
X4339815Y185257D01*
X4359514Y214738D01*
X4373083Y247496D01*
X4380000Y282272D01*
Y317729D01*
X4373083Y352504D01*
X4359514Y385262D01*
X4339815Y414743D01*
X4314743Y439815D01*
X4285262Y459514D01*
X4252504Y473083D01*
X4217728Y480000D01*
D02*
G37*
G36*
X317728D02*
X282271D01*
X247496Y473083D01*
X214738Y459514D01*
X185257Y439815D01*
X160185Y414743D01*
X140486Y385262D01*
X126917Y352504D01*
X120000Y317729D01*
Y282272D01*
X126917Y247496D01*
X140486Y214738D01*
X160185Y185257D01*
X185257Y160185D01*
X214738Y140486D01*
X247496Y126917D01*
X282271Y120000D01*
X317728D01*
X352504Y126917D01*
X385262Y140486D01*
X414743Y160185D01*
X439815Y185257D01*
X459514Y214738D01*
X473083Y247496D01*
X480000Y282272D01*
Y317729D01*
X473083Y352504D01*
X459514Y385262D01*
X439815Y414743D01*
X414743Y439815D01*
X385262Y459514D01*
X352504Y473083D01*
X317728Y480000D01*
D02*
G37*
%LPD*%
D37*
X1090000Y2640000D02*
X1160000D01*
X1280000Y2760000D01*
Y3085000D01*
X580000Y1861421D02*
X630710Y1810710D01*
X580000Y1861421D02*
Y2040000D01*
D38*
X1360000Y1410000D02*
X2450000D01*
X1350000Y1420000D02*
X1360000Y1410000D01*
X270000Y2730000D02*
X410000D01*
X570000Y2380001D02*
X838520Y2111480D01*
X570000Y2380001D02*
Y2570000D01*
X410000Y2730000D02*
X570000Y2570000D01*
X838520Y2111480D02*
X1098520D01*
X1110000Y2100000D01*
X750000Y2690000D02*
X761480Y2701480D01*
X811480D02*
X1100000Y2990000D01*
X761480Y2701480D02*
X811480D01*
X2450000Y1410000D02*
X3130000Y2090000D01*
X1025000Y3907500D02*
X1075000Y3957500D01*
X1622500D02*
X1670000Y3910000D01*
X1075000Y3957500D02*
X1622500D01*
X1670000Y3835000D02*
Y3910000D01*
X1025000Y3685000D02*
Y3907500D01*
X1462500Y3102500D02*
X2317900D01*
X2320400Y3100000D01*
X1460000Y3105000D02*
X1462500Y3102500D01*
D40*
X760000Y1480000D02*
X1130000D01*
X630000Y1610000D02*
X630710Y1610711D01*
Y1810710D01*
X630000Y1610000D02*
X760000Y1480000D01*
X1130000D02*
X1320000Y1290000D01*
X2550000D01*
X2740000Y1480000D01*
X630710Y1810710D02*
X690000Y1870000D01*
X820000D01*
X880000Y1810000D01*
X1440000D01*
X2740000Y1480000D02*
X3241882D01*
X3291882Y1430000D02*
X3300000D01*
X3241882Y1480000D02*
X3291882Y1430000D01*
D41*
X770000Y1740000D02*
X784883D01*
X1610000Y1720000D02*
X1780000Y1890000D01*
X784883Y1740000D02*
X804883Y1720000D01*
X1610000D01*
X1780000Y1890000D02*
Y2420000D01*
D43*
X265000Y1970000D02*
D03*
Y2270000D02*
D03*
D44*
X4200000Y300000D02*
D03*
X300000D02*
D03*
X4200000Y4200000D02*
D03*
X300000D02*
D03*
D45*
X4204500Y3562000D02*
D03*
Y2698000D02*
D03*
D46*
X3786500Y3562000D02*
D03*
Y2698000D02*
D03*
D47*
X3836500Y2841000D02*
D03*
Y3419000D02*
D03*
D48*
X1330000Y1620000D02*
D03*
X130000Y1890000D02*
D03*
X2090000Y1510000D02*
D03*
X630000Y1610000D02*
D03*
X300000Y580000D02*
D03*
X1090000Y2640000D02*
D03*
X1280000Y3085000D02*
D03*
X560000Y1260000D02*
D03*
X580000Y2040000D02*
D03*
X2930000Y2570000D02*
D03*
X3130000Y1940000D02*
D03*
X830000Y1980000D02*
D03*
X1260000Y1180000D02*
D03*
X1090000Y780000D02*
D03*
X1350000Y1420000D02*
D03*
X1440000Y1810000D02*
D03*
X770000Y1740000D02*
D03*
X1780000Y2420000D02*
D03*
X1530000Y2710000D02*
D03*
X1310000Y4200000D02*
D03*
X1110000Y3330000D02*
D03*
X580000Y2930000D02*
D03*
X3780000Y2570000D02*
D03*
X3790000Y2270000D02*
D03*
X3810000Y2080000D02*
D03*
X3760000Y840000D02*
D03*
X3630000Y1440000D02*
D03*
X4030000D02*
D03*
X3500000Y2660000D02*
D03*
Y3630000D02*
D03*
X3010000Y4320000D02*
D03*
X1110000Y2100000D02*
D03*
X270000Y2730000D02*
D03*
X750000Y2690000D02*
D03*
X1100000Y2990000D02*
D03*
X3130000Y2090000D02*
D03*
X2740000Y1480000D02*
D03*
X3300000Y1430000D02*
D03*
X1670000Y3835000D02*
D03*
X1025000Y3685000D02*
D03*
X2320400Y3100000D02*
D03*
X1460000Y3105000D02*
D03*
D49*
X2472700Y2025000D02*
D03*
X2362700D02*
D03*
X2252700D02*
D03*
X2142700D02*
D03*
X2032700D02*
D03*
X2472700Y2135000D02*
D03*
X2362700D02*
D03*
X2252700D02*
D03*
X2142700D02*
D03*
X2032700D02*
D03*
X2472700Y2245000D02*
D03*
X2362700D02*
D03*
X2252700D02*
D03*
X2142700D02*
D03*
X2032700D02*
D03*
X2472700Y2355000D02*
D03*
X2362700D02*
D03*
X2252700D02*
D03*
X2142700D02*
D03*
X2032700D02*
D03*
X2472700Y2465000D02*
D03*
X2362700D02*
D03*
X2252700D02*
D03*
X2142700D02*
D03*
X2032700D02*
D03*
%TF.MD5,d38d4f57d538043bc1b5a51f8c0e718c*%
M02*
