%TF.GenerationSoftware,Altium Limited,Altium Designer,24.6.1 (21)*%
G04 Layer_Color=16711935*
%FSLAX45Y45*%
%MOMM*%
%TF.SameCoordinates,02EA3464-56A9-4D0A-92B1-D56C91FA6429*%
%TF.FilePolarity,Negative*%
%TF.FileFunction,Soldermask,Bot*%
%TF.Part,Single*%
G01*
G75*
%TA.AperFunction,ComponentPad*%
%ADD43C,0.90000*%
%TA.AperFunction,ViaPad*%
%ADD75C,3.40320*%
%TA.AperFunction,ComponentPad*%
%ADD76O,2.00320X1.20320*%
%ADD77O,2.30320X1.20320*%
%ADD78C,0.85320*%
%TA.AperFunction,ViaPad*%
%ADD79C,1.00320*%
%ADD80C,0.70320*%
D43*
X265000Y1970000D02*
D03*
Y2270000D02*
D03*
D75*
X4200000Y300000D02*
D03*
X300000D02*
D03*
X4200000Y4200000D02*
D03*
X300000D02*
D03*
D76*
X4204500Y3562000D02*
D03*
Y2698000D02*
D03*
D77*
X3786500Y3562000D02*
D03*
Y2698000D02*
D03*
D78*
X3836500Y2841000D02*
D03*
Y3419000D02*
D03*
D79*
X1330000Y1620000D02*
D03*
X130000Y1890000D02*
D03*
X2090000Y1510000D02*
D03*
X630000Y1610000D02*
D03*
X300000Y580000D02*
D03*
X1090000Y2640000D02*
D03*
X1280000Y3085000D02*
D03*
X560000Y1260000D02*
D03*
X580000Y2040000D02*
D03*
X2930000Y2570000D02*
D03*
X3130000Y1940000D02*
D03*
X830000Y1980000D02*
D03*
X1260000Y1180000D02*
D03*
X1090000Y780000D02*
D03*
X1350000Y1420000D02*
D03*
X1440000Y1810000D02*
D03*
X770000Y1740000D02*
D03*
X1780000Y2420000D02*
D03*
X1530000Y2710000D02*
D03*
X1310000Y4200000D02*
D03*
X1110000Y3330000D02*
D03*
X580000Y2930000D02*
D03*
X3780000Y2570000D02*
D03*
X3790000Y2270000D02*
D03*
X3810000Y2080000D02*
D03*
X3760000Y840000D02*
D03*
X3630000Y1440000D02*
D03*
X4030000D02*
D03*
X3500000Y2660000D02*
D03*
Y3630000D02*
D03*
X3010000Y4320000D02*
D03*
X1110000Y2100000D02*
D03*
X270000Y2730000D02*
D03*
X750000Y2690000D02*
D03*
X1100000Y2990000D02*
D03*
X3130000Y2090000D02*
D03*
X2740000Y1480000D02*
D03*
X3300000Y1430000D02*
D03*
X1670000Y3835000D02*
D03*
X1025000Y3685000D02*
D03*
X2320400Y3100000D02*
D03*
X1460000Y3105000D02*
D03*
D80*
X2472700Y2025000D02*
D03*
X2362700D02*
D03*
X2252700D02*
D03*
X2142700D02*
D03*
X2032700D02*
D03*
X2472700Y2135000D02*
D03*
X2362700D02*
D03*
X2252700D02*
D03*
X2142700D02*
D03*
X2032700D02*
D03*
X2472700Y2245000D02*
D03*
X2362700D02*
D03*
X2252700D02*
D03*
X2142700D02*
D03*
X2032700D02*
D03*
X2472700Y2355000D02*
D03*
X2362700D02*
D03*
X2252700D02*
D03*
X2142700D02*
D03*
X2032700D02*
D03*
X2472700Y2465000D02*
D03*
X2362700D02*
D03*
X2252700D02*
D03*
X2142700D02*
D03*
X2032700D02*
D03*
%TF.MD5,73d24492bdcba87e1e56359d28fa3d12*%
M02*
