%TF.GenerationSoftware,Altium Limited,Altium Designer,24.6.1 (21)*%
G04 Layer_Physical_Order=1*
G04 Layer_Color=255*
%FSLAX45Y45*%
%MOMM*%
%TF.SameCoordinates,02EA3464-56A9-4D0A-92B1-D56C91FA6429*%
%TF.FilePolarity,Positive*%
%TF.FileFunction,Copper,L1,Top,Signal*%
%TF.Part,Single*%
G01*
G75*
%TA.AperFunction,SMDPad,CuDef*%
%ADD10R,1.27000X3.68000*%
%ADD11R,0.80000X1.20000*%
%ADD12R,0.80000X1.00000*%
%ADD13R,1.50000X0.70000*%
%ADD14R,1.30000X1.10000*%
%ADD15R,0.60000X0.25000*%
%ADD16R,0.25000X0.60000*%
%ADD17R,1.00000X1.35000*%
%ADD18R,1.35000X1.00000*%
%ADD19R,1.30000X1.45000*%
%ADD20R,1.40000X2.10000*%
%ADD21R,1.20000X1.20000*%
%ADD22R,1.10000X1.30000*%
G04:AMPARAMS|DCode=23|XSize=0.25mm|YSize=1mm|CornerRadius=0.0625mm|HoleSize=0mm|Usage=FLASHONLY|Rotation=90.000|XOffset=0mm|YOffset=0mm|HoleType=Round|Shape=RoundedRectangle|*
%AMROUNDEDRECTD23*
21,1,0.25000,0.87500,0,0,90.0*
21,1,0.12500,1.00000,0,0,90.0*
1,1,0.12500,0.43750,0.06250*
1,1,0.12500,0.43750,-0.06250*
1,1,0.12500,-0.43750,-0.06250*
1,1,0.12500,-0.43750,0.06250*
%
%ADD23ROUNDEDRECTD23*%
G04:AMPARAMS|DCode=24|XSize=0.25mm|YSize=1mm|CornerRadius=0.0625mm|HoleSize=0mm|Usage=FLASHONLY|Rotation=0.000|XOffset=0mm|YOffset=0mm|HoleType=Round|Shape=RoundedRectangle|*
%AMROUNDEDRECTD24*
21,1,0.25000,0.87500,0,0,0.0*
21,1,0.12500,1.00000,0,0,0.0*
1,1,0.12500,0.06250,-0.43750*
1,1,0.12500,-0.06250,-0.43750*
1,1,0.12500,-0.06250,0.43750*
1,1,0.12500,0.06250,0.43750*
%
%ADD24ROUNDEDRECTD24*%
%ADD25R,5.20000X5.20000*%
%ADD26O,1.00000X0.25000*%
%ADD27R,1.45000X1.30000*%
%TA.AperFunction,TestPad*%
G04:AMPARAMS|DCode=28|XSize=1mm|YSize=1mm|CornerRadius=0.25mm|HoleSize=0mm|Usage=FLASHONLY|Rotation=90.000|XOffset=0mm|YOffset=0mm|HoleType=Round|Shape=RoundedRectangle|*
%AMROUNDEDRECTD28*
21,1,1.00000,0.50000,0,0,90.0*
21,1,0.50000,1.00000,0,0,90.0*
1,1,0.50000,0.25000,0.25000*
1,1,0.50000,0.25000,-0.25000*
1,1,0.50000,-0.25000,-0.25000*
1,1,0.50000,-0.25000,0.25000*
%
%ADD28ROUNDEDRECTD28*%
G04:AMPARAMS|DCode=29|XSize=1mm|YSize=1mm|CornerRadius=0.25mm|HoleSize=0mm|Usage=FLASHONLY|Rotation=0.000|XOffset=0mm|YOffset=0mm|HoleType=Round|Shape=RoundedRectangle|*
%AMROUNDEDRECTD29*
21,1,1.00000,0.50000,0,0,0.0*
21,1,0.50000,1.00000,0,0,0.0*
1,1,0.50000,0.25000,-0.25000*
1,1,0.50000,-0.25000,-0.25000*
1,1,0.50000,-0.25000,0.25000*
1,1,0.50000,0.25000,0.25000*
%
%ADD29ROUNDEDRECTD29*%
%TA.AperFunction,SMDPad,CuDef*%
%ADD30R,1.90500X0.95213*%
G04:AMPARAMS|DCode=31|XSize=1.905mm|YSize=0.95213mm|CornerRadius=0.47606mm|HoleSize=0mm|Usage=FLASHONLY|Rotation=180.000|XOffset=0mm|YOffset=0mm|HoleType=Round|Shape=RoundedRectangle|*
%AMROUNDEDRECTD31*
21,1,1.90500,0.00000,0,0,180.0*
21,1,0.95287,0.95213,0,0,180.0*
1,1,0.95213,-0.47644,0.00000*
1,1,0.95213,0.47644,0.00000*
1,1,0.95213,0.47644,0.00000*
1,1,0.95213,-0.47644,0.00000*
%
%ADD31ROUNDEDRECTD31*%
G04:AMPARAMS|DCode=32|XSize=1.60429mm|YSize=3.26213mm|CornerRadius=0.47327mm|HoleSize=0mm|Usage=FLASHONLY|Rotation=180.000|XOffset=0mm|YOffset=0mm|HoleType=Round|Shape=RoundedRectangle|*
%AMROUNDEDRECTD32*
21,1,1.60429,2.31560,0,0,180.0*
21,1,0.65776,3.26213,0,0,180.0*
1,1,0.94654,-0.32888,1.15780*
1,1,0.94654,0.32888,1.15780*
1,1,0.94654,0.32888,-1.15780*
1,1,0.94654,-0.32888,-1.15780*
%
%ADD32ROUNDEDRECTD32*%
%ADD33R,1.25490X1.45620*%
%ADD34R,1.15000X1.45000*%
%ADD35R,1.40000X0.60000*%
%ADD36R,1.40000X0.30000*%
%TA.AperFunction,Conductor*%
%ADD37C,0.30000*%
%ADD38C,0.20000*%
%ADD39C,1.00000*%
%ADD40C,0.50000*%
%ADD41C,0.25000*%
%ADD42C,0.49000*%
%TA.AperFunction,ComponentPad*%
%ADD43C,0.90000*%
%TA.AperFunction,ViaPad*%
%ADD44C,3.20000*%
%TA.AperFunction,ComponentPad*%
%ADD45O,1.80000X1.00000*%
%ADD46O,2.10000X1.00000*%
%ADD47C,0.65000*%
%TA.AperFunction,ViaPad*%
%ADD48C,0.80000*%
%ADD49C,0.50000*%
G36*
X1750000Y2490000D02*
X1550000D01*
X1540000Y2480000D01*
X1270000D01*
X1230000Y2440000D01*
X1080000D01*
Y2560000D01*
X1230000D01*
X1260000Y2590000D01*
X1750000D01*
Y2490000D01*
D02*
G37*
G36*
X3960000Y2370000D02*
X3970000Y2360000D01*
Y2200000D01*
X3850000D01*
Y2550000D01*
X3960000D01*
Y2370000D01*
D02*
G37*
G36*
X4140000Y1840000D02*
X4142500Y1838964D01*
Y1490000D01*
X4020000D01*
X4017500Y1487500D01*
X3990000Y1515000D01*
X3722500D01*
X3697500Y1490000D01*
X3581773D01*
X3567759Y1504270D01*
X3570000Y1627500D01*
X3690000D01*
X3710000Y1607500D01*
X3990000D01*
X4017500Y1635000D01*
Y1840000D01*
X4140000D01*
D02*
G37*
G36*
X2500000Y1410000D02*
X2380000D01*
X2350000Y1440000D01*
X2170000D01*
Y1560000D01*
X2350000D01*
X2380000Y1590000D01*
Y1750000D01*
X2500000D01*
Y1410000D01*
D02*
G37*
G36*
X4300000Y1450000D02*
X4290000Y1440000D01*
Y1296212D01*
X4289161Y1295541D01*
X4270000Y1288964D01*
X4244730Y1314234D01*
X4233153Y1321969D01*
X4219497Y1324686D01*
X4189500D01*
X4175844Y1321969D01*
X4164266Y1314234D01*
X4156531Y1302656D01*
X4153814Y1289000D01*
X4156531Y1275344D01*
X4164266Y1263766D01*
X4169903Y1260000D01*
X4163836Y1240000D01*
X4090000D01*
Y1340000D01*
X4150000Y1400000D01*
X4180000D01*
Y2110000D01*
X4300000D01*
Y1450000D01*
D02*
G37*
G36*
X3480000Y1692500D02*
X3532500Y1640000D01*
Y1280000D01*
X3527500Y1275000D01*
X3600000Y1202500D01*
Y890000D01*
X3405000D01*
Y1630000D01*
X3407500Y1632500D01*
X3365000Y1675000D01*
Y1807500D01*
X3480000D01*
Y1692500D01*
D02*
G37*
D10*
X2346000Y3738000D02*
D03*
X2600000D02*
D03*
X2854000D02*
D03*
X2346000Y4182000D02*
D03*
X2600000D02*
D03*
X2854000D02*
D03*
X2774000Y950000D02*
D03*
Y455000D02*
D03*
X2520000Y950000D02*
D03*
Y455000D02*
D03*
X2266000Y950000D02*
D03*
Y455000D02*
D03*
X2012000Y950000D02*
D03*
Y455000D02*
D03*
X1758000Y950000D02*
D03*
Y455000D02*
D03*
D11*
X875300Y1266100D02*
D03*
Y956100D02*
D03*
X725300D02*
D03*
Y1266100D02*
D03*
X445300Y1264100D02*
D03*
Y954100D02*
D03*
X295300D02*
D03*
Y1264100D02*
D03*
X870300Y662600D02*
D03*
Y352600D02*
D03*
X720300D02*
D03*
Y662600D02*
D03*
D12*
X168500Y1755000D02*
D03*
Y2485000D02*
D03*
X361500Y1755000D02*
D03*
Y2485000D02*
D03*
D13*
X440000Y2345000D02*
D03*
Y1895000D02*
D03*
Y2045000D02*
D03*
D14*
X2807500Y1772500D02*
D03*
Y1982500D02*
D03*
X1150000Y1752500D02*
D03*
Y1542500D02*
D03*
D15*
X1265000Y3685000D02*
D03*
Y3735000D02*
D03*
Y3785000D02*
D03*
Y3835000D02*
D03*
X1515000Y3685000D02*
D03*
Y3735000D02*
D03*
Y3785000D02*
D03*
Y3835000D02*
D03*
D16*
X1440000Y3860000D02*
D03*
X1390000D02*
D03*
X1340000D02*
D03*
Y3660000D02*
D03*
X1390000D02*
D03*
X1440000D02*
D03*
D17*
X1625000Y3262500D02*
D03*
X1805000D02*
D03*
X1280000Y3260000D02*
D03*
X1460000D02*
D03*
D18*
X940000Y1750000D02*
D03*
Y1570000D02*
D03*
X3870000Y1560000D02*
D03*
Y1740000D02*
D03*
X3500000Y2940000D02*
D03*
Y2760000D02*
D03*
X3500000Y3340000D02*
D03*
Y3520000D02*
D03*
X2997500Y1957500D02*
D03*
Y1777500D02*
D03*
X755000Y2372500D02*
D03*
Y2552500D02*
D03*
X1440000Y1930000D02*
D03*
Y2110000D02*
D03*
D19*
X1110000Y1955000D02*
D03*
X950000D02*
D03*
X3470000Y1560000D02*
D03*
X3630000D02*
D03*
X4240000Y1770000D02*
D03*
X4080000D02*
D03*
X4240000Y1560000D02*
D03*
X4080000D02*
D03*
X4069999Y2270000D02*
D03*
X3910000D02*
D03*
X1270000Y3460000D02*
D03*
X1110000D02*
D03*
X1470000Y4070000D02*
D03*
X1310000D02*
D03*
X452500Y735000D02*
D03*
X292500D02*
D03*
X2597700Y1680000D02*
D03*
X2437700D02*
D03*
X2597700Y1480000D02*
D03*
X2437700D02*
D03*
X1862500Y2812500D02*
D03*
X2022500D02*
D03*
D20*
X265000Y3845000D02*
D03*
X715000D02*
D03*
X265000Y2935000D02*
D03*
X715000D02*
D03*
D21*
X3633000Y1750000D02*
D03*
X3423000D02*
D03*
D22*
X1492500Y2535000D02*
D03*
Y2325000D02*
D03*
X1327500D02*
D03*
Y2535000D02*
D03*
D23*
X2605400Y2520000D02*
D03*
Y2470000D02*
D03*
Y2420000D02*
D03*
Y1970000D02*
D03*
Y2020000D02*
D03*
Y2070000D02*
D03*
Y2120000D02*
D03*
Y2170000D02*
D03*
Y2220000D02*
D03*
Y2270000D02*
D03*
Y2320000D02*
D03*
Y2370000D02*
D03*
X1900000Y1970000D02*
D03*
Y2020000D02*
D03*
Y2070000D02*
D03*
Y2120000D02*
D03*
Y2170000D02*
D03*
Y2220000D02*
D03*
Y2270000D02*
D03*
Y2320000D02*
D03*
Y2370000D02*
D03*
Y2420000D02*
D03*
Y2470000D02*
D03*
D24*
X2427700Y2597700D02*
D03*
X2227700D02*
D03*
X2277700D02*
D03*
X2327700D02*
D03*
X2377700D02*
D03*
X2477700D02*
D03*
X2527700D02*
D03*
X1977700D02*
D03*
X2027700D02*
D03*
X2077700D02*
D03*
X2127700D02*
D03*
X2177700D02*
D03*
X2527700Y1892300D02*
D03*
X2477700D02*
D03*
X2427700D02*
D03*
X2377700D02*
D03*
X2327700D02*
D03*
X2277700D02*
D03*
X2227700D02*
D03*
X2177700D02*
D03*
X2127700D02*
D03*
X2077700D02*
D03*
X2027700D02*
D03*
X1977700D02*
D03*
D25*
X2252700Y2245000D02*
D03*
D26*
X1900000Y2520000D02*
D03*
D27*
X1150000Y2500000D02*
D03*
Y2340000D02*
D03*
X1100000Y1102500D02*
D03*
Y1262500D02*
D03*
X1090000Y497500D02*
D03*
Y657500D02*
D03*
X2240000Y1660000D02*
D03*
Y1500000D02*
D03*
X1670000Y2550000D02*
D03*
Y2710000D02*
D03*
X1650000Y1940000D02*
D03*
Y2100000D02*
D03*
X2800000Y2700000D02*
D03*
Y2540000D02*
D03*
D28*
X1462500Y3452500D02*
D03*
X1805000Y3450000D02*
D03*
D29*
X1640000Y2310000D02*
D03*
D30*
X4189500Y831000D02*
D03*
D31*
Y1060000D02*
D03*
Y1289000D02*
D03*
D32*
X3510500Y1060000D02*
D03*
D33*
X4242565Y2040000D02*
D03*
X4077435D02*
D03*
D34*
X4077500Y2480000D02*
D03*
X3902500D02*
D03*
D35*
X3704100Y3370000D02*
D03*
Y2810000D02*
D03*
Y2890000D02*
D03*
Y3450000D02*
D03*
D36*
Y2955000D02*
D03*
Y3005000D02*
D03*
Y3055000D02*
D03*
Y3305000D02*
D03*
Y3155000D02*
D03*
Y3205000D02*
D03*
Y3255000D02*
D03*
Y3105000D02*
D03*
D37*
X2182000Y3738000D02*
X2346000D01*
X2854000Y4182000D02*
Y4271500D01*
X2902500Y4320000D01*
X3010000D01*
X1160000Y1752500D02*
X1257500D01*
X1150000D02*
X1160000D01*
X1320433Y1629567D02*
Y1689567D01*
Y1629567D02*
X1330000Y1620000D01*
X1257500Y1752500D02*
X1320433Y1689567D01*
X365000Y1860000D02*
X400000Y1895000D01*
X460000D01*
X143530Y1890000D02*
X173530Y1860000D01*
X365000D01*
X130000Y1890000D02*
X143530D01*
X2230000Y1510000D02*
X2240000Y1500000D01*
X2090000Y1510000D02*
X2230000D01*
X4249621Y1228879D02*
X4440000Y1038500D01*
X4287500Y520000D02*
X4440000Y672500D01*
Y1038500D01*
X4240000Y630000D02*
X4352500Y742500D01*
Y939856D01*
X3997500Y520000D02*
X4287500D01*
X3837500Y360000D02*
X3997500Y520000D01*
X292500Y735000D02*
X300000Y727500D01*
Y580000D02*
Y727500D01*
X1092500Y2550000D02*
X1142500Y2500000D01*
X1092500Y2550000D02*
Y2557500D01*
X1090000Y2560000D02*
Y2640000D01*
X1142500Y2500000D02*
X1150000D01*
X1090000Y2560000D02*
X1092500Y2557500D01*
X1670000Y2710000D02*
X1670000Y2710000D01*
X1530000Y2710000D02*
X1670000D01*
X449400Y1260000D02*
X560000D01*
X440000Y2045000D02*
X677500D01*
X892500Y1897500D02*
X900000D01*
X890000Y1895000D02*
X892500Y1897500D01*
X460000Y1895000D02*
X890000D01*
X2997500Y1957500D02*
X3015000Y1940000D01*
X3130000D01*
X2830000Y2570000D02*
X2930000D01*
X2800000Y2540000D02*
X2830000Y2570000D01*
X830000Y1980000D02*
X925000D01*
X950000Y1955000D01*
X1213970Y1212500D02*
X1246470Y1180000D01*
X1096400Y1266100D02*
X1150000Y1212500D01*
X1213970D01*
X1246470Y1180000D02*
X1260000D01*
X449400Y1260000D02*
X470301Y1239100D01*
X445300Y1264100D02*
X449400Y1260000D01*
X1084900Y662600D02*
X1090000Y667700D01*
Y780000D01*
X875300Y1266100D02*
X1096400D01*
X821250Y1141250D02*
X870000Y1190000D01*
Y1260800D02*
X875300Y1266100D01*
X870000Y1190000D02*
Y1260800D01*
X531250Y1141250D02*
X821250D01*
X1160000Y1752500D02*
X1237501Y1830001D01*
Y1867501D01*
X1110000Y3330000D02*
Y3460000D01*
X1310000Y4070000D02*
Y4200000D01*
X580000Y2930000D02*
X710000D01*
X715000Y2935000D01*
X3500000Y3520000D02*
X3500000Y3520000D01*
Y3630000D01*
X3837067Y2560433D02*
X3902500Y2495000D01*
X3789567Y2560433D02*
X3837067D01*
X3780000Y2570000D02*
X3789567Y2560433D01*
X3790000Y2270000D02*
X3909999D01*
X3910000Y2270000D01*
X3810000Y2080000D02*
X3910000D01*
X3500000Y2660000D02*
Y2760000D01*
X3902500Y2480000D02*
Y2495000D01*
X4030000Y1440000D02*
Y1510001D01*
X4080000Y1560000D01*
X3630000Y1440000D02*
Y1560000D01*
X3845000Y845000D02*
X3911250Y911250D01*
X3760000Y840000D02*
X3765000Y845000D01*
X3845000D01*
X2110000Y3810000D02*
X2182000Y3738000D01*
X2110000Y3810000D02*
Y4340000D01*
X2200000Y4430000D01*
X2690000D01*
X2750000Y4370000D01*
Y3410000D02*
Y4370000D01*
Y3410000D02*
X2800000Y3360000D01*
Y2700000D02*
Y3360000D01*
X2742500Y2487574D02*
Y2490000D01*
X2724926Y2470000D02*
X2742500Y2487574D01*
X2792500Y2540000D02*
X2800000D01*
X2742500Y2490000D02*
X2792500Y2540000D01*
X2700000Y2470000D02*
X2724926D01*
X460000Y1895000D02*
X480000Y1875000D01*
Y1510000D02*
Y1875000D01*
X677500Y2045000D02*
X1015000Y2382500D01*
X1125000Y2475000D02*
X1150000Y2500000D01*
X1037500Y2475000D02*
X1125000D01*
X1015000Y2452500D02*
X1037500Y2475000D01*
X1015000Y2382500D02*
Y2452500D01*
X950000Y1947500D02*
Y1955000D01*
X900000Y1897500D02*
X950000Y1947500D01*
X392500Y1422500D02*
X480000Y1510000D01*
X390000Y1422500D02*
X392500D01*
X950000Y2147500D02*
X1142500Y2340000D01*
X1150000D01*
X1312500D01*
X1085503Y1792500D02*
X1110000D01*
X950000Y1955000D02*
X1000000Y1905000D01*
Y1878003D02*
Y1905000D01*
Y1878003D02*
X1085503Y1792500D01*
X1110000D02*
X1150000Y1752500D01*
X950000Y1955000D02*
Y2147500D01*
X531250Y1141250D02*
X627500Y1045000D01*
X470301Y1202200D02*
X531250Y1141250D01*
X1680000Y2870000D02*
X1744800Y2934800D01*
X1955200D01*
X2000000Y2890000D01*
Y2835000D02*
X2029234Y2805766D01*
X2000000Y2835000D02*
Y2890000D01*
X1680000Y2720000D02*
Y2870000D01*
X1670000Y2710000D02*
X1680000Y2720000D01*
X1910000Y2730000D02*
Y2765000D01*
X1862500Y2812500D02*
X1910000Y2765000D01*
Y2730000D02*
X1940000Y2700000D01*
X2029234Y2679234D02*
Y2805766D01*
X1700000Y2520000D02*
X1810000D01*
X1670000Y2550000D02*
X1700000Y2520000D01*
X3701600Y2812500D02*
X3704100Y2810000D01*
X3500000Y2760000D02*
X3517500D01*
X3570000Y2812500D01*
X3701600D01*
X3632500Y2602500D02*
X3755000Y2480000D01*
X3902500D01*
X3649100Y2795000D02*
X3664100Y2810000D01*
X3632500Y2719209D02*
X3649100Y2735808D01*
X3664100Y2810000D02*
X3704100D01*
X3649100Y2735808D02*
Y2795000D01*
X3632500Y2602500D02*
Y2719209D01*
X3612500Y3005000D02*
X3704100D01*
X3582500Y2975000D02*
X3612500Y3005000D01*
X3500000Y2940000D02*
X3535000Y2975000D01*
X3582500D01*
X3704099Y3450000D02*
X3704100Y3450000D01*
X3500000Y3520000D02*
X3517500D01*
X3587500Y3450000D01*
X3704099D01*
X1090000Y497500D02*
X1132500Y455000D01*
X1285000D01*
X1325000Y335000D02*
Y415000D01*
X1285000Y455000D02*
X1325000Y415000D01*
X4219497Y1289000D02*
X4249621Y1258875D01*
Y1228879D02*
Y1258875D01*
X4189500Y1289000D02*
X4219497D01*
X4232356Y1060000D02*
X4352500Y939856D01*
X940000Y1570000D02*
X952500Y1582500D01*
X1110000D01*
X1150000Y1542500D01*
X1237501Y1867501D02*
X1305000Y1935000D01*
Y1960000D01*
X627500Y587500D02*
Y1045000D01*
X470301Y1202200D02*
Y1239100D01*
X445300Y1264100D02*
Y1367200D01*
X870300Y642600D02*
Y662600D01*
X757700Y530000D02*
X870300Y642600D01*
X685000Y530000D02*
X757700D01*
X627500Y587500D02*
X685000Y530000D01*
X390000Y1422500D02*
X445300Y1367200D01*
X177500Y1422500D02*
X390000D01*
X125000Y1370000D02*
X177500Y1422500D01*
X125000Y805000D02*
Y1370000D01*
Y805000D02*
X185064Y744936D01*
X195000Y735000D01*
X292500D01*
X870300Y662600D02*
X1084900D01*
X3859999Y1750000D02*
X3870000Y1740000D01*
X3633000Y1750000D02*
X3859999D01*
X2750000Y2650000D02*
X2800000Y2700000D01*
X2660000Y2590000D02*
X2720000Y2650000D01*
X2750000D01*
X1563003Y2040000D02*
X1573002Y2050000D01*
X1600000D01*
X1650000Y2100000D01*
D38*
X2600000Y3000000D02*
Y3738000D01*
X2854000Y3145000D02*
Y3738000D01*
X2346000Y4061500D02*
X2470000Y3937500D01*
Y2950000D02*
Y3937500D01*
X2700000Y3000000D02*
Y3961500D01*
X2527700Y2597700D02*
Y2827700D01*
X2700000Y3000000D01*
X2346000Y4061500D02*
Y4182000D01*
X2600000Y4061500D02*
X2700000Y3961500D01*
X2600000Y4061500D02*
Y4182000D01*
X2377700Y2857700D02*
X2470000Y2950000D01*
X2377700Y2597700D02*
Y2857700D01*
X2854000Y3145000D02*
X3010000Y2989000D01*
Y2550000D02*
Y2989000D01*
X2898379Y2438379D02*
X3010000Y2550000D01*
X2746621Y2438379D02*
X2898379D01*
X2740542Y2432300D02*
X2746621Y2438379D01*
X2704895Y2432300D02*
X2740542D01*
X2692595Y2420000D02*
X2704895Y2432300D01*
X2605400Y2420000D02*
X2692595D01*
X2427700Y2827700D02*
X2600000Y3000000D01*
X2427700Y2597700D02*
Y2827700D01*
X3846500Y3343500D02*
X3930000Y3260000D01*
X3805227Y3343500D02*
X3846500D01*
X3930000Y3012500D02*
Y3260000D01*
X3798727Y3350000D02*
X3805227Y3343500D01*
X3724100Y3350000D02*
X3798727D01*
X3870000Y2952500D02*
X3930000Y3012500D01*
X3838726Y2950000D02*
X3867500D01*
X3798727Y2910000D02*
X3838726Y2950000D01*
X4069999Y2270000D02*
X4077435Y2262565D01*
X4069999Y2270000D02*
X4077500Y2277500D01*
X726716Y2304216D02*
Y2344216D01*
X507500Y2227500D02*
X650000D01*
X726716Y2344216D02*
X755000Y2372500D01*
X650000Y2227500D02*
X726716Y2304216D01*
X2605400Y2170000D02*
X3205000D01*
X859200Y1420000D02*
X1350000D01*
X725300Y1286100D02*
X859200Y1420000D01*
X875000Y845000D02*
Y955800D01*
X875300Y956100D01*
X725300Y976100D02*
X851700Y1102500D01*
X1100000D01*
X725300Y1266100D02*
Y1286100D01*
Y956100D02*
Y976100D01*
X835000Y805000D02*
X875000Y845000D01*
X760000Y805000D02*
X835000D01*
X720300Y765300D02*
X760000Y805000D01*
X720300Y662600D02*
Y765300D01*
X1577500Y2410000D02*
X1670000D01*
X1757500Y2322500D01*
X1708858Y2279260D02*
X1718117Y2270000D01*
X1670740Y2279260D02*
X1708858D01*
X1640000Y2310000D02*
X1670740Y2279260D01*
X1718117Y2270000D02*
X1900000D01*
X1757500Y2322500D02*
X1897500D01*
X2027700Y2470000D02*
Y2597700D01*
Y2470000D02*
X2032700Y2465000D01*
X1900000Y2170000D02*
X2002700D01*
X2032700Y2140000D01*
Y2135000D02*
Y2140000D01*
X1900000Y2520000D02*
X1960000D01*
X1975200Y2535200D02*
Y2595200D01*
X1977700Y2597700D01*
X1960000Y2520000D02*
X1975200Y2535200D01*
X1924500Y3738000D02*
X2182000D01*
X2280000Y3300000D02*
X2420000Y3160000D01*
X2330000Y2880000D02*
X2420000Y2970000D01*
Y3160000D01*
X2330000Y2600000D02*
Y2880000D01*
X2230200Y2637700D02*
X2235200Y2642700D01*
X2205000Y2702511D02*
Y2955000D01*
X2235200Y2656465D02*
X2245000Y2666265D01*
X2230200Y2600200D02*
Y2637700D01*
X2245000Y2666265D02*
Y3210000D01*
X2177700Y2675211D02*
X2205000Y2702511D01*
X2235200Y2642700D02*
Y2656465D01*
X2277700Y2597700D02*
Y2960000D01*
X2227700Y2597700D02*
X2230200Y2600200D01*
X2327700Y2597700D02*
X2330000Y2600000D01*
X2050000Y3300000D02*
X2280000D01*
X1805000Y3262500D02*
X2192500D01*
X2245000Y3210000D01*
X1940000Y3410000D02*
X2050000Y3300000D01*
X1940000Y3410000D02*
Y3510000D01*
X1860000Y3590000D02*
X1940000Y3510000D01*
X1580000Y3590000D02*
X1860000D01*
X1520000Y3650000D02*
X1580000Y3590000D01*
X1515000Y3685000D02*
X1517500D01*
X1520000Y3682500D01*
Y3650000D02*
Y3682500D01*
X1190000Y3990000D02*
Y4210000D01*
X1250000Y4270000D02*
X1430000D01*
X1190000Y4210000D02*
X1250000Y4270000D01*
X1430000D02*
X1500000Y4200000D01*
X1265000Y3835000D02*
Y3915000D01*
X1190000Y3990000D02*
X1265000Y3915000D01*
X1470000Y4070000D02*
X1500000Y4100000D01*
Y4200000D01*
X455000Y2280000D02*
X507500Y2227500D01*
X440000Y2345000D02*
X455000Y2330000D01*
Y2280000D02*
Y2330000D01*
X1110000Y1955000D02*
Y2100000D01*
X265000Y2935000D02*
X270000Y2930000D01*
Y2730000D02*
Y2930000D01*
X750000Y2557500D02*
X755000Y2552500D01*
X750000Y2557500D02*
Y2690000D01*
X1102500Y2987500D02*
X1172500D01*
X1100000Y2990000D02*
X1102500Y2987500D01*
X2730000Y2100000D02*
X3120000D01*
X3130000Y2090000D01*
X3205000Y2170000D02*
X3225000Y2150000D01*
X2690000Y2252500D02*
X3257500D01*
X2687500Y2212500D02*
X3235000D01*
X2605400Y2470000D02*
X2700000D01*
X2700000Y2070000D02*
X2730000Y2100000D01*
X2605400Y2070000D02*
X2700000D01*
X3305000Y1601500D02*
Y2205000D01*
X2774000Y1070500D02*
X3305000Y1601500D01*
X1440000Y3795000D02*
Y3860000D01*
X1402500Y3757500D02*
X1440000Y3795000D01*
X1380000Y3757500D02*
X1402500D01*
X1340000Y3717500D02*
X1380000Y3757500D01*
X1340000Y3660000D02*
Y3717500D01*
X1592500Y4070000D02*
X1924500Y3738000D01*
X1470000Y4070000D02*
X1592500D01*
X1440000Y4040000D02*
X1470000Y4070000D01*
X1440000Y3860000D02*
Y4040000D01*
X1390000Y3605000D02*
Y3660000D01*
X1440000Y3642500D02*
X1547500Y3535000D01*
X1440000Y3642500D02*
Y3660000D01*
X1270000Y3572500D02*
X1340000Y3642500D01*
Y3660000D01*
X1515000Y3835000D02*
X1670000D01*
X1515000Y3835000D02*
X1515000Y3835000D01*
X987500Y3785000D02*
X1265000D01*
X925000Y3722500D02*
X987500Y3785000D01*
X925000Y2945000D02*
Y3722500D01*
Y2945000D02*
X1032500Y2837500D01*
X1572500D01*
X1720000Y2985000D01*
X2052500D01*
X2130000Y2907500D01*
Y2720000D02*
Y2907500D01*
X2077700Y2667700D02*
X2130000Y2720000D01*
X2077700Y2597700D02*
Y2667700D01*
X1670000Y3835000D02*
X1670000Y3835000D01*
X1270000Y3460000D02*
Y3572500D01*
X1547500Y3535000D02*
X1720000D01*
X1805000Y3450000D01*
X1390000Y3605000D02*
X1462500Y3532500D01*
Y3452500D02*
Y3532500D01*
X970716Y3646953D02*
X1008764Y3685000D01*
X962500Y3646953D02*
X970716D01*
X1008764Y3685000D02*
X1025000D01*
X962500Y2967500D02*
Y3646953D01*
X2167500Y2711255D02*
Y2932500D01*
X2127700Y2671455D02*
X2167500Y2711255D01*
X2075000Y3025000D02*
X2167500Y2932500D01*
X2097500Y3062500D02*
X2205000Y2955000D01*
X2320000Y3002300D02*
Y3099600D01*
X2277700Y2960000D02*
X2320000Y3002300D01*
Y3099600D02*
X2320400Y3100000D01*
X1547500Y2882500D02*
X1690000Y3025000D01*
X2075000D01*
X1657500Y3062500D02*
X2097500D01*
X1542500Y2947500D02*
X1657500Y3062500D01*
X1047500Y2882500D02*
X1547500D01*
X1212500Y2947500D02*
X1542500D01*
X1590000Y3227500D02*
X1625000Y3262500D01*
X1590000Y3057500D02*
Y3227500D01*
X1542500Y3010000D02*
X1590000Y3057500D01*
X1355000Y3010000D02*
X1542500D01*
X1172500Y2987500D02*
X1212500Y2947500D01*
X2177700Y2597700D02*
Y2675211D01*
X962500Y2967500D02*
X1047500Y2882500D01*
X2127700Y2597700D02*
Y2671455D01*
X1460000Y3105000D02*
Y3260000D01*
X1280000Y3085000D02*
X1355000Y3010000D01*
X1280000Y3085000D02*
Y3260000D01*
X1270000Y3270000D02*
X1280000Y3260000D01*
X1270000Y3270000D02*
Y3460000D01*
X1805000Y3262500D02*
Y3450000D01*
X1462500Y3262500D02*
Y3452500D01*
X1460000Y3260000D02*
X1462500Y3262500D01*
X3704100Y2890000D02*
X3724100Y2910000D01*
X3798727D01*
X3704100Y3370000D02*
X3724100Y3350000D01*
X1905321Y381716D02*
Y597605D01*
X1917037Y370000D02*
X1958500D01*
X2012000Y423500D01*
X1905321Y381716D02*
X1917037Y370000D01*
X2012000Y423500D02*
Y455000D01*
X1435000Y500000D02*
X1575000Y360000D01*
X1435000Y500000D02*
Y1440000D01*
X1575000Y360000D02*
X1704500D01*
X1758000Y413500D01*
Y455000D01*
X1435000Y1440000D02*
X1785000Y1790000D01*
X1331250Y2070000D02*
X1400000D01*
X1110000Y1955000D02*
X1216251D01*
X1331250Y2070000D01*
X1400000D02*
X1440000Y2110000D01*
X1152500Y977500D02*
Y1050000D01*
X1100000Y1102500D02*
X1152500Y1050000D01*
Y977500D02*
X1240000Y890000D01*
Y542500D02*
Y890000D01*
X1090000Y497500D02*
X1195000D01*
X1240000Y542500D01*
X567500Y575000D02*
Y1007500D01*
Y575000D02*
X665000Y477500D01*
X480000Y1095000D02*
X567500Y1007500D01*
X342500Y1095000D02*
X480000D01*
X295000Y1263799D02*
X295300Y1264100D01*
X295000Y1142500D02*
Y1263799D01*
Y1142500D02*
X342500Y1095000D01*
X825000Y477500D02*
X870300Y432200D01*
X665000Y477500D02*
X825000D01*
X870300Y352600D02*
Y432200D01*
X1027500Y225000D02*
X1090000Y287500D01*
Y497500D01*
X752500Y225000D02*
X1027500D01*
X720300Y257200D02*
X752500Y225000D01*
X720300Y257200D02*
Y352600D01*
X592500Y362500D02*
X710400D01*
X720300Y352600D01*
X507500Y447500D02*
X592500Y362500D01*
X507500Y447500D02*
Y680000D01*
X452500Y735000D02*
X507500Y680000D01*
X295300Y934100D02*
X397500Y831901D01*
X295300Y934100D02*
Y954100D01*
X397500Y790000D02*
X452500Y735000D01*
X397500Y790000D02*
Y831901D01*
X2354250Y680750D02*
X2406000Y629000D01*
X2466500D01*
X2166750Y680750D02*
X2354250D01*
X2192500Y720000D02*
X2544926D01*
X2157500Y755000D02*
Y1165000D01*
Y755000D02*
X2192500Y720000D01*
X2544926D02*
X2635926Y629000D01*
X1957500Y1365000D02*
X2157500Y1165000D01*
X1957500Y1365000D02*
Y1571050D01*
X2177700Y1791250D01*
X2720500Y629000D02*
X2774000Y575500D01*
X2635926Y629000D02*
X2720500D01*
X2774000Y455000D02*
Y575500D01*
X2382500Y1237500D02*
X2807500D01*
X2319500Y1174500D02*
X2382500Y1237500D01*
X2266000Y950000D02*
X2319500Y1003500D01*
Y1174500D01*
X2177700Y1791250D02*
Y1892300D01*
X2127700Y1797700D02*
Y1892300D01*
X1905000Y1575000D02*
X2127700Y1797700D01*
X2077700Y1807700D02*
Y1892300D01*
X1645000Y1375000D02*
X2077700Y1807700D01*
X2520000Y455000D02*
Y575500D01*
X2466500Y629000D02*
X2520000Y575500D01*
X2115000Y732500D02*
X2166750Y680750D01*
X2115000Y732500D02*
Y1147500D01*
X1905000Y1357500D02*
X2115000Y1147500D01*
X1905000Y1357500D02*
Y1575000D01*
X1862700Y1210000D02*
X2012000Y1060700D01*
X1700000Y1210000D02*
X1862700D01*
X2012000Y950000D02*
Y1060700D01*
X1645000Y1265000D02*
X1700000Y1210000D01*
X1645000Y1265000D02*
Y1375000D01*
X1560000Y1148000D02*
Y1357500D01*
X2027700Y1825200D01*
X1560000Y1148000D02*
X1758000Y950000D01*
X2027700Y1825200D02*
Y1892300D01*
X1975618Y1833117D02*
Y1890218D01*
X1512500Y740000D02*
Y1370000D01*
X1975618Y1833117D01*
Y1890218D02*
X1977700Y1892300D01*
X1472500Y680716D02*
Y1415000D01*
X1827500Y1770000D02*
Y1947500D01*
X1472500Y1415000D02*
X1827500Y1770000D01*
X1785000Y1790000D02*
Y1965000D01*
X1512500Y740000D02*
X1545000Y707500D01*
X2049426D01*
X2127926Y629000D01*
X2212500D01*
X2266000Y455000D02*
Y575500D01*
X2212500Y629000D02*
X2266000Y575500D01*
X1833926Y669000D02*
X1905321Y597605D01*
X1484216Y669000D02*
X1833926D01*
X1472500Y680716D02*
X1484216Y669000D01*
X1837500Y2017500D02*
X1897500D01*
X1900000Y2020000D01*
X1785000Y1965000D02*
X1837500Y2017500D01*
X1847500Y1967500D02*
X1897500D01*
X1827500Y1947500D02*
X1847500Y1967500D01*
X1897500D02*
X1900000Y1970000D01*
X3225000Y1655000D02*
Y2150000D01*
X2807500Y1237500D02*
X3225000Y1655000D01*
X2520000Y950000D02*
X2570784Y1000784D01*
Y1180784D01*
X2582500Y1192500D01*
X2837500D01*
X3265000Y1620000D02*
Y2182500D01*
X2837500Y1192500D02*
X3265000Y1620000D01*
X3235000Y2212500D02*
X3265000Y2182500D01*
X2680000Y2220000D02*
X2687500Y2212500D01*
X2605400Y2220000D02*
X2680000D01*
X2675000Y2267500D02*
X2690000Y2252500D01*
X2607900Y2267500D02*
X2675000D01*
X2605400Y2270000D02*
X2607900Y2267500D01*
X2774000Y950000D02*
Y1070500D01*
X3257500Y2252500D02*
X3305000Y2205000D01*
X2607900Y2522500D02*
X2648284D01*
X2660000Y2534216D02*
Y2590000D01*
X2648284Y2522500D02*
X2660000Y2534216D01*
X2605400Y2520000D02*
X2607900Y2522500D01*
X1538003Y2015000D02*
X1563003Y2040000D01*
X1305000Y1960000D02*
Y1961997D01*
X1358003Y2015000D01*
X1538003D01*
X1312500Y2340000D02*
X1327500Y2325000D01*
X1450000Y1940000D02*
X1650000D01*
X1440000Y1930000D02*
X1450000Y1940000D01*
X1705000Y1995000D02*
X1745000D01*
X1770000Y2020000D01*
X1650000Y1940000D02*
X1705000Y1995000D01*
X1770000Y2020000D02*
Y2090000D01*
X1800000Y2120000D01*
X1900000D01*
X1650000Y2100000D02*
X1705000Y2155000D01*
X1745000D01*
X1760000Y2170000D01*
X1900000D01*
X1897500Y2322500D02*
X1900000Y2320000D01*
X1492500Y2325000D02*
X1577500Y2410000D01*
X1457500Y2110000D02*
X1507500Y2160000D01*
X1570000Y2220000D02*
X1900000D01*
X1507500Y2160000D02*
X1510000D01*
X1570000Y2220000D01*
X1440000Y2110000D02*
X1457500D01*
X2027700Y2677700D02*
X2029234Y2679234D01*
X2027700Y2597700D02*
Y2677700D01*
X1940000Y2672900D02*
X1975200Y2637700D01*
X1940000Y2672900D02*
Y2700000D01*
X1975200Y2600200D02*
X1977700Y2597700D01*
X1975200Y2600200D02*
Y2637700D01*
D39*
X3625000Y630000D02*
X4240000D01*
X3510500Y744500D02*
X3625000Y630000D01*
X3910000Y2080000D02*
Y2270000D01*
Y1940000D02*
Y2080000D01*
X3911250Y911250D02*
X3991500Y831000D01*
X3870000Y952500D02*
X3911250Y911250D01*
X4057500Y1792500D02*
X4065000D01*
X4080000Y1777500D01*
Y1770000D02*
Y1777500D01*
X3910000Y1940000D02*
X4057500Y1792500D01*
X1422500Y115000D02*
X3592500D01*
X3837500Y360000D01*
X1325000Y212500D02*
X1422500Y115000D01*
X1325000Y212500D02*
Y335000D01*
X3991500Y831000D02*
X4189500D01*
X3510500Y744500D02*
Y1060000D01*
X3870000Y952500D02*
Y1560000D01*
X4189500Y1060000D02*
X4232356D01*
D40*
X3870000Y2952500D02*
X3940000D01*
X4050000Y2842500D01*
Y2507500D02*
X4077500Y2480000D01*
X4050000Y2507500D02*
Y2842500D01*
X4077500Y2277500D02*
Y2480000D01*
X4077435Y2040000D02*
Y2262565D01*
X1440000Y1810000D02*
Y1930000D01*
X2597700Y1480000D02*
X2740000D01*
X3353240Y1435740D02*
X3502443Y1584943D01*
X3300000Y1430000D02*
X3305740Y1435740D01*
X3502443Y1584943D02*
Y1592443D01*
X3305740Y1435740D02*
X3353240D01*
X3470000Y1552500D02*
Y1560000D01*
D41*
X770000Y1740000D02*
X930000D01*
X940000Y1750000D01*
X1839601Y2470000D02*
X1900000D01*
X1789601Y2420000D02*
X1839601Y2470000D01*
X1780000Y2420000D02*
X1789601D01*
X2477700Y1892300D02*
Y2020000D01*
X2472700Y2025000D02*
X2477700Y2020000D01*
X2810000Y1805000D02*
X2995000D01*
X3000000Y1810000D01*
X2605400Y2020000D02*
X2805000D01*
X2810000Y2015000D01*
X2665701Y2325500D02*
X2703846D01*
X2665701Y2364500D02*
X2703846D01*
X2605400Y2320000D02*
X2660201D01*
X2703846Y2364500D02*
X2715846Y2376500D01*
X2605400Y2370000D02*
X2660201D01*
X2665701Y2364500D01*
X2703846Y2325500D02*
X2715846Y2313500D01*
X2660201Y2320000D02*
X2665701Y2325500D01*
X1340000Y3860000D02*
X1390000D01*
X1310000Y3930000D02*
X1340000Y3900000D01*
Y3860000D02*
Y3900000D01*
X1310000Y3930000D02*
Y4070000D01*
X3535000Y3305000D02*
X3704100D01*
X3500000Y3340000D02*
X3535000Y3305000D01*
X3580993Y3142145D02*
Y3162855D01*
X3620638Y3202501D01*
X3580993Y3142145D02*
X3620638Y3102500D01*
X3620638Y3202501D02*
X3701600D01*
X3704100Y3205000D01*
Y3055000D02*
X3706600Y3057500D01*
X3795000D01*
X3827500Y3090000D01*
X3706600Y3152500D02*
X3787562D01*
X3827500Y3112562D01*
Y3090000D02*
Y3112562D01*
X3704100Y3155000D02*
X3706600Y3152500D01*
X1810000Y2520000D02*
X1900000D01*
X2597700Y1480000D02*
Y1680000D01*
X2597700Y1480000D02*
X2597700Y1480000D01*
X2400000Y1790000D02*
X2427700Y1817700D01*
Y1892300D01*
X2330000Y1790000D02*
X2400000D01*
X2300000Y1760000D02*
X2330000Y1790000D01*
X2300000Y1712500D02*
Y1760000D01*
X2240000Y1660000D02*
X2247500D01*
X2300000Y1712500D01*
X2477700Y1750000D02*
Y1892300D01*
X2437700Y1710000D02*
X2477700Y1750000D01*
X2545200Y1762500D02*
X2597700Y1710000D01*
X2545200Y1762500D02*
Y1814800D01*
X2527700Y1832300D02*
X2545200Y1814800D01*
X2527700Y1832300D02*
Y1892300D01*
X3701600Y3057500D02*
X3704100Y3055000D01*
X3641599Y3057500D02*
X3641600Y3057500D01*
X3616138Y3062000D02*
X3620638Y3057500D01*
X3562000Y3101000D02*
X3619138D01*
X3620638Y3102500D02*
X3641599D01*
X3550000Y3050000D02*
X3562000Y3062000D01*
X3641599Y3102500D02*
X3641600Y3102501D01*
X3620638Y3057500D02*
X3641599D01*
X3550000Y3113000D02*
X3562000Y3101000D01*
X3619138D02*
X3620638Y3102500D01*
X3641600Y3102501D02*
X3701600D01*
X3641600Y3057500D02*
X3701600D01*
Y3102501D02*
X3704100Y3105000D01*
X3562000Y3062000D02*
X3616138D01*
D42*
X2715846Y2313500D02*
X3052596D01*
X2715846Y2376500D02*
X3026500D01*
X3183000Y2443905D02*
Y2953000D01*
X3120000Y2470000D02*
Y2979096D01*
X3253905Y3113000D01*
X3550000D01*
X3280000Y3050000D02*
X3550000D01*
X3183000Y2953000D02*
X3280000Y3050000D01*
X3026500Y2376500D02*
X3120000Y2470000D01*
X3052596Y2313500D02*
X3183000Y2443905D01*
D43*
X265000Y1970000D02*
D03*
Y2270000D02*
D03*
D44*
X4200000Y300000D02*
D03*
X300000D02*
D03*
X4200000Y4200000D02*
D03*
X300000D02*
D03*
D45*
X4204500Y3562000D02*
D03*
Y2698000D02*
D03*
D46*
X3786500Y3562000D02*
D03*
Y2698000D02*
D03*
D47*
X3836500Y2841000D02*
D03*
Y3419000D02*
D03*
D48*
X1330000Y1620000D02*
D03*
X130000Y1890000D02*
D03*
X2090000Y1510000D02*
D03*
X630000Y1610000D02*
D03*
X300000Y580000D02*
D03*
X1090000Y2640000D02*
D03*
X1280000Y3085000D02*
D03*
X560000Y1260000D02*
D03*
X580000Y2040000D02*
D03*
X2930000Y2570000D02*
D03*
X3130000Y1940000D02*
D03*
X830000Y1980000D02*
D03*
X1260000Y1180000D02*
D03*
X1090000Y780000D02*
D03*
X1350000Y1420000D02*
D03*
X1440000Y1810000D02*
D03*
X770000Y1740000D02*
D03*
X1780000Y2420000D02*
D03*
X1530000Y2710000D02*
D03*
X1310000Y4200000D02*
D03*
X1110000Y3330000D02*
D03*
X580000Y2930000D02*
D03*
X3780000Y2570000D02*
D03*
X3790000Y2270000D02*
D03*
X3810000Y2080000D02*
D03*
X3760000Y840000D02*
D03*
X3630000Y1440000D02*
D03*
X4030000D02*
D03*
X3500000Y2660000D02*
D03*
Y3630000D02*
D03*
X3010000Y4320000D02*
D03*
X1110000Y2100000D02*
D03*
X270000Y2730000D02*
D03*
X750000Y2690000D02*
D03*
X1100000Y2990000D02*
D03*
X3130000Y2090000D02*
D03*
X2740000Y1480000D02*
D03*
X3300000Y1430000D02*
D03*
X1670000Y3835000D02*
D03*
X1025000Y3685000D02*
D03*
X2320400Y3100000D02*
D03*
X1460000Y3105000D02*
D03*
D49*
X2472700Y2025000D02*
D03*
X2362700D02*
D03*
X2252700D02*
D03*
X2142700D02*
D03*
X2032700D02*
D03*
X2472700Y2135000D02*
D03*
X2362700D02*
D03*
X2252700D02*
D03*
X2142700D02*
D03*
X2032700D02*
D03*
X2472700Y2245000D02*
D03*
X2362700D02*
D03*
X2252700D02*
D03*
X2142700D02*
D03*
X2032700D02*
D03*
X2472700Y2355000D02*
D03*
X2362700D02*
D03*
X2252700D02*
D03*
X2142700D02*
D03*
X2032700D02*
D03*
X2472700Y2465000D02*
D03*
X2362700D02*
D03*
X2252700D02*
D03*
X2142700D02*
D03*
X2032700D02*
D03*
%TF.MD5,713ccff2c034daf746fe6e5decb0df14*%
M02*
