%TF.GenerationSoftware,Altium Limited,Altium Designer,24.6.1 (21)*%
G04 Layer_Physical_Order=2*
G04 Layer_Color=16711680*
%FSLAX45Y45*%
%MOMM*%
%TF.SameCoordinates,6A5B3439-CA9B-47F1-B443-B48DB32901A5*%
%TF.FilePolarity,Positive*%
%TF.FileFunction,Copper,L2,Bot,Signal*%
%TF.Part,Single*%
G01*
G75*
%TA.AperFunction,Conductor*%
%ADD35C,0.30000*%
%ADD36C,0.20000*%
%ADD37C,0.25000*%
%ADD38C,0.50000*%
%TA.AperFunction,ComponentPad*%
%ADD41C,0.90000*%
%TA.AperFunction,ViaPad*%
%ADD42C,3.20000*%
%TA.AperFunction,ComponentPad*%
%ADD43O,1.80000X1.00000*%
%ADD44O,2.10000X1.00000*%
%ADD45C,0.65000*%
%TA.AperFunction,ViaPad*%
%ADD46C,0.80000*%
%ADD47C,2.00000*%
G36*
X4320089Y4490239D02*
X4366314Y4471092D01*
X4407915Y4443294D01*
X4443294Y4407915D01*
X4471092Y4366314D01*
X4490239Y4320089D01*
X4500000Y4271017D01*
Y4246000D01*
Y254000D01*
Y228983D01*
X4490239Y179911D01*
X4471092Y133686D01*
X4443294Y92084D01*
X4407915Y56705D01*
X4366314Y28908D01*
X4320089Y9761D01*
X4271017Y0D01*
X228983D01*
X179911Y9761D01*
X133686Y28908D01*
X92084Y56705D01*
X56705Y92084D01*
X28908Y133686D01*
X9761Y179911D01*
X0Y228983D01*
Y254000D01*
Y4246000D01*
Y4271017D01*
X9761Y4320089D01*
X28908Y4366314D01*
X56705Y4407915D01*
X92084Y4443294D01*
X133686Y4471092D01*
X179911Y4490239D01*
X228983Y4500000D01*
X4271017D01*
X4320089Y4490239D01*
D02*
G37*
%LPC*%
G36*
X4217728Y4380000D02*
X4182272D01*
X4147496Y4373083D01*
X4114738Y4359514D01*
X4085257Y4339815D01*
X4060185Y4314743D01*
X4040486Y4285262D01*
X4026917Y4252504D01*
X4020000Y4217728D01*
Y4182272D01*
X4026917Y4147496D01*
X4040486Y4114738D01*
X4060185Y4085257D01*
X4085257Y4060185D01*
X4114738Y4040486D01*
X4147496Y4026917D01*
X4182272Y4020000D01*
X4217728D01*
X4252504Y4026917D01*
X4285262Y4040486D01*
X4314743Y4060185D01*
X4339815Y4085257D01*
X4359514Y4114738D01*
X4373083Y4147496D01*
X4380000Y4182272D01*
Y4217728D01*
X4373083Y4252504D01*
X4359514Y4285262D01*
X4339815Y4314743D01*
X4314743Y4339815D01*
X4285262Y4359514D01*
X4252504Y4373083D01*
X4217728Y4380000D01*
D02*
G37*
G36*
X317728D02*
X282271D01*
X247496Y4373083D01*
X214738Y4359514D01*
X185257Y4339815D01*
X160185Y4314743D01*
X140486Y4285262D01*
X126917Y4252504D01*
X120000Y4217728D01*
Y4182272D01*
X126917Y4147496D01*
X140486Y4114738D01*
X160185Y4085257D01*
X185257Y4060185D01*
X214738Y4040486D01*
X247496Y4026917D01*
X282271Y4020000D01*
X317728D01*
X352504Y4026917D01*
X385262Y4040486D01*
X414743Y4060185D01*
X439815Y4085257D01*
X459514Y4114738D01*
X473083Y4147496D01*
X480000Y4182272D01*
Y4217728D01*
X473083Y4252504D01*
X459514Y4285262D01*
X439815Y4314743D01*
X414743Y4339815D01*
X385262Y4359514D01*
X352504Y4373083D01*
X317728Y4380000D01*
D02*
G37*
G36*
X1379435Y4045000D02*
X1355565D01*
X1333513Y4035865D01*
X1316634Y4018987D01*
X1310471Y4004107D01*
X1303520D01*
X1303519Y4004108D01*
X1291814Y4001779D01*
X1281890Y3995148D01*
X1274829Y3988088D01*
X845001D01*
X845000Y3988088D01*
X833295Y3985759D01*
X823371Y3979129D01*
X823371Y3979128D01*
X680871Y3836629D01*
X674241Y3826705D01*
X671912Y3815000D01*
X671912Y3814999D01*
Y3422501D01*
X671912Y3422500D01*
X674241Y3410795D01*
X680871Y3400871D01*
X753908Y3327834D01*
X752500Y3324435D01*
Y3300565D01*
X761634Y3278513D01*
X778513Y3261635D01*
X800565Y3252500D01*
X824435D01*
X846487Y3261635D01*
X863366Y3278513D01*
X872500Y3300565D01*
Y3324435D01*
X863366Y3346487D01*
X846487Y3363366D01*
X824435Y3372500D01*
X800565D01*
X797166Y3371092D01*
X733088Y3435170D01*
Y3802330D01*
X857670Y3926912D01*
X1287498D01*
X1287499Y3926912D01*
X1299205Y3929241D01*
X1309128Y3935871D01*
X1316189Y3942932D01*
X1324715D01*
X1333513Y3934134D01*
X1355565Y3925000D01*
X1379435D01*
X1401487Y3934134D01*
X1418365Y3951013D01*
X1427500Y3973065D01*
Y3996935D01*
X1418365Y4018987D01*
X1401487Y4035865D01*
X1379435Y4045000D01*
D02*
G37*
G36*
X4244500Y3632604D02*
X4164500D01*
X4146226Y3630198D01*
X4129198Y3623145D01*
X4114575Y3611925D01*
X4103355Y3597302D01*
X4096302Y3580274D01*
X4093896Y3562000D01*
X4096302Y3543727D01*
X4103355Y3526698D01*
X4114575Y3512076D01*
X4129198Y3500856D01*
X4146226Y3493802D01*
X4164500Y3491396D01*
X4244500D01*
X4262773Y3493802D01*
X4279802Y3500856D01*
X4294424Y3512076D01*
X4305644Y3526698D01*
X4312698Y3543727D01*
X4315104Y3562000D01*
X4312698Y3580274D01*
X4305644Y3597302D01*
X4294424Y3611925D01*
X4279802Y3623145D01*
X4262773Y3630198D01*
X4244500Y3632604D01*
D02*
G37*
G36*
X3841500D02*
X3731500D01*
X3713226Y3630198D01*
X3696198Y3623145D01*
X3681575Y3611925D01*
X3670355Y3597302D01*
X3663302Y3580274D01*
X3660896Y3562000D01*
X3663302Y3543727D01*
X3670355Y3526698D01*
X3681575Y3512076D01*
X3696198Y3500856D01*
X3713226Y3493802D01*
X3731500Y3491396D01*
X3821602D01*
X3825805Y3491396D01*
X3826056Y3471501D01*
X3822310Y3469948D01*
X3806761Y3463508D01*
X3791992Y3448739D01*
X3784000Y3429443D01*
Y3408557D01*
X3791992Y3389261D01*
X3806761Y3374493D01*
X3826057Y3366500D01*
X3846943D01*
X3866239Y3374493D01*
X3881007Y3389261D01*
X3889000Y3408557D01*
Y3429443D01*
X3881007Y3448739D01*
X3866239Y3463508D01*
X3846943Y3471500D01*
X3841751Y3471501D01*
X3841500Y3491396D01*
X3845677Y3491946D01*
X3859773Y3493802D01*
X3876802Y3500856D01*
X3891424Y3512076D01*
X3902644Y3526698D01*
X3909698Y3543727D01*
X3912104Y3562000D01*
X3909698Y3580274D01*
X3902644Y3597302D01*
X3891424Y3611925D01*
X3876802Y3623145D01*
X3859773Y3630198D01*
X3841500Y3632604D01*
D02*
G37*
G36*
X1561935Y3735000D02*
X1538065D01*
X1516013Y3725866D01*
X1499134Y3708987D01*
X1490000Y3686935D01*
Y3663065D01*
X1499134Y3641013D01*
X1516013Y3624134D01*
X1519412Y3622726D01*
Y3351838D01*
X1203015D01*
X1191487Y3363365D01*
X1169435Y3372500D01*
X1145565D01*
X1123513Y3363365D01*
X1106634Y3346487D01*
X1097500Y3324435D01*
Y3300565D01*
X1106634Y3278513D01*
X1123513Y3261634D01*
X1145565Y3252500D01*
X1169435D01*
X1191487Y3261634D01*
X1208365Y3278513D01*
X1213398Y3290662D01*
X1538283D01*
X1538284Y3290662D01*
X1549990Y3292991D01*
X1559913Y3299621D01*
X1571628Y3311336D01*
X1571629Y3311337D01*
X1578259Y3321260D01*
X1580588Y3332966D01*
X1580588Y3332967D01*
Y3622726D01*
X1583987Y3624134D01*
X1600865Y3641013D01*
X1610000Y3663065D01*
Y3686935D01*
X1600865Y3708987D01*
X1583987Y3725866D01*
X1561935Y3735000D01*
D02*
G37*
G36*
X959435Y3150000D02*
X935565D01*
X913513Y3140865D01*
X896634Y3123987D01*
X887500Y3101935D01*
Y3078065D01*
X896634Y3056013D01*
X900854Y3051793D01*
Y3029111D01*
X642834Y2771092D01*
X639435Y2772500D01*
X615565D01*
X593513Y2763366D01*
X576634Y2746487D01*
X567500Y2724435D01*
Y2700565D01*
X576634Y2678513D01*
X593513Y2661635D01*
X615565Y2652500D01*
X639435D01*
X661487Y2661635D01*
X678365Y2678513D01*
X687500Y2700565D01*
Y2724435D01*
X686092Y2727834D01*
X957648Y2999390D01*
X957649Y2999391D01*
X964279Y3009314D01*
X966607Y3021020D01*
Y3032971D01*
X981487Y3039134D01*
X998366Y3056013D01*
X1007500Y3078065D01*
Y3101935D01*
X998366Y3123987D01*
X981487Y3140865D01*
X959435Y3150000D01*
D02*
G37*
G36*
X989435Y3352500D02*
X965565D01*
X943513Y3343366D01*
X926634Y3326487D01*
X917500Y3304435D01*
Y3280565D01*
X926634Y3258513D01*
X943513Y3241635D01*
X965565Y3232500D01*
X987033D01*
X1244314Y2975219D01*
Y2774782D01*
X1190218Y2720686D01*
X841667D01*
X826487Y2735865D01*
X804435Y2745000D01*
X780565D01*
X758513Y2735865D01*
X741635Y2718987D01*
X732500Y2696935D01*
Y2673065D01*
X741635Y2651013D01*
X758513Y2634134D01*
X780565Y2625000D01*
X804435D01*
X826487Y2634134D01*
X841667Y2649314D01*
X1205000D01*
X1218656Y2652031D01*
X1230234Y2659766D01*
X1305234Y2734766D01*
X1312969Y2746344D01*
X1315686Y2760000D01*
Y2990000D01*
X1312969Y3003656D01*
X1305234Y3015234D01*
X1037500Y3282968D01*
Y3304435D01*
X1028365Y3326487D01*
X1011487Y3343366D01*
X989435Y3352500D01*
D02*
G37*
G36*
X4244500Y2768604D02*
X4164500D01*
X4146226Y2766198D01*
X4129198Y2759145D01*
X4114575Y2747925D01*
X4103355Y2733302D01*
X4096302Y2716274D01*
X4093896Y2698000D01*
X4096302Y2679727D01*
X4103355Y2662699D01*
X4114575Y2648076D01*
X4129198Y2636856D01*
X4146226Y2629802D01*
X4164500Y2627397D01*
X4244500D01*
X4262773Y2629802D01*
X4279802Y2636856D01*
X4294424Y2648076D01*
X4305644Y2662699D01*
X4312698Y2679727D01*
X4315104Y2698000D01*
X4312698Y2716274D01*
X4305644Y2733302D01*
X4294424Y2747925D01*
X4279802Y2759145D01*
X4262773Y2766198D01*
X4244500Y2768604D01*
D02*
G37*
G36*
X3846943Y2893500D02*
X3826057D01*
X3806761Y2885508D01*
X3791992Y2870739D01*
X3784000Y2851443D01*
Y2830557D01*
X3791992Y2811262D01*
X3806761Y2796493D01*
X3822310Y2790052D01*
X3826056Y2788500D01*
X3825805Y2768605D01*
X3821602Y2768604D01*
X3731500D01*
X3713226Y2766198D01*
X3696198Y2759145D01*
X3681575Y2747925D01*
X3670355Y2733302D01*
X3663302Y2716274D01*
X3660896Y2698000D01*
X3663302Y2679727D01*
X3670355Y2662699D01*
X3681575Y2648076D01*
X3696198Y2636856D01*
X3713226Y2629802D01*
X3731500Y2627397D01*
X3841500D01*
X3859773Y2629802D01*
X3876802Y2636856D01*
X3891424Y2648076D01*
X3902644Y2662699D01*
X3909698Y2679727D01*
X3912104Y2698000D01*
X3909698Y2716274D01*
X3902644Y2733302D01*
X3891424Y2747925D01*
X3876802Y2759145D01*
X3859773Y2766198D01*
X3845677Y2768054D01*
X3841500Y2768605D01*
X3841751Y2788500D01*
X3846943Y2788500D01*
X3866239Y2796493D01*
X3881007Y2811262D01*
X3889000Y2830557D01*
Y2851443D01*
X3881007Y2870739D01*
X3866239Y2885508D01*
X3846943Y2893500D01*
D02*
G37*
G36*
X235058Y2637500D02*
X217943D01*
X201411Y2633070D01*
X186589Y2624513D01*
X174487Y2612411D01*
X165930Y2597589D01*
X161500Y2581058D01*
Y2563943D01*
X165930Y2547411D01*
X174487Y2532589D01*
X186589Y2520487D01*
X201411Y2511930D01*
X217943Y2507500D01*
X235058D01*
X251589Y2511930D01*
X266411Y2520487D01*
X278513Y2532589D01*
X287070Y2547411D01*
X291500Y2563943D01*
Y2581058D01*
X287070Y2597589D01*
X278513Y2612411D01*
X266411Y2624513D01*
X251589Y2633070D01*
X235058Y2637500D01*
D02*
G37*
G36*
Y2337500D02*
X217943D01*
X201411Y2333070D01*
X186589Y2324513D01*
X174487Y2312411D01*
X165930Y2297589D01*
X161500Y2281058D01*
Y2263943D01*
X165930Y2247411D01*
X174487Y2232589D01*
X186589Y2220487D01*
X201411Y2211930D01*
X217943Y2207500D01*
X235058D01*
X251589Y2211930D01*
X266411Y2220487D01*
X278513Y2232589D01*
X287070Y2247411D01*
X291500Y2263943D01*
Y2281058D01*
X287070Y2297589D01*
X278513Y2312411D01*
X266411Y2324513D01*
X251589Y2333070D01*
X235058Y2337500D01*
D02*
G37*
G36*
X1606935Y2650000D02*
X1583065D01*
X1561013Y2640865D01*
X1544134Y2623987D01*
X1535000Y2601935D01*
Y2578065D01*
X1544134Y2556013D01*
X1561013Y2539134D01*
X1561863Y2538782D01*
Y2441226D01*
X1356569Y2235931D01*
X1349386Y2225181D01*
X1346863Y2212500D01*
Y1813951D01*
X1261049Y1728136D01*
X641701D01*
X627500Y1740565D01*
Y1764435D01*
X618366Y1786487D01*
X601487Y1803365D01*
X579435Y1812500D01*
X555565D01*
X533513Y1803365D01*
X516634Y1786487D01*
X507500Y1764435D01*
Y1740565D01*
X516634Y1718513D01*
X533513Y1701634D01*
X555565Y1692500D01*
X579435D01*
X580285Y1692852D01*
X601569Y1671569D01*
X612319Y1664386D01*
X625000Y1661863D01*
X1131479D01*
X1143081Y1641863D01*
X1142520Y1640882D01*
X406471D01*
X403186Y1644167D01*
Y2082718D01*
X434781Y2114314D01*
X528333D01*
X543513Y2099134D01*
X565565Y2090000D01*
X589435D01*
X611487Y2099134D01*
X628366Y2116013D01*
X637500Y2138065D01*
Y2161935D01*
X628366Y2183987D01*
X611487Y2200866D01*
X589435Y2210000D01*
X565565D01*
X543513Y2200866D01*
X528333Y2185686D01*
X420000D01*
X406344Y2182969D01*
X394766Y2175234D01*
X342266Y2122734D01*
X334531Y2111156D01*
X331814Y2097500D01*
Y1644167D01*
X316634Y1628987D01*
X307500Y1606935D01*
Y1583065D01*
X316634Y1561013D01*
X333513Y1544135D01*
X355565Y1535000D01*
X362613D01*
X595057Y1302557D01*
X609942Y1292611D01*
X627500Y1289118D01*
X2837499D01*
X2855057Y1292611D01*
X2861055Y1296619D01*
X2924118D01*
Y803971D01*
X2921634Y801487D01*
X2912500Y779435D01*
Y755565D01*
X2921634Y733513D01*
X2938513Y716635D01*
X2960565Y707500D01*
X2984435D01*
X3006487Y716635D01*
X3023366Y733513D01*
X3032500Y755565D01*
Y779435D01*
X3023366Y801487D01*
X3015881Y808971D01*
Y1303529D01*
X3020865Y1308513D01*
X3030000Y1330566D01*
Y1354435D01*
X3020865Y1376487D01*
X3003987Y1393366D01*
X2981935Y1402500D01*
X2958065D01*
X2936013Y1393366D01*
X2931029Y1388382D01*
X2844999D01*
X2827441Y1384889D01*
X2821443Y1380881D01*
X2608953D01*
X2603451Y1390677D01*
X2601639Y1400881D01*
X2741420Y1540662D01*
X2893748D01*
X2893750Y1540662D01*
X2905455Y1542991D01*
X2915378Y1549621D01*
X3072878Y1707121D01*
X3072879Y1707121D01*
X3079509Y1717045D01*
X3081838Y1728750D01*
X3081838Y1728751D01*
Y1968580D01*
X3127166Y2013908D01*
X3130565Y2012500D01*
X3154435D01*
X3176487Y2021635D01*
X3193365Y2038513D01*
X3202500Y2060565D01*
Y2084435D01*
X3193365Y2106487D01*
X3176487Y2123366D01*
X3154435Y2132500D01*
X3130565D01*
X3108513Y2123366D01*
X3091634Y2106487D01*
X3082500Y2084435D01*
Y2060565D01*
X3083908Y2057166D01*
X3029621Y2002879D01*
X3022991Y1992955D01*
X3020662Y1981250D01*
X3020662Y1981249D01*
Y1741420D01*
X2881080Y1601838D01*
X2728751D01*
X2728750Y1601838D01*
X2717045Y1599509D01*
X2707121Y1592879D01*
X2707121Y1592878D01*
X2564830Y1450588D01*
X1227274D01*
X1225865Y1453987D01*
X1208987Y1470865D01*
X1186935Y1480000D01*
X1163065D01*
X1141013Y1470865D01*
X1124134Y1453987D01*
X1115000Y1431935D01*
Y1408065D01*
X1117976Y1400882D01*
X1104612Y1380881D01*
X646505D01*
X496746Y1530641D01*
X504399Y1549119D01*
X1189382D01*
X1206940Y1552611D01*
X1214257Y1557500D01*
X1231935D01*
X1253987Y1566634D01*
X1270866Y1583513D01*
X1280000Y1605565D01*
Y1629435D01*
X1274840Y1641891D01*
X1274833Y1644111D01*
X1284253Y1663021D01*
X1285351Y1663967D01*
X1287455Y1664386D01*
X1298205Y1671569D01*
X1403431Y1776795D01*
X1410614Y1787545D01*
X1413137Y1800226D01*
Y2198775D01*
X1618431Y2404069D01*
X1625614Y2414819D01*
X1628136Y2427500D01*
Y2538782D01*
X1628987Y2539134D01*
X1645865Y2556013D01*
X1655000Y2578065D01*
Y2601935D01*
X1645865Y2623987D01*
X1628987Y2640865D01*
X1606935Y2650000D01*
D02*
G37*
G36*
X271935Y3127500D02*
X248065D01*
X226013Y3118366D01*
X209134Y3101487D01*
X200000Y3079435D01*
Y3055565D01*
X209134Y3033513D01*
X226013Y3016635D01*
X229412Y3015226D01*
Y2784802D01*
X229412Y2784800D01*
X231741Y2773095D01*
X238371Y2763172D01*
X293171Y2708372D01*
X293172Y2708371D01*
X303095Y2701741D01*
X314800Y2699412D01*
X314802Y2699412D01*
X397330D01*
X539412Y2557330D01*
Y2380002D01*
X539412Y2380001D01*
X541741Y2368295D01*
X548371Y2358372D01*
X816891Y2089852D01*
X816891Y2089852D01*
X826814Y2083221D01*
X838520Y2080893D01*
X855649D01*
X856635Y2078513D01*
X873513Y2061634D01*
X895565Y2052500D01*
X919435D01*
X941487Y2061634D01*
X958366Y2078513D01*
X967500Y2100565D01*
Y2124435D01*
X958366Y2146487D01*
X941487Y2163365D01*
X919435Y2172500D01*
X895565D01*
X873513Y2163365D01*
X865633Y2155485D01*
X840617Y2153726D01*
X838637Y2154621D01*
X600588Y2392671D01*
Y2569999D01*
X600588Y2570000D01*
X598259Y2581705D01*
X591629Y2591629D01*
X431629Y2751629D01*
X421705Y2758259D01*
X410000Y2760588D01*
X409999Y2760588D01*
X327470D01*
X290588Y2797470D01*
Y3015226D01*
X293987Y3016635D01*
X310866Y3033513D01*
X320000Y3055565D01*
Y3079435D01*
X310866Y3101487D01*
X293987Y3118366D01*
X271935Y3127500D01*
D02*
G37*
G36*
X4217728Y480000D02*
X4182272D01*
X4147496Y473083D01*
X4114738Y459514D01*
X4085257Y439815D01*
X4060185Y414743D01*
X4040486Y385262D01*
X4026917Y352504D01*
X4020000Y317729D01*
Y282272D01*
X4026917Y247496D01*
X4040486Y214738D01*
X4060185Y185257D01*
X4085257Y160185D01*
X4114738Y140486D01*
X4147496Y126917D01*
X4182272Y120000D01*
X4217728D01*
X4252504Y126917D01*
X4285262Y140486D01*
X4314743Y160185D01*
X4339815Y185257D01*
X4359514Y214738D01*
X4373083Y247496D01*
X4380000Y282272D01*
Y317729D01*
X4373083Y352504D01*
X4359514Y385262D01*
X4339815Y414743D01*
X4314743Y439815D01*
X4285262Y459514D01*
X4252504Y473083D01*
X4217728Y480000D01*
D02*
G37*
G36*
X317728D02*
X282271D01*
X247496Y473083D01*
X214738Y459514D01*
X185257Y439815D01*
X160185Y414743D01*
X140486Y385262D01*
X126917Y352504D01*
X120000Y317729D01*
Y282272D01*
X126917Y247496D01*
X140486Y214738D01*
X160185Y185257D01*
X185257Y160185D01*
X214738Y140486D01*
X247496Y126917D01*
X282271Y120000D01*
X317728D01*
X352504Y126917D01*
X385262Y140486D01*
X414743Y160185D01*
X439815Y185257D01*
X459514Y214738D01*
X473083Y247496D01*
X480000Y282272D01*
Y317729D01*
X473083Y352504D01*
X459514Y385262D01*
X439815Y414743D01*
X414743Y439815D01*
X385262Y459514D01*
X352504Y473083D01*
X317728Y480000D01*
D02*
G37*
%LPD*%
D35*
X367500Y2097500D02*
X420000Y2150000D01*
X577500D01*
X367500Y1595000D02*
Y2097500D01*
X1205000Y2685000D02*
X1280000Y2760000D01*
Y2990000D01*
X792500Y2685000D02*
X1205000D01*
X977500Y3292500D02*
X1280000Y2990000D01*
D36*
X627500Y2712500D02*
X936020Y3021020D01*
Y3078520D01*
X947500Y3090000D01*
X260000Y2784800D02*
Y3067500D01*
Y2784800D02*
X314800Y2730000D01*
X410000D01*
X906481Y2111480D02*
X907500Y2112500D01*
X838520Y2111480D02*
X906481D01*
X570000Y2380001D02*
X838520Y2111480D01*
X570000Y2380001D02*
Y2570000D01*
X410000Y2730000D02*
X570000Y2570000D01*
X702500Y3422500D02*
X812500Y3312500D01*
X702500Y3422500D02*
Y3815000D01*
X845000Y3957500D01*
X2577500Y1420000D02*
X2728750Y1571250D01*
X1175000Y1420000D02*
X2577500D01*
X3051250Y1728750D02*
Y1981250D01*
X3142500Y2072500D01*
X1538284Y3321250D02*
X1550000Y3332966D01*
X1166250Y3321250D02*
X1538284D01*
X1550000Y3332966D02*
Y3675000D01*
X1157500Y3312500D02*
X1166250Y3321250D01*
X845000Y3957500D02*
X1287499D01*
X1303519Y3973520D01*
X1356020D01*
X1367500Y3985000D01*
X2893750Y1571250D02*
X3051250Y1728750D01*
X2728750Y1571250D02*
X2893750D01*
D37*
X1380000Y1800226D02*
Y2212500D01*
X1595000Y2427500D01*
Y2590000D01*
X625000Y1695000D02*
X1274774D01*
X1380000Y1800226D01*
X567500Y1752500D02*
X625000Y1695000D01*
D38*
X367500Y1595000D02*
X1189382D01*
X1211882Y1617500D01*
X1220000D01*
X367500Y1595000D02*
X627500Y1335000D01*
X2837499D01*
X2844999Y1342500D01*
X2970000Y770000D02*
Y1342500D01*
Y770000D02*
X2972500Y767500D01*
X2844999Y1342500D02*
X2970000D01*
D41*
X226500Y2572500D02*
D03*
Y2272500D02*
D03*
D42*
X4200000Y300000D02*
D03*
X300000D02*
D03*
X4200000Y4200000D02*
D03*
X300000D02*
D03*
D43*
X4204500Y3562000D02*
D03*
Y2698000D02*
D03*
D44*
X3786500Y3562000D02*
D03*
Y2698000D02*
D03*
D45*
X3836500Y2841000D02*
D03*
Y3419000D02*
D03*
D46*
X1725000Y1530000D02*
D03*
X465000Y2045000D02*
D03*
X577500Y2150000D02*
D03*
X627500Y2712500D02*
D03*
X260000Y3067500D02*
D03*
X467500D02*
D03*
X812500Y3312500D02*
D03*
X862500Y3482500D02*
D03*
X367500Y1595000D02*
D03*
X1220000Y1617500D02*
D03*
X1080000Y1767500D02*
D03*
X2350000Y1490000D02*
D03*
X2972500Y767500D02*
D03*
X3142500Y2072500D02*
D03*
X1420000Y2895000D02*
D03*
X1930000Y3207500D02*
D03*
X947500Y3090000D02*
D03*
X1550000Y3675000D02*
D03*
X1175000Y1420000D02*
D03*
X582528Y1237560D02*
D03*
X1260000Y1180000D02*
D03*
X3492500Y2597500D02*
D03*
X792500Y2685000D02*
D03*
X3790000Y2270000D02*
D03*
X3435000Y1937500D02*
D03*
X3810000Y2080000D02*
D03*
X2970000Y1342500D02*
D03*
X3165000Y467500D02*
D03*
X3347500Y1060000D02*
D03*
X977500Y3292500D02*
D03*
X1157500Y3312500D02*
D03*
X3780000Y2570000D02*
D03*
X300000Y580000D02*
D03*
X627500Y1992500D02*
D03*
X1090000Y780000D02*
D03*
X567500Y1752500D02*
D03*
X1595000Y2590000D02*
D03*
X1007500Y4350000D02*
D03*
X3760000Y840000D02*
D03*
X4030000Y1440000D02*
D03*
X3500000Y3630000D02*
D03*
X2982500Y4270750D02*
D03*
X907500Y2112500D02*
D03*
X1367500Y3985000D02*
D03*
D47*
X2530000Y2115000D02*
D03*
X2130000D02*
D03*
X2530000Y2515000D02*
D03*
X2130000D02*
D03*
%TF.MD5,e5aac852891721ec0564b682581d9aa1*%
M02*
