%TF.GenerationSoftware,Altium Limited,Altium Designer,24.6.1 (21)*%
G04 Layer_Physical_Order=1*
G04 Layer_Color=255*
%FSLAX45Y45*%
%MOMM*%
%TF.SameCoordinates,6A5B3439-CA9B-47F1-B443-B48DB32901A5*%
%TF.FilePolarity,Positive*%
%TF.FileFunction,Copper,L1,Top,Signal*%
%TF.Part,Single*%
G01*
G75*
%TA.AperFunction,SMDPad,CuDef*%
%ADD10R,1.27000X3.68000*%
%TA.AperFunction,ConnectorPad*%
G04:AMPARAMS|DCode=11|XSize=2mm|YSize=1.25mm|CornerRadius=0.3125mm|HoleSize=0mm|Usage=FLASHONLY|Rotation=90.000|XOffset=0mm|YOffset=0mm|HoleType=Round|Shape=RoundedRectangle|*
%AMROUNDEDRECTD11*
21,1,2.00000,0.62500,0,0,90.0*
21,1,1.37500,1.25000,0,0,90.0*
1,1,0.62500,0.31250,0.68750*
1,1,0.62500,0.31250,-0.68750*
1,1,0.62500,-0.31250,-0.68750*
1,1,0.62500,-0.31250,0.68750*
%
%ADD11ROUNDEDRECTD11*%
%TA.AperFunction,SMDPad,CuDef*%
%ADD12R,0.30000X1.50000*%
%ADD13R,1.50000X0.30000*%
%ADD14R,1.45000X1.30000*%
%ADD15R,1.35000X1.00000*%
%ADD16R,1.30000X1.45000*%
%ADD17R,1.00000X1.35000*%
%TA.AperFunction,ConnectorPad*%
%ADD18R,1.50000X0.70000*%
%ADD19R,0.80000X1.00000*%
%TA.AperFunction,SMDPad,CuDef*%
%ADD20R,0.80000X1.20000*%
%ADD21R,1.30000X1.10000*%
%ADD22R,0.60000X0.25000*%
%ADD23R,0.25000X0.60000*%
%ADD24R,1.20000X1.20000*%
%ADD25R,1.10000X1.30000*%
%TA.AperFunction,TestPad*%
G04:AMPARAMS|DCode=26|XSize=1mm|YSize=1mm|CornerRadius=0.25mm|HoleSize=0mm|Usage=FLASHONLY|Rotation=90.000|XOffset=0mm|YOffset=0mm|HoleType=Round|Shape=RoundedRectangle|*
%AMROUNDEDRECTD26*
21,1,1.00000,0.50000,0,0,90.0*
21,1,0.50000,1.00000,0,0,90.0*
1,1,0.50000,0.25000,0.25000*
1,1,0.50000,0.25000,-0.25000*
1,1,0.50000,-0.25000,-0.25000*
1,1,0.50000,-0.25000,0.25000*
%
%ADD26ROUNDEDRECTD26*%
G04:AMPARAMS|DCode=27|XSize=1mm|YSize=1mm|CornerRadius=0.25mm|HoleSize=0mm|Usage=FLASHONLY|Rotation=0.000|XOffset=0mm|YOffset=0mm|HoleType=Round|Shape=RoundedRectangle|*
%AMROUNDEDRECTD27*
21,1,1.00000,0.50000,0,0,0.0*
21,1,0.50000,1.00000,0,0,0.0*
1,1,0.50000,0.25000,-0.25000*
1,1,0.50000,-0.25000,-0.25000*
1,1,0.50000,-0.25000,0.25000*
1,1,0.50000,0.25000,0.25000*
%
%ADD27ROUNDEDRECTD27*%
%TA.AperFunction,SMDPad,CuDef*%
%ADD28R,1.90500X0.95213*%
G04:AMPARAMS|DCode=29|XSize=1.905mm|YSize=0.95213mm|CornerRadius=0.47606mm|HoleSize=0mm|Usage=FLASHONLY|Rotation=180.000|XOffset=0mm|YOffset=0mm|HoleType=Round|Shape=RoundedRectangle|*
%AMROUNDEDRECTD29*
21,1,1.90500,0.00000,0,0,180.0*
21,1,0.95287,0.95213,0,0,180.0*
1,1,0.95213,-0.47644,0.00000*
1,1,0.95213,0.47644,0.00000*
1,1,0.95213,0.47644,0.00000*
1,1,0.95213,-0.47644,0.00000*
%
%ADD29ROUNDEDRECTD29*%
G04:AMPARAMS|DCode=30|XSize=1.60429mm|YSize=3.26213mm|CornerRadius=0.47327mm|HoleSize=0mm|Usage=FLASHONLY|Rotation=180.000|XOffset=0mm|YOffset=0mm|HoleType=Round|Shape=RoundedRectangle|*
%AMROUNDEDRECTD30*
21,1,1.60429,2.31560,0,0,180.0*
21,1,0.65776,3.26213,0,0,180.0*
1,1,0.94654,-0.32888,1.15780*
1,1,0.94654,0.32888,1.15780*
1,1,0.94654,0.32888,-1.15780*
1,1,0.94654,-0.32888,-1.15780*
%
%ADD30ROUNDEDRECTD30*%
%ADD31R,1.25490X1.45620*%
%ADD32R,1.15000X1.45000*%
%ADD33R,1.40000X0.60000*%
%ADD34R,1.40000X0.30000*%
%TA.AperFunction,Conductor*%
%ADD35C,0.30000*%
%ADD36C,0.20000*%
%ADD37C,0.25000*%
%ADD38C,0.50000*%
%ADD39C,0.49000*%
%ADD40C,1.00000*%
%TA.AperFunction,ComponentPad*%
%ADD41C,0.90000*%
%TA.AperFunction,ViaPad*%
%ADD42C,3.20000*%
%TA.AperFunction,ComponentPad*%
%ADD43O,1.80000X1.00000*%
%ADD44O,2.10000X1.00000*%
%ADD45C,0.65000*%
%TA.AperFunction,ViaPad*%
%ADD46C,0.80000*%
%ADD47C,2.00000*%
G36*
X1565000Y2675000D02*
X1380000D01*
X1355000Y2650000D01*
X1085000D01*
X1045000Y2610000D01*
X895000D01*
Y2730000D01*
X1045000D01*
X1084999Y2770000D01*
X1565000D01*
Y2675000D01*
D02*
G37*
G36*
X2730000Y1272500D02*
X2610000D01*
X2580000Y1302500D01*
X2400000D01*
Y1422500D01*
X2580000D01*
X2610000Y1452500D01*
Y1592500D01*
X2730000D01*
Y1272500D01*
D02*
G37*
G36*
X2675000Y1950000D02*
X2000000D01*
Y2650000D01*
X2675000D01*
Y1950000D01*
D02*
G37*
G36*
X3960000Y2370000D02*
X3970000Y2360000D01*
Y2200000D01*
X3850000D01*
Y2550000D01*
X3960000D01*
Y2370000D01*
D02*
G37*
G36*
X4140000Y1840000D02*
X4142500Y1838964D01*
Y1490000D01*
X4020000D01*
X4017500Y1487500D01*
X3990000Y1515000D01*
X3819182D01*
Y1610000D01*
X3992500D01*
X4017500Y1635000D01*
Y1840000D01*
X4140000D01*
D02*
G37*
G36*
X4300000Y1450000D02*
X4290000Y1440000D01*
Y1296212D01*
X4289161Y1295541D01*
X4270000Y1288964D01*
X4244730Y1314234D01*
X4233153Y1321969D01*
X4219497Y1324686D01*
X4189500D01*
X4175844Y1321969D01*
X4164266Y1314234D01*
X4156531Y1302656D01*
X4153814Y1289000D01*
X4156531Y1275344D01*
X4164266Y1263766D01*
X4169903Y1260000D01*
X4163836Y1240000D01*
X4090000D01*
Y1340000D01*
X4150000Y1400000D01*
X4180000D01*
Y2110000D01*
X4300000D01*
Y1450000D01*
D02*
G37*
G36*
X3612500Y710000D02*
X3458631D01*
X3383713Y635082D01*
Y517582D01*
X3260000D01*
Y822582D01*
X3395794D01*
X3415355Y820938D01*
X3415365Y820929D01*
D01*
X3416213Y820081D01*
X3430001Y833868D01*
X3430000Y834578D01*
Y1225000D01*
X3612500D01*
Y710000D01*
D02*
G37*
D10*
X2826500Y4132750D02*
D03*
X2572500D02*
D03*
X2318500D02*
D03*
X2826500Y3688750D02*
D03*
X2572500D02*
D03*
X2318500D02*
D03*
X2780500Y910000D02*
D03*
Y415000D02*
D03*
X2526500Y910000D02*
D03*
Y415000D02*
D03*
X2272500Y910000D02*
D03*
Y415000D02*
D03*
X2018500Y910000D02*
D03*
Y415000D02*
D03*
X1764500Y910000D02*
D03*
Y415000D02*
D03*
D11*
X137700Y3067500D02*
D03*
X587700D02*
D03*
X137700Y3867500D02*
D03*
X587700D02*
D03*
D12*
X1955000Y2885000D02*
D03*
X2005000D02*
D03*
X2055000D02*
D03*
X2105000D02*
D03*
X2155000D02*
D03*
X2205000D02*
D03*
X2255000D02*
D03*
X2305000D02*
D03*
X2355000D02*
D03*
X2405000D02*
D03*
X2455000D02*
D03*
X2505000D02*
D03*
X2555000D02*
D03*
X2605000D02*
D03*
X2655000D02*
D03*
X2705000D02*
D03*
Y1745000D02*
D03*
X2655000D02*
D03*
X2605000D02*
D03*
X2555000D02*
D03*
X2505000D02*
D03*
X2455000D02*
D03*
X2405000D02*
D03*
X2355000D02*
D03*
X2305000D02*
D03*
X2255000D02*
D03*
X2205000D02*
D03*
X2155000D02*
D03*
X2105000D02*
D03*
X2055000D02*
D03*
X2005000D02*
D03*
X1955000D02*
D03*
D13*
X2900000Y2690000D02*
D03*
Y2640000D02*
D03*
Y2590000D02*
D03*
Y2540000D02*
D03*
Y2490000D02*
D03*
Y2440000D02*
D03*
Y2390000D02*
D03*
Y2340000D02*
D03*
Y2290000D02*
D03*
Y2240000D02*
D03*
Y2190000D02*
D03*
Y2140000D02*
D03*
Y2090000D02*
D03*
Y2040000D02*
D03*
Y1990000D02*
D03*
Y1940000D02*
D03*
X1760000D02*
D03*
Y1990000D02*
D03*
Y2040000D02*
D03*
Y2090000D02*
D03*
Y2140000D02*
D03*
Y2190000D02*
D03*
Y2240000D02*
D03*
Y2290000D02*
D03*
Y2340000D02*
D03*
Y2390000D02*
D03*
Y2440000D02*
D03*
Y2490000D02*
D03*
Y2540000D02*
D03*
Y2590000D02*
D03*
Y2640000D02*
D03*
Y2690000D02*
D03*
D14*
X1537500Y2900000D02*
D03*
Y2740000D02*
D03*
X2482500Y1362500D02*
D03*
Y1522500D02*
D03*
X965000Y2670000D02*
D03*
Y2510000D02*
D03*
X1100000Y1102500D02*
D03*
Y1262500D02*
D03*
X1090000Y497500D02*
D03*
Y657500D02*
D03*
X1532500Y2005000D02*
D03*
Y2165000D02*
D03*
X3085000Y2872500D02*
D03*
Y2712500D02*
D03*
D15*
X1332500Y3595000D02*
D03*
Y3415000D02*
D03*
X737500Y1762500D02*
D03*
Y1582500D02*
D03*
X3495000Y2877500D02*
D03*
Y2697500D02*
D03*
X3500000Y3340000D02*
D03*
Y3520000D02*
D03*
X3302500Y1930000D02*
D03*
Y1750000D02*
D03*
X617500Y2362500D02*
D03*
Y2542500D02*
D03*
D16*
X3162500Y592500D02*
D03*
X3322500D02*
D03*
X2045000Y1522500D02*
D03*
X1885000D02*
D03*
X907500Y1967500D02*
D03*
X747500D02*
D03*
X4240000Y1770000D02*
D03*
X4080000D02*
D03*
X4240000Y1560000D02*
D03*
X4080000D02*
D03*
X4069999Y2270000D02*
D03*
X3910000D02*
D03*
X1007500Y3612500D02*
D03*
X847500D02*
D03*
X1167500Y4220000D02*
D03*
X1007500D02*
D03*
X452500Y735000D02*
D03*
X292500D02*
D03*
X2827500Y1530000D02*
D03*
X2667500D02*
D03*
X2830000Y1337500D02*
D03*
X2670000D02*
D03*
X1767500Y3075000D02*
D03*
X1927500D02*
D03*
D17*
X3343787Y933787D02*
D03*
X3163787D02*
D03*
X977500Y3432500D02*
D03*
X1157500D02*
D03*
D18*
X401500Y2347500D02*
D03*
Y2197500D02*
D03*
Y2647500D02*
D03*
D19*
X323000Y2787500D02*
D03*
Y2057500D02*
D03*
X130000Y2787500D02*
D03*
Y2057500D02*
D03*
D20*
X295300Y1264100D02*
D03*
Y954100D02*
D03*
X445300D02*
D03*
Y1264100D02*
D03*
X875300Y1266100D02*
D03*
Y956100D02*
D03*
X725300D02*
D03*
Y1266100D02*
D03*
X870300Y662600D02*
D03*
Y352600D02*
D03*
X720300D02*
D03*
Y662600D02*
D03*
D21*
X3142500Y1737500D02*
D03*
Y1947500D02*
D03*
X947500Y1765000D02*
D03*
Y1555000D02*
D03*
D22*
X962500Y3835000D02*
D03*
Y3885000D02*
D03*
Y3935000D02*
D03*
Y3985000D02*
D03*
X1212500Y3835000D02*
D03*
Y3885000D02*
D03*
Y3935000D02*
D03*
Y3985000D02*
D03*
D23*
X1137500Y4010000D02*
D03*
X1087500D02*
D03*
X1037500D02*
D03*
Y3810000D02*
D03*
X1087500D02*
D03*
X1137500D02*
D03*
D24*
X3117500Y760000D02*
D03*
X3327500D02*
D03*
D25*
X1307500Y2705000D02*
D03*
Y2495000D02*
D03*
X1142500D02*
D03*
Y2705000D02*
D03*
D26*
X1160000Y3602500D02*
D03*
X1345000Y3732500D02*
D03*
D27*
X1465000Y2440000D02*
D03*
D28*
X4189500Y831000D02*
D03*
D29*
Y1060000D02*
D03*
Y1289000D02*
D03*
D30*
X3510500Y1060000D02*
D03*
D31*
X4242565Y2040000D02*
D03*
X4077435D02*
D03*
D32*
X4077500Y2480000D02*
D03*
X3902500D02*
D03*
D33*
X3704100Y3370000D02*
D03*
Y2810000D02*
D03*
Y2890000D02*
D03*
Y3450000D02*
D03*
D34*
Y2955000D02*
D03*
Y3005000D02*
D03*
Y3055000D02*
D03*
Y3305000D02*
D03*
Y3155000D02*
D03*
Y3205000D02*
D03*
Y3255000D02*
D03*
Y3105000D02*
D03*
D35*
X2826500Y4132750D02*
Y4222250D01*
X2875000Y4270750D01*
X2154500Y3688750D02*
X2318500D01*
X2082500Y3760750D02*
X2154500Y3688750D01*
X2875000Y4270750D02*
X2982500D01*
X2722500Y3360750D02*
Y4320750D01*
X2662500Y4380750D02*
X2722500Y4320750D01*
Y3360750D02*
X3085000Y2998250D01*
X775000Y2526997D02*
X863002Y2615000D01*
X775000Y2305000D02*
Y2526997D01*
X628854Y2158854D02*
X775000Y2305000D01*
X586354Y2158854D02*
X628854D01*
X577500Y2150000D02*
X586354Y2158854D01*
X1877500Y1530000D02*
X1885000Y1522500D01*
X1725000Y1530000D02*
X1877500D01*
X401500Y2197500D02*
X441500D01*
X461500Y2177500D01*
Y2048500D02*
Y2177500D01*
Y2048500D02*
X465000Y2045000D01*
X460000Y2040000D02*
X465000Y2045000D01*
X792500Y2685000D02*
Y2767500D01*
X555000Y2827500D02*
X732500D01*
X792500Y2767500D01*
X401500Y2647500D02*
X441500D01*
X461500Y2667500D01*
Y2734000D01*
X555000Y2827500D01*
X464800Y3067500D02*
X585000D01*
X847500Y3612500D02*
X862500Y3597500D01*
Y3482500D02*
Y3597500D01*
X2085000Y1885000D02*
X2654497D01*
X2705000Y1745000D02*
Y1834497D01*
X2654497Y1885000D02*
X2705000Y1834497D01*
X2055000Y1745000D02*
Y1855000D01*
X2085000Y1885000D01*
X960000Y1767500D02*
X1080000D01*
X957500Y1765000D02*
X960000Y1767500D01*
X907500Y1805000D02*
X947500Y1765000D01*
X957500D01*
X2005000Y1655503D02*
Y1990000D01*
X1885000Y1522500D02*
X1935000Y1572500D01*
Y1599497D01*
X1968002Y1632500D01*
X1981997D01*
X2005000Y1655503D01*
X2045000Y1522500D02*
X2055000Y1532500D01*
Y1745000D01*
X2347426Y1402574D02*
X2365000Y1385000D01*
X2347426Y1402574D02*
Y1487427D01*
X2350000Y1490000D01*
X2460000Y1385000D02*
X2482500Y1362500D01*
X2365000Y1385000D02*
X2460000D01*
X3343787Y933787D02*
X3347500Y937500D01*
Y1060000D01*
X3162500Y592500D02*
X3165000Y590000D01*
Y467500D02*
Y590000D01*
X3163787Y916287D02*
Y933787D01*
X3117500Y870000D02*
X3163787Y916287D01*
X3117500Y760000D02*
Y870000D01*
X3090000Y1990000D02*
X3132500Y1947500D01*
X3142500D01*
X2900000Y1990000D02*
X3090000D01*
X3310000Y1937500D02*
X3435000D01*
X3302500Y1930000D02*
X3310000Y1937500D01*
X2540000Y1572500D02*
Y1590503D01*
X2605000Y1655503D01*
X2490000Y1522500D02*
X2540000Y1572500D01*
X2482500Y1522500D02*
X2490000D01*
X2605000Y1655503D02*
Y1745000D01*
X2802500Y1555000D02*
X2827500Y1530000D01*
X2802500Y1555000D02*
Y1655000D01*
X2705000Y1685000D02*
Y1745000D01*
Y1685000D02*
X2772500D01*
X2802500Y1655000D01*
X2655000Y1542500D02*
Y1745000D01*
Y1542500D02*
X2667500Y1530000D01*
X3698868Y2804769D02*
X3735000D01*
X3526934Y2683066D02*
Y2708066D01*
X2900000Y2640000D02*
X2989497D01*
X2831213D02*
X2900000D01*
X1100000Y1262500D02*
X1150000Y1212500D01*
X1083901Y1278600D02*
X1100000Y1262500D01*
X1084900Y662600D02*
X1090000Y667700D01*
X2530000Y2515000D02*
X2655000Y2640000D01*
X2005000Y1990000D02*
X2130000Y2115000D01*
X1532500Y2165000D02*
X1557500Y2140000D01*
X1760000D01*
X1582500Y2055000D02*
X1609498D01*
X1532500Y2005000D02*
X1582500Y2055000D01*
X1644497Y2090000D02*
X1760000D01*
X1609498Y2055000D02*
X1644497Y2090000D01*
X1532500Y2895000D02*
X1537500Y2900000D01*
X1420000Y2895000D02*
X1532500D01*
X1587500Y2690000D02*
X1895000D01*
X1537500Y2740000D02*
X1587500Y2690000D01*
X1955000Y2750000D02*
Y2885000D01*
X1895000Y2690000D02*
X1955000Y2750000D01*
X1870503Y2945000D02*
X1955000D01*
X1767500Y3075000D02*
X1817500Y3025000D01*
Y2998002D02*
Y3025000D01*
Y2998002D02*
X1870503Y2945000D01*
X1955000Y2885000D02*
Y2945000D01*
X1927500Y3067500D02*
X1977500Y3017500D01*
X1985000D01*
X2005000Y2997500D01*
X1927500Y3067500D02*
Y3075000D01*
X2005000Y2885000D02*
Y2997500D01*
X1927500Y3075000D02*
X1930000Y3077500D01*
Y3207500D01*
X531250Y1141250D02*
X821250D01*
X3085000Y2872500D02*
Y2998250D01*
X2900000Y2800000D02*
X2972500Y2872500D01*
X3085000D01*
X2900000Y2690000D02*
Y2800000D01*
X3011997Y2662500D02*
X3035000D01*
X2989497Y2640000D02*
X3011997Y2662500D01*
X3035000D02*
X3085000Y2712500D01*
X2655000Y2640000D02*
X2831213D01*
X2831213Y2640000D01*
X870000Y1190000D02*
Y1260800D01*
X821250Y1141250D02*
X870000Y1190000D01*
X471840Y1237560D02*
X582528D01*
X1246470Y1180000D02*
X1260000D01*
X1213970Y1212500D02*
X1246470Y1180000D01*
X1150000Y1212500D02*
X1213970D01*
X445300Y1264100D02*
X470301Y1239100D01*
X3492500Y2597500D02*
Y2695000D01*
X3495000Y2697500D01*
X3496875D02*
X3507441Y2708066D01*
X3526934Y2708066D02*
Y2711934D01*
X3507441Y2708066D02*
X3526934D01*
Y2711934D02*
X3547500Y2732500D01*
X3604144Y2804769D02*
X3698868D01*
X3704100Y2810000D01*
X3689100Y2795000D02*
X3698868Y2804769D01*
X3547500Y2662500D02*
X3572500D01*
X3526934Y2683066D02*
X3547500Y2662500D01*
X3572500D02*
X3755000Y2480000D01*
X3547500Y2748125D02*
X3604144Y2804769D01*
X3547500Y2732500D02*
Y2748125D01*
X3664100Y2810000D02*
X3704100D01*
X3664100Y2795000D02*
X3689100D01*
X3495000Y2877500D02*
X3512500D01*
X3547500Y2912500D01*
Y2932898D01*
X3619602Y3005000D01*
X3704100D01*
X1395503Y2060000D02*
X1450503Y2115000D01*
X1482500D01*
X1532500Y2165000D01*
X940000Y2652500D02*
Y2670000D01*
X950000Y2685000D02*
X965000Y2670000D01*
X792500Y2685000D02*
X950000D01*
X890000Y2615000D02*
X895000Y2620000D01*
X907500D01*
X940000Y2652500D01*
X863002Y2615000D02*
X890000D01*
X940000Y2352500D02*
Y2485000D01*
X965000Y2510000D01*
X747500Y2160000D02*
X940000Y2352500D01*
X747500Y1967500D02*
Y2160000D01*
X3790000Y2270000D02*
X3909999D01*
X3810000Y2080000D02*
X3910000D01*
X3909999Y2270000D02*
X3910000Y2270000D01*
X2172500Y4380750D02*
X2662500D01*
X2082500Y4290750D02*
X2172500Y4380750D01*
X2082500Y3760750D02*
Y4290750D01*
X3780000Y2570000D02*
X3789567Y2560433D01*
X470301Y1202200D02*
X531250Y1141250D01*
X470301Y1202200D02*
Y1239100D01*
X4249621Y1228879D02*
X4440000Y1038500D01*
X4287500Y520000D02*
X4440000Y672500D01*
Y1038500D01*
X4240000Y630000D02*
X4352500Y742500D01*
Y939856D01*
X3997500Y520000D02*
X4287500D01*
X3837500Y360000D02*
X3997500Y520000D01*
X292500Y735000D02*
X300000Y727500D01*
Y580000D02*
Y727500D01*
X627500Y1992500D02*
X722500D01*
X747500Y1967500D01*
X1090000Y667700D02*
Y780000D01*
X957500Y1765000D02*
X1035001Y1842501D01*
Y1880001D01*
X1007500Y4220000D02*
Y4350000D01*
X3500000Y3520000D02*
X3500000Y3520000D01*
Y3630000D01*
X3837067Y2560433D02*
X3902500Y2495000D01*
X3789567Y2560433D02*
X3837067D01*
X3902500Y2480000D02*
Y2495000D01*
X4030000Y1440000D02*
Y1510001D01*
X4080000Y1560000D01*
X3845000Y845000D02*
X3911250Y911250D01*
X3760000Y840000D02*
X3765000Y845000D01*
X3845000D01*
X747500Y1960000D02*
Y1967500D01*
X697500Y1910000D02*
X747500Y1960000D01*
X965000Y2510000D02*
X1127500D01*
X883003Y1805000D02*
X907500D01*
X747500Y1967500D02*
X797500Y1917500D01*
Y1890502D02*
Y1917500D01*
Y1890502D02*
X883003Y1805000D01*
X531250Y1141250D02*
X627500Y1045000D01*
X3755000Y2480000D02*
X3902500D01*
X3704099Y3450000D02*
X3704100Y3450000D01*
X3500000Y3520000D02*
X3517500D01*
X3587500Y3450000D01*
X3704099D01*
X1090000Y497500D02*
X1132500Y455000D01*
X1285000D01*
X1325000Y335000D02*
Y415000D01*
X1285000Y455000D02*
X1325000Y415000D01*
X4219497Y1289000D02*
X4249621Y1258875D01*
Y1228879D02*
Y1258875D01*
X4189500Y1289000D02*
X4219497D01*
X4232356Y1060000D02*
X4352500Y939856D01*
X737500Y1582500D02*
X750000Y1595000D01*
X907500D01*
X947500Y1555000D01*
X1035001Y1880001D02*
X1102500Y1947500D01*
Y1972500D01*
X627500Y587500D02*
Y1045000D01*
X870300Y642600D02*
Y662600D01*
X757700Y530000D02*
X870300Y642600D01*
X685000Y530000D02*
X757700D01*
X627500Y587500D02*
X685000Y530000D01*
X870300Y662600D02*
X1084900D01*
D36*
X2572500Y3155000D02*
Y3688750D01*
X2826500Y3416000D02*
Y3688750D01*
X2318500Y4012250D02*
Y4132750D01*
X2572500Y4012250D02*
Y4132750D01*
Y4012250D02*
X2672500Y3912250D01*
Y3195000D02*
Y3912250D01*
Y3195000D02*
X2705000Y3162500D01*
Y2885000D02*
Y3162500D01*
X2318500Y4012250D02*
X2450000Y3880750D01*
Y3110000D02*
Y3880750D01*
X2355000Y3015000D02*
X2450000Y3110000D01*
X2355000Y2885000D02*
Y3015000D01*
X2826500Y3416000D02*
X3227500Y3015000D01*
Y2675074D02*
Y3015000D01*
X3164926Y2612500D02*
X3227500Y2675074D01*
X3040000Y2612500D02*
X3164926D01*
X3017500Y2590000D02*
X3040000Y2612500D01*
X2900000Y2590000D02*
X3017500D01*
X2405000Y2987500D02*
X2572500Y3155000D01*
X2405000Y2885000D02*
Y2987500D01*
X401500Y2347500D02*
X602500D01*
X617500Y2362500D01*
X627500Y2552500D02*
Y2712500D01*
X617500Y2542500D02*
X627500Y2552500D01*
X144600Y3067500D02*
X260000D01*
X139800Y3062700D02*
X144600Y3067500D01*
X725000Y3175000D02*
X772500Y3127500D01*
X725000Y3175000D02*
Y3850000D01*
X812500Y3312500D02*
X815000Y3310000D01*
Y3080000D02*
Y3310000D01*
Y3080000D02*
X900000Y2995000D01*
X725000Y3850000D02*
X810000Y3935000D01*
X967500Y3572500D02*
X1007500Y3612500D01*
X967500Y3442500D02*
Y3572500D01*
Y3442500D02*
X977500Y3432500D01*
X967500Y3652500D02*
Y3722500D01*
Y3652500D02*
X1007500Y3612500D01*
X1037500Y3792500D02*
Y3810000D01*
X967500Y3722500D02*
X1037500Y3792500D01*
X772500Y3055000D02*
Y3127500D01*
X810000Y3935000D02*
X962500D01*
X772500Y3055000D02*
X895000Y2932500D01*
X1232500D01*
X900000Y2995000D02*
X1222500D01*
X1660000Y652500D02*
X1901500D01*
X2018500Y535500D01*
X1467500Y845000D02*
X1660000Y652500D01*
X1467500Y845000D02*
Y1650000D01*
X1695000Y1877500D01*
X1409800Y1669800D02*
X1643284Y1903284D01*
X1409800Y525200D02*
Y1669800D01*
X1792500Y1745000D02*
X1955000D01*
X1527300Y1479800D02*
X1792500Y1745000D01*
X1527300Y857274D02*
Y1479800D01*
X1317500Y1965000D02*
X1492500D01*
X1532500Y2005000D01*
X1818000Y963500D02*
Y1113000D01*
X1764500Y910000D02*
X1818000Y963500D01*
Y1113000D02*
X1880000Y1175000D01*
X1992500D01*
X2152500Y1335000D01*
Y1594926D01*
X2060000Y1162500D02*
X2192500Y1295000D01*
X2060000Y951500D02*
Y1162500D01*
X2120000Y1625000D02*
X2122426D01*
X2152500Y1594926D01*
X2105000Y1640000D02*
Y1745000D01*
Y1640000D02*
X2120000Y1625000D01*
X2155000Y1652500D02*
Y1745000D01*
Y1652500D02*
X2192500Y1615000D01*
Y1295000D02*
Y1615000D01*
X2205000Y1745000D02*
X2210000Y1740000D01*
X2132500Y1170000D02*
X2230000Y1267500D01*
X2210000Y1657574D02*
Y1740000D01*
Y1657574D02*
X2230000Y1637574D01*
Y1267500D02*
Y1637574D01*
X2270000Y1237500D02*
Y1647574D01*
X2260000Y1668284D02*
Y1740000D01*
X2260000Y1657574D02*
Y1668284D01*
X2176159Y1143659D02*
X2270000Y1237500D01*
X2260000Y1657574D02*
X2270000Y1647574D01*
X2255000Y1745000D02*
X2260000Y1740000D01*
Y1668284D02*
X2260000Y1668284D01*
X2018500Y910000D02*
X2060000Y951500D01*
X2132500Y713829D02*
Y1170000D01*
X2900000Y2440000D02*
X2995000D01*
X3040000Y2395000D01*
X3365000D01*
X3622500Y1680000D02*
Y2137500D01*
X3365000Y2395000D02*
X3622500Y2137500D01*
X3017426Y2355000D02*
X3337500D01*
X2987426Y2385000D02*
X3017426Y2355000D01*
X2976716Y2385000D02*
X2987426D01*
X2976715Y2385000D02*
X2976716Y2385000D01*
X2905000Y2385000D02*
X2976715D01*
X3337500Y2355000D02*
X3572500Y2120000D01*
X2900000Y2390000D02*
X2905000Y2385000D01*
X2900000Y2340000D02*
X2905000Y2335000D01*
X3007426Y2315000D02*
X3315000D01*
X3527500Y2102500D01*
X2905000Y2335000D02*
X2987426D01*
X3007426Y2315000D01*
X2967284Y1024784D02*
X3622500Y1680000D01*
X3572500Y1697500D02*
Y2120000D01*
X3007500Y1132500D02*
X3572500Y1697500D01*
X3527500Y1705000D02*
Y2102500D01*
X2997500Y1175000D02*
X3527500Y1705000D01*
X3093764Y2040000D02*
X3126264Y2072500D01*
X3142500D01*
X2900000Y2040000D02*
X3093764D01*
X1695000Y1935000D02*
X1700000Y1940000D01*
X1695000Y1877500D02*
Y1935000D01*
X1700000Y1940000D02*
X1760000D01*
X1655000Y1990000D02*
X1760000D01*
X1643284Y1978284D02*
X1655000Y1990000D01*
X1643284Y1903284D02*
Y1978284D01*
X2055000Y2885000D02*
Y3215000D01*
X1667500Y3367500D02*
X1902500D01*
X2055000Y3215000D01*
X2105000Y2885000D02*
Y3237500D01*
X1630000Y3475000D02*
X1932500D01*
X947500Y3090000D02*
X1245000D01*
X1882501Y3595000D02*
X2205000Y3272500D01*
X2155000Y2885000D02*
Y3252500D01*
X1245000Y3090000D02*
X1630000Y3475000D01*
X1932500D02*
X2155000Y3252500D01*
X1232500Y2932500D02*
X1667500Y3367500D01*
X1652500Y3425000D02*
X1917500D01*
X2105000Y3237500D01*
X1222500Y2995000D02*
X1652500Y3425000D01*
X1332500Y3595000D02*
X1882501D01*
X2205000Y2885000D02*
Y3272500D01*
X2255000Y2885000D02*
Y3300000D01*
X1550000Y3675000D02*
X1880000D01*
X2255000Y3300000D01*
X1805000Y3835000D02*
X2305000Y3335000D01*
X1212500Y3835000D02*
X1805000D01*
X1623250Y4220000D02*
X2082500Y3760750D01*
X1167500Y4220000D02*
X1623250D01*
X2305000Y2885000D02*
Y3335000D01*
X1345000Y3607500D02*
Y3722500D01*
X1332500Y3595000D02*
X1345000Y3607500D01*
X1324216Y3595000D02*
X1332500D01*
X1284216Y3635000D02*
Y3663284D01*
X1137500Y3792500D02*
X1140000Y3790000D01*
X1137500Y3792500D02*
Y3810000D01*
X1140000Y3790000D02*
X1157500D01*
X1284216Y3635000D02*
X1324216Y3595000D01*
X1157500Y3790000D02*
X1284216Y3663284D01*
X725300Y1362800D02*
X782500Y1420000D01*
X1175000D01*
X725300Y1266100D02*
Y1362800D01*
X1409800Y525200D02*
X1575000Y360000D01*
X1465000Y2440000D02*
X1760000D01*
X1567500Y2390000D02*
X1815133D01*
X1260000Y2082500D02*
X1567500Y2390000D01*
X1572500Y2492500D02*
X1760000D01*
X1485000Y2580000D02*
X1572500Y2492500D01*
X1392500Y2580000D02*
X1485000D01*
X1307500Y2495000D02*
X1392500Y2580000D01*
X1128750Y2082500D02*
X1260000D01*
X1013751Y1967500D02*
X1128750Y2082500D01*
X907500Y1967500D02*
X1013751D01*
X1155503Y2027500D02*
X1363003D01*
X1395503Y2060000D01*
X1102500Y1974497D02*
X1155503Y2027500D01*
X1102500Y1972500D02*
Y1974497D01*
X2417000Y1175000D02*
X2997500D01*
X2582500Y1132500D02*
X3007500D01*
X2272500Y1030500D02*
X2417000Y1175000D01*
X2570784Y954284D02*
Y1120784D01*
X2582500Y1132500D01*
X2780500Y910000D02*
Y971284D01*
X2834000Y1024784D01*
X2967284D01*
X2176159Y716414D02*
Y1143659D01*
Y716414D02*
X2215359Y677215D01*
X2554212D01*
X2620000Y611427D01*
X2132500Y713829D02*
X2201814Y644515D01*
X2417485D01*
X2526500Y535500D01*
Y415000D02*
Y535500D01*
X2620000Y482000D02*
Y611427D01*
Y482000D02*
X2687000Y415000D01*
X2272500Y910000D02*
Y1030500D01*
X2687000Y415000D02*
X2780500D01*
X2027426Y696000D02*
X2112000Y611427D01*
Y482000D02*
Y611427D01*
Y482000D02*
X2179000Y415000D01*
X2018500D02*
Y535500D01*
X1527300Y857274D02*
X1688574Y696000D01*
X2027426D01*
X2179000Y415000D02*
X2272500D01*
X1575000Y360000D02*
X1711000D01*
X1764500Y413500D01*
Y415000D01*
X2526500Y910000D02*
X2570784Y954284D01*
X1711000Y1047000D02*
X1764500Y993500D01*
Y910000D02*
Y993500D01*
X1290000Y3290000D02*
Y3375000D01*
X1330000Y3415000D01*
X1332500D01*
X1223520Y3223520D02*
X1290000Y3290000D01*
X1046480Y3223520D02*
X1223520D01*
X977500Y3292500D02*
X1046480Y3223520D01*
X1157500Y3312500D02*
Y3432500D01*
X1160000Y3435000D02*
Y3602500D01*
X977500Y3292500D02*
Y3432500D01*
X1160000Y3602500D02*
Y3682500D01*
X1157500Y3432500D02*
X1160000Y3435000D01*
X3930000Y3012500D02*
Y3260000D01*
X3870000Y2952500D02*
X3930000Y3012500D01*
X295000Y1142500D02*
Y1263799D01*
X295300Y1264100D01*
Y934100D02*
Y954100D01*
Y934100D02*
X397500Y831901D01*
Y790000D02*
Y831901D01*
Y790000D02*
X452500Y735000D01*
X295000Y1142500D02*
X342500Y1095000D01*
X480000D01*
X567500Y1007500D01*
Y575000D02*
Y1007500D01*
Y575000D02*
X665000Y477500D01*
X825000D01*
X870300Y432200D01*
Y352600D02*
Y432200D01*
X3846500Y3343500D02*
X3930000Y3260000D01*
X3805227Y3343500D02*
X3846500D01*
X3798727Y3350000D02*
X3805227Y3343500D01*
X3724100Y3350000D02*
X3798727D01*
X3838726Y2950000D02*
X3867500D01*
X3798727Y2910000D02*
X3838726Y2950000D01*
X4069999Y2270000D02*
X4077435Y2262565D01*
X4069999Y2270000D02*
X4077500Y2277500D01*
X875000Y845000D02*
Y955800D01*
X875300Y956100D01*
X725300Y976100D02*
X851700Y1102500D01*
X1100000D01*
X725300Y956100D02*
Y976100D01*
X835000Y805000D02*
X875000Y845000D01*
X760000Y805000D02*
X835000D01*
X720300Y765300D02*
X760000Y805000D01*
X720300Y662600D02*
Y765300D01*
X887500Y4140000D02*
Y4360000D01*
X947500Y4420000D02*
X1127500D01*
X887500Y4360000D02*
X947500Y4420000D01*
X1127500D02*
X1197500Y4350000D01*
X962500Y3985000D02*
Y4065000D01*
X887500Y4140000D02*
X962500Y4065000D01*
X1167500Y4220000D02*
X1197500Y4250000D01*
Y4350000D01*
X907500Y1967500D02*
Y2112500D01*
X1137500Y3945000D02*
Y4010000D01*
X1100000Y3907500D02*
X1137500Y3945000D01*
X1077500Y3907500D02*
X1100000D01*
X1037500Y3867500D02*
X1077500Y3907500D01*
X1037500Y3810000D02*
Y3867500D01*
X1137500Y4190000D02*
X1167500Y4220000D01*
X1137500Y4010000D02*
Y4190000D01*
X1087500Y3755000D02*
Y3810000D01*
X1212500Y3985000D02*
X1367500D01*
X1212500Y3985000D02*
X1212500Y3985000D01*
X1367500D02*
X1367500Y3985000D01*
X1087500Y3755000D02*
X1160000Y3682500D01*
X3704100Y2890000D02*
X3724100Y2910000D01*
X3798727D01*
X3704100Y3370000D02*
X3724100Y3350000D01*
X1152500Y977500D02*
Y1050000D01*
X1100000Y1102500D02*
X1152500Y1050000D01*
Y977500D02*
X1240000Y890000D01*
Y542500D02*
Y890000D01*
X1090000Y497500D02*
X1195000D01*
X1240000Y542500D01*
X1027500Y225000D02*
X1090000Y287500D01*
Y497500D01*
X752500Y225000D02*
X1027500D01*
X720300Y257200D02*
X752500Y225000D01*
X720300Y257200D02*
Y352600D01*
X592500Y362500D02*
X710400D01*
X720300Y352600D01*
X507500Y447500D02*
X592500Y362500D01*
X507500Y447500D02*
Y680000D01*
X452500Y735000D02*
X507500Y680000D01*
X1127500Y2510000D02*
X1142500Y2495000D01*
D37*
X3588174Y3139964D02*
X3617455Y3110683D01*
X3588174Y3170036D02*
X3620638Y3202501D01*
X3588174Y3139964D02*
Y3170036D01*
X3575000Y3099500D02*
X3617638D01*
X2900000Y2490000D02*
X2902500Y2487500D01*
X3142500Y1737500D02*
X3175000Y1770000D01*
X3282500D01*
X3302500Y1750000D01*
X2810200Y1512700D02*
X2827500Y1530000D01*
X2810200Y1357300D02*
Y1512700D01*
Y1357300D02*
X2830000Y1337500D01*
X3040048Y2497452D02*
X3052048Y2485452D01*
X2988462Y2492500D02*
X2993414Y2497452D01*
X3040048D01*
X2967500Y2492500D02*
X2988462D01*
X2967500Y2492500D02*
X2967500Y2492500D01*
X2988462Y2537500D02*
X2989509Y2536452D01*
X3040048D01*
X3052048Y2548452D01*
X2900000Y2490000D02*
X2902500Y2492500D01*
X2900000Y2540000D02*
X2902500Y2537500D01*
X2967500Y2537500D02*
X2988462D01*
X2902500Y2492500D02*
X2967500D01*
Y2537500D02*
X2967500Y2537500D01*
X2902500Y2537500D02*
X2967500D01*
X3563000Y3048500D02*
X3575000Y3060500D01*
X3617638D01*
X3563000Y3111500D02*
X3575000Y3099500D01*
X3617638D02*
X3620638Y3102501D01*
X3701600D01*
X3704100Y3105000D01*
X3617638Y3060500D02*
X3620638Y3057500D01*
X3701600D01*
X3704100Y3055000D01*
X3620638Y3202501D02*
X3701600D01*
X3704100Y3205000D01*
X1654601Y2640000D02*
X1760000D01*
X1595000Y2590000D02*
X1604601D01*
X1654601Y2640000D01*
X3787562Y3152500D02*
X3827500Y3112562D01*
Y3090000D02*
Y3112562D01*
X3795000Y3057500D02*
X3827500Y3090000D01*
X3706600Y3057500D02*
X3795000D01*
X567500Y1752500D02*
X727500D01*
X737500Y1762500D01*
X1037500Y4010000D02*
X1087500D01*
X1007500Y4080000D02*
X1037500Y4050000D01*
Y4010000D02*
Y4050000D01*
X1007500Y4080000D02*
Y4220000D01*
X3535000Y3305000D02*
X3704100D01*
X3500000Y3340000D02*
X3535000Y3305000D01*
X3706600Y3152500D02*
X3787562D01*
X3704100Y3155000D02*
X3706600Y3152500D01*
D38*
X1220000Y1617500D02*
Y1867500D01*
X1317500Y1965000D01*
X2972500Y607191D02*
Y767500D01*
X2952500Y435000D02*
Y587191D01*
X2972500Y607191D01*
X2967500Y1340000D02*
X2970000Y1342500D01*
X2832500Y1340000D02*
X2967500D01*
X2830000Y1337500D02*
X2832500Y1340000D01*
X2952500Y435000D02*
X3067500Y320000D01*
X3322500Y407500D02*
Y592500D01*
X3235000Y320000D02*
X3322500Y407500D01*
X3067500Y320000D02*
X3235000D01*
X3870000Y2952500D02*
X3940000D01*
X4050000Y2842500D01*
Y2507500D02*
Y2842500D01*
Y2507500D02*
X4077500Y2480000D01*
Y2277500D02*
Y2480000D01*
X4077435Y2040000D02*
Y2262565D01*
D39*
X3052048Y2485452D02*
X3254547D01*
X3372500Y2603406D01*
X3052048Y2548452D02*
X3228452D01*
X3309500Y2629501D01*
Y2999595D01*
X3372500Y2603406D02*
Y2973500D01*
X3309500Y2999595D02*
X3421405Y3111500D01*
X3372500Y2973500D02*
X3447500Y3048500D01*
X3421405Y3111500D02*
X3563000D01*
X3447500Y3048500D02*
X3563000D01*
D40*
X1422500Y115000D02*
X3592500D01*
X1325000Y212500D02*
X1422500Y115000D01*
X3592500D02*
X3837500Y360000D01*
X3870000Y952500D02*
Y1560000D01*
Y952500D02*
X3911250Y911250D01*
X3625000Y630000D02*
X4240000D01*
X3510500Y744500D02*
X3625000Y630000D01*
X3910000Y2080000D02*
Y2270000D01*
Y1940000D02*
Y2080000D01*
X3911250Y911250D02*
X3991500Y831000D01*
X4057500Y1792500D02*
X4065000D01*
X4080000Y1777500D01*
Y1770000D02*
Y1777500D01*
X3910000Y1940000D02*
X4057500Y1792500D01*
X1325000Y212500D02*
Y335000D01*
X3991500Y831000D02*
X4189500D01*
X3510500Y744500D02*
Y1060000D01*
X4189500D02*
X4232356D01*
D41*
X226500Y2572500D02*
D03*
Y2272500D02*
D03*
D42*
X4200000Y300000D02*
D03*
X300000D02*
D03*
X4200000Y4200000D02*
D03*
X300000D02*
D03*
D43*
X4204500Y3562000D02*
D03*
Y2698000D02*
D03*
D44*
X3786500Y3562000D02*
D03*
Y2698000D02*
D03*
D45*
X3836500Y2841000D02*
D03*
Y3419000D02*
D03*
D46*
X1725000Y1530000D02*
D03*
X465000Y2045000D02*
D03*
X577500Y2150000D02*
D03*
X627500Y2712500D02*
D03*
X260000Y3067500D02*
D03*
X467500D02*
D03*
X812500Y3312500D02*
D03*
X862500Y3482500D02*
D03*
X367500Y1595000D02*
D03*
X1220000Y1617500D02*
D03*
X1080000Y1767500D02*
D03*
X2350000Y1490000D02*
D03*
X2972500Y767500D02*
D03*
X3142500Y2072500D02*
D03*
X1420000Y2895000D02*
D03*
X1930000Y3207500D02*
D03*
X947500Y3090000D02*
D03*
X1550000Y3675000D02*
D03*
X1175000Y1420000D02*
D03*
X582528Y1237560D02*
D03*
X1260000Y1180000D02*
D03*
X3492500Y2597500D02*
D03*
X792500Y2685000D02*
D03*
X3790000Y2270000D02*
D03*
X3435000Y1937500D02*
D03*
X3810000Y2080000D02*
D03*
X2970000Y1342500D02*
D03*
X3165000Y467500D02*
D03*
X3347500Y1060000D02*
D03*
X977500Y3292500D02*
D03*
X1157500Y3312500D02*
D03*
X3780000Y2570000D02*
D03*
X300000Y580000D02*
D03*
X627500Y1992500D02*
D03*
X1090000Y780000D02*
D03*
X567500Y1752500D02*
D03*
X1595000Y2590000D02*
D03*
X1007500Y4350000D02*
D03*
X3760000Y840000D02*
D03*
X4030000Y1440000D02*
D03*
X3500000Y3630000D02*
D03*
X2982500Y4270750D02*
D03*
X907500Y2112500D02*
D03*
X1367500Y3985000D02*
D03*
D47*
X2530000Y2115000D02*
D03*
X2130000D02*
D03*
X2530000Y2515000D02*
D03*
X2130000D02*
D03*
%TF.MD5,f3b321a347582f4775ac6ef1bb187adb*%
M02*
