%TF.GenerationSoftware,Altium Limited,Altium Designer,24.6.1 (21)*%
G04 Layer_Color=65535*
%FSLAX45Y45*%
%MOMM*%
%TF.SameCoordinates,6A5B3439-CA9B-47F1-B443-B48DB32901A5*%
%TF.FilePolarity,Positive*%
%TF.FileFunction,Legend,Top*%
%TF.Part,Single*%
G01*
G75*
%TA.AperFunction,NonConductor*%
%ADD48C,0.25000*%
%ADD49C,0.25400*%
%ADD50C,0.12700*%
%ADD51C,0.20000*%
%ADD52C,0.40000*%
%ADD53C,0.17000*%
%ADD54C,0.14000*%
%ADD55R,1.20000X0.20000*%
G36*
X3539970Y4392440D02*
X3543614D01*
Y4392282D01*
X3545673D01*
Y4392124D01*
X3547416D01*
Y4391965D01*
X3548842D01*
Y4391807D01*
X3550109D01*
Y4391648D01*
X3551218D01*
Y4391490D01*
X3552327D01*
Y4391332D01*
X3553277D01*
Y4391173D01*
X3554228D01*
Y4391015D01*
X3555178D01*
Y4390856D01*
X3555970D01*
Y4390698D01*
X3556763D01*
Y4390539D01*
X3557554D01*
Y4390381D01*
X3558188D01*
Y4390223D01*
X3558980D01*
Y4390064D01*
X3559614D01*
Y4389906D01*
X3560248D01*
Y4389747D01*
X3560881D01*
Y4389589D01*
X3561515D01*
Y4389430D01*
X3562149D01*
Y4389272D01*
X3562782D01*
Y4389114D01*
X3563258D01*
Y4388955D01*
X3563891D01*
Y4388797D01*
X3564366D01*
Y4388638D01*
X3565000D01*
Y4388480D01*
X3565475D01*
Y4388322D01*
X3565950D01*
Y4388163D01*
X3566426D01*
Y4388005D01*
X3566901D01*
Y4387846D01*
X3567376D01*
Y4387688D01*
X3567852D01*
Y4387529D01*
X3568327D01*
Y4387371D01*
X3568802D01*
Y4387213D01*
X3569277D01*
Y4387054D01*
X3569753D01*
Y4386896D01*
X3570228D01*
Y4386737D01*
X3570703D01*
Y4386579D01*
X3571020D01*
Y4386420D01*
X3571495D01*
Y4386262D01*
X3571970D01*
Y4386104D01*
X3572287D01*
Y4385945D01*
X3572762D01*
Y4385787D01*
X3573079D01*
Y4385629D01*
X3573554D01*
Y4385470D01*
X3573871D01*
Y4385312D01*
X3574188D01*
Y4385153D01*
X3574663D01*
Y4384995D01*
X3574980D01*
Y4384837D01*
X3575455D01*
Y4384678D01*
X3575772D01*
Y4384520D01*
X3576089D01*
Y4384361D01*
X3576406D01*
Y4384203D01*
X3576881D01*
Y4384044D01*
X3577198D01*
Y4383886D01*
X3577515D01*
Y4383728D01*
X3577832D01*
Y4383569D01*
X3578149D01*
Y4383411D01*
X3578465D01*
Y4383252D01*
X3578941D01*
Y4383094D01*
X3579258D01*
Y4382935D01*
X3579574D01*
Y4382777D01*
X3579891D01*
Y4382619D01*
X3580208D01*
Y4382460D01*
X3580525D01*
Y4382302D01*
X3580842D01*
Y4382143D01*
X3581158D01*
Y4381985D01*
X3581475D01*
Y4381827D01*
X3581634D01*
Y4381668D01*
X3581950D01*
Y4381510D01*
X3582267D01*
Y4381351D01*
X3582584D01*
Y4381193D01*
X3582901D01*
Y4381034D01*
X3583218D01*
Y4380876D01*
X3583535D01*
Y4380718D01*
X3583693D01*
Y4380559D01*
X3584010D01*
Y4380401D01*
X3584327D01*
Y4380242D01*
X3584644D01*
Y4380084D01*
X3584960D01*
Y4379925D01*
X3585119D01*
Y4379767D01*
X3585436D01*
Y4379609D01*
X3585753D01*
Y4379450D01*
X3585911D01*
Y4379292D01*
X3586228D01*
Y4379133D01*
X3586545D01*
Y4378975D01*
X3586703D01*
Y4378817D01*
X3587020D01*
Y4378658D01*
X3587337D01*
Y4378500D01*
X3587495D01*
Y4378342D01*
X3587812D01*
Y4378183D01*
X3588129D01*
Y4378025D01*
X3588287D01*
Y4377866D01*
X3588604D01*
Y4377708D01*
X3588762D01*
Y4377549D01*
X3589079D01*
Y4377391D01*
X3589238D01*
Y4377233D01*
X3589554D01*
Y4377074D01*
X3589713D01*
Y4376916D01*
X3590030D01*
Y4376757D01*
X3590347D01*
Y4376599D01*
X3590505D01*
Y4376440D01*
X3590822D01*
Y4376282D01*
X3590980D01*
Y4376124D01*
X3591139D01*
Y4375965D01*
X3591455D01*
Y4375807D01*
X3591614D01*
Y4375648D01*
X3591931D01*
Y4375490D01*
X3592089D01*
Y4375332D01*
X3592406D01*
Y4375173D01*
X3592564D01*
Y4375015D01*
X3592881D01*
Y4374856D01*
X3593040D01*
Y4374698D01*
X3593198D01*
Y4374539D01*
X3593515D01*
Y4374381D01*
X3593673D01*
Y4374223D01*
X3593832D01*
Y4374064D01*
X3594149D01*
Y4373906D01*
X3594307D01*
Y4373747D01*
X3594465D01*
Y4373589D01*
X3594782D01*
Y4373430D01*
X3594941D01*
Y4373272D01*
X3595099D01*
Y4373114D01*
X3595416D01*
Y4372955D01*
X3595574D01*
Y4372797D01*
X3595733D01*
Y4372638D01*
X3596049D01*
Y4372480D01*
X3596208D01*
Y4372322D01*
X3596366D01*
Y4372163D01*
X3596525D01*
Y4372005D01*
X3596842D01*
Y4371846D01*
X3597000D01*
Y4371688D01*
X3597158D01*
Y4371529D01*
X3597317D01*
Y4371371D01*
X3597634D01*
Y4371213D01*
X3597792D01*
Y4371054D01*
X3597951D01*
Y4370896D01*
X3598109D01*
Y4370738D01*
X3598426D01*
Y4370579D01*
X3598584D01*
Y4370421D01*
X3598743D01*
Y4370262D01*
X3598901D01*
Y4370104D01*
X3599059D01*
Y4369945D01*
X3599376D01*
Y4369787D01*
X3599535D01*
Y4369629D01*
X3599693D01*
Y4369470D01*
X3599852D01*
Y4369312D01*
X3600010D01*
Y4369153D01*
X3600168D01*
Y4368995D01*
X3600327D01*
Y4368837D01*
X3600644D01*
Y4368678D01*
X3600802D01*
Y4368520D01*
X3600961D01*
Y4368361D01*
X3601119D01*
Y4368203D01*
X3601277D01*
Y4368044D01*
X3601436D01*
Y4367886D01*
X3601594D01*
Y4367728D01*
X3601753D01*
Y4367569D01*
X3602069D01*
Y4367411D01*
X3602228D01*
Y4367252D01*
X3602386D01*
Y4367094D01*
X3602544D01*
Y4366935D01*
X3602703D01*
Y4366777D01*
X3602861D01*
Y4366619D01*
X3603020D01*
Y4366460D01*
X3603178D01*
Y4366302D01*
X3603337D01*
Y4366143D01*
X3603495D01*
Y4365985D01*
X3603653D01*
Y4365827D01*
X3603812D01*
Y4365668D01*
X3603970D01*
Y4365510D01*
X3604129D01*
Y4365351D01*
X3604287D01*
Y4365193D01*
X3604446D01*
Y4365034D01*
X3604604D01*
Y4364876D01*
X3604762D01*
Y4364718D01*
X3604921D01*
Y4364559D01*
X3605079D01*
Y4364401D01*
X3605238D01*
Y4364242D01*
X3605396D01*
Y4364084D01*
X3605554D01*
Y4363925D01*
X3605713D01*
Y4363767D01*
X3605871D01*
Y4363609D01*
X3606030D01*
Y4363450D01*
X3606188D01*
Y4363292D01*
X3606347D01*
Y4363134D01*
X3606505D01*
Y4362975D01*
X3606663D01*
Y4362817D01*
X3606822D01*
Y4362658D01*
X3606980D01*
Y4362500D01*
X3607139D01*
Y4362341D01*
X3607297D01*
Y4362183D01*
X3607456D01*
Y4362025D01*
X3607614D01*
Y4361866D01*
X3607772D01*
Y4361708D01*
X3607931D01*
Y4361391D01*
X3608089D01*
Y4361233D01*
X3608248D01*
Y4361074D01*
X3608406D01*
Y4360916D01*
X3608564D01*
Y4360757D01*
X3608723D01*
Y4360599D01*
X3608881D01*
Y4360440D01*
X3609040D01*
Y4360282D01*
X3609198D01*
Y4359965D01*
X3609357D01*
Y4359807D01*
X3609515D01*
Y4359648D01*
X3609673D01*
Y4359490D01*
X3609832D01*
Y4359331D01*
X3609990D01*
Y4359173D01*
X3610148D01*
Y4359015D01*
X3610307D01*
Y4358698D01*
X3610465D01*
Y4358539D01*
X3610624D01*
Y4358381D01*
X3610782D01*
Y4358223D01*
X3610941D01*
Y4358064D01*
X3611099D01*
Y4357747D01*
X3611257D01*
Y4357589D01*
X3611416D01*
Y4357430D01*
X3611574D01*
Y4357272D01*
X3611733D01*
Y4356955D01*
X3611891D01*
Y4356797D01*
X3612049D01*
Y4356638D01*
X3612208D01*
Y4356480D01*
X3612366D01*
Y4356163D01*
X3612525D01*
Y4356005D01*
X3612683D01*
Y4355846D01*
X3612842D01*
Y4355688D01*
X3613000D01*
Y4355371D01*
X3613158D01*
Y4355213D01*
X3613317D01*
Y4355054D01*
X3613475D01*
Y4354738D01*
X3613634D01*
Y4354579D01*
X3613792D01*
Y4354421D01*
X3613951D01*
Y4354104D01*
X3614109D01*
Y4353945D01*
X3614267D01*
Y4353787D01*
X3614426D01*
Y4353470D01*
X3614584D01*
Y4353312D01*
X3614743D01*
Y4353153D01*
X3614901D01*
Y4352836D01*
X3615059D01*
Y4352678D01*
X3615218D01*
Y4352361D01*
X3615376D01*
Y4352203D01*
X3615535D01*
Y4352044D01*
X3615693D01*
Y4351728D01*
X3615852D01*
Y4351569D01*
X3616010D01*
Y4351252D01*
X3616168D01*
Y4351094D01*
X3616327D01*
Y4350777D01*
X3616485D01*
Y4350619D01*
X3616644D01*
Y4350302D01*
X3616802D01*
Y4350143D01*
X3616961D01*
Y4349826D01*
X3617119D01*
Y4349668D01*
X3617277D01*
Y4349351D01*
X3617436D01*
Y4349193D01*
X3617594D01*
Y4348876D01*
X3617752D01*
Y4348718D01*
X3617911D01*
Y4348401D01*
X3618069D01*
Y4348243D01*
X3618228D01*
Y4347926D01*
X3618386D01*
Y4347609D01*
X3618544D01*
Y4347450D01*
X3618703D01*
Y4347134D01*
X3618861D01*
Y4346975D01*
X3619020D01*
Y4346658D01*
X3619178D01*
Y4346341D01*
X3619337D01*
Y4346183D01*
X3619495D01*
Y4345866D01*
X3619653D01*
Y4345549D01*
X3619812D01*
Y4345391D01*
X3619970D01*
Y4345074D01*
X3620129D01*
Y4344757D01*
X3620287D01*
Y4344440D01*
X3620446D01*
Y4344282D01*
X3620604D01*
Y4343965D01*
X3620762D01*
Y4343648D01*
X3620921D01*
Y4343331D01*
X3621079D01*
Y4343173D01*
X3621238D01*
Y4342856D01*
X3621396D01*
Y4342539D01*
X3621554D01*
Y4342223D01*
X3621713D01*
Y4341906D01*
X3621871D01*
Y4341589D01*
X3622030D01*
Y4341272D01*
X3622188D01*
Y4340955D01*
X3622347D01*
Y4340639D01*
X3622505D01*
Y4340480D01*
X3622663D01*
Y4340163D01*
X3622822D01*
Y4339846D01*
X3622980D01*
Y4339530D01*
X3623139D01*
Y4339054D01*
X3623297D01*
Y4338738D01*
X3623456D01*
Y4338421D01*
X3623614D01*
Y4338104D01*
X3623772D01*
Y4337787D01*
X3623931D01*
Y4337470D01*
X3624089D01*
Y4337153D01*
X3624248D01*
Y4336836D01*
X3624406D01*
Y4336361D01*
X3624564D01*
Y4336044D01*
X3624723D01*
Y4335728D01*
X3624881D01*
Y4335411D01*
X3625040D01*
Y4334935D01*
X3625198D01*
Y4334619D01*
X3625356D01*
Y4334302D01*
X3625515D01*
Y4333826D01*
X3625673D01*
Y4333510D01*
X3625832D01*
Y4333035D01*
X3625990D01*
Y4332718D01*
X3626148D01*
Y4332242D01*
X3626307D01*
Y4331926D01*
X3626465D01*
Y4331450D01*
X3626624D01*
Y4331134D01*
X3626782D01*
Y4330658D01*
X3626941D01*
Y4330183D01*
X3627099D01*
Y4329866D01*
X3627257D01*
Y4329391D01*
X3627416D01*
Y4328916D01*
X3627574D01*
Y4328440D01*
X3627733D01*
Y4327965D01*
X3627891D01*
Y4327490D01*
X3628050D01*
Y4327015D01*
X3628208D01*
Y4326539D01*
X3628366D01*
Y4326064D01*
X3628525D01*
Y4325589D01*
X3628683D01*
Y4325114D01*
X3628842D01*
Y4324480D01*
X3629000D01*
Y4324005D01*
X3629158D01*
Y4323371D01*
X3629317D01*
Y4322896D01*
X3629475D01*
Y4322262D01*
X3629634D01*
Y4321629D01*
X3629792D01*
Y4321153D01*
X3629951D01*
Y4320520D01*
X3630109D01*
Y4319886D01*
X3630267D01*
Y4319252D01*
X3630426D01*
Y4318460D01*
X3630584D01*
Y4317827D01*
X3630743D01*
Y4317035D01*
X3630901D01*
Y4316242D01*
X3631060D01*
Y4315450D01*
X3631218D01*
Y4314658D01*
X3631376D01*
Y4313708D01*
X3631535D01*
Y4312916D01*
X3631693D01*
Y4311807D01*
X3631852D01*
Y4310698D01*
X3632010D01*
Y4309589D01*
X3632168D01*
Y4308322D01*
X3632327D01*
Y4306896D01*
X3632485D01*
Y4305153D01*
X3632643D01*
Y4302777D01*
X3632802D01*
Y4298183D01*
X3632960D01*
Y4296440D01*
X3632802D01*
Y4291688D01*
X3632643D01*
Y4289470D01*
X3632485D01*
Y4287728D01*
X3632327D01*
Y4286302D01*
X3632168D01*
Y4284876D01*
X3632010D01*
Y4283767D01*
X3631852D01*
Y4282658D01*
X3631693D01*
Y4281708D01*
X3631535D01*
Y4280757D01*
X3631376D01*
Y4279965D01*
X3631218D01*
Y4279015D01*
X3631060D01*
Y4278223D01*
X3630901D01*
Y4277431D01*
X3630743D01*
Y4276797D01*
X3630584D01*
Y4276005D01*
X3630426D01*
Y4275371D01*
X3630267D01*
Y4274737D01*
X3630109D01*
Y4274104D01*
X3629951D01*
Y4273470D01*
X3629792D01*
Y4272837D01*
X3629634D01*
Y4272203D01*
X3629475D01*
Y4271728D01*
X3629317D01*
Y4271094D01*
X3629158D01*
Y4270619D01*
X3629000D01*
Y4269985D01*
X3628842D01*
Y4269510D01*
X3628683D01*
Y4269035D01*
X3628525D01*
Y4268559D01*
X3628366D01*
Y4267926D01*
X3628208D01*
Y4267450D01*
X3628050D01*
Y4266975D01*
X3627891D01*
Y4266500D01*
X3627733D01*
Y4266025D01*
X3627574D01*
Y4265708D01*
X3627416D01*
Y4265233D01*
X3627257D01*
Y4264757D01*
X3627099D01*
Y4264282D01*
X3626941D01*
Y4263965D01*
X3626782D01*
Y4263490D01*
X3626624D01*
Y4263015D01*
X3626465D01*
Y4262698D01*
X3626307D01*
Y4262223D01*
X3626148D01*
Y4261906D01*
X3625990D01*
Y4261431D01*
X3625832D01*
Y4261114D01*
X3625673D01*
Y4260638D01*
X3625515D01*
Y4260322D01*
X3625356D01*
Y4260005D01*
X3625198D01*
Y4259529D01*
X3625040D01*
Y4259213D01*
X3624881D01*
Y4258896D01*
X3624723D01*
Y4258421D01*
X3624564D01*
Y4258104D01*
X3624406D01*
Y4257787D01*
X3624248D01*
Y4257470D01*
X3624089D01*
Y4257153D01*
X3623931D01*
Y4256678D01*
X3623772D01*
Y4256361D01*
X3623614D01*
Y4256044D01*
X3623456D01*
Y4255728D01*
X3623297D01*
Y4255411D01*
X3623139D01*
Y4255094D01*
X3622980D01*
Y4254777D01*
X3622822D01*
Y4254460D01*
X3622663D01*
Y4254143D01*
X3622505D01*
Y4253827D01*
X3622347D01*
Y4253510D01*
X3622188D01*
Y4253193D01*
X3622030D01*
Y4252876D01*
X3621871D01*
Y4252559D01*
X3621713D01*
Y4252401D01*
X3621554D01*
Y4252084D01*
X3621396D01*
Y4251767D01*
X3621238D01*
Y4251450D01*
X3621079D01*
Y4251133D01*
X3620921D01*
Y4250817D01*
X3620762D01*
Y4250658D01*
X3621396D01*
Y4250500D01*
X3622030D01*
Y4250342D01*
X3622663D01*
Y4250183D01*
X3623297D01*
Y4250025D01*
X3623931D01*
Y4249866D01*
X3624564D01*
Y4249708D01*
X3625198D01*
Y4249549D01*
X3625832D01*
Y4249391D01*
X3626465D01*
Y4249233D01*
X3627099D01*
Y4249074D01*
X3627574D01*
Y4248916D01*
X3628208D01*
Y4248757D01*
X3628842D01*
Y4248599D01*
X3629317D01*
Y4248441D01*
X3629951D01*
Y4248282D01*
X3630426D01*
Y4248124D01*
X3631060D01*
Y4247965D01*
X3631535D01*
Y4247807D01*
X3632010D01*
Y4247648D01*
X3632643D01*
Y4247490D01*
X3633119D01*
Y4247332D01*
X3633594D01*
Y4247173D01*
X3634069D01*
Y4247015D01*
X3634545D01*
Y4246856D01*
X3635178D01*
Y4246698D01*
X3635653D01*
Y4246539D01*
X3636129D01*
Y4246381D01*
X3636604D01*
Y4246223D01*
X3637079D01*
Y4246064D01*
X3637555D01*
Y4245906D01*
X3638030D01*
Y4245747D01*
X3638505D01*
Y4245589D01*
X3638980D01*
Y4245431D01*
X3639456D01*
Y4245272D01*
X3639772D01*
Y4245114D01*
X3640247D01*
Y4244955D01*
X3640723D01*
Y4244797D01*
X3641198D01*
Y4244638D01*
X3641673D01*
Y4244480D01*
X3641990D01*
Y4244322D01*
X3642465D01*
Y4244163D01*
X3642941D01*
Y4244005D01*
X3643416D01*
Y4243846D01*
X3643733D01*
Y4243688D01*
X3644208D01*
Y4243529D01*
X3644683D01*
Y4243371D01*
X3645000D01*
Y4243213D01*
X3645475D01*
Y4243054D01*
X3645792D01*
Y4242896D01*
X3646267D01*
Y4242738D01*
X3646584D01*
Y4242579D01*
X3647060D01*
Y4242421D01*
X3647535D01*
Y4242262D01*
X3647851D01*
Y4242104D01*
X3648168D01*
Y4241946D01*
X3648643D01*
Y4241787D01*
X3648960D01*
Y4241629D01*
X3649436D01*
Y4241470D01*
X3649752D01*
Y4241312D01*
X3650228D01*
Y4241153D01*
X3650545D01*
Y4240995D01*
X3650861D01*
Y4240837D01*
X3651337D01*
Y4240678D01*
X3651653D01*
Y4240520D01*
X3651970D01*
Y4240361D01*
X3652446D01*
Y4240203D01*
X3652762D01*
Y4240044D01*
X3653079D01*
Y4239886D01*
X3653396D01*
Y4239728D01*
X3653871D01*
Y4239569D01*
X3654188D01*
Y4239411D01*
X3654505D01*
Y4239252D01*
X3654822D01*
Y4239094D01*
X3655297D01*
Y4238936D01*
X3655614D01*
Y4238777D01*
X3655931D01*
Y4238619D01*
X3656247D01*
Y4238460D01*
X3656564D01*
Y4238302D01*
X3656881D01*
Y4238143D01*
X3657356D01*
Y4237985D01*
X3657673D01*
Y4237827D01*
X3657990D01*
Y4237668D01*
X3658307D01*
Y4237510D01*
X3658624D01*
Y4237351D01*
X3658941D01*
Y4237193D01*
X3659257D01*
Y4237034D01*
X3659574D01*
Y4236876D01*
X3659891D01*
Y4236718D01*
X3660208D01*
Y4236559D01*
X3660525D01*
Y4236401D01*
X3660842D01*
Y4236242D01*
X3661159D01*
Y4236084D01*
X3661475D01*
Y4235926D01*
X3661792D01*
Y4235767D01*
X3662109D01*
Y4235609D01*
X3662426D01*
Y4235450D01*
X3662742D01*
Y4235292D01*
X3663059D01*
Y4235134D01*
X3663376D01*
Y4234975D01*
X3663693D01*
Y4234817D01*
X3664010D01*
Y4234658D01*
X3664327D01*
Y4234500D01*
X3664644D01*
Y4234342D01*
X3664960D01*
Y4234183D01*
X3665119D01*
Y4234025D01*
X3665436D01*
Y4233866D01*
X3665752D01*
Y4233708D01*
X3666069D01*
Y4233549D01*
X3666386D01*
Y4233391D01*
X3666703D01*
Y4233233D01*
X3667020D01*
Y4233074D01*
X3667178D01*
Y4232916D01*
X3667495D01*
Y4232757D01*
X3667812D01*
Y4232599D01*
X3668129D01*
Y4232440D01*
X3668446D01*
Y4232282D01*
X3668604D01*
Y4232124D01*
X3668921D01*
Y4231965D01*
X3669238D01*
Y4231807D01*
X3669555D01*
Y4231648D01*
X3669713D01*
Y4231490D01*
X3670030D01*
Y4231332D01*
X3670346D01*
Y4231173D01*
X3670663D01*
Y4231015D01*
X3670822D01*
Y4230856D01*
X3671139D01*
Y4230698D01*
X3671455D01*
Y4230539D01*
X3671772D01*
Y4230381D01*
X3671931D01*
Y4230223D01*
X3672247D01*
Y4230064D01*
X3672564D01*
Y4229906D01*
X3672723D01*
Y4229747D01*
X3673040D01*
Y4229589D01*
X3673356D01*
Y4229430D01*
X3673515D01*
Y4229272D01*
X3673832D01*
Y4229114D01*
X3674149D01*
Y4228955D01*
X3674307D01*
Y4228797D01*
X3674624D01*
Y4228638D01*
X3674941D01*
Y4228480D01*
X3675099D01*
Y4228322D01*
X3675416D01*
Y4228163D01*
X3675574D01*
Y4228005D01*
X3675891D01*
Y4227847D01*
X3676208D01*
Y4227688D01*
X3676366D01*
Y4227530D01*
X3676683D01*
Y4227371D01*
X3676842D01*
Y4227213D01*
X3677159D01*
Y4227054D01*
X3677475D01*
Y4226896D01*
X3677634D01*
Y4226738D01*
X3677950D01*
Y4226579D01*
X3678109D01*
Y4226421D01*
X3678426D01*
Y4226262D01*
X3678584D01*
Y4226104D01*
X3678901D01*
Y4225945D01*
X3679059D01*
Y4225787D01*
X3679376D01*
Y4225629D01*
X3679693D01*
Y4225470D01*
X3679851D01*
Y4225312D01*
X3680168D01*
Y4225153D01*
X3680327D01*
Y4224995D01*
X3680644D01*
Y4224837D01*
X3680802D01*
Y4224678D01*
X3681119D01*
Y4224520D01*
X3681277D01*
Y4224361D01*
X3681594D01*
Y4224203D01*
X3681752D01*
Y4224044D01*
X3681911D01*
Y4223886D01*
X3682228D01*
Y4223728D01*
X3682386D01*
Y4223569D01*
X3682703D01*
Y4223411D01*
X3682861D01*
Y4223252D01*
X3683178D01*
Y4223094D01*
X3683337D01*
Y4222935D01*
X3683654D01*
Y4222777D01*
X3683812D01*
Y4222619D01*
X3684129D01*
Y4222460D01*
X3684287D01*
Y4222302D01*
X3684446D01*
Y4222143D01*
X3684762D01*
Y4221985D01*
X3684921D01*
Y4221827D01*
X3685237D01*
Y4221668D01*
X3685396D01*
Y4221510D01*
X3685554D01*
Y4221351D01*
X3685871D01*
Y4221193D01*
X3686030D01*
Y4221034D01*
X3686346D01*
Y4220876D01*
X3686505D01*
Y4220718D01*
X3686663D01*
Y4220559D01*
X3686980D01*
Y4220401D01*
X3687139D01*
Y4220243D01*
X3687297D01*
Y4220084D01*
X3687614D01*
Y4219926D01*
X3687772D01*
Y4219767D01*
X3688089D01*
Y4219609D01*
X3688247D01*
Y4219450D01*
X3688406D01*
Y4219292D01*
X3688723D01*
Y4219134D01*
X3688881D01*
Y4218975D01*
X3689040D01*
Y4218817D01*
X3689356D01*
Y4218658D01*
X3689515D01*
Y4218500D01*
X3689673D01*
Y4218342D01*
X3689990D01*
Y4218183D01*
X3690149D01*
Y4218025D01*
X3690307D01*
Y4217866D01*
X3690465D01*
Y4217708D01*
X3690782D01*
Y4217549D01*
X3690941D01*
Y4217391D01*
X3691099D01*
Y4217233D01*
X3691416D01*
Y4217074D01*
X3691574D01*
Y4216916D01*
X3691733D01*
Y4216757D01*
X3692050D01*
Y4216599D01*
X3692208D01*
Y4216440D01*
X3692366D01*
Y4216282D01*
X3692525D01*
Y4216124D01*
X3692841D01*
Y4215965D01*
X3693000D01*
Y4215807D01*
X3693158D01*
Y4215648D01*
X3693317D01*
Y4215490D01*
X3693634D01*
Y4215332D01*
X3693792D01*
Y4215173D01*
X3693950D01*
Y4215015D01*
X3694109D01*
Y4214856D01*
X3694426D01*
Y4214698D01*
X3694584D01*
Y4214539D01*
X3694743D01*
Y4214381D01*
X3694901D01*
Y4214223D01*
X3695059D01*
Y4214064D01*
X3695376D01*
Y4213906D01*
X3695535D01*
Y4213747D01*
X3695693D01*
Y4213589D01*
X3695851D01*
Y4213430D01*
X3696168D01*
Y4213272D01*
X3696327D01*
Y4213114D01*
X3696485D01*
Y4212955D01*
X3696644D01*
Y4212797D01*
X3696802D01*
Y4212639D01*
X3697119D01*
Y4212480D01*
X3697277D01*
Y4212322D01*
X3697436D01*
Y4212163D01*
X3697594D01*
Y4212005D01*
X3697753D01*
Y4211847D01*
X3697911D01*
Y4211688D01*
X3698228D01*
Y4211530D01*
X3698386D01*
Y4211371D01*
X3698545D01*
Y4211213D01*
X3698703D01*
Y4211054D01*
X3698861D01*
Y4210896D01*
X3699020D01*
Y4210738D01*
X3699337D01*
Y4210579D01*
X3699495D01*
Y4210421D01*
X3699654D01*
Y4210262D01*
X3699812D01*
Y4210104D01*
X3699970D01*
Y4209945D01*
X3700129D01*
Y4209787D01*
X3700287D01*
Y4209629D01*
X3700604D01*
Y4209470D01*
X3700762D01*
Y4209312D01*
X3700921D01*
Y4209153D01*
X3701079D01*
Y4208995D01*
X3701238D01*
Y4208837D01*
X3701396D01*
Y4208678D01*
X3701554D01*
Y4208520D01*
X3701713D01*
Y4208361D01*
X3701871D01*
Y4208203D01*
X3702188D01*
Y4208044D01*
X3702346D01*
Y4207886D01*
X3702505D01*
Y4207728D01*
X3702663D01*
Y4207569D01*
X3702822D01*
Y4207411D01*
X3702980D01*
Y4207252D01*
X3703139D01*
Y4207094D01*
X3703297D01*
Y4206935D01*
X3703455D01*
Y4206777D01*
X3703614D01*
Y4206619D01*
X3703772D01*
Y4206460D01*
X3704089D01*
Y4206302D01*
X3704248D01*
Y4206143D01*
X3704406D01*
Y4205985D01*
X3704564D01*
Y4205827D01*
X3704723D01*
Y4205668D01*
X3704881D01*
Y4205510D01*
X3705040D01*
Y4205351D01*
X3705198D01*
Y4205193D01*
X3705356D01*
Y4205035D01*
X3705515D01*
Y4204876D01*
X3705673D01*
Y4204718D01*
X3705832D01*
Y4204559D01*
X3705990D01*
Y4204401D01*
X3706149D01*
Y4204243D01*
X3706307D01*
Y4204084D01*
X3706465D01*
Y4203926D01*
X3706624D01*
Y4203767D01*
X3706782D01*
Y4203609D01*
X3706941D01*
Y4203450D01*
X3707099D01*
Y4203292D01*
X3707258D01*
Y4203134D01*
X3707416D01*
Y4202975D01*
X3707733D01*
Y4202817D01*
X3707891D01*
Y4202658D01*
X3708049D01*
Y4202500D01*
X3708208D01*
Y4202341D01*
X3708366D01*
Y4202183D01*
X3708525D01*
Y4202025D01*
X3708683D01*
Y4201866D01*
X3708841D01*
Y4201708D01*
X3709000D01*
Y4201549D01*
X3709158D01*
Y4201391D01*
X3709317D01*
Y4201233D01*
X3709475D01*
Y4201074D01*
X3709634D01*
Y4200757D01*
X3709792D01*
Y4200599D01*
X3709950D01*
Y4200440D01*
X3710109D01*
Y4200282D01*
X3710267D01*
Y4200124D01*
X3710426D01*
Y4199965D01*
X3710584D01*
Y4199807D01*
X3710743D01*
Y4199648D01*
X3710901D01*
Y4199490D01*
X3711059D01*
Y4199331D01*
X3711218D01*
Y4199173D01*
X3711376D01*
Y4199015D01*
X3711535D01*
Y4198856D01*
X3711693D01*
Y4198698D01*
X3711851D01*
Y4198539D01*
X3712010D01*
Y4198381D01*
X3712168D01*
Y4198223D01*
X3712327D01*
Y4198064D01*
X3712485D01*
Y4197906D01*
X3712644D01*
Y4197748D01*
X3712802D01*
Y4197589D01*
X3712960D01*
Y4197431D01*
X3713119D01*
Y4197272D01*
X3713277D01*
Y4196955D01*
X3713436D01*
Y4196797D01*
X3713594D01*
Y4196639D01*
X3713753D01*
Y4196480D01*
X3713911D01*
Y4196322D01*
X3714069D01*
Y4196163D01*
X3714228D01*
Y4196005D01*
X3714386D01*
Y4195846D01*
X3714545D01*
Y4195688D01*
X3714703D01*
Y4195530D01*
X3714861D01*
Y4195371D01*
X3715020D01*
Y4195054D01*
X3715178D01*
Y4194896D01*
X3715336D01*
Y4194738D01*
X3715495D01*
Y4194579D01*
X3715653D01*
Y4194421D01*
X3715812D01*
Y4194262D01*
X3715970D01*
Y4194104D01*
X3716129D01*
Y4193945D01*
X3716287D01*
Y4193629D01*
X3716445D01*
Y4193470D01*
X3716604D01*
Y4193312D01*
X3716762D01*
Y4193153D01*
X3716921D01*
Y4192995D01*
X3717079D01*
Y4192836D01*
X3717238D01*
Y4192678D01*
X3717396D01*
Y4192361D01*
X3717554D01*
Y4192203D01*
X3717713D01*
Y4192044D01*
X3717871D01*
Y4191886D01*
X3718030D01*
Y4191728D01*
X3718188D01*
Y4191569D01*
X3718346D01*
Y4191411D01*
X3718505D01*
Y4191094D01*
X3718663D01*
Y4190935D01*
X3718822D01*
Y4190777D01*
X3718980D01*
Y4190619D01*
X3719139D01*
Y4190460D01*
X3719297D01*
Y4190144D01*
X3719455D01*
Y4189985D01*
X3719614D01*
Y4189827D01*
X3719772D01*
Y4189668D01*
X3719931D01*
Y4189510D01*
X3720089D01*
Y4189193D01*
X3720248D01*
Y4189035D01*
X3720406D01*
Y4188876D01*
X3720564D01*
Y4188718D01*
X3720723D01*
Y4188559D01*
X3720881D01*
Y4188243D01*
X3721040D01*
Y4188084D01*
X3721198D01*
Y4187926D01*
X3721356D01*
Y4187767D01*
X3721515D01*
Y4187450D01*
X3721673D01*
Y4187292D01*
X3721832D01*
Y4187134D01*
X3721990D01*
Y4186975D01*
X3722149D01*
Y4186817D01*
X3722307D01*
Y4186500D01*
X3722465D01*
Y4186341D01*
X3722624D01*
Y4186183D01*
X3722782D01*
Y4185866D01*
X3722940D01*
Y4185708D01*
X3723099D01*
Y4185549D01*
X3723257D01*
Y4185391D01*
X3723416D01*
Y4185074D01*
X3723574D01*
Y4184916D01*
X3723733D01*
Y4184757D01*
X3723891D01*
Y4184599D01*
X3724049D01*
Y4184282D01*
X3724208D01*
Y4184124D01*
X3724366D01*
Y4183965D01*
X3724525D01*
Y4183648D01*
X3724683D01*
Y4183490D01*
X3724842D01*
Y4183331D01*
X3725000D01*
Y4183015D01*
X3725158D01*
Y4182856D01*
X3725317D01*
Y4182698D01*
X3725475D01*
Y4182381D01*
X3725634D01*
Y4182223D01*
X3725792D01*
Y4182064D01*
X3725950D01*
Y4181748D01*
X3726109D01*
Y4181589D01*
X3726267D01*
Y4181431D01*
X3726426D01*
Y4181114D01*
X3726584D01*
Y4180955D01*
X3726743D01*
Y4180797D01*
X3726901D01*
Y4180480D01*
X3727059D01*
Y4180322D01*
X3727218D01*
Y4180163D01*
X3727376D01*
Y4179846D01*
X3727535D01*
Y4179688D01*
X3727693D01*
Y4179371D01*
X3727852D01*
Y4179213D01*
X3728010D01*
Y4179054D01*
X3728168D01*
Y4178738D01*
X3728327D01*
Y4178579D01*
X3728485D01*
Y4178262D01*
X3728644D01*
Y4178104D01*
X3728802D01*
Y4177945D01*
X3728960D01*
Y4177629D01*
X3729119D01*
Y4177470D01*
X3729277D01*
Y4177153D01*
X3729436D01*
Y4176995D01*
X3729594D01*
Y4176678D01*
X3729753D01*
Y4176520D01*
X3729911D01*
Y4176361D01*
X3730069D01*
Y4176044D01*
X3730228D01*
Y4175886D01*
X3730386D01*
Y4175569D01*
X3730544D01*
Y4175411D01*
X3730703D01*
Y4175094D01*
X3730861D01*
Y4174936D01*
X3731020D01*
Y4174619D01*
X3731178D01*
Y4174460D01*
X3731337D01*
Y4174144D01*
X3731495D01*
Y4173985D01*
X3731653D01*
Y4173668D01*
X3731812D01*
Y4173510D01*
X3731970D01*
Y4173193D01*
X3732129D01*
Y4173035D01*
X3732287D01*
Y4172718D01*
X3732445D01*
Y4172559D01*
X3732604D01*
Y4172242D01*
X3732762D01*
Y4172084D01*
X3732921D01*
Y4171767D01*
X3733079D01*
Y4171609D01*
X3733238D01*
Y4171292D01*
X3733396D01*
Y4170975D01*
X3733554D01*
Y4170817D01*
X3733713D01*
Y4170500D01*
X3733871D01*
Y4170341D01*
X3734030D01*
Y4170025D01*
X3734188D01*
Y4169866D01*
X3734347D01*
Y4169549D01*
X3734505D01*
Y4169232D01*
X3734663D01*
Y4169074D01*
X3734822D01*
Y4168757D01*
X3734980D01*
Y4168599D01*
X3735139D01*
Y4168282D01*
X3735297D01*
Y4167965D01*
X3735455D01*
Y4167807D01*
X3735614D01*
Y4167490D01*
X3735772D01*
Y4167173D01*
X3735931D01*
Y4167015D01*
X3736089D01*
Y4166698D01*
X3736248D01*
Y4166381D01*
X3736406D01*
Y4166223D01*
X3736564D01*
Y4165906D01*
X3736723D01*
Y4165589D01*
X3736881D01*
Y4165431D01*
X3737040D01*
Y4165114D01*
X3737198D01*
Y4164797D01*
X3737357D01*
Y4164639D01*
X3737515D01*
Y4164322D01*
X3737673D01*
Y4164005D01*
X3737832D01*
Y4163688D01*
X3737990D01*
Y4163530D01*
X3738148D01*
Y4163213D01*
X3738307D01*
Y4162896D01*
X3738465D01*
Y4162579D01*
X3738624D01*
Y4162421D01*
X3738782D01*
Y4162104D01*
X3738940D01*
Y4161787D01*
X3739099D01*
Y4161470D01*
X3739257D01*
Y4161153D01*
X3739416D01*
Y4160995D01*
X3739574D01*
Y4160678D01*
X3739733D01*
Y4160361D01*
X3739891D01*
Y4160045D01*
X3740049D01*
Y4159728D01*
X3740208D01*
Y4159569D01*
X3740366D01*
Y4159252D01*
X3740525D01*
Y4158936D01*
X3740683D01*
Y4158619D01*
X3740842D01*
Y4158302D01*
X3741000D01*
Y4157985D01*
X3741158D01*
Y4157668D01*
X3741317D01*
Y4157351D01*
X3741475D01*
Y4157035D01*
X3741634D01*
Y4156876D01*
X3741792D01*
Y4156559D01*
X3741950D01*
Y4156242D01*
X3742109D01*
Y4155926D01*
X3742267D01*
Y4155609D01*
X3742426D01*
Y4155292D01*
X3742584D01*
Y4154975D01*
X3742743D01*
Y4154658D01*
X3742901D01*
Y4154341D01*
X3743059D01*
Y4154025D01*
X3743218D01*
Y4153708D01*
X3743376D01*
Y4153391D01*
X3743535D01*
Y4153074D01*
X3743693D01*
Y4152757D01*
X3743852D01*
Y4152441D01*
X3744010D01*
Y4152124D01*
X3744168D01*
Y4151649D01*
X3744327D01*
Y4151332D01*
X3744485D01*
Y4151015D01*
X3744644D01*
Y4150698D01*
X3744802D01*
Y4150381D01*
X3744960D01*
Y4150064D01*
X3745119D01*
Y4149747D01*
X3745277D01*
Y4149431D01*
X3745435D01*
Y4148955D01*
X3745594D01*
Y4148639D01*
X3745752D01*
Y4148322D01*
X3745911D01*
Y4148005D01*
X3746069D01*
Y4147688D01*
X3746228D01*
Y4147213D01*
X3746386D01*
Y4146896D01*
X3746544D01*
Y4146579D01*
X3746703D01*
Y4146262D01*
X3746861D01*
Y4145787D01*
X3747020D01*
Y4145470D01*
X3747178D01*
Y4145153D01*
X3747337D01*
Y4144678D01*
X3747495D01*
Y4144361D01*
X3747653D01*
Y4144045D01*
X3747812D01*
Y4143569D01*
X3747970D01*
Y4143252D01*
X3748129D01*
Y4142936D01*
X3748287D01*
Y4142460D01*
X3748445D01*
Y4142143D01*
X3748604D01*
Y4141668D01*
X3748762D01*
Y4141351D01*
X3748921D01*
Y4140876D01*
X3749079D01*
Y4140559D01*
X3749238D01*
Y4140084D01*
X3749396D01*
Y4139767D01*
X3749554D01*
Y4139292D01*
X3749713D01*
Y4138975D01*
X3749871D01*
Y4138500D01*
X3750030D01*
Y4138183D01*
X3750188D01*
Y4137708D01*
X3750347D01*
Y4137233D01*
X3750505D01*
Y4136916D01*
X3750663D01*
Y4136441D01*
X3750822D01*
Y4135965D01*
X3750980D01*
Y4135648D01*
X3751139D01*
Y4135173D01*
X3751297D01*
Y4134698D01*
X3751455D01*
Y4134223D01*
X3751614D01*
Y4133747D01*
X3751772D01*
Y4133431D01*
X3751931D01*
Y4132955D01*
X3752089D01*
Y4132480D01*
X3752248D01*
Y4132005D01*
X3752406D01*
Y4131530D01*
X3752564D01*
Y4131054D01*
X3752723D01*
Y4130579D01*
X3752881D01*
Y4130104D01*
X3753039D01*
Y4129629D01*
X3753198D01*
Y4129153D01*
X3753356D01*
Y4128678D01*
X3753515D01*
Y4128203D01*
X3753673D01*
Y4127728D01*
X3753832D01*
Y4127094D01*
X3753990D01*
Y4126619D01*
X3754148D01*
Y4126143D01*
X3754307D01*
Y4125668D01*
X3754465D01*
Y4125035D01*
X3754624D01*
Y4124559D01*
X3754782D01*
Y4123926D01*
X3754941D01*
Y4123450D01*
X3755099D01*
Y4122975D01*
X3755257D01*
Y4122342D01*
X3755416D01*
Y4121708D01*
X3755574D01*
Y4121233D01*
X3755733D01*
Y4120599D01*
X3755891D01*
Y4119965D01*
X3756049D01*
Y4119490D01*
X3756208D01*
Y4118856D01*
X3756366D01*
Y4118223D01*
X3756525D01*
Y4117589D01*
X3756683D01*
Y4116955D01*
X3756842D01*
Y4116322D01*
X3757000D01*
Y4115688D01*
X3757158D01*
Y4115055D01*
X3757317D01*
Y4114262D01*
X3757475D01*
Y4113629D01*
X3757634D01*
Y4112995D01*
X3757792D01*
Y4112203D01*
X3757951D01*
Y4111569D01*
X3758109D01*
Y4110777D01*
X3758267D01*
Y4109985D01*
X3758426D01*
Y4109193D01*
X3758584D01*
Y4108401D01*
X3758743D01*
Y4107609D01*
X3758901D01*
Y4106817D01*
X3759059D01*
Y4106025D01*
X3759218D01*
Y4105074D01*
X3759376D01*
Y4104282D01*
X3759535D01*
Y4103332D01*
X3759693D01*
Y4102381D01*
X3759852D01*
Y4101272D01*
X3760010D01*
Y4100322D01*
X3760168D01*
Y4099213D01*
X3760327D01*
Y4098104D01*
X3760485D01*
Y4096995D01*
X3760643D01*
Y4095728D01*
X3760802D01*
Y4094460D01*
X3760960D01*
Y4093034D01*
X3761119D01*
Y4091609D01*
X3761277D01*
Y4090025D01*
X3761436D01*
Y4088124D01*
X3761594D01*
Y4086223D01*
X3761752D01*
Y4083688D01*
X3761911D01*
Y4080678D01*
X3762069D01*
Y4074817D01*
X3762228D01*
Y4070698D01*
X3762069D01*
Y4064837D01*
X3761911D01*
Y4061827D01*
X3761752D01*
Y4059450D01*
X3761594D01*
Y4057391D01*
X3761436D01*
Y4055648D01*
X3761277D01*
Y4053906D01*
X3761119D01*
Y4052480D01*
X3760960D01*
Y4051054D01*
X3760802D01*
Y4049787D01*
X3760643D01*
Y4048520D01*
X3760485D01*
Y4047411D01*
X3760327D01*
Y4046302D01*
X3760168D01*
Y4045193D01*
X3760010D01*
Y4044243D01*
X3759852D01*
Y4043134D01*
X3759693D01*
Y4042183D01*
X3759535D01*
Y4041391D01*
X3759376D01*
Y4040440D01*
X3759218D01*
Y4039490D01*
X3759059D01*
Y4038698D01*
X3758901D01*
Y4037906D01*
X3758743D01*
Y4037114D01*
X3758584D01*
Y4036322D01*
X3758426D01*
Y4035530D01*
X3758267D01*
Y4034738D01*
X3758109D01*
Y4033945D01*
X3757951D01*
Y4033312D01*
X3757792D01*
Y4032520D01*
X3757634D01*
Y4031886D01*
X3757475D01*
Y4031253D01*
X3757317D01*
Y4030460D01*
X3757158D01*
Y4029827D01*
X3757000D01*
Y4029193D01*
X3756842D01*
Y4028559D01*
X3756683D01*
Y4027926D01*
X3756525D01*
Y4027292D01*
X3756366D01*
Y4026658D01*
X3756208D01*
Y4026025D01*
X3756049D01*
Y4025549D01*
X3755891D01*
Y4024916D01*
X3755733D01*
Y4024282D01*
X3755574D01*
Y4023807D01*
X3755416D01*
Y4023173D01*
X3755257D01*
Y4022698D01*
X3755099D01*
Y4022064D01*
X3754941D01*
Y4021589D01*
X3754782D01*
Y4020955D01*
X3754624D01*
Y4020480D01*
X3754465D01*
Y4020005D01*
X3754307D01*
Y4019371D01*
X3754148D01*
Y4018896D01*
X3753990D01*
Y4018421D01*
X3753832D01*
Y4017945D01*
X3753673D01*
Y4017312D01*
X3753515D01*
Y4016837D01*
X3753356D01*
Y4016361D01*
X3753198D01*
Y4015886D01*
X3753039D01*
Y4015411D01*
X3752881D01*
Y4014936D01*
X3752723D01*
Y4014460D01*
X3752564D01*
Y4013985D01*
X3752406D01*
Y4013510D01*
X3752248D01*
Y4013035D01*
X3752089D01*
Y4012559D01*
X3751931D01*
Y4012084D01*
X3751772D01*
Y4011767D01*
X3751614D01*
Y4011292D01*
X3751455D01*
Y4010817D01*
X3751297D01*
Y4010341D01*
X3751139D01*
Y4010025D01*
X3750980D01*
Y4009550D01*
X3750822D01*
Y4009074D01*
X3750663D01*
Y4008599D01*
X3750505D01*
Y4008282D01*
X3750347D01*
Y4007807D01*
X3750188D01*
Y4007490D01*
X3750030D01*
Y4007015D01*
X3749871D01*
Y4006540D01*
X3749713D01*
Y4006223D01*
X3749554D01*
Y4005747D01*
X3749396D01*
Y4005431D01*
X3749238D01*
Y4004955D01*
X3749079D01*
Y4004639D01*
X3748921D01*
Y4004163D01*
X3748762D01*
Y4003846D01*
X3748604D01*
Y4003371D01*
X3748445D01*
Y4003054D01*
X3748287D01*
Y4002579D01*
X3748129D01*
Y4002262D01*
X3747970D01*
Y4001946D01*
X3747812D01*
Y4001470D01*
X3747653D01*
Y4001154D01*
X3747495D01*
Y4000837D01*
X3747337D01*
Y4000361D01*
X3747178D01*
Y4000045D01*
X3747020D01*
Y3999728D01*
X3746861D01*
Y3999252D01*
X3746703D01*
Y3998936D01*
X3746544D01*
Y3998619D01*
X3746386D01*
Y3998302D01*
X3746228D01*
Y3997827D01*
X3746069D01*
Y3997510D01*
X3745911D01*
Y3997193D01*
X3745752D01*
Y3996876D01*
X3745594D01*
Y3996559D01*
X3745435D01*
Y3996084D01*
X3745277D01*
Y3995767D01*
X3745119D01*
Y3995450D01*
X3744960D01*
Y3995134D01*
X3744802D01*
Y3994817D01*
X3744644D01*
Y3994500D01*
X3744485D01*
Y3994183D01*
X3744327D01*
Y3993866D01*
X3744168D01*
Y3993391D01*
X3744010D01*
Y3993074D01*
X3743852D01*
Y3992757D01*
X3743693D01*
Y3992441D01*
X3743535D01*
Y3992124D01*
X3743376D01*
Y3991807D01*
X3743218D01*
Y3991490D01*
X3743059D01*
Y3991173D01*
X3742901D01*
Y3990856D01*
X3742743D01*
Y3990540D01*
X3742584D01*
Y3990223D01*
X3742426D01*
Y3989906D01*
X3742267D01*
Y3989589D01*
X3742109D01*
Y3989272D01*
X3741950D01*
Y3988955D01*
X3741792D01*
Y3988797D01*
X3741634D01*
Y3988480D01*
X3741475D01*
Y3988163D01*
X3741317D01*
Y3987846D01*
X3741158D01*
Y3987530D01*
X3741000D01*
Y3987213D01*
X3740842D01*
Y3986896D01*
X3740683D01*
Y3986579D01*
X3740525D01*
Y3986262D01*
X3740366D01*
Y3986104D01*
X3740208D01*
Y3985787D01*
X3740049D01*
Y3985470D01*
X3739891D01*
Y3985153D01*
X3739733D01*
Y3984837D01*
X3739574D01*
Y3984520D01*
X3739416D01*
Y3984361D01*
X3739257D01*
Y3984045D01*
X3739099D01*
Y3983728D01*
X3738940D01*
Y3983411D01*
X3738782D01*
Y3983094D01*
X3738624D01*
Y3982936D01*
X3738465D01*
Y3982619D01*
X3738307D01*
Y3982302D01*
X3738148D01*
Y3981985D01*
X3737990D01*
Y3981827D01*
X3737832D01*
Y3981510D01*
X3737673D01*
Y3981193D01*
X3737515D01*
Y3980876D01*
X3737357D01*
Y3980718D01*
X3737198D01*
Y3980401D01*
X3737040D01*
Y3980084D01*
X3736881D01*
Y3979926D01*
X3736723D01*
Y3979609D01*
X3736564D01*
Y3979292D01*
X3736406D01*
Y3979134D01*
X3736248D01*
Y3978817D01*
X3736089D01*
Y3978500D01*
X3735931D01*
Y3978342D01*
X3735772D01*
Y3978025D01*
X3735614D01*
Y3977708D01*
X3735455D01*
Y3977550D01*
X3735297D01*
Y3977233D01*
X3735139D01*
Y3976916D01*
X3734980D01*
Y3976757D01*
X3734822D01*
Y3976441D01*
X3734663D01*
Y3976282D01*
X3734505D01*
Y3975965D01*
X3734347D01*
Y3975648D01*
X3734188D01*
Y3975490D01*
X3734030D01*
Y3975173D01*
X3733871D01*
Y3975015D01*
X3733713D01*
Y3974698D01*
X3733554D01*
Y3974540D01*
X3733396D01*
Y3974223D01*
X3733238D01*
Y3973906D01*
X3733079D01*
Y3973747D01*
X3732921D01*
Y3973431D01*
X3732762D01*
Y3973272D01*
X3732604D01*
Y3972955D01*
X3732445D01*
Y3972797D01*
X3732287D01*
Y3972480D01*
X3732129D01*
Y3972322D01*
X3731970D01*
Y3972005D01*
X3731812D01*
Y3971847D01*
X3731653D01*
Y3971530D01*
X3731495D01*
Y3971371D01*
X3731337D01*
Y3971055D01*
X3731178D01*
Y3970896D01*
X3731020D01*
Y3970579D01*
X3730861D01*
Y3970421D01*
X3730703D01*
Y3970104D01*
X3730544D01*
Y3969946D01*
X3730386D01*
Y3969629D01*
X3730228D01*
Y3969470D01*
X3730069D01*
Y3969153D01*
X3729911D01*
Y3968995D01*
X3729753D01*
Y3968837D01*
X3729594D01*
Y3968520D01*
X3729436D01*
Y3968361D01*
X3729277D01*
Y3968045D01*
X3729119D01*
Y3967886D01*
X3728960D01*
Y3967569D01*
X3728802D01*
Y3967411D01*
X3728644D01*
Y3967252D01*
X3728485D01*
Y3966936D01*
X3728327D01*
Y3966777D01*
X3728168D01*
Y3966460D01*
X3728010D01*
Y3966302D01*
X3727852D01*
Y3966143D01*
X3727693D01*
Y3965827D01*
X3727535D01*
Y3965668D01*
X3727376D01*
Y3965351D01*
X3727218D01*
Y3965193D01*
X3727059D01*
Y3965035D01*
X3726901D01*
Y3964718D01*
X3726743D01*
Y3964560D01*
X3726584D01*
Y3964401D01*
X3726426D01*
Y3964084D01*
X3726267D01*
Y3963926D01*
X3726109D01*
Y3963767D01*
X3725950D01*
Y3963451D01*
X3725792D01*
Y3963292D01*
X3725634D01*
Y3963134D01*
X3725475D01*
Y3962817D01*
X3725317D01*
Y3962658D01*
X3725158D01*
Y3962500D01*
X3725000D01*
Y3962183D01*
X3724842D01*
Y3962025D01*
X3724683D01*
Y3961866D01*
X3724525D01*
Y3961550D01*
X3724366D01*
Y3961391D01*
X3724208D01*
Y3961233D01*
X3724049D01*
Y3961074D01*
X3723891D01*
Y3960757D01*
X3723733D01*
Y3960599D01*
X3723574D01*
Y3960441D01*
X3723416D01*
Y3960124D01*
X3723257D01*
Y3959965D01*
X3723099D01*
Y3959807D01*
X3722940D01*
Y3959648D01*
X3722782D01*
Y3959332D01*
X3722624D01*
Y3959173D01*
X3722465D01*
Y3959015D01*
X3722307D01*
Y3958856D01*
X3722149D01*
Y3958540D01*
X3721990D01*
Y3958381D01*
X3721832D01*
Y3958223D01*
X3721673D01*
Y3958064D01*
X3721515D01*
Y3957747D01*
X3721356D01*
Y3957589D01*
X3721198D01*
Y3957431D01*
X3721040D01*
Y3957272D01*
X3720881D01*
Y3956956D01*
X3720723D01*
Y3956797D01*
X3720564D01*
Y3956639D01*
X3720406D01*
Y3956480D01*
X3720248D01*
Y3956322D01*
X3720089D01*
Y3956005D01*
X3719931D01*
Y3955847D01*
X3719772D01*
Y3955688D01*
X3719614D01*
Y3955530D01*
X3719455D01*
Y3955371D01*
X3719297D01*
Y3955055D01*
X3719139D01*
Y3954896D01*
X3718980D01*
Y3954738D01*
X3718822D01*
Y3954579D01*
X3718663D01*
Y3954421D01*
X3718505D01*
Y3954262D01*
X3718346D01*
Y3953946D01*
X3718188D01*
Y3953787D01*
X3718030D01*
Y3953629D01*
X3717871D01*
Y3953470D01*
X3717713D01*
Y3953312D01*
X3717554D01*
Y3953153D01*
X3717396D01*
Y3952837D01*
X3717238D01*
Y3952678D01*
X3717079D01*
Y3952520D01*
X3716921D01*
Y3952361D01*
X3716762D01*
Y3952203D01*
X3716604D01*
Y3952045D01*
X3716445D01*
Y3951886D01*
X3716287D01*
Y3951569D01*
X3716129D01*
Y3951411D01*
X3715970D01*
Y3951252D01*
X3715812D01*
Y3951094D01*
X3715653D01*
Y3950936D01*
X3715495D01*
Y3950777D01*
X3715336D01*
Y3950619D01*
X3715178D01*
Y3950460D01*
X3715020D01*
Y3950302D01*
X3714861D01*
Y3949985D01*
X3714703D01*
Y3949827D01*
X3714545D01*
Y3949668D01*
X3714386D01*
Y3949510D01*
X3714228D01*
Y3949352D01*
X3714069D01*
Y3949193D01*
X3713911D01*
Y3949035D01*
X3713753D01*
Y3948876D01*
X3713594D01*
Y3948718D01*
X3713436D01*
Y3948559D01*
X3713277D01*
Y3948401D01*
X3713119D01*
Y3948084D01*
X3712960D01*
Y3947926D01*
X3712802D01*
Y3947767D01*
X3712644D01*
Y3947609D01*
X3712485D01*
Y3947451D01*
X3712327D01*
Y3947292D01*
X3712168D01*
Y3947134D01*
X3712010D01*
Y3946975D01*
X3711851D01*
Y3946817D01*
X3711693D01*
Y3946658D01*
X3711535D01*
Y3946500D01*
X3711376D01*
Y3946342D01*
X3711218D01*
Y3946183D01*
X3711059D01*
Y3946025D01*
X3710901D01*
Y3945866D01*
X3710743D01*
Y3945708D01*
X3710584D01*
Y3945549D01*
X3710426D01*
Y3945391D01*
X3710267D01*
Y3945233D01*
X3710109D01*
Y3945074D01*
X3709950D01*
Y3944916D01*
X3709792D01*
Y3944757D01*
X3709634D01*
Y3944599D01*
X3709475D01*
Y3944441D01*
X3709317D01*
Y3944282D01*
X3709158D01*
Y3944124D01*
X3709000D01*
Y3943965D01*
X3708841D01*
Y3943807D01*
X3708683D01*
Y3943648D01*
X3708525D01*
Y3943490D01*
X3708366D01*
Y3943332D01*
X3708208D01*
Y3943173D01*
X3708049D01*
Y3943015D01*
X3707891D01*
Y3942856D01*
X3707733D01*
Y3942698D01*
X3707574D01*
Y3942539D01*
X3707416D01*
Y3942381D01*
X3707258D01*
Y3942223D01*
X3707099D01*
Y3942064D01*
X3706941D01*
Y3941906D01*
X3706782D01*
Y3941748D01*
X3706624D01*
Y3941589D01*
X3706465D01*
Y3941431D01*
X3706307D01*
Y3941272D01*
X3706149D01*
Y3941114D01*
X3705990D01*
Y3940956D01*
X3705832D01*
Y3940797D01*
X3705673D01*
Y3940639D01*
X3705515D01*
Y3940480D01*
X3705356D01*
Y3940322D01*
X3705198D01*
Y3940163D01*
X3705040D01*
Y3940005D01*
X3704881D01*
Y3939847D01*
X3704723D01*
Y3939688D01*
X3704564D01*
Y3939530D01*
X3704406D01*
Y3939371D01*
X3704248D01*
Y3939213D01*
X3703931D01*
Y3939054D01*
X3703772D01*
Y3938896D01*
X3703614D01*
Y3938738D01*
X3703455D01*
Y3938579D01*
X3703297D01*
Y3938421D01*
X3703139D01*
Y3938262D01*
X3702980D01*
Y3938104D01*
X3702822D01*
Y3937946D01*
X3702663D01*
Y3937787D01*
X3702505D01*
Y3937629D01*
X3702346D01*
Y3937470D01*
X3702188D01*
Y3937312D01*
X3701871D01*
Y3937153D01*
X3701713D01*
Y3936995D01*
X3701554D01*
Y3936837D01*
X3701396D01*
Y3936678D01*
X3701238D01*
Y3936520D01*
X3701079D01*
Y3936361D01*
X3700921D01*
Y3936203D01*
X3700762D01*
Y3936044D01*
X3700445D01*
Y3935886D01*
X3700287D01*
Y3935728D01*
X3700129D01*
Y3935569D01*
X3699970D01*
Y3935411D01*
X3699812D01*
Y3935252D01*
X3699654D01*
Y3935094D01*
X3699495D01*
Y3934936D01*
X3699178D01*
Y3934777D01*
X3699020D01*
Y3934619D01*
X3698861D01*
Y3934461D01*
X3698703D01*
Y3934302D01*
X3698545D01*
Y3934144D01*
X3698386D01*
Y3933985D01*
X3698228D01*
Y3933827D01*
X3697911D01*
Y3933668D01*
X3697753D01*
Y3933510D01*
X3697594D01*
Y3933352D01*
X3697436D01*
Y3933193D01*
X3697277D01*
Y3933035D01*
X3696960D01*
Y3932876D01*
X3696802D01*
Y3932718D01*
X3696644D01*
Y3932559D01*
X3696485D01*
Y3932401D01*
X3696327D01*
Y3932243D01*
X3696010D01*
Y3932084D01*
X3695851D01*
Y3931926D01*
X3695693D01*
Y3931767D01*
X3695535D01*
Y3931609D01*
X3695376D01*
Y3931451D01*
X3695059D01*
Y3931292D01*
X3694901D01*
Y3931134D01*
X3694743D01*
Y3930975D01*
X3694584D01*
Y3930817D01*
X3694426D01*
Y3930658D01*
X3694109D01*
Y3930500D01*
X3693950D01*
Y3930342D01*
X3693792D01*
Y3930183D01*
X3693634D01*
Y3930025D01*
X3693317D01*
Y3929866D01*
X3693158D01*
Y3929708D01*
X3693000D01*
Y3929549D01*
X3692841D01*
Y3929391D01*
X3692525D01*
Y3929233D01*
X3692366D01*
Y3929074D01*
X3692208D01*
Y3928916D01*
X3691891D01*
Y3928757D01*
X3691733D01*
Y3928599D01*
X3691574D01*
Y3928441D01*
X3691416D01*
Y3928282D01*
X3691099D01*
Y3928124D01*
X3690941D01*
Y3927965D01*
X3690782D01*
Y3927807D01*
X3690465D01*
Y3927648D01*
X3690307D01*
Y3927490D01*
X3690149D01*
Y3927332D01*
X3689832D01*
Y3927173D01*
X3689673D01*
Y3927015D01*
X3689515D01*
Y3926857D01*
X3689356D01*
Y3926698D01*
X3689040D01*
Y3926540D01*
X3688881D01*
Y3926381D01*
X3688723D01*
Y3926223D01*
X3688406D01*
Y3926064D01*
X3688247D01*
Y3925906D01*
X3687931D01*
Y3925748D01*
X3687772D01*
Y3925589D01*
X3687614D01*
Y3925431D01*
X3687297D01*
Y3925272D01*
X3687139D01*
Y3925114D01*
X3686980D01*
Y3924956D01*
X3686663D01*
Y3924797D01*
X3686505D01*
Y3924639D01*
X3686346D01*
Y3924480D01*
X3686030D01*
Y3924322D01*
X3685871D01*
Y3924163D01*
X3685554D01*
Y3924005D01*
X3685396D01*
Y3923847D01*
X3685237D01*
Y3923688D01*
X3684921D01*
Y3923530D01*
X3684762D01*
Y3923371D01*
X3684446D01*
Y3923213D01*
X3684287D01*
Y3923054D01*
X3683970D01*
Y3922896D01*
X3683812D01*
Y3922738D01*
X3683654D01*
Y3922579D01*
X3683337D01*
Y3922421D01*
X3683178D01*
Y3922262D01*
X3682861D01*
Y3922104D01*
X3682703D01*
Y3921946D01*
X3682386D01*
Y3921787D01*
X3682228D01*
Y3921629D01*
X3681911D01*
Y3921470D01*
X3681752D01*
Y3921312D01*
X3681436D01*
Y3921153D01*
X3681277D01*
Y3920995D01*
X3680960D01*
Y3920837D01*
X3680802D01*
Y3920678D01*
X3680485D01*
Y3920520D01*
X3680327D01*
Y3920361D01*
X3680010D01*
Y3920203D01*
X3679851D01*
Y3920044D01*
X3679535D01*
Y3919886D01*
X3679376D01*
Y3919728D01*
X3679059D01*
Y3919569D01*
X3678901D01*
Y3919411D01*
X3678584D01*
Y3919253D01*
X3678426D01*
Y3919094D01*
X3678109D01*
Y3918936D01*
X3677950D01*
Y3918777D01*
X3677634D01*
Y3918619D01*
X3677317D01*
Y3918460D01*
X3677159D01*
Y3918302D01*
X3676842D01*
Y3918144D01*
X3676683D01*
Y3917985D01*
X3676366D01*
Y3917827D01*
X3676208D01*
Y3917668D01*
X3675891D01*
Y3917510D01*
X3675574D01*
Y3917352D01*
X3675416D01*
Y3917193D01*
X3675099D01*
Y3917035D01*
X3674782D01*
Y3916876D01*
X3674624D01*
Y3916718D01*
X3674307D01*
Y3916559D01*
X3674149D01*
Y3916401D01*
X3673832D01*
Y3916243D01*
X3673515D01*
Y3916084D01*
X3673356D01*
Y3915926D01*
X3673040D01*
Y3915767D01*
X3672723D01*
Y3915609D01*
X3672564D01*
Y3915450D01*
X3672247D01*
Y3915292D01*
X3671931D01*
Y3915134D01*
X3671614D01*
Y3914975D01*
X3671455D01*
Y3914817D01*
X3671139D01*
Y3914658D01*
X3670822D01*
Y3914500D01*
X3670663D01*
Y3914342D01*
X3670346D01*
Y3914183D01*
X3670030D01*
Y3914025D01*
X3669713D01*
Y3913866D01*
X3669555D01*
Y3913708D01*
X3669238D01*
Y3913549D01*
X3668921D01*
Y3913391D01*
X3668604D01*
Y3913233D01*
X3668287D01*
Y3913074D01*
X3668129D01*
Y3912916D01*
X3667812D01*
Y3912757D01*
X3667495D01*
Y3912599D01*
X3667178D01*
Y3912440D01*
X3666861D01*
Y3912282D01*
X3666703D01*
Y3912124D01*
X3666386D01*
Y3911965D01*
X3666069D01*
Y3911807D01*
X3665752D01*
Y3911649D01*
X3665436D01*
Y3911490D01*
X3665119D01*
Y3911332D01*
X3664802D01*
Y3911173D01*
X3664644D01*
Y3911015D01*
X3664327D01*
Y3910857D01*
X3664010D01*
Y3910698D01*
X3663693D01*
Y3910540D01*
X3663376D01*
Y3910381D01*
X3663059D01*
Y3910223D01*
X3662742D01*
Y3910064D01*
X3662426D01*
Y3909906D01*
X3662109D01*
Y3909748D01*
X3661792D01*
Y3909589D01*
X3661475D01*
Y3909431D01*
X3661159D01*
Y3909272D01*
X3660842D01*
Y3909114D01*
X3660525D01*
Y3908955D01*
X3660208D01*
Y3908797D01*
X3659891D01*
Y3908639D01*
X3659574D01*
Y3908480D01*
X3659257D01*
Y3908322D01*
X3658941D01*
Y3908163D01*
X3658624D01*
Y3908005D01*
X3658307D01*
Y3907847D01*
X3657990D01*
Y3907688D01*
X3657673D01*
Y3907530D01*
X3657198D01*
Y3907371D01*
X3656881D01*
Y3907213D01*
X3656564D01*
Y3907054D01*
X3656247D01*
Y3906896D01*
X3655931D01*
Y3906738D01*
X3655614D01*
Y3906579D01*
X3655139D01*
Y3906421D01*
X3654822D01*
Y3906262D01*
X3654505D01*
Y3906104D01*
X3654188D01*
Y3905945D01*
X3653871D01*
Y3905787D01*
X3653396D01*
Y3905629D01*
X3653079D01*
Y3905470D01*
X3652762D01*
Y3905312D01*
X3652287D01*
Y3905153D01*
X3651970D01*
Y3904995D01*
X3651653D01*
Y3904837D01*
X3651337D01*
Y3904678D01*
X3650861D01*
Y3904520D01*
X3650545D01*
Y3904362D01*
X3650069D01*
Y3904203D01*
X3649752D01*
Y3904045D01*
X3649436D01*
Y3903886D01*
X3648960D01*
Y3903728D01*
X3648643D01*
Y3903569D01*
X3648168D01*
Y3903411D01*
X3647851D01*
Y3903253D01*
X3647376D01*
Y3903094D01*
X3647060D01*
Y3902936D01*
X3646584D01*
Y3902777D01*
X3646267D01*
Y3902619D01*
X3645792D01*
Y3902460D01*
X3645475D01*
Y3902302D01*
X3645000D01*
Y3902144D01*
X3644525D01*
Y3901985D01*
X3644208D01*
Y3901827D01*
X3643733D01*
Y3901668D01*
X3643257D01*
Y3901510D01*
X3642941D01*
Y3901352D01*
X3642465D01*
Y3901193D01*
X3641990D01*
Y3901035D01*
X3641673D01*
Y3900876D01*
X3641198D01*
Y3900718D01*
X3640723D01*
Y3900559D01*
X3640247D01*
Y3900401D01*
X3639772D01*
Y3900243D01*
X3639297D01*
Y3900084D01*
X3638980D01*
Y3899926D01*
X3638505D01*
Y3899767D01*
X3638030D01*
Y3899609D01*
X3637555D01*
Y3899450D01*
X3637079D01*
Y3899292D01*
X3636604D01*
Y3899134D01*
X3636129D01*
Y3898975D01*
X3635653D01*
Y3898817D01*
X3635020D01*
Y3898658D01*
X3634545D01*
Y3898500D01*
X3634069D01*
Y3898342D01*
X3633594D01*
Y3898183D01*
X3633119D01*
Y3898025D01*
X3632485D01*
Y3897866D01*
X3632010D01*
Y3897708D01*
X3631535D01*
Y3897549D01*
X3630901D01*
Y3897391D01*
X3630426D01*
Y3897233D01*
X3629792D01*
Y3897074D01*
X3629317D01*
Y3896916D01*
X3628683D01*
Y3896758D01*
X3628208D01*
Y3896599D01*
X3627574D01*
Y3896441D01*
X3626941D01*
Y3896282D01*
X3626465D01*
Y3896124D01*
X3625832D01*
Y3895965D01*
X3625198D01*
Y3895807D01*
X3624564D01*
Y3895649D01*
X3623931D01*
Y3895490D01*
X3623297D01*
Y3895332D01*
X3622663D01*
Y3895173D01*
X3622030D01*
Y3895015D01*
X3621396D01*
Y3894857D01*
X3620604D01*
Y3894698D01*
X3619970D01*
Y3894540D01*
X3619337D01*
Y3894381D01*
X3618544D01*
Y3894223D01*
X3617752D01*
Y3894064D01*
X3617119D01*
Y3893906D01*
X3616327D01*
Y3893748D01*
X3615535D01*
Y3893589D01*
X3614743D01*
Y3893431D01*
X3613951D01*
Y3893272D01*
X3613000D01*
Y3893114D01*
X3612208D01*
Y3892955D01*
X3611257D01*
Y3892797D01*
X3610465D01*
Y3892639D01*
X3609515D01*
Y3892480D01*
X3608406D01*
Y3892322D01*
X3607456D01*
Y3892163D01*
X3606347D01*
Y3892005D01*
X3605396D01*
Y3891847D01*
X3604129D01*
Y3891688D01*
X3603020D01*
Y3891530D01*
X3601753D01*
Y3891371D01*
X3600327D01*
Y3891213D01*
X3598901D01*
Y3891054D01*
X3597317D01*
Y3890896D01*
X3595733D01*
Y3890738D01*
X3593832D01*
Y3890579D01*
X3591614D01*
Y3890421D01*
X3588762D01*
Y3890262D01*
X3584802D01*
Y3890104D01*
X3442386D01*
Y4124401D01*
Y4124559D01*
Y4392599D01*
X3539970D01*
Y4392440D01*
D02*
G37*
%LPC*%
G36*
X3539812Y4202025D02*
X3535535D01*
Y4201866D01*
X3533317D01*
Y4201708D01*
X3532050D01*
Y4201549D01*
X3530941D01*
Y4201391D01*
X3529990D01*
Y4201233D01*
X3529198D01*
Y4201074D01*
X3528406D01*
Y4200916D01*
X3527772D01*
Y4200757D01*
X3527139D01*
Y4200599D01*
X3526505D01*
Y4200440D01*
X3525871D01*
Y4200282D01*
X3525396D01*
Y4200124D01*
X3524921D01*
Y4199965D01*
X3524446D01*
Y4199807D01*
X3523970D01*
Y4199648D01*
X3523495D01*
Y4199490D01*
X3523020D01*
Y4199331D01*
X3522703D01*
Y4199173D01*
X3522228D01*
Y4199015D01*
X3521911D01*
Y4198856D01*
X3521436D01*
Y4198698D01*
X3521119D01*
Y4198539D01*
X3520802D01*
Y4198381D01*
X3520327D01*
Y4198223D01*
X3520010D01*
Y4198064D01*
X3519693D01*
Y4197906D01*
X3519376D01*
Y4197748D01*
X3519060D01*
Y4197589D01*
X3518743D01*
Y4197431D01*
X3518426D01*
Y4197272D01*
X3518109D01*
Y4197114D01*
X3517792D01*
Y4196955D01*
X3517475D01*
Y4196797D01*
X3517159D01*
Y4196639D01*
X3517000D01*
Y4196480D01*
X3516683D01*
Y4196322D01*
X3516366D01*
Y4196163D01*
X3516208D01*
Y4196005D01*
X3515891D01*
Y4195846D01*
X3515574D01*
Y4195688D01*
X3515416D01*
Y4195530D01*
X3515099D01*
Y4195371D01*
X3514941D01*
Y4195213D01*
X3514624D01*
Y4195054D01*
X3514307D01*
Y4194896D01*
X3514149D01*
Y4194738D01*
X3513990D01*
Y4194579D01*
X3513673D01*
Y4194421D01*
X3513515D01*
Y4194262D01*
X3513198D01*
Y4194104D01*
X3513040D01*
Y4193945D01*
X3512723D01*
Y4193787D01*
X3512564D01*
Y4193629D01*
X3512406D01*
Y4193470D01*
X3512089D01*
Y4193312D01*
X3511931D01*
Y4193153D01*
X3511772D01*
Y4192995D01*
X3511614D01*
Y4192836D01*
X3511297D01*
Y4192678D01*
X3511139D01*
Y4192520D01*
X3510980D01*
Y4192361D01*
X3510822D01*
Y4192203D01*
X3510664D01*
Y4192044D01*
X3510347D01*
Y4191886D01*
X3510188D01*
Y4191728D01*
X3510030D01*
Y4191569D01*
X3509871D01*
Y4191411D01*
X3509713D01*
Y4191252D01*
X3509555D01*
Y4191094D01*
X3509396D01*
Y4190935D01*
X3509238D01*
Y4190777D01*
X3508921D01*
Y4190619D01*
X3508762D01*
Y4190460D01*
X3508604D01*
Y4190302D01*
X3508446D01*
Y4190144D01*
X3508287D01*
Y4189985D01*
X3508129D01*
Y4189827D01*
X3507970D01*
Y4189668D01*
X3507812D01*
Y4189510D01*
X3507654D01*
Y4189351D01*
X3507495D01*
Y4189193D01*
X3507337D01*
Y4189035D01*
X3507178D01*
Y4188876D01*
X3507020D01*
Y4188718D01*
X3506861D01*
Y4188401D01*
X3506703D01*
Y4188243D01*
X3506545D01*
Y4188084D01*
X3506386D01*
Y4187926D01*
X3506228D01*
Y4187767D01*
X3506069D01*
Y4187609D01*
X3505911D01*
Y4187450D01*
X3505752D01*
Y4187292D01*
X3505594D01*
Y4186975D01*
X3505436D01*
Y4186817D01*
X3505277D01*
Y4186658D01*
X3505119D01*
Y4186500D01*
X3504960D01*
Y4186183D01*
X3504802D01*
Y4186025D01*
X3504644D01*
Y4185866D01*
X3504485D01*
Y4185708D01*
X3504327D01*
Y4185391D01*
X3504169D01*
Y4185233D01*
X3504010D01*
Y4185074D01*
X3503852D01*
Y4184757D01*
X3503693D01*
Y4184599D01*
X3503535D01*
Y4184282D01*
X3503376D01*
Y4184124D01*
X3503218D01*
Y4183965D01*
X3503060D01*
Y4183648D01*
X3502901D01*
Y4183490D01*
X3502743D01*
Y4183173D01*
X3502584D01*
Y4183015D01*
X3502426D01*
Y4182698D01*
X3502267D01*
Y4182540D01*
X3502109D01*
Y4182223D01*
X3501951D01*
Y4181906D01*
X3501792D01*
Y4181748D01*
X3501634D01*
Y4181431D01*
X3501475D01*
Y4181114D01*
X3501317D01*
Y4180955D01*
X3501159D01*
Y4180639D01*
X3501000D01*
Y4180322D01*
X3500842D01*
Y4180005D01*
X3500683D01*
Y4179688D01*
X3500525D01*
Y4179371D01*
X3500366D01*
Y4179054D01*
X3500208D01*
Y4178738D01*
X3500050D01*
Y4178421D01*
X3499891D01*
Y4178104D01*
X3499733D01*
Y4177787D01*
X3499574D01*
Y4177470D01*
X3499416D01*
Y4177153D01*
X3499257D01*
Y4176836D01*
X3499099D01*
Y4176361D01*
X3498941D01*
Y4176044D01*
X3498782D01*
Y4175569D01*
X3498624D01*
Y4175252D01*
X3498465D01*
Y4174777D01*
X3498307D01*
Y4174460D01*
X3498149D01*
Y4173985D01*
X3497990D01*
Y4173510D01*
X3497832D01*
Y4173035D01*
X3497673D01*
Y4172559D01*
X3497515D01*
Y4171926D01*
X3497356D01*
Y4171450D01*
X3497198D01*
Y4170817D01*
X3497040D01*
Y4170183D01*
X3496881D01*
Y4169549D01*
X3496723D01*
Y4168757D01*
X3496565D01*
Y4167965D01*
X3496406D01*
Y4167173D01*
X3496248D01*
Y4166064D01*
X3496089D01*
Y4164797D01*
X3495931D01*
Y4163054D01*
X3495772D01*
Y4153232D01*
Y4153074D01*
Y3982460D01*
X3495931D01*
Y3980718D01*
X3496089D01*
Y3979451D01*
X3496248D01*
Y3978342D01*
X3496406D01*
Y3977550D01*
X3496565D01*
Y3976757D01*
X3496723D01*
Y3975965D01*
X3496881D01*
Y3975332D01*
X3497040D01*
Y3974698D01*
X3497198D01*
Y3974064D01*
X3497356D01*
Y3973589D01*
X3497515D01*
Y3972955D01*
X3497673D01*
Y3972480D01*
X3497832D01*
Y3972005D01*
X3497990D01*
Y3971530D01*
X3498149D01*
Y3971213D01*
X3498307D01*
Y3970738D01*
X3498465D01*
Y3970262D01*
X3498624D01*
Y3969946D01*
X3498782D01*
Y3969470D01*
X3498941D01*
Y3969153D01*
X3499099D01*
Y3968678D01*
X3499257D01*
Y3968361D01*
X3499416D01*
Y3968045D01*
X3499574D01*
Y3967728D01*
X3499733D01*
Y3967411D01*
X3499891D01*
Y3967094D01*
X3500050D01*
Y3966777D01*
X3500208D01*
Y3966460D01*
X3500366D01*
Y3966143D01*
X3500525D01*
Y3965827D01*
X3500683D01*
Y3965510D01*
X3500842D01*
Y3965193D01*
X3501000D01*
Y3964876D01*
X3501159D01*
Y3964718D01*
X3501317D01*
Y3964401D01*
X3501475D01*
Y3964084D01*
X3501634D01*
Y3963767D01*
X3501792D01*
Y3963609D01*
X3501951D01*
Y3963292D01*
X3502109D01*
Y3963134D01*
X3502267D01*
Y3962817D01*
X3502426D01*
Y3962500D01*
X3502584D01*
Y3962342D01*
X3502743D01*
Y3962025D01*
X3502901D01*
Y3961866D01*
X3503060D01*
Y3961550D01*
X3503218D01*
Y3961391D01*
X3503376D01*
Y3961233D01*
X3503535D01*
Y3960916D01*
X3503693D01*
Y3960757D01*
X3503852D01*
Y3960441D01*
X3504010D01*
Y3960282D01*
X3504169D01*
Y3960124D01*
X3504327D01*
Y3959807D01*
X3504485D01*
Y3959648D01*
X3504644D01*
Y3959490D01*
X3504802D01*
Y3959332D01*
X3504960D01*
Y3959015D01*
X3505119D01*
Y3958856D01*
X3505277D01*
Y3958698D01*
X3505436D01*
Y3958540D01*
X3505594D01*
Y3958381D01*
X3505752D01*
Y3958064D01*
X3505911D01*
Y3957906D01*
X3506069D01*
Y3957747D01*
X3506228D01*
Y3957589D01*
X3506386D01*
Y3957431D01*
X3506545D01*
Y3957272D01*
X3506703D01*
Y3957114D01*
X3506861D01*
Y3956956D01*
X3507020D01*
Y3956639D01*
X3507178D01*
Y3956480D01*
X3507337D01*
Y3956322D01*
X3507495D01*
Y3956163D01*
X3507654D01*
Y3956005D01*
X3507812D01*
Y3955847D01*
X3507970D01*
Y3955688D01*
X3508129D01*
Y3955530D01*
X3508287D01*
Y3955371D01*
X3508446D01*
Y3955213D01*
X3508604D01*
Y3955055D01*
X3508762D01*
Y3954896D01*
X3508921D01*
Y3954738D01*
X3509238D01*
Y3954579D01*
X3509396D01*
Y3954421D01*
X3509555D01*
Y3954262D01*
X3509713D01*
Y3954104D01*
X3509871D01*
Y3953946D01*
X3510030D01*
Y3953787D01*
X3510188D01*
Y3953629D01*
X3510347D01*
Y3953470D01*
X3510664D01*
Y3953312D01*
X3510822D01*
Y3953153D01*
X3510980D01*
Y3952995D01*
X3511139D01*
Y3952837D01*
X3511297D01*
Y3952678D01*
X3511614D01*
Y3952520D01*
X3511772D01*
Y3952361D01*
X3511931D01*
Y3952203D01*
X3512247D01*
Y3952045D01*
X3512406D01*
Y3951886D01*
X3512564D01*
Y3951728D01*
X3512881D01*
Y3951569D01*
X3513040D01*
Y3951411D01*
X3513198D01*
Y3951252D01*
X3513515D01*
Y3951094D01*
X3513673D01*
Y3950936D01*
X3513990D01*
Y3950777D01*
X3514149D01*
Y3950619D01*
X3514465D01*
Y3950460D01*
X3514624D01*
Y3950302D01*
X3514941D01*
Y3950143D01*
X3515099D01*
Y3949985D01*
X3515416D01*
Y3949827D01*
X3515574D01*
Y3949668D01*
X3515891D01*
Y3949510D01*
X3516208D01*
Y3949352D01*
X3516366D01*
Y3949193D01*
X3516683D01*
Y3949035D01*
X3517000D01*
Y3948876D01*
X3517317D01*
Y3948718D01*
X3517475D01*
Y3948559D01*
X3517792D01*
Y3948401D01*
X3518109D01*
Y3948243D01*
X3518426D01*
Y3948084D01*
X3518743D01*
Y3947926D01*
X3519060D01*
Y3947767D01*
X3519376D01*
Y3947609D01*
X3519693D01*
Y3947451D01*
X3520010D01*
Y3947292D01*
X3520327D01*
Y3947134D01*
X3520802D01*
Y3946975D01*
X3521119D01*
Y3946817D01*
X3521436D01*
Y3946658D01*
X3521911D01*
Y3946500D01*
X3522228D01*
Y3946342D01*
X3522703D01*
Y3946183D01*
X3523020D01*
Y3946025D01*
X3523495D01*
Y3945866D01*
X3523970D01*
Y3945708D01*
X3524446D01*
Y3945549D01*
X3524921D01*
Y3945391D01*
X3525396D01*
Y3945233D01*
X3526030D01*
Y3945074D01*
X3526505D01*
Y3944916D01*
X3527139D01*
Y3944757D01*
X3527772D01*
Y3944599D01*
X3528406D01*
Y3944441D01*
X3529198D01*
Y3944282D01*
X3529990D01*
Y3944124D01*
X3530941D01*
Y3943965D01*
X3532050D01*
Y3943807D01*
X3533475D01*
Y3943648D01*
X3535693D01*
Y3943490D01*
X3539495D01*
Y3943648D01*
X3541713D01*
Y3943807D01*
X3543139D01*
Y3943965D01*
X3544248D01*
Y3944124D01*
X3545198D01*
Y3944282D01*
X3545990D01*
Y3944441D01*
X3546782D01*
Y3944599D01*
X3547416D01*
Y3944757D01*
X3548050D01*
Y3944916D01*
X3548683D01*
Y3945074D01*
X3549317D01*
Y3945233D01*
X3549792D01*
Y3945391D01*
X3550267D01*
Y3945549D01*
X3550743D01*
Y3945708D01*
X3551218D01*
Y3945866D01*
X3551693D01*
Y3946025D01*
X3552168D01*
Y3946183D01*
X3552485D01*
Y3946342D01*
X3552960D01*
Y3946500D01*
X3553436D01*
Y3946658D01*
X3553753D01*
Y3946817D01*
X3554069D01*
Y3946975D01*
X3554545D01*
Y3947134D01*
X3554861D01*
Y3947292D01*
X3555178D01*
Y3947451D01*
X3555495D01*
Y3947609D01*
X3555812D01*
Y3947767D01*
X3556129D01*
Y3947926D01*
X3556446D01*
Y3948084D01*
X3556763D01*
Y3948243D01*
X3557079D01*
Y3948401D01*
X3557396D01*
Y3948559D01*
X3557713D01*
Y3948718D01*
X3558030D01*
Y3948876D01*
X3558188D01*
Y3949035D01*
X3558505D01*
Y3949193D01*
X3558822D01*
Y3949352D01*
X3559139D01*
Y3949510D01*
X3559297D01*
Y3949668D01*
X3559614D01*
Y3949827D01*
X3559772D01*
Y3949985D01*
X3560089D01*
Y3950143D01*
X3560406D01*
Y3950302D01*
X3560564D01*
Y3950460D01*
X3560881D01*
Y3950619D01*
X3561040D01*
Y3950777D01*
X3561356D01*
Y3950936D01*
X3561515D01*
Y3951094D01*
X3561673D01*
Y3951252D01*
X3561990D01*
Y3951411D01*
X3562149D01*
Y3951569D01*
X3562465D01*
Y3951728D01*
X3562624D01*
Y3951886D01*
X3562782D01*
Y3952045D01*
X3563099D01*
Y3952203D01*
X3563258D01*
Y3952361D01*
X3563416D01*
Y3952520D01*
X3563574D01*
Y3952678D01*
X3563891D01*
Y3952837D01*
X3564050D01*
Y3952995D01*
X3564208D01*
Y3953153D01*
X3564366D01*
Y3953312D01*
X3564683D01*
Y3953470D01*
X3564842D01*
Y3953629D01*
X3565000D01*
Y3953787D01*
X3565158D01*
Y3953946D01*
X3565317D01*
Y3954104D01*
X3565475D01*
Y3954262D01*
X3565634D01*
Y3954421D01*
X3565950D01*
Y3954579D01*
X3566109D01*
Y3954738D01*
X3566267D01*
Y3954896D01*
X3566426D01*
Y3955055D01*
X3566584D01*
Y3955213D01*
X3566743D01*
Y3955371D01*
X3566901D01*
Y3955530D01*
X3567059D01*
Y3955688D01*
X3567218D01*
Y3955847D01*
X3567376D01*
Y3956005D01*
X3567535D01*
Y3956163D01*
X3567693D01*
Y3956322D01*
X3567852D01*
Y3956480D01*
X3568010D01*
Y3956639D01*
X3568168D01*
Y3956797D01*
X3568327D01*
Y3956956D01*
X3568485D01*
Y3957114D01*
X3568644D01*
Y3957431D01*
X3568802D01*
Y3957589D01*
X3568960D01*
Y3957747D01*
X3569119D01*
Y3957906D01*
X3569277D01*
Y3958064D01*
X3569436D01*
Y3958223D01*
X3569594D01*
Y3958540D01*
X3569753D01*
Y3958698D01*
X3569911D01*
Y3958856D01*
X3570069D01*
Y3959015D01*
X3570228D01*
Y3959173D01*
X3570386D01*
Y3959490D01*
X3570545D01*
Y3959648D01*
X3570703D01*
Y3959807D01*
X3570862D01*
Y3960124D01*
X3571020D01*
Y3960282D01*
X3571178D01*
Y3960441D01*
X3571337D01*
Y3960757D01*
X3571495D01*
Y3960916D01*
X3571654D01*
Y3961074D01*
X3571812D01*
Y3961391D01*
X3571970D01*
Y3961550D01*
X3572129D01*
Y3961866D01*
X3572287D01*
Y3962025D01*
X3572445D01*
Y3962342D01*
X3572604D01*
Y3962500D01*
X3572762D01*
Y3962817D01*
X3572921D01*
Y3962975D01*
X3573079D01*
Y3963292D01*
X3573238D01*
Y3963451D01*
X3573396D01*
Y3963767D01*
X3573554D01*
Y3964084D01*
X3573713D01*
Y3964243D01*
X3573871D01*
Y3964560D01*
X3574030D01*
Y3964876D01*
X3574188D01*
Y3965193D01*
X3574347D01*
Y3965510D01*
X3574505D01*
Y3965668D01*
X3574663D01*
Y3965985D01*
X3574822D01*
Y3966302D01*
X3574980D01*
Y3966619D01*
X3575139D01*
Y3966936D01*
X3575297D01*
Y3967252D01*
X3575455D01*
Y3967569D01*
X3575614D01*
Y3968045D01*
X3575772D01*
Y3968361D01*
X3575931D01*
Y3968678D01*
X3576089D01*
Y3968995D01*
X3576248D01*
Y3969470D01*
X3576406D01*
Y3969787D01*
X3576564D01*
Y3970262D01*
X3576723D01*
Y3970579D01*
X3576881D01*
Y3971055D01*
X3577040D01*
Y3971530D01*
X3577198D01*
Y3972005D01*
X3577357D01*
Y3972480D01*
X3577515D01*
Y3972955D01*
X3577673D01*
Y3973431D01*
X3577832D01*
Y3974064D01*
X3577990D01*
Y3974540D01*
X3578149D01*
Y3975173D01*
X3578307D01*
Y3975807D01*
X3578465D01*
Y3976599D01*
X3578624D01*
Y3977391D01*
X3578782D01*
Y3978183D01*
X3578941D01*
Y3979292D01*
X3579099D01*
Y3980401D01*
X3579258D01*
Y3981985D01*
X3579416D01*
Y4163530D01*
X3579258D01*
Y4165114D01*
X3579099D01*
Y4166381D01*
X3578941D01*
Y4167332D01*
X3578782D01*
Y4168124D01*
X3578624D01*
Y4168916D01*
X3578465D01*
Y4169708D01*
X3578307D01*
Y4170341D01*
X3578149D01*
Y4170975D01*
X3577990D01*
Y4171609D01*
X3577832D01*
Y4172084D01*
X3577673D01*
Y4172559D01*
X3577515D01*
Y4173035D01*
X3577357D01*
Y4173510D01*
X3577198D01*
Y4173985D01*
X3577040D01*
Y4174460D01*
X3576881D01*
Y4174936D01*
X3576723D01*
Y4175252D01*
X3576564D01*
Y4175728D01*
X3576406D01*
Y4176044D01*
X3576248D01*
Y4176520D01*
X3576089D01*
Y4176836D01*
X3575931D01*
Y4177153D01*
X3575772D01*
Y4177629D01*
X3575614D01*
Y4177945D01*
X3575455D01*
Y4178262D01*
X3575297D01*
Y4178579D01*
X3575139D01*
Y4178896D01*
X3574980D01*
Y4179213D01*
X3574822D01*
Y4179530D01*
X3574663D01*
Y4179846D01*
X3574505D01*
Y4180005D01*
X3574347D01*
Y4180322D01*
X3574188D01*
Y4180639D01*
X3574030D01*
Y4180955D01*
X3573871D01*
Y4181272D01*
X3573713D01*
Y4181431D01*
X3573554D01*
Y4181748D01*
X3573396D01*
Y4182064D01*
X3573238D01*
Y4182223D01*
X3573079D01*
Y4182540D01*
X3572921D01*
Y4182698D01*
X3572762D01*
Y4183015D01*
X3572604D01*
Y4183173D01*
X3572445D01*
Y4183490D01*
X3572287D01*
Y4183648D01*
X3572129D01*
Y4183965D01*
X3571970D01*
Y4184124D01*
X3571812D01*
Y4184440D01*
X3571654D01*
Y4184599D01*
X3571495D01*
Y4184916D01*
X3571337D01*
Y4185074D01*
X3571178D01*
Y4185233D01*
X3571020D01*
Y4185549D01*
X3570862D01*
Y4185708D01*
X3570703D01*
Y4185866D01*
X3570545D01*
Y4186025D01*
X3570386D01*
Y4186341D01*
X3570228D01*
Y4186500D01*
X3570069D01*
Y4186658D01*
X3569911D01*
Y4186817D01*
X3569753D01*
Y4187134D01*
X3569594D01*
Y4187292D01*
X3569436D01*
Y4187450D01*
X3569277D01*
Y4187609D01*
X3569119D01*
Y4187767D01*
X3568960D01*
Y4187926D01*
X3568802D01*
Y4188084D01*
X3568644D01*
Y4188401D01*
X3568485D01*
Y4188559D01*
X3568327D01*
Y4188718D01*
X3568168D01*
Y4188876D01*
X3568010D01*
Y4189035D01*
X3567852D01*
Y4189193D01*
X3567693D01*
Y4189351D01*
X3567535D01*
Y4189510D01*
X3567376D01*
Y4189668D01*
X3567218D01*
Y4189827D01*
X3567059D01*
Y4189985D01*
X3566901D01*
Y4190144D01*
X3566743D01*
Y4190302D01*
X3566584D01*
Y4190460D01*
X3566426D01*
Y4190619D01*
X3566267D01*
Y4190777D01*
X3566109D01*
Y4190935D01*
X3565950D01*
Y4191094D01*
X3565792D01*
Y4191252D01*
X3565475D01*
Y4191411D01*
X3565317D01*
Y4191569D01*
X3565158D01*
Y4191728D01*
X3565000D01*
Y4191886D01*
X3564842D01*
Y4192044D01*
X3564683D01*
Y4192203D01*
X3564366D01*
Y4192361D01*
X3564208D01*
Y4192520D01*
X3564050D01*
Y4192678D01*
X3563891D01*
Y4192836D01*
X3563733D01*
Y4192995D01*
X3563416D01*
Y4193153D01*
X3563258D01*
Y4193312D01*
X3563099D01*
Y4193470D01*
X3562782D01*
Y4193629D01*
X3562624D01*
Y4193787D01*
X3562465D01*
Y4193945D01*
X3562149D01*
Y4194104D01*
X3561990D01*
Y4194262D01*
X3561832D01*
Y4194421D01*
X3561515D01*
Y4194579D01*
X3561356D01*
Y4194738D01*
X3561040D01*
Y4194896D01*
X3560881D01*
Y4195054D01*
X3560564D01*
Y4195213D01*
X3560406D01*
Y4195371D01*
X3560089D01*
Y4195530D01*
X3559931D01*
Y4195688D01*
X3559614D01*
Y4195846D01*
X3559297D01*
Y4196005D01*
X3559139D01*
Y4196163D01*
X3558822D01*
Y4196322D01*
X3558505D01*
Y4196480D01*
X3558346D01*
Y4196639D01*
X3558030D01*
Y4196797D01*
X3557713D01*
Y4196955D01*
X3557396D01*
Y4197114D01*
X3557079D01*
Y4197272D01*
X3556763D01*
Y4197431D01*
X3556446D01*
Y4197589D01*
X3556129D01*
Y4197748D01*
X3555812D01*
Y4197906D01*
X3555495D01*
Y4198064D01*
X3555178D01*
Y4198223D01*
X3554861D01*
Y4198381D01*
X3554545D01*
Y4198539D01*
X3554069D01*
Y4198698D01*
X3553753D01*
Y4198856D01*
X3553436D01*
Y4199015D01*
X3552960D01*
Y4199173D01*
X3552644D01*
Y4199331D01*
X3552168D01*
Y4199490D01*
X3551693D01*
Y4199648D01*
X3551218D01*
Y4199807D01*
X3550743D01*
Y4199965D01*
X3550267D01*
Y4200124D01*
X3549792D01*
Y4200282D01*
X3549317D01*
Y4200440D01*
X3548683D01*
Y4200599D01*
X3548050D01*
Y4200757D01*
X3547416D01*
Y4200916D01*
X3546782D01*
Y4201074D01*
X3545990D01*
Y4201233D01*
X3545198D01*
Y4201391D01*
X3544248D01*
Y4201549D01*
X3543297D01*
Y4201708D01*
X3541871D01*
Y4201866D01*
X3539812D01*
Y4202025D01*
D02*
G37*
G36*
X3541238Y4339054D02*
X3533951D01*
Y4338896D01*
X3532366D01*
Y4338738D01*
X3531257D01*
Y4338579D01*
X3530307D01*
Y4338421D01*
X3529515D01*
Y4338262D01*
X3528723D01*
Y4338104D01*
X3527931D01*
Y4337945D01*
X3527297D01*
Y4337787D01*
X3526664D01*
Y4337629D01*
X3526188D01*
Y4337470D01*
X3525555D01*
Y4337312D01*
X3525079D01*
Y4337153D01*
X3524604D01*
Y4336995D01*
X3524129D01*
Y4336836D01*
X3523654D01*
Y4336678D01*
X3523178D01*
Y4336520D01*
X3522861D01*
Y4336361D01*
X3522386D01*
Y4336203D01*
X3521911D01*
Y4336044D01*
X3521594D01*
Y4335886D01*
X3521277D01*
Y4335728D01*
X3520802D01*
Y4335569D01*
X3520485D01*
Y4335411D01*
X3520168D01*
Y4335252D01*
X3519851D01*
Y4335094D01*
X3519535D01*
Y4334935D01*
X3519218D01*
Y4334777D01*
X3518901D01*
Y4334619D01*
X3518584D01*
Y4334460D01*
X3518267D01*
Y4334302D01*
X3517951D01*
Y4334143D01*
X3517634D01*
Y4333985D01*
X3517317D01*
Y4333826D01*
X3517000D01*
Y4333668D01*
X3516842D01*
Y4333510D01*
X3516525D01*
Y4333351D01*
X3516208D01*
Y4333193D01*
X3515891D01*
Y4333035D01*
X3515733D01*
Y4332876D01*
X3515416D01*
Y4332718D01*
X3515257D01*
Y4332559D01*
X3514941D01*
Y4332401D01*
X3514782D01*
Y4332242D01*
X3514465D01*
Y4332084D01*
X3514307D01*
Y4331926D01*
X3513990D01*
Y4331767D01*
X3513832D01*
Y4331609D01*
X3513515D01*
Y4331450D01*
X3513356D01*
Y4331292D01*
X3513040D01*
Y4331134D01*
X3512881D01*
Y4330975D01*
X3512723D01*
Y4330817D01*
X3512406D01*
Y4330658D01*
X3512247D01*
Y4330500D01*
X3512089D01*
Y4330341D01*
X3511772D01*
Y4330183D01*
X3511614D01*
Y4330025D01*
X3511456D01*
Y4329866D01*
X3511297D01*
Y4329708D01*
X3510980D01*
Y4329549D01*
X3510822D01*
Y4329391D01*
X3510664D01*
Y4329232D01*
X3510505D01*
Y4329074D01*
X3510347D01*
Y4328916D01*
X3510030D01*
Y4328757D01*
X3509871D01*
Y4328599D01*
X3509713D01*
Y4328440D01*
X3509555D01*
Y4328282D01*
X3509396D01*
Y4328124D01*
X3509238D01*
Y4327965D01*
X3509079D01*
Y4327807D01*
X3508921D01*
Y4327648D01*
X3508762D01*
Y4327490D01*
X3508604D01*
Y4327331D01*
X3508446D01*
Y4327173D01*
X3508287D01*
Y4327015D01*
X3508129D01*
Y4326856D01*
X3507970D01*
Y4326698D01*
X3507812D01*
Y4326539D01*
X3507654D01*
Y4326381D01*
X3507495D01*
Y4326222D01*
X3507337D01*
Y4326064D01*
X3507178D01*
Y4325906D01*
X3507020D01*
Y4325747D01*
X3506861D01*
Y4325589D01*
X3506703D01*
Y4325431D01*
X3506545D01*
Y4325272D01*
X3506386D01*
Y4325114D01*
X3506228D01*
Y4324955D01*
X3506069D01*
Y4324639D01*
X3505911D01*
Y4324480D01*
X3505752D01*
Y4324322D01*
X3505594D01*
Y4324163D01*
X3505436D01*
Y4324005D01*
X3505277D01*
Y4323846D01*
X3505119D01*
Y4323530D01*
X3504960D01*
Y4323371D01*
X3504802D01*
Y4323213D01*
X3504644D01*
Y4323054D01*
X3504485D01*
Y4322737D01*
X3504327D01*
Y4322579D01*
X3504169D01*
Y4322421D01*
X3504010D01*
Y4322104D01*
X3503852D01*
Y4321945D01*
X3503693D01*
Y4321787D01*
X3503535D01*
Y4321470D01*
X3503376D01*
Y4321312D01*
X3503218D01*
Y4320995D01*
X3503060D01*
Y4320836D01*
X3502901D01*
Y4320520D01*
X3502743D01*
Y4320361D01*
X3502584D01*
Y4320044D01*
X3502426D01*
Y4319886D01*
X3502267D01*
Y4319569D01*
X3502109D01*
Y4319411D01*
X3501951D01*
Y4319094D01*
X3501792D01*
Y4318777D01*
X3501634D01*
Y4318619D01*
X3501475D01*
Y4318302D01*
X3501317D01*
Y4317985D01*
X3501159D01*
Y4317668D01*
X3501000D01*
Y4317510D01*
X3500842D01*
Y4317193D01*
X3500683D01*
Y4316876D01*
X3500525D01*
Y4316559D01*
X3500366D01*
Y4316242D01*
X3500208D01*
Y4315926D01*
X3500050D01*
Y4315609D01*
X3499891D01*
Y4315292D01*
X3499733D01*
Y4314975D01*
X3499574D01*
Y4314658D01*
X3499416D01*
Y4314341D01*
X3499257D01*
Y4313866D01*
X3499099D01*
Y4313549D01*
X3498941D01*
Y4313232D01*
X3498782D01*
Y4312757D01*
X3498624D01*
Y4312440D01*
X3498465D01*
Y4311965D01*
X3498307D01*
Y4311490D01*
X3498149D01*
Y4311015D01*
X3497990D01*
Y4310698D01*
X3497832D01*
Y4310064D01*
X3497673D01*
Y4309589D01*
X3497515D01*
Y4309114D01*
X3497356D01*
Y4308480D01*
X3497198D01*
Y4308005D01*
X3497040D01*
Y4307371D01*
X3496881D01*
Y4306737D01*
X3496723D01*
Y4305945D01*
X3496565D01*
Y4305153D01*
X3496406D01*
Y4304203D01*
X3496248D01*
Y4303252D01*
X3496089D01*
Y4301985D01*
X3495931D01*
Y4300242D01*
X3495772D01*
Y4294381D01*
X3495931D01*
Y4292638D01*
X3496089D01*
Y4291371D01*
X3496248D01*
Y4290262D01*
X3496406D01*
Y4289470D01*
X3496565D01*
Y4288678D01*
X3496723D01*
Y4287886D01*
X3496881D01*
Y4287252D01*
X3497040D01*
Y4286619D01*
X3497198D01*
Y4285985D01*
X3497356D01*
Y4285510D01*
X3497515D01*
Y4284876D01*
X3497673D01*
Y4284401D01*
X3497832D01*
Y4283926D01*
X3497990D01*
Y4283450D01*
X3498149D01*
Y4282975D01*
X3498307D01*
Y4282658D01*
X3498465D01*
Y4282183D01*
X3498624D01*
Y4281708D01*
X3498782D01*
Y4281391D01*
X3498941D01*
Y4281074D01*
X3499099D01*
Y4280599D01*
X3499257D01*
Y4280282D01*
X3499416D01*
Y4279965D01*
X3499574D01*
Y4279648D01*
X3499733D01*
Y4279332D01*
X3499891D01*
Y4278856D01*
X3500050D01*
Y4278540D01*
X3500208D01*
Y4278223D01*
X3500366D01*
Y4278064D01*
X3500525D01*
Y4277747D01*
X3500683D01*
Y4277431D01*
X3500842D01*
Y4277114D01*
X3501000D01*
Y4276797D01*
X3501159D01*
Y4276480D01*
X3501317D01*
Y4276322D01*
X3501475D01*
Y4276005D01*
X3501634D01*
Y4275688D01*
X3501792D01*
Y4275530D01*
X3501951D01*
Y4275213D01*
X3502109D01*
Y4274896D01*
X3502267D01*
Y4274737D01*
X3502426D01*
Y4274421D01*
X3502584D01*
Y4274262D01*
X3502743D01*
Y4273945D01*
X3502901D01*
Y4273787D01*
X3503060D01*
Y4273470D01*
X3503218D01*
Y4273312D01*
X3503376D01*
Y4272995D01*
X3503535D01*
Y4272837D01*
X3503693D01*
Y4272678D01*
X3503852D01*
Y4272361D01*
X3504010D01*
Y4272203D01*
X3504169D01*
Y4272045D01*
X3504327D01*
Y4271728D01*
X3504485D01*
Y4271569D01*
X3504644D01*
Y4271411D01*
X3504802D01*
Y4271094D01*
X3504960D01*
Y4270936D01*
X3505119D01*
Y4270777D01*
X3505277D01*
Y4270619D01*
X3505436D01*
Y4270460D01*
X3505594D01*
Y4270143D01*
X3505752D01*
Y4269985D01*
X3505911D01*
Y4269827D01*
X3506069D01*
Y4269668D01*
X3506228D01*
Y4269510D01*
X3506386D01*
Y4269351D01*
X3506545D01*
Y4269193D01*
X3506703D01*
Y4268876D01*
X3506861D01*
Y4268718D01*
X3507020D01*
Y4268559D01*
X3507178D01*
Y4268401D01*
X3507337D01*
Y4268242D01*
X3507495D01*
Y4268084D01*
X3507654D01*
Y4267926D01*
X3507812D01*
Y4267767D01*
X3507970D01*
Y4267609D01*
X3508129D01*
Y4267450D01*
X3508287D01*
Y4267292D01*
X3508446D01*
Y4267133D01*
X3508604D01*
Y4266975D01*
X3508762D01*
Y4266817D01*
X3508921D01*
Y4266658D01*
X3509079D01*
Y4266500D01*
X3509238D01*
Y4266341D01*
X3509555D01*
Y4266183D01*
X3509713D01*
Y4266025D01*
X3509871D01*
Y4265866D01*
X3510030D01*
Y4265708D01*
X3510188D01*
Y4265549D01*
X3510347D01*
Y4265391D01*
X3510505D01*
Y4265233D01*
X3510822D01*
Y4265074D01*
X3510980D01*
Y4264916D01*
X3511139D01*
Y4264757D01*
X3511297D01*
Y4264599D01*
X3511456D01*
Y4264441D01*
X3511772D01*
Y4264282D01*
X3511931D01*
Y4264124D01*
X3512089D01*
Y4263965D01*
X3512406D01*
Y4263807D01*
X3512564D01*
Y4263648D01*
X3512723D01*
Y4263490D01*
X3513040D01*
Y4263332D01*
X3513198D01*
Y4263173D01*
X3513356D01*
Y4263015D01*
X3513673D01*
Y4262856D01*
X3513832D01*
Y4262698D01*
X3514149D01*
Y4262539D01*
X3514307D01*
Y4262381D01*
X3514624D01*
Y4262223D01*
X3514782D01*
Y4262064D01*
X3515099D01*
Y4261906D01*
X3515257D01*
Y4261747D01*
X3515574D01*
Y4261589D01*
X3515891D01*
Y4261431D01*
X3516050D01*
Y4261272D01*
X3516366D01*
Y4261114D01*
X3516683D01*
Y4260955D01*
X3516842D01*
Y4260797D01*
X3517159D01*
Y4260638D01*
X3517475D01*
Y4260480D01*
X3517792D01*
Y4260322D01*
X3518109D01*
Y4260163D01*
X3518426D01*
Y4260005D01*
X3518743D01*
Y4259846D01*
X3519060D01*
Y4259688D01*
X3519376D01*
Y4259529D01*
X3519693D01*
Y4259371D01*
X3520010D01*
Y4259213D01*
X3520327D01*
Y4259054D01*
X3520644D01*
Y4258896D01*
X3520960D01*
Y4258737D01*
X3521436D01*
Y4258579D01*
X3521752D01*
Y4258421D01*
X3522228D01*
Y4258262D01*
X3522545D01*
Y4258104D01*
X3523020D01*
Y4257946D01*
X3523495D01*
Y4257787D01*
X3523812D01*
Y4257629D01*
X3524287D01*
Y4257470D01*
X3524762D01*
Y4257312D01*
X3525396D01*
Y4257153D01*
X3525871D01*
Y4256995D01*
X3526505D01*
Y4256837D01*
X3526980D01*
Y4256678D01*
X3527614D01*
Y4256520D01*
X3528406D01*
Y4256361D01*
X3529040D01*
Y4256203D01*
X3529832D01*
Y4256044D01*
X3530782D01*
Y4255886D01*
X3531891D01*
Y4255728D01*
X3533159D01*
Y4255569D01*
X3535059D01*
Y4255411D01*
X3540129D01*
Y4255569D01*
X3542030D01*
Y4255728D01*
X3543455D01*
Y4255886D01*
X3544406D01*
Y4256044D01*
X3545356D01*
Y4256203D01*
X3546149D01*
Y4256361D01*
X3546941D01*
Y4256520D01*
X3547574D01*
Y4256678D01*
X3548208D01*
Y4256837D01*
X3548842D01*
Y4256995D01*
X3549317D01*
Y4257153D01*
X3549950D01*
Y4257312D01*
X3550426D01*
Y4257470D01*
X3550901D01*
Y4257629D01*
X3551376D01*
Y4257787D01*
X3551851D01*
Y4257946D01*
X3552168D01*
Y4258104D01*
X3552644D01*
Y4258262D01*
X3553119D01*
Y4258421D01*
X3553436D01*
Y4258579D01*
X3553753D01*
Y4258737D01*
X3554228D01*
Y4258896D01*
X3554545D01*
Y4259054D01*
X3554861D01*
Y4259213D01*
X3555178D01*
Y4259371D01*
X3555654D01*
Y4259529D01*
X3555970D01*
Y4259688D01*
X3556287D01*
Y4259846D01*
X3556604D01*
Y4260005D01*
X3556921D01*
Y4260163D01*
X3557079D01*
Y4260322D01*
X3557396D01*
Y4260480D01*
X3557713D01*
Y4260638D01*
X3558030D01*
Y4260797D01*
X3558346D01*
Y4260955D01*
X3558505D01*
Y4261114D01*
X3558822D01*
Y4261272D01*
X3559139D01*
Y4261431D01*
X3559455D01*
Y4261589D01*
X3559614D01*
Y4261747D01*
X3559931D01*
Y4261906D01*
X3560089D01*
Y4262064D01*
X3560406D01*
Y4262223D01*
X3560564D01*
Y4262381D01*
X3560881D01*
Y4262539D01*
X3561040D01*
Y4262698D01*
X3561356D01*
Y4262856D01*
X3561515D01*
Y4263015D01*
X3561832D01*
Y4263173D01*
X3561990D01*
Y4263332D01*
X3562307D01*
Y4263490D01*
X3562465D01*
Y4263648D01*
X3562624D01*
Y4263807D01*
X3562941D01*
Y4263965D01*
X3563099D01*
Y4264124D01*
X3563258D01*
Y4264282D01*
X3563416D01*
Y4264441D01*
X3563733D01*
Y4264599D01*
X3563891D01*
Y4264757D01*
X3564050D01*
Y4264916D01*
X3564208D01*
Y4265074D01*
X3564525D01*
Y4265233D01*
X3564683D01*
Y4265391D01*
X3564842D01*
Y4265549D01*
X3565000D01*
Y4265708D01*
X3565158D01*
Y4265866D01*
X3565317D01*
Y4266025D01*
X3565634D01*
Y4266183D01*
X3565792D01*
Y4266341D01*
X3565950D01*
Y4266500D01*
X3566109D01*
Y4266658D01*
X3566267D01*
Y4266817D01*
X3566426D01*
Y4266975D01*
X3566584D01*
Y4267133D01*
X3566743D01*
Y4267292D01*
X3566901D01*
Y4267450D01*
X3567059D01*
Y4267609D01*
X3567218D01*
Y4267767D01*
X3567376D01*
Y4267926D01*
X3567535D01*
Y4268084D01*
X3567693D01*
Y4268242D01*
X3567852D01*
Y4268401D01*
X3568010D01*
Y4268559D01*
X3568168D01*
Y4268718D01*
X3568327D01*
Y4268876D01*
X3568485D01*
Y4269035D01*
X3568644D01*
Y4269193D01*
X3568802D01*
Y4269510D01*
X3568960D01*
Y4269668D01*
X3569119D01*
Y4269827D01*
X3569277D01*
Y4269985D01*
X3569436D01*
Y4270143D01*
X3569594D01*
Y4270302D01*
X3569753D01*
Y4270619D01*
X3569911D01*
Y4270777D01*
X3570069D01*
Y4270936D01*
X3570228D01*
Y4271094D01*
X3570386D01*
Y4271252D01*
X3570545D01*
Y4271569D01*
X3570703D01*
Y4271728D01*
X3570862D01*
Y4271886D01*
X3571020D01*
Y4272203D01*
X3571178D01*
Y4272361D01*
X3571337D01*
Y4272520D01*
X3571495D01*
Y4272837D01*
X3571654D01*
Y4272995D01*
X3571812D01*
Y4273312D01*
X3571970D01*
Y4273470D01*
X3572129D01*
Y4273628D01*
X3572287D01*
Y4273945D01*
X3572445D01*
Y4274104D01*
X3572604D01*
Y4274421D01*
X3572762D01*
Y4274579D01*
X3572921D01*
Y4274896D01*
X3573079D01*
Y4275213D01*
X3573238D01*
Y4275371D01*
X3573396D01*
Y4275688D01*
X3573554D01*
Y4276005D01*
X3573713D01*
Y4276163D01*
X3573871D01*
Y4276480D01*
X3574030D01*
Y4276797D01*
X3574188D01*
Y4277114D01*
X3574347D01*
Y4277272D01*
X3574505D01*
Y4277589D01*
X3574663D01*
Y4277906D01*
X3574822D01*
Y4278223D01*
X3574980D01*
Y4278540D01*
X3575139D01*
Y4278856D01*
X3575297D01*
Y4279173D01*
X3575455D01*
Y4279490D01*
X3575614D01*
Y4279807D01*
X3575772D01*
Y4280282D01*
X3575931D01*
Y4280599D01*
X3576089D01*
Y4280916D01*
X3576248D01*
Y4281391D01*
X3576406D01*
Y4281708D01*
X3576564D01*
Y4282025D01*
X3576723D01*
Y4282500D01*
X3576881D01*
Y4282975D01*
X3577040D01*
Y4283450D01*
X3577198D01*
Y4283767D01*
X3577357D01*
Y4284242D01*
X3577515D01*
Y4284876D01*
X3577673D01*
Y4285351D01*
X3577832D01*
Y4285827D01*
X3577990D01*
Y4286460D01*
X3578149D01*
Y4287094D01*
X3578307D01*
Y4287728D01*
X3578465D01*
Y4288520D01*
X3578624D01*
Y4289312D01*
X3578782D01*
Y4290104D01*
X3578941D01*
Y4291054D01*
X3579099D01*
Y4292322D01*
X3579258D01*
Y4293906D01*
X3579416D01*
Y4300559D01*
X3579258D01*
Y4302302D01*
X3579099D01*
Y4303411D01*
X3578941D01*
Y4304520D01*
X3578782D01*
Y4305312D01*
X3578624D01*
Y4306104D01*
X3578465D01*
Y4306737D01*
X3578307D01*
Y4307530D01*
X3578149D01*
Y4308005D01*
X3577990D01*
Y4308639D01*
X3577832D01*
Y4309272D01*
X3577673D01*
Y4309747D01*
X3577515D01*
Y4310223D01*
X3577357D01*
Y4310698D01*
X3577198D01*
Y4311173D01*
X3577040D01*
Y4311648D01*
X3576881D01*
Y4311965D01*
X3576723D01*
Y4312440D01*
X3576564D01*
Y4312916D01*
X3576406D01*
Y4313232D01*
X3576248D01*
Y4313549D01*
X3576089D01*
Y4314025D01*
X3575931D01*
Y4314341D01*
X3575772D01*
Y4314658D01*
X3575614D01*
Y4314975D01*
X3575455D01*
Y4315292D01*
X3575297D01*
Y4315609D01*
X3575139D01*
Y4315926D01*
X3574980D01*
Y4316242D01*
X3574822D01*
Y4316559D01*
X3574663D01*
Y4316876D01*
X3574505D01*
Y4317193D01*
X3574347D01*
Y4317510D01*
X3574188D01*
Y4317827D01*
X3574030D01*
Y4318144D01*
X3573871D01*
Y4318302D01*
X3573713D01*
Y4318619D01*
X3573554D01*
Y4318935D01*
X3573396D01*
Y4319094D01*
X3573238D01*
Y4319411D01*
X3573079D01*
Y4319569D01*
X3572921D01*
Y4319886D01*
X3572762D01*
Y4320203D01*
X3572604D01*
Y4320361D01*
X3572445D01*
Y4320678D01*
X3572287D01*
Y4320836D01*
X3572129D01*
Y4321153D01*
X3571970D01*
Y4321312D01*
X3571812D01*
Y4321470D01*
X3571654D01*
Y4321787D01*
X3571495D01*
Y4321945D01*
X3571337D01*
Y4322262D01*
X3571178D01*
Y4322421D01*
X3571020D01*
Y4322579D01*
X3570862D01*
Y4322737D01*
X3570703D01*
Y4323054D01*
X3570545D01*
Y4323213D01*
X3570386D01*
Y4323371D01*
X3570228D01*
Y4323688D01*
X3570069D01*
Y4323846D01*
X3569911D01*
Y4324005D01*
X3569753D01*
Y4324163D01*
X3569594D01*
Y4324322D01*
X3569436D01*
Y4324639D01*
X3569277D01*
Y4324797D01*
X3569119D01*
Y4324955D01*
X3568960D01*
Y4325114D01*
X3568802D01*
Y4325272D01*
X3568644D01*
Y4325431D01*
X3568485D01*
Y4325589D01*
X3568327D01*
Y4325747D01*
X3568168D01*
Y4325906D01*
X3568010D01*
Y4326222D01*
X3567852D01*
Y4326381D01*
X3567693D01*
Y4326539D01*
X3567535D01*
Y4326698D01*
X3567376D01*
Y4326856D01*
X3567218D01*
Y4327015D01*
X3567059D01*
Y4327173D01*
X3566901D01*
Y4327331D01*
X3566743D01*
Y4327490D01*
X3566584D01*
Y4327648D01*
X3566267D01*
Y4327807D01*
X3566109D01*
Y4327965D01*
X3565950D01*
Y4328124D01*
X3565792D01*
Y4328282D01*
X3565634D01*
Y4328440D01*
X3565475D01*
Y4328599D01*
X3565317D01*
Y4328757D01*
X3565158D01*
Y4328916D01*
X3565000D01*
Y4329074D01*
X3564683D01*
Y4329232D01*
X3564525D01*
Y4329391D01*
X3564366D01*
Y4329549D01*
X3564208D01*
Y4329708D01*
X3564050D01*
Y4329866D01*
X3563733D01*
Y4330025D01*
X3563574D01*
Y4330183D01*
X3563416D01*
Y4330341D01*
X3563258D01*
Y4330500D01*
X3562941D01*
Y4330658D01*
X3562782D01*
Y4330817D01*
X3562624D01*
Y4330975D01*
X3562307D01*
Y4331134D01*
X3562149D01*
Y4331292D01*
X3561832D01*
Y4331450D01*
X3561673D01*
Y4331609D01*
X3561515D01*
Y4331767D01*
X3561198D01*
Y4331926D01*
X3561040D01*
Y4332084D01*
X3560723D01*
Y4332242D01*
X3560564D01*
Y4332401D01*
X3560248D01*
Y4332559D01*
X3560089D01*
Y4332718D01*
X3559772D01*
Y4332876D01*
X3559455D01*
Y4333035D01*
X3559297D01*
Y4333193D01*
X3558980D01*
Y4333351D01*
X3558663D01*
Y4333510D01*
X3558505D01*
Y4333668D01*
X3558188D01*
Y4333826D01*
X3557871D01*
Y4333985D01*
X3557554D01*
Y4334143D01*
X3557238D01*
Y4334302D01*
X3557079D01*
Y4334460D01*
X3556763D01*
Y4334619D01*
X3556446D01*
Y4334777D01*
X3556129D01*
Y4334935D01*
X3555812D01*
Y4335094D01*
X3555337D01*
Y4335252D01*
X3555020D01*
Y4335411D01*
X3554703D01*
Y4335569D01*
X3554386D01*
Y4335728D01*
X3554069D01*
Y4335886D01*
X3553594D01*
Y4336044D01*
X3553277D01*
Y4336203D01*
X3552802D01*
Y4336361D01*
X3552485D01*
Y4336520D01*
X3552010D01*
Y4336678D01*
X3551535D01*
Y4336836D01*
X3551059D01*
Y4336995D01*
X3550584D01*
Y4337153D01*
X3550109D01*
Y4337312D01*
X3549634D01*
Y4337470D01*
X3549159D01*
Y4337629D01*
X3548525D01*
Y4337787D01*
X3547891D01*
Y4337945D01*
X3547258D01*
Y4338104D01*
X3546465D01*
Y4338262D01*
X3545832D01*
Y4338421D01*
X3544881D01*
Y4338579D01*
X3543931D01*
Y4338738D01*
X3542822D01*
Y4338896D01*
X3541238D01*
Y4339054D01*
D02*
G37*
%LPD*%
D48*
X2202872Y3584477D02*
G03*
X2205000Y3577500I-10372J-6977D01*
G01*
X546500Y2647500D02*
G03*
X546500Y2647500I-12500J0D01*
G01*
X537801Y1394100D02*
G03*
X537801Y1394100I-12500J0D01*
G01*
X967800Y1396100D02*
G03*
X967800Y1396100I-12500J0D01*
G01*
X1297500Y3835000D02*
G03*
X1297500Y3835000I-12500J0D01*
G01*
X1057500Y2810000D02*
G03*
X1057500Y2810000I-12500J0D01*
G01*
X4202000Y717100D02*
G03*
X4202000Y717100I-12500J0D01*
G01*
X962800Y792600D02*
G03*
X962800Y792600I-12500J0D01*
G01*
D49*
X465778Y3467500D02*
G03*
X465778Y3467500I-103078J0D01*
G01*
X512700D02*
G03*
X512700Y3467500I-150000J0D01*
G01*
X4035400Y3817751D02*
Y3690792D01*
X4060792Y3665400D01*
X4111575D01*
X4136967Y3690792D01*
Y3817751D01*
X4289318Y3792359D02*
X4263926Y3817751D01*
X4213143D01*
X4187751Y3792359D01*
Y3766967D01*
X4213143Y3741575D01*
X4263926D01*
X4289318Y3716184D01*
Y3690792D01*
X4263926Y3665400D01*
X4213143D01*
X4187751Y3690792D01*
X4340102Y3817751D02*
Y3665400D01*
X4416277D01*
X4441669Y3690792D01*
Y3716184D01*
X4416277Y3741575D01*
X4340102D01*
X4416277D01*
X4441669Y3766967D01*
Y3792359D01*
X4416277Y3817751D01*
X4340102D01*
X3062249Y3776967D02*
Y3726183D01*
Y3751575D01*
X3189208D01*
X3214600Y3726183D01*
Y3700792D01*
X3189208Y3675400D01*
X3062249Y3827751D02*
Y3929318D01*
Y3878534D01*
X3214600D01*
Y3980101D02*
X3113033D01*
X3062249Y4030885D01*
X3113033Y4081668D01*
X3214600D01*
X3138425D01*
Y3980101D01*
X3087641Y4234019D02*
X3062249Y4208627D01*
Y4157844D01*
X3087641Y4132452D01*
X3189208D01*
X3214600Y4157844D01*
Y4208627D01*
X3189208Y4234019D01*
X3138425D01*
Y4183235D01*
D50*
X1750000Y2775000D02*
G03*
X1750000Y2775000I-10000J0D01*
G01*
X1764142D02*
G03*
X1764142Y2775000I-14142J0D01*
G01*
X1760000D02*
G03*
X1760000Y2775000I-10000J0D01*
G01*
X1764142D02*
G03*
X1764142Y2775000I-14142J0D01*
G01*
X1772360D02*
G03*
X1772360Y2775000I-22361J0D01*
G01*
X1778284D02*
G03*
X1778284Y2775000I-28284J0D01*
G01*
X1870000Y1855000D02*
Y2775000D01*
Y1855000D02*
X2790000D01*
Y2775000D01*
X1870000D02*
X2790000D01*
D51*
X1774500Y172500D02*
G03*
X1774500Y172500I-10000J0D01*
G01*
X2172500Y3650250D02*
Y4171250D01*
X2927500Y3650250D02*
X2972500D01*
X2673500D02*
X2725500D01*
X2419500D02*
X2471500D01*
X2172500D02*
X2217500D01*
X2972500D02*
Y4171250D01*
X2927500D02*
X2972500D01*
X2673500D02*
X2725500D01*
X2419500D02*
X2471500D01*
X2172500D02*
X2217500D01*
X62700Y3742500D02*
X662700D01*
X62700Y3192500D02*
X662700D01*
X62700D02*
Y3742500D01*
X662700Y3192500D02*
Y3742500D01*
X1390000Y3495000D02*
Y3515000D01*
X1275000Y3495000D02*
Y3515000D01*
X3243787Y876287D02*
X3263787D01*
X3243787Y991287D02*
X3263787D01*
X356500Y2420000D02*
Y2575000D01*
Y2270000D02*
Y2275000D01*
X207500Y2087500D02*
X245500D01*
X10000D02*
Y2757500D01*
X52500D01*
X207500D02*
X245500D01*
X10000Y2087500D02*
X52500D01*
X1187500Y3780000D02*
X1242500D01*
X932500D02*
X987500D01*
X932500Y4035000D02*
Y4040000D01*
Y3780000D02*
Y3785000D01*
X1187500Y4040000D02*
X1242500D01*
X932500D02*
X987500D01*
X1242500Y4035000D02*
Y4040000D01*
Y3780000D02*
Y3785000D01*
X795000Y1662500D02*
Y1682500D01*
X680000Y1662500D02*
Y1682500D01*
X1090000Y2392500D02*
X1360000D01*
X1090000Y2807500D02*
X1360000D01*
X2907500Y408500D02*
Y916500D01*
X1637500Y408500D02*
Y916500D01*
X3674750Y734750D02*
X4025250D01*
X3674750D02*
Y1385250D01*
X4025250D01*
Y734750D02*
Y1385250D01*
X4014690Y2152810D02*
X4305310D01*
X4014690Y1927190D02*
X4305310D01*
X4466500Y2683000D02*
Y3577000D01*
X4325500Y2683000D02*
X4466500D01*
X4325500Y3577000D02*
X4466500D01*
X3920499Y2683000D02*
X4083500Y2683000D01*
X3920499Y3577000D02*
X4083500Y3577000D01*
X3552500Y2777500D02*
Y2797500D01*
X3437500Y2777500D02*
Y2797500D01*
X3442500Y3420000D02*
Y3440000D01*
X3557500Y3420000D02*
Y3440000D01*
X1057500Y3490000D02*
X1077500D01*
X1057500Y3375000D02*
X1077500D01*
X3360000Y1830000D02*
Y1850000D01*
X3245000Y1830000D02*
Y1850000D01*
X560000Y2442500D02*
Y2462500D01*
X675000Y2442500D02*
Y2462500D01*
D52*
X3007500Y697500D02*
Y822500D01*
D53*
X2530526Y3332000D02*
X2610500D01*
Y3371987D01*
X2597171Y3385316D01*
X2543855D01*
X2530526Y3371987D01*
Y3332000D01*
Y3451961D02*
Y3425303D01*
X2543855Y3411974D01*
X2597171D01*
X2610500Y3425303D01*
Y3451961D01*
X2597171Y3465290D01*
X2543855D01*
X2530526Y3451961D01*
X2532816Y4428645D02*
X2519487Y4441974D01*
X2492829D01*
X2479500Y4428645D01*
Y4375329D01*
X2492829Y4362000D01*
X2519487D01*
X2532816Y4375329D01*
X2559474Y4441974D02*
Y4362000D01*
X2612790D01*
X2639448Y4441974D02*
Y4362000D01*
Y4388658D01*
X2692764Y4441974D01*
X2652777Y4401987D01*
X2692764Y4362000D01*
X2794027Y3212981D02*
Y3184991D01*
Y3198986D01*
X2864005D01*
X2878000Y3184991D01*
Y3170995D01*
X2864005Y3157000D01*
X2794027Y3240972D02*
Y3296954D01*
Y3268963D01*
X2878000D01*
Y3324945D02*
X2794027D01*
X2822018Y3352936D01*
X2794027Y3380927D01*
X2878000D01*
X2808023Y3464900D02*
X2794027Y3450905D01*
Y3422914D01*
X2808023Y3408918D01*
X2822018D01*
X2836014Y3422914D01*
Y3450905D01*
X2850009Y3464900D01*
X2864005D01*
X2878000Y3450905D01*
Y3422914D01*
X2864005Y3408918D01*
X2254500Y4364500D02*
Y4444474D01*
X2294487D01*
X2307816Y4431145D01*
Y4404487D01*
X2294487Y4391158D01*
X2254500D01*
X2281158D02*
X2307816Y4364500D01*
X2387790Y4431145D02*
X2374461Y4444474D01*
X2347803D01*
X2334474Y4431145D01*
Y4417816D01*
X2347803Y4404487D01*
X2374461D01*
X2387790Y4391158D01*
Y4377829D01*
X2374461Y4364500D01*
X2347803D01*
X2334474Y4377829D01*
X2284694Y3202000D02*
X2268033Y3218661D01*
Y3251984D01*
X2284694Y3268645D01*
X2301355D01*
X2318016Y3251984D01*
Y3235322D01*
Y3251984D01*
X2334678Y3268645D01*
X2351339D01*
X2368000Y3251984D01*
Y3218661D01*
X2351339Y3202000D01*
X2268033Y3301967D02*
X2334678D01*
X2368000Y3335290D01*
X2334678Y3368613D01*
X2268033D01*
X2284694Y3401935D02*
X2268033Y3418597D01*
Y3451919D01*
X2284694Y3468580D01*
X2301355D01*
X2318016Y3451919D01*
Y3435258D01*
Y3451919D01*
X2334678Y3468580D01*
X2351339D01*
X2368000Y3451919D01*
Y3418597D01*
X2351339Y3401935D01*
D54*
X2799816Y4430645D02*
X2786487Y4443974D01*
X2759829D01*
X2746500Y4430645D01*
Y4377329D01*
X2759829Y4364000D01*
X2786487D01*
X2799816Y4377329D01*
Y4403987D01*
X2773158D01*
X2826474Y4364000D02*
Y4443974D01*
X2879790Y4364000D01*
Y4443974D01*
X2906448D02*
Y4364000D01*
X2946436D01*
X2959764Y4377329D01*
Y4430645D01*
X2946436Y4443974D01*
X2906448D01*
D55*
X3142496Y1652505D02*
D03*
X947498Y1850000D02*
D03*
%TF.MD5,6f4c3263d0b064fbf979e4bfd175aa74*%
M02*
