%TF.GenerationSoftware,Altium Limited,Altium Designer,24.6.1 (21)*%
G04 Layer_Color=16711935*
%FSLAX45Y45*%
%MOMM*%
%TF.SameCoordinates,6A5B3439-CA9B-47F1-B443-B48DB32901A5*%
%TF.FilePolarity,Negative*%
%TF.FileFunction,Soldermask,Bot*%
%TF.Part,Single*%
G01*
G75*
%TA.AperFunction,ComponentPad*%
%ADD41C,0.90000*%
%TA.AperFunction,ViaPad*%
%ADD72C,3.40320*%
%TA.AperFunction,ComponentPad*%
%ADD73O,2.00320X1.20320*%
%ADD74O,2.30320X1.20320*%
%ADD75C,0.85320*%
%TA.AperFunction,ViaPad*%
%ADD76C,1.00320*%
%ADD77C,2.20320*%
D41*
X226500Y2572500D02*
D03*
Y2272500D02*
D03*
D72*
X4200000Y300000D02*
D03*
X300000D02*
D03*
X4200000Y4200000D02*
D03*
X300000D02*
D03*
D73*
X4204500Y3562000D02*
D03*
Y2698000D02*
D03*
D74*
X3786500Y3562000D02*
D03*
Y2698000D02*
D03*
D75*
X3836500Y2841000D02*
D03*
Y3419000D02*
D03*
D76*
X1725000Y1530000D02*
D03*
X465000Y2045000D02*
D03*
X577500Y2150000D02*
D03*
X627500Y2712500D02*
D03*
X260000Y3067500D02*
D03*
X467500D02*
D03*
X812500Y3312500D02*
D03*
X862500Y3482500D02*
D03*
X367500Y1595000D02*
D03*
X1220000Y1617500D02*
D03*
X1080000Y1767500D02*
D03*
X2350000Y1490000D02*
D03*
X2972500Y767500D02*
D03*
X3142500Y2072500D02*
D03*
X1420000Y2895000D02*
D03*
X1930000Y3207500D02*
D03*
X947500Y3090000D02*
D03*
X1550000Y3675000D02*
D03*
X1175000Y1420000D02*
D03*
X582528Y1237560D02*
D03*
X1260000Y1180000D02*
D03*
X3492500Y2597500D02*
D03*
X792500Y2685000D02*
D03*
X3790000Y2270000D02*
D03*
X3435000Y1937500D02*
D03*
X3810000Y2080000D02*
D03*
X2970000Y1342500D02*
D03*
X3165000Y467500D02*
D03*
X3347500Y1060000D02*
D03*
X977500Y3292500D02*
D03*
X1157500Y3312500D02*
D03*
X3780000Y2570000D02*
D03*
X300000Y580000D02*
D03*
X627500Y1992500D02*
D03*
X1090000Y780000D02*
D03*
X567500Y1752500D02*
D03*
X1595000Y2590000D02*
D03*
X1007500Y4350000D02*
D03*
X3760000Y840000D02*
D03*
X4030000Y1440000D02*
D03*
X3500000Y3630000D02*
D03*
X2982500Y4270750D02*
D03*
X907500Y2112500D02*
D03*
X1367500Y3985000D02*
D03*
D77*
X2530000Y2115000D02*
D03*
X2130000D02*
D03*
X2530000Y2515000D02*
D03*
X2130000D02*
D03*
%TF.MD5,9a043b70adc2bbe4acfacf8fdcc88809*%
M02*
