%TF.GenerationSoftware,Altium Limited,Altium Designer,24.5.2 (23)*%
G04 Layer_Color=65535*
%FSLAX45Y45*%
%MOMM*%
%TF.SameCoordinates,DE48C8CA-727C-43F3-B7AC-81352024B8C0*%
%TF.FilePolarity,Positive*%
%TF.FileFunction,Legend,Top*%
%TF.Part,Single*%
G01*
G75*
%TA.AperFunction,NonConductor*%
%ADD51C,0.25000*%
%ADD52C,0.20000*%
%ADD53C,0.40000*%
%ADD54C,0.17000*%
%ADD55C,0.25400*%
G36*
X11886079Y7931366D02*
X11889723D01*
Y7931208D01*
X11891782D01*
Y7931049D01*
X11893525D01*
Y7930891D01*
X11894951D01*
Y7930732D01*
X11896218D01*
Y7930574D01*
X11897327D01*
Y7930415D01*
X11898436D01*
Y7930257D01*
X11899386D01*
Y7930099D01*
X11900337D01*
Y7929940D01*
X11901287D01*
Y7929782D01*
X11902079D01*
Y7929623D01*
X11902872D01*
Y7929465D01*
X11903664D01*
Y7929307D01*
X11904297D01*
Y7929148D01*
X11905089D01*
Y7928990D01*
X11905723D01*
Y7928831D01*
X11906357D01*
Y7928673D01*
X11906990D01*
Y7928514D01*
X11907624D01*
Y7928356D01*
X11908258D01*
Y7928198D01*
X11908891D01*
Y7928039D01*
X11909367D01*
Y7927881D01*
X11910000D01*
Y7927723D01*
X11910475D01*
Y7927564D01*
X11911109D01*
Y7927406D01*
X11911584D01*
Y7927247D01*
X11912059D01*
Y7927089D01*
X11912535D01*
Y7926930D01*
X11913010D01*
Y7926772D01*
X11913485D01*
Y7926614D01*
X11913961D01*
Y7926455D01*
X11914436D01*
Y7926297D01*
X11914911D01*
Y7926138D01*
X11915386D01*
Y7925980D01*
X11915862D01*
Y7925822D01*
X11916337D01*
Y7925663D01*
X11916812D01*
Y7925505D01*
X11917129D01*
Y7925346D01*
X11917604D01*
Y7925188D01*
X11918079D01*
Y7925029D01*
X11918396D01*
Y7924871D01*
X11918872D01*
Y7924713D01*
X11919188D01*
Y7924554D01*
X11919663D01*
Y7924396D01*
X11919980D01*
Y7924237D01*
X11920297D01*
Y7924079D01*
X11920772D01*
Y7923920D01*
X11921089D01*
Y7923762D01*
X11921564D01*
Y7923604D01*
X11921881D01*
Y7923445D01*
X11922198D01*
Y7923287D01*
X11922515D01*
Y7923128D01*
X11922990D01*
Y7922970D01*
X11923307D01*
Y7922812D01*
X11923624D01*
Y7922653D01*
X11923941D01*
Y7922495D01*
X11924258D01*
Y7922336D01*
X11924574D01*
Y7922178D01*
X11925050D01*
Y7922019D01*
X11925367D01*
Y7921861D01*
X11925683D01*
Y7921703D01*
X11926000D01*
Y7921544D01*
X11926317D01*
Y7921386D01*
X11926634D01*
Y7921227D01*
X11926951D01*
Y7921069D01*
X11927267D01*
Y7920910D01*
X11927584D01*
Y7920752D01*
X11927743D01*
Y7920594D01*
X11928059D01*
Y7920435D01*
X11928376D01*
Y7920277D01*
X11928693D01*
Y7920119D01*
X11929010D01*
Y7919960D01*
X11929327D01*
Y7919802D01*
X11929644D01*
Y7919643D01*
X11929802D01*
Y7919485D01*
X11930119D01*
Y7919326D01*
X11930436D01*
Y7919168D01*
X11930753D01*
Y7919010D01*
X11931069D01*
Y7918851D01*
X11931228D01*
Y7918693D01*
X11931545D01*
Y7918534D01*
X11931862D01*
Y7918376D01*
X11932020D01*
Y7918218D01*
X11932337D01*
Y7918059D01*
X11932654D01*
Y7917901D01*
X11932812D01*
Y7917742D01*
X11933129D01*
Y7917584D01*
X11933446D01*
Y7917425D01*
X11933604D01*
Y7917267D01*
X11933921D01*
Y7917109D01*
X11934238D01*
Y7916950D01*
X11934396D01*
Y7916792D01*
X11934713D01*
Y7916633D01*
X11934871D01*
Y7916475D01*
X11935188D01*
Y7916316D01*
X11935347D01*
Y7916158D01*
X11935663D01*
Y7916000D01*
X11935822D01*
Y7915841D01*
X11936139D01*
Y7915683D01*
X11936456D01*
Y7915524D01*
X11936614D01*
Y7915366D01*
X11936931D01*
Y7915208D01*
X11937089D01*
Y7915049D01*
X11937248D01*
Y7914891D01*
X11937564D01*
Y7914732D01*
X11937723D01*
Y7914574D01*
X11938040D01*
Y7914415D01*
X11938198D01*
Y7914257D01*
X11938515D01*
Y7914099D01*
X11938673D01*
Y7913940D01*
X11938990D01*
Y7913782D01*
X11939149D01*
Y7913623D01*
X11939307D01*
Y7913465D01*
X11939624D01*
Y7913307D01*
X11939782D01*
Y7913148D01*
X11939941D01*
Y7912990D01*
X11940258D01*
Y7912831D01*
X11940416D01*
Y7912673D01*
X11940574D01*
Y7912515D01*
X11940891D01*
Y7912356D01*
X11941050D01*
Y7912198D01*
X11941208D01*
Y7912039D01*
X11941525D01*
Y7911881D01*
X11941683D01*
Y7911723D01*
X11941842D01*
Y7911564D01*
X11942158D01*
Y7911406D01*
X11942317D01*
Y7911247D01*
X11942475D01*
Y7911089D01*
X11942634D01*
Y7910930D01*
X11942951D01*
Y7910772D01*
X11943109D01*
Y7910614D01*
X11943267D01*
Y7910455D01*
X11943426D01*
Y7910297D01*
X11943743D01*
Y7910138D01*
X11943901D01*
Y7909980D01*
X11944060D01*
Y7909821D01*
X11944218D01*
Y7909663D01*
X11944535D01*
Y7909505D01*
X11944693D01*
Y7909346D01*
X11944852D01*
Y7909188D01*
X11945010D01*
Y7909029D01*
X11945168D01*
Y7908871D01*
X11945485D01*
Y7908713D01*
X11945644D01*
Y7908554D01*
X11945802D01*
Y7908396D01*
X11945961D01*
Y7908237D01*
X11946119D01*
Y7908079D01*
X11946277D01*
Y7907920D01*
X11946436D01*
Y7907762D01*
X11946753D01*
Y7907604D01*
X11946911D01*
Y7907445D01*
X11947070D01*
Y7907287D01*
X11947228D01*
Y7907128D01*
X11947386D01*
Y7906970D01*
X11947545D01*
Y7906811D01*
X11947703D01*
Y7906653D01*
X11947862D01*
Y7906495D01*
X11948178D01*
Y7906336D01*
X11948337D01*
Y7906178D01*
X11948495D01*
Y7906019D01*
X11948654D01*
Y7905861D01*
X11948812D01*
Y7905703D01*
X11948971D01*
Y7905544D01*
X11949129D01*
Y7905386D01*
X11949287D01*
Y7905228D01*
X11949446D01*
Y7905069D01*
X11949604D01*
Y7904911D01*
X11949762D01*
Y7904752D01*
X11949921D01*
Y7904594D01*
X11950079D01*
Y7904435D01*
X11950238D01*
Y7904277D01*
X11950396D01*
Y7904119D01*
X11950555D01*
Y7903960D01*
X11950713D01*
Y7903802D01*
X11950871D01*
Y7903643D01*
X11951030D01*
Y7903485D01*
X11951188D01*
Y7903326D01*
X11951347D01*
Y7903168D01*
X11951505D01*
Y7903010D01*
X11951663D01*
Y7902851D01*
X11951822D01*
Y7902693D01*
X11951980D01*
Y7902534D01*
X11952139D01*
Y7902376D01*
X11952297D01*
Y7902218D01*
X11952456D01*
Y7902059D01*
X11952614D01*
Y7901901D01*
X11952772D01*
Y7901742D01*
X11952931D01*
Y7901584D01*
X11953089D01*
Y7901425D01*
X11953248D01*
Y7901267D01*
X11953406D01*
Y7901109D01*
X11953565D01*
Y7900950D01*
X11953723D01*
Y7900792D01*
X11953881D01*
Y7900633D01*
X11954040D01*
Y7900316D01*
X11954198D01*
Y7900158D01*
X11954357D01*
Y7900000D01*
X11954515D01*
Y7899841D01*
X11954673D01*
Y7899683D01*
X11954832D01*
Y7899524D01*
X11954990D01*
Y7899366D01*
X11955149D01*
Y7899208D01*
X11955307D01*
Y7898891D01*
X11955466D01*
Y7898732D01*
X11955624D01*
Y7898574D01*
X11955782D01*
Y7898415D01*
X11955941D01*
Y7898257D01*
X11956099D01*
Y7898099D01*
X11956258D01*
Y7897940D01*
X11956416D01*
Y7897624D01*
X11956575D01*
Y7897465D01*
X11956733D01*
Y7897307D01*
X11956891D01*
Y7897148D01*
X11957050D01*
Y7896990D01*
X11957208D01*
Y7896673D01*
X11957366D01*
Y7896515D01*
X11957525D01*
Y7896356D01*
X11957683D01*
Y7896198D01*
X11957842D01*
Y7895881D01*
X11958000D01*
Y7895723D01*
X11958158D01*
Y7895564D01*
X11958317D01*
Y7895406D01*
X11958475D01*
Y7895089D01*
X11958634D01*
Y7894930D01*
X11958792D01*
Y7894772D01*
X11958951D01*
Y7894614D01*
X11959109D01*
Y7894297D01*
X11959267D01*
Y7894138D01*
X11959426D01*
Y7893980D01*
X11959584D01*
Y7893663D01*
X11959743D01*
Y7893505D01*
X11959901D01*
Y7893346D01*
X11960060D01*
Y7893029D01*
X11960218D01*
Y7892871D01*
X11960376D01*
Y7892713D01*
X11960535D01*
Y7892396D01*
X11960693D01*
Y7892237D01*
X11960852D01*
Y7892079D01*
X11961010D01*
Y7891762D01*
X11961168D01*
Y7891604D01*
X11961327D01*
Y7891287D01*
X11961485D01*
Y7891128D01*
X11961644D01*
Y7890970D01*
X11961802D01*
Y7890653D01*
X11961961D01*
Y7890495D01*
X11962119D01*
Y7890178D01*
X11962277D01*
Y7890020D01*
X11962436D01*
Y7889703D01*
X11962594D01*
Y7889544D01*
X11962753D01*
Y7889227D01*
X11962911D01*
Y7889069D01*
X11963070D01*
Y7888752D01*
X11963228D01*
Y7888594D01*
X11963386D01*
Y7888277D01*
X11963545D01*
Y7888119D01*
X11963703D01*
Y7887802D01*
X11963862D01*
Y7887643D01*
X11964020D01*
Y7887326D01*
X11964178D01*
Y7887168D01*
X11964337D01*
Y7886851D01*
X11964495D01*
Y7886534D01*
X11964653D01*
Y7886376D01*
X11964812D01*
Y7886059D01*
X11964970D01*
Y7885901D01*
X11965129D01*
Y7885584D01*
X11965287D01*
Y7885267D01*
X11965446D01*
Y7885109D01*
X11965604D01*
Y7884792D01*
X11965762D01*
Y7884475D01*
X11965921D01*
Y7884316D01*
X11966079D01*
Y7884000D01*
X11966238D01*
Y7883683D01*
X11966396D01*
Y7883366D01*
X11966555D01*
Y7883208D01*
X11966713D01*
Y7882891D01*
X11966871D01*
Y7882574D01*
X11967030D01*
Y7882257D01*
X11967188D01*
Y7882099D01*
X11967347D01*
Y7881782D01*
X11967505D01*
Y7881465D01*
X11967663D01*
Y7881148D01*
X11967822D01*
Y7880831D01*
X11967980D01*
Y7880515D01*
X11968139D01*
Y7880198D01*
X11968297D01*
Y7879881D01*
X11968456D01*
Y7879564D01*
X11968614D01*
Y7879406D01*
X11968772D01*
Y7879089D01*
X11968931D01*
Y7878772D01*
X11969089D01*
Y7878455D01*
X11969248D01*
Y7877980D01*
X11969406D01*
Y7877663D01*
X11969565D01*
Y7877346D01*
X11969723D01*
Y7877029D01*
X11969881D01*
Y7876712D01*
X11970040D01*
Y7876396D01*
X11970198D01*
Y7876079D01*
X11970357D01*
Y7875762D01*
X11970515D01*
Y7875287D01*
X11970673D01*
Y7874970D01*
X11970832D01*
Y7874653D01*
X11970990D01*
Y7874336D01*
X11971149D01*
Y7873861D01*
X11971307D01*
Y7873544D01*
X11971466D01*
Y7873227D01*
X11971624D01*
Y7872752D01*
X11971782D01*
Y7872435D01*
X11971941D01*
Y7871960D01*
X11972099D01*
Y7871643D01*
X11972257D01*
Y7871168D01*
X11972416D01*
Y7870851D01*
X11972574D01*
Y7870376D01*
X11972733D01*
Y7870059D01*
X11972891D01*
Y7869584D01*
X11973050D01*
Y7869109D01*
X11973208D01*
Y7868792D01*
X11973366D01*
Y7868316D01*
X11973525D01*
Y7867841D01*
X11973683D01*
Y7867366D01*
X11973842D01*
Y7866891D01*
X11974000D01*
Y7866416D01*
X11974159D01*
Y7865940D01*
X11974317D01*
Y7865465D01*
X11974475D01*
Y7864990D01*
X11974634D01*
Y7864515D01*
X11974792D01*
Y7864039D01*
X11974951D01*
Y7863406D01*
X11975109D01*
Y7862930D01*
X11975267D01*
Y7862297D01*
X11975426D01*
Y7861821D01*
X11975584D01*
Y7861188D01*
X11975743D01*
Y7860554D01*
X11975901D01*
Y7860079D01*
X11976060D01*
Y7859445D01*
X11976218D01*
Y7858812D01*
X11976376D01*
Y7858178D01*
X11976535D01*
Y7857386D01*
X11976693D01*
Y7856752D01*
X11976852D01*
Y7855960D01*
X11977010D01*
Y7855168D01*
X11977169D01*
Y7854376D01*
X11977327D01*
Y7853584D01*
X11977485D01*
Y7852633D01*
X11977644D01*
Y7851841D01*
X11977802D01*
Y7850732D01*
X11977961D01*
Y7849623D01*
X11978119D01*
Y7848515D01*
X11978277D01*
Y7847247D01*
X11978436D01*
Y7845821D01*
X11978594D01*
Y7844079D01*
X11978753D01*
Y7841703D01*
X11978911D01*
Y7837109D01*
X11979070D01*
Y7835366D01*
X11978911D01*
Y7830613D01*
X11978753D01*
Y7828396D01*
X11978594D01*
Y7826653D01*
X11978436D01*
Y7825227D01*
X11978277D01*
Y7823802D01*
X11978119D01*
Y7822693D01*
X11977961D01*
Y7821584D01*
X11977802D01*
Y7820633D01*
X11977644D01*
Y7819683D01*
X11977485D01*
Y7818891D01*
X11977327D01*
Y7817940D01*
X11977169D01*
Y7817148D01*
X11977010D01*
Y7816356D01*
X11976852D01*
Y7815722D01*
X11976693D01*
Y7814931D01*
X11976535D01*
Y7814297D01*
X11976376D01*
Y7813663D01*
X11976218D01*
Y7813029D01*
X11976060D01*
Y7812396D01*
X11975901D01*
Y7811762D01*
X11975743D01*
Y7811128D01*
X11975584D01*
Y7810653D01*
X11975426D01*
Y7810019D01*
X11975267D01*
Y7809544D01*
X11975109D01*
Y7808911D01*
X11974951D01*
Y7808435D01*
X11974792D01*
Y7807960D01*
X11974634D01*
Y7807485D01*
X11974475D01*
Y7806851D01*
X11974317D01*
Y7806376D01*
X11974159D01*
Y7805901D01*
X11974000D01*
Y7805426D01*
X11973842D01*
Y7804950D01*
X11973683D01*
Y7804633D01*
X11973525D01*
Y7804158D01*
X11973366D01*
Y7803683D01*
X11973208D01*
Y7803208D01*
X11973050D01*
Y7802891D01*
X11972891D01*
Y7802416D01*
X11972733D01*
Y7801940D01*
X11972574D01*
Y7801623D01*
X11972416D01*
Y7801148D01*
X11972257D01*
Y7800831D01*
X11972099D01*
Y7800356D01*
X11971941D01*
Y7800039D01*
X11971782D01*
Y7799564D01*
X11971624D01*
Y7799247D01*
X11971466D01*
Y7798931D01*
X11971307D01*
Y7798455D01*
X11971149D01*
Y7798138D01*
X11970990D01*
Y7797822D01*
X11970832D01*
Y7797346D01*
X11970673D01*
Y7797029D01*
X11970515D01*
Y7796713D01*
X11970357D01*
Y7796396D01*
X11970198D01*
Y7796079D01*
X11970040D01*
Y7795604D01*
X11969881D01*
Y7795287D01*
X11969723D01*
Y7794970D01*
X11969565D01*
Y7794653D01*
X11969406D01*
Y7794336D01*
X11969248D01*
Y7794019D01*
X11969089D01*
Y7793703D01*
X11968931D01*
Y7793386D01*
X11968772D01*
Y7793069D01*
X11968614D01*
Y7792752D01*
X11968456D01*
Y7792435D01*
X11968297D01*
Y7792119D01*
X11968139D01*
Y7791802D01*
X11967980D01*
Y7791485D01*
X11967822D01*
Y7791327D01*
X11967663D01*
Y7791010D01*
X11967505D01*
Y7790693D01*
X11967347D01*
Y7790376D01*
X11967188D01*
Y7790059D01*
X11967030D01*
Y7789742D01*
X11966871D01*
Y7789584D01*
X11967505D01*
Y7789425D01*
X11968139D01*
Y7789267D01*
X11968772D01*
Y7789109D01*
X11969406D01*
Y7788950D01*
X11970040D01*
Y7788792D01*
X11970673D01*
Y7788633D01*
X11971307D01*
Y7788475D01*
X11971941D01*
Y7788317D01*
X11972574D01*
Y7788158D01*
X11973208D01*
Y7788000D01*
X11973683D01*
Y7787841D01*
X11974317D01*
Y7787683D01*
X11974951D01*
Y7787524D01*
X11975426D01*
Y7787366D01*
X11976060D01*
Y7787208D01*
X11976535D01*
Y7787049D01*
X11977169D01*
Y7786891D01*
X11977644D01*
Y7786732D01*
X11978119D01*
Y7786574D01*
X11978753D01*
Y7786415D01*
X11979228D01*
Y7786257D01*
X11979703D01*
Y7786099D01*
X11980178D01*
Y7785940D01*
X11980654D01*
Y7785782D01*
X11981287D01*
Y7785623D01*
X11981762D01*
Y7785465D01*
X11982238D01*
Y7785307D01*
X11982713D01*
Y7785148D01*
X11983188D01*
Y7784990D01*
X11983664D01*
Y7784832D01*
X11984139D01*
Y7784673D01*
X11984614D01*
Y7784515D01*
X11985089D01*
Y7784356D01*
X11985565D01*
Y7784198D01*
X11985881D01*
Y7784039D01*
X11986357D01*
Y7783881D01*
X11986832D01*
Y7783723D01*
X11987307D01*
Y7783564D01*
X11987782D01*
Y7783406D01*
X11988099D01*
Y7783247D01*
X11988574D01*
Y7783089D01*
X11989050D01*
Y7782930D01*
X11989525D01*
Y7782772D01*
X11989842D01*
Y7782614D01*
X11990317D01*
Y7782455D01*
X11990792D01*
Y7782297D01*
X11991109D01*
Y7782138D01*
X11991584D01*
Y7781980D01*
X11991901D01*
Y7781822D01*
X11992376D01*
Y7781663D01*
X11992693D01*
Y7781505D01*
X11993169D01*
Y7781346D01*
X11993644D01*
Y7781188D01*
X11993961D01*
Y7781029D01*
X11994277D01*
Y7780871D01*
X11994752D01*
Y7780713D01*
X11995069D01*
Y7780554D01*
X11995545D01*
Y7780396D01*
X11995861D01*
Y7780237D01*
X11996337D01*
Y7780079D01*
X11996654D01*
Y7779920D01*
X11996970D01*
Y7779762D01*
X11997446D01*
Y7779604D01*
X11997762D01*
Y7779445D01*
X11998079D01*
Y7779287D01*
X11998555D01*
Y7779128D01*
X11998871D01*
Y7778970D01*
X11999188D01*
Y7778812D01*
X11999505D01*
Y7778653D01*
X11999980D01*
Y7778495D01*
X12000297D01*
Y7778336D01*
X12000614D01*
Y7778178D01*
X12000931D01*
Y7778019D01*
X12001406D01*
Y7777861D01*
X12001723D01*
Y7777703D01*
X12002040D01*
Y7777544D01*
X12002356D01*
Y7777386D01*
X12002673D01*
Y7777228D01*
X12002990D01*
Y7777069D01*
X12003465D01*
Y7776911D01*
X12003782D01*
Y7776752D01*
X12004099D01*
Y7776594D01*
X12004416D01*
Y7776435D01*
X12004733D01*
Y7776277D01*
X12005050D01*
Y7776119D01*
X12005366D01*
Y7775960D01*
X12005683D01*
Y7775802D01*
X12006000D01*
Y7775643D01*
X12006317D01*
Y7775485D01*
X12006634D01*
Y7775327D01*
X12006951D01*
Y7775168D01*
X12007268D01*
Y7775010D01*
X12007584D01*
Y7774851D01*
X12007901D01*
Y7774693D01*
X12008218D01*
Y7774534D01*
X12008535D01*
Y7774376D01*
X12008852D01*
Y7774218D01*
X12009169D01*
Y7774059D01*
X12009485D01*
Y7773901D01*
X12009802D01*
Y7773742D01*
X12010119D01*
Y7773584D01*
X12010436D01*
Y7773425D01*
X12010753D01*
Y7773267D01*
X12011069D01*
Y7773109D01*
X12011228D01*
Y7772950D01*
X12011545D01*
Y7772792D01*
X12011861D01*
Y7772633D01*
X12012178D01*
Y7772475D01*
X12012495D01*
Y7772317D01*
X12012812D01*
Y7772158D01*
X12013129D01*
Y7772000D01*
X12013287D01*
Y7771841D01*
X12013604D01*
Y7771683D01*
X12013921D01*
Y7771524D01*
X12014238D01*
Y7771366D01*
X12014555D01*
Y7771208D01*
X12014713D01*
Y7771049D01*
X12015030D01*
Y7770891D01*
X12015347D01*
Y7770732D01*
X12015664D01*
Y7770574D01*
X12015822D01*
Y7770415D01*
X12016139D01*
Y7770257D01*
X12016456D01*
Y7770099D01*
X12016773D01*
Y7769940D01*
X12016931D01*
Y7769782D01*
X12017248D01*
Y7769624D01*
X12017564D01*
Y7769465D01*
X12017881D01*
Y7769307D01*
X12018040D01*
Y7769148D01*
X12018356D01*
Y7768990D01*
X12018673D01*
Y7768832D01*
X12018832D01*
Y7768673D01*
X12019149D01*
Y7768515D01*
X12019465D01*
Y7768356D01*
X12019624D01*
Y7768198D01*
X12019941D01*
Y7768039D01*
X12020258D01*
Y7767881D01*
X12020416D01*
Y7767723D01*
X12020733D01*
Y7767564D01*
X12021050D01*
Y7767406D01*
X12021208D01*
Y7767247D01*
X12021525D01*
Y7767089D01*
X12021683D01*
Y7766930D01*
X12022000D01*
Y7766772D01*
X12022317D01*
Y7766614D01*
X12022475D01*
Y7766455D01*
X12022792D01*
Y7766297D01*
X12022951D01*
Y7766138D01*
X12023268D01*
Y7765980D01*
X12023584D01*
Y7765822D01*
X12023743D01*
Y7765663D01*
X12024060D01*
Y7765505D01*
X12024218D01*
Y7765346D01*
X12024535D01*
Y7765188D01*
X12024693D01*
Y7765029D01*
X12025010D01*
Y7764871D01*
X12025168D01*
Y7764713D01*
X12025485D01*
Y7764554D01*
X12025802D01*
Y7764396D01*
X12025960D01*
Y7764237D01*
X12026277D01*
Y7764079D01*
X12026436D01*
Y7763920D01*
X12026753D01*
Y7763762D01*
X12026911D01*
Y7763604D01*
X12027228D01*
Y7763445D01*
X12027386D01*
Y7763287D01*
X12027703D01*
Y7763128D01*
X12027861D01*
Y7762970D01*
X12028020D01*
Y7762812D01*
X12028337D01*
Y7762653D01*
X12028495D01*
Y7762495D01*
X12028812D01*
Y7762336D01*
X12028970D01*
Y7762178D01*
X12029287D01*
Y7762020D01*
X12029446D01*
Y7761861D01*
X12029763D01*
Y7761703D01*
X12029921D01*
Y7761544D01*
X12030238D01*
Y7761386D01*
X12030396D01*
Y7761228D01*
X12030555D01*
Y7761069D01*
X12030871D01*
Y7760911D01*
X12031030D01*
Y7760752D01*
X12031347D01*
Y7760594D01*
X12031505D01*
Y7760435D01*
X12031664D01*
Y7760277D01*
X12031980D01*
Y7760119D01*
X12032139D01*
Y7759960D01*
X12032455D01*
Y7759802D01*
X12032614D01*
Y7759643D01*
X12032772D01*
Y7759485D01*
X12033089D01*
Y7759326D01*
X12033248D01*
Y7759168D01*
X12033406D01*
Y7759010D01*
X12033723D01*
Y7758851D01*
X12033881D01*
Y7758693D01*
X12034198D01*
Y7758534D01*
X12034356D01*
Y7758376D01*
X12034515D01*
Y7758218D01*
X12034832D01*
Y7758059D01*
X12034990D01*
Y7757901D01*
X12035149D01*
Y7757742D01*
X12035465D01*
Y7757584D01*
X12035624D01*
Y7757425D01*
X12035782D01*
Y7757267D01*
X12036099D01*
Y7757109D01*
X12036258D01*
Y7756950D01*
X12036416D01*
Y7756792D01*
X12036574D01*
Y7756633D01*
X12036891D01*
Y7756475D01*
X12037050D01*
Y7756316D01*
X12037208D01*
Y7756158D01*
X12037525D01*
Y7756000D01*
X12037683D01*
Y7755841D01*
X12037842D01*
Y7755683D01*
X12038159D01*
Y7755524D01*
X12038317D01*
Y7755366D01*
X12038475D01*
Y7755208D01*
X12038634D01*
Y7755049D01*
X12038951D01*
Y7754891D01*
X12039109D01*
Y7754733D01*
X12039268D01*
Y7754574D01*
X12039426D01*
Y7754416D01*
X12039743D01*
Y7754257D01*
X12039901D01*
Y7754099D01*
X12040059D01*
Y7753940D01*
X12040218D01*
Y7753782D01*
X12040535D01*
Y7753624D01*
X12040693D01*
Y7753465D01*
X12040852D01*
Y7753307D01*
X12041010D01*
Y7753148D01*
X12041168D01*
Y7752990D01*
X12041485D01*
Y7752831D01*
X12041644D01*
Y7752673D01*
X12041802D01*
Y7752515D01*
X12041960D01*
Y7752356D01*
X12042277D01*
Y7752198D01*
X12042436D01*
Y7752039D01*
X12042594D01*
Y7751881D01*
X12042753D01*
Y7751723D01*
X12042911D01*
Y7751564D01*
X12043228D01*
Y7751406D01*
X12043386D01*
Y7751247D01*
X12043545D01*
Y7751089D01*
X12043703D01*
Y7750930D01*
X12043862D01*
Y7750772D01*
X12044020D01*
Y7750614D01*
X12044337D01*
Y7750455D01*
X12044495D01*
Y7750297D01*
X12044654D01*
Y7750138D01*
X12044812D01*
Y7749980D01*
X12044970D01*
Y7749821D01*
X12045129D01*
Y7749663D01*
X12045446D01*
Y7749505D01*
X12045604D01*
Y7749346D01*
X12045763D01*
Y7749188D01*
X12045921D01*
Y7749029D01*
X12046079D01*
Y7748871D01*
X12046238D01*
Y7748713D01*
X12046396D01*
Y7748554D01*
X12046713D01*
Y7748396D01*
X12046872D01*
Y7748237D01*
X12047030D01*
Y7748079D01*
X12047188D01*
Y7747920D01*
X12047347D01*
Y7747762D01*
X12047505D01*
Y7747604D01*
X12047663D01*
Y7747445D01*
X12047822D01*
Y7747287D01*
X12047980D01*
Y7747129D01*
X12048297D01*
Y7746970D01*
X12048455D01*
Y7746812D01*
X12048614D01*
Y7746653D01*
X12048772D01*
Y7746495D01*
X12048931D01*
Y7746336D01*
X12049089D01*
Y7746178D01*
X12049248D01*
Y7746020D01*
X12049406D01*
Y7745861D01*
X12049564D01*
Y7745703D01*
X12049723D01*
Y7745544D01*
X12049881D01*
Y7745386D01*
X12050198D01*
Y7745228D01*
X12050357D01*
Y7745069D01*
X12050515D01*
Y7744911D01*
X12050673D01*
Y7744752D01*
X12050832D01*
Y7744594D01*
X12050990D01*
Y7744435D01*
X12051149D01*
Y7744277D01*
X12051307D01*
Y7744119D01*
X12051465D01*
Y7743960D01*
X12051624D01*
Y7743802D01*
X12051782D01*
Y7743643D01*
X12051941D01*
Y7743485D01*
X12052099D01*
Y7743326D01*
X12052258D01*
Y7743168D01*
X12052416D01*
Y7743010D01*
X12052574D01*
Y7742851D01*
X12052733D01*
Y7742693D01*
X12052891D01*
Y7742534D01*
X12053050D01*
Y7742376D01*
X12053208D01*
Y7742218D01*
X12053367D01*
Y7742059D01*
X12053525D01*
Y7741901D01*
X12053842D01*
Y7741742D01*
X12054000D01*
Y7741584D01*
X12054159D01*
Y7741425D01*
X12054317D01*
Y7741267D01*
X12054475D01*
Y7741109D01*
X12054634D01*
Y7740950D01*
X12054792D01*
Y7740792D01*
X12054950D01*
Y7740633D01*
X12055109D01*
Y7740475D01*
X12055267D01*
Y7740316D01*
X12055426D01*
Y7740158D01*
X12055584D01*
Y7740000D01*
X12055743D01*
Y7739683D01*
X12055901D01*
Y7739525D01*
X12056059D01*
Y7739366D01*
X12056218D01*
Y7739208D01*
X12056376D01*
Y7739049D01*
X12056535D01*
Y7738891D01*
X12056693D01*
Y7738733D01*
X12056852D01*
Y7738574D01*
X12057010D01*
Y7738416D01*
X12057168D01*
Y7738257D01*
X12057327D01*
Y7738099D01*
X12057485D01*
Y7737940D01*
X12057644D01*
Y7737782D01*
X12057802D01*
Y7737624D01*
X12057960D01*
Y7737465D01*
X12058119D01*
Y7737307D01*
X12058277D01*
Y7737148D01*
X12058436D01*
Y7736990D01*
X12058594D01*
Y7736831D01*
X12058753D01*
Y7736673D01*
X12058911D01*
Y7736515D01*
X12059069D01*
Y7736356D01*
X12059228D01*
Y7736198D01*
X12059386D01*
Y7735881D01*
X12059545D01*
Y7735723D01*
X12059703D01*
Y7735564D01*
X12059862D01*
Y7735406D01*
X12060020D01*
Y7735247D01*
X12060178D01*
Y7735089D01*
X12060337D01*
Y7734930D01*
X12060495D01*
Y7734772D01*
X12060654D01*
Y7734614D01*
X12060812D01*
Y7734455D01*
X12060970D01*
Y7734297D01*
X12061129D01*
Y7733980D01*
X12061287D01*
Y7733821D01*
X12061446D01*
Y7733663D01*
X12061604D01*
Y7733505D01*
X12061763D01*
Y7733346D01*
X12061921D01*
Y7733188D01*
X12062079D01*
Y7733029D01*
X12062238D01*
Y7732871D01*
X12062396D01*
Y7732554D01*
X12062554D01*
Y7732396D01*
X12062713D01*
Y7732237D01*
X12062871D01*
Y7732079D01*
X12063030D01*
Y7731921D01*
X12063188D01*
Y7731762D01*
X12063347D01*
Y7731604D01*
X12063505D01*
Y7731287D01*
X12063663D01*
Y7731129D01*
X12063822D01*
Y7730970D01*
X12063980D01*
Y7730812D01*
X12064139D01*
Y7730653D01*
X12064297D01*
Y7730495D01*
X12064455D01*
Y7730336D01*
X12064614D01*
Y7730020D01*
X12064772D01*
Y7729861D01*
X12064931D01*
Y7729703D01*
X12065089D01*
Y7729544D01*
X12065248D01*
Y7729386D01*
X12065406D01*
Y7729069D01*
X12065564D01*
Y7728911D01*
X12065723D01*
Y7728752D01*
X12065881D01*
Y7728594D01*
X12066040D01*
Y7728435D01*
X12066198D01*
Y7728119D01*
X12066357D01*
Y7727960D01*
X12066515D01*
Y7727802D01*
X12066673D01*
Y7727643D01*
X12066832D01*
Y7727485D01*
X12066990D01*
Y7727168D01*
X12067149D01*
Y7727010D01*
X12067307D01*
Y7726851D01*
X12067465D01*
Y7726693D01*
X12067624D01*
Y7726376D01*
X12067782D01*
Y7726217D01*
X12067941D01*
Y7726059D01*
X12068099D01*
Y7725901D01*
X12068258D01*
Y7725742D01*
X12068416D01*
Y7725425D01*
X12068574D01*
Y7725267D01*
X12068733D01*
Y7725109D01*
X12068891D01*
Y7724792D01*
X12069050D01*
Y7724634D01*
X12069208D01*
Y7724475D01*
X12069367D01*
Y7724317D01*
X12069525D01*
Y7724000D01*
X12069683D01*
Y7723841D01*
X12069842D01*
Y7723683D01*
X12070000D01*
Y7723525D01*
X12070158D01*
Y7723208D01*
X12070317D01*
Y7723049D01*
X12070475D01*
Y7722891D01*
X12070634D01*
Y7722574D01*
X12070792D01*
Y7722416D01*
X12070951D01*
Y7722257D01*
X12071109D01*
Y7721940D01*
X12071267D01*
Y7721782D01*
X12071426D01*
Y7721624D01*
X12071584D01*
Y7721307D01*
X12071743D01*
Y7721148D01*
X12071901D01*
Y7720990D01*
X12072059D01*
Y7720673D01*
X12072218D01*
Y7720515D01*
X12072376D01*
Y7720356D01*
X12072535D01*
Y7720039D01*
X12072693D01*
Y7719881D01*
X12072852D01*
Y7719722D01*
X12073010D01*
Y7719406D01*
X12073168D01*
Y7719247D01*
X12073327D01*
Y7719089D01*
X12073485D01*
Y7718772D01*
X12073644D01*
Y7718614D01*
X12073802D01*
Y7718297D01*
X12073961D01*
Y7718138D01*
X12074119D01*
Y7717980D01*
X12074277D01*
Y7717663D01*
X12074436D01*
Y7717505D01*
X12074594D01*
Y7717188D01*
X12074753D01*
Y7717030D01*
X12074911D01*
Y7716871D01*
X12075069D01*
Y7716554D01*
X12075228D01*
Y7716396D01*
X12075386D01*
Y7716079D01*
X12075545D01*
Y7715921D01*
X12075703D01*
Y7715604D01*
X12075862D01*
Y7715445D01*
X12076020D01*
Y7715287D01*
X12076178D01*
Y7714970D01*
X12076337D01*
Y7714812D01*
X12076495D01*
Y7714495D01*
X12076654D01*
Y7714336D01*
X12076812D01*
Y7714020D01*
X12076971D01*
Y7713861D01*
X12077129D01*
Y7713544D01*
X12077287D01*
Y7713386D01*
X12077446D01*
Y7713069D01*
X12077604D01*
Y7712911D01*
X12077762D01*
Y7712594D01*
X12077921D01*
Y7712435D01*
X12078079D01*
Y7712119D01*
X12078238D01*
Y7711960D01*
X12078396D01*
Y7711643D01*
X12078554D01*
Y7711485D01*
X12078713D01*
Y7711168D01*
X12078871D01*
Y7711010D01*
X12079030D01*
Y7710693D01*
X12079188D01*
Y7710534D01*
X12079347D01*
Y7710217D01*
X12079505D01*
Y7709901D01*
X12079663D01*
Y7709742D01*
X12079822D01*
Y7709426D01*
X12079980D01*
Y7709267D01*
X12080139D01*
Y7708950D01*
X12080297D01*
Y7708792D01*
X12080456D01*
Y7708475D01*
X12080614D01*
Y7708158D01*
X12080772D01*
Y7708000D01*
X12080931D01*
Y7707683D01*
X12081089D01*
Y7707525D01*
X12081248D01*
Y7707208D01*
X12081406D01*
Y7706891D01*
X12081564D01*
Y7706732D01*
X12081723D01*
Y7706416D01*
X12081881D01*
Y7706099D01*
X12082040D01*
Y7705940D01*
X12082198D01*
Y7705624D01*
X12082357D01*
Y7705307D01*
X12082515D01*
Y7705148D01*
X12082673D01*
Y7704831D01*
X12082832D01*
Y7704515D01*
X12082990D01*
Y7704356D01*
X12083149D01*
Y7704039D01*
X12083307D01*
Y7703722D01*
X12083466D01*
Y7703564D01*
X12083624D01*
Y7703247D01*
X12083782D01*
Y7702930D01*
X12083941D01*
Y7702614D01*
X12084099D01*
Y7702455D01*
X12084258D01*
Y7702138D01*
X12084416D01*
Y7701822D01*
X12084574D01*
Y7701505D01*
X12084733D01*
Y7701346D01*
X12084891D01*
Y7701030D01*
X12085049D01*
Y7700713D01*
X12085208D01*
Y7700396D01*
X12085366D01*
Y7700079D01*
X12085525D01*
Y7699921D01*
X12085683D01*
Y7699604D01*
X12085842D01*
Y7699287D01*
X12086000D01*
Y7698970D01*
X12086158D01*
Y7698653D01*
X12086317D01*
Y7698495D01*
X12086475D01*
Y7698178D01*
X12086634D01*
Y7697861D01*
X12086792D01*
Y7697544D01*
X12086951D01*
Y7697227D01*
X12087109D01*
Y7696911D01*
X12087267D01*
Y7696594D01*
X12087426D01*
Y7696277D01*
X12087584D01*
Y7695960D01*
X12087743D01*
Y7695802D01*
X12087901D01*
Y7695485D01*
X12088059D01*
Y7695168D01*
X12088218D01*
Y7694851D01*
X12088376D01*
Y7694535D01*
X12088535D01*
Y7694218D01*
X12088693D01*
Y7693901D01*
X12088852D01*
Y7693584D01*
X12089010D01*
Y7693267D01*
X12089168D01*
Y7692950D01*
X12089327D01*
Y7692633D01*
X12089485D01*
Y7692317D01*
X12089644D01*
Y7692000D01*
X12089802D01*
Y7691683D01*
X12089961D01*
Y7691366D01*
X12090119D01*
Y7691049D01*
X12090277D01*
Y7690574D01*
X12090436D01*
Y7690257D01*
X12090594D01*
Y7689940D01*
X12090753D01*
Y7689623D01*
X12090911D01*
Y7689307D01*
X12091069D01*
Y7688990D01*
X12091228D01*
Y7688673D01*
X12091386D01*
Y7688356D01*
X12091545D01*
Y7687881D01*
X12091703D01*
Y7687564D01*
X12091862D01*
Y7687247D01*
X12092020D01*
Y7686931D01*
X12092178D01*
Y7686614D01*
X12092337D01*
Y7686138D01*
X12092495D01*
Y7685822D01*
X12092653D01*
Y7685505D01*
X12092812D01*
Y7685188D01*
X12092970D01*
Y7684713D01*
X12093129D01*
Y7684396D01*
X12093287D01*
Y7684079D01*
X12093446D01*
Y7683604D01*
X12093604D01*
Y7683287D01*
X12093762D01*
Y7682970D01*
X12093921D01*
Y7682495D01*
X12094079D01*
Y7682178D01*
X12094238D01*
Y7681861D01*
X12094396D01*
Y7681386D01*
X12094554D01*
Y7681069D01*
X12094713D01*
Y7680594D01*
X12094871D01*
Y7680277D01*
X12095030D01*
Y7679802D01*
X12095188D01*
Y7679485D01*
X12095347D01*
Y7679010D01*
X12095505D01*
Y7678693D01*
X12095663D01*
Y7678218D01*
X12095822D01*
Y7677901D01*
X12095980D01*
Y7677426D01*
X12096139D01*
Y7677109D01*
X12096297D01*
Y7676633D01*
X12096456D01*
Y7676158D01*
X12096614D01*
Y7675841D01*
X12096772D01*
Y7675366D01*
X12096931D01*
Y7674891D01*
X12097089D01*
Y7674574D01*
X12097248D01*
Y7674099D01*
X12097406D01*
Y7673623D01*
X12097564D01*
Y7673148D01*
X12097723D01*
Y7672673D01*
X12097881D01*
Y7672356D01*
X12098040D01*
Y7671881D01*
X12098198D01*
Y7671406D01*
X12098357D01*
Y7670931D01*
X12098515D01*
Y7670455D01*
X12098673D01*
Y7669980D01*
X12098832D01*
Y7669505D01*
X12098990D01*
Y7669030D01*
X12099149D01*
Y7668554D01*
X12099307D01*
Y7668079D01*
X12099466D01*
Y7667604D01*
X12099624D01*
Y7667128D01*
X12099782D01*
Y7666653D01*
X12099941D01*
Y7666020D01*
X12100099D01*
Y7665544D01*
X12100257D01*
Y7665069D01*
X12100416D01*
Y7664594D01*
X12100574D01*
Y7663960D01*
X12100733D01*
Y7663485D01*
X12100891D01*
Y7662851D01*
X12101050D01*
Y7662376D01*
X12101208D01*
Y7661901D01*
X12101366D01*
Y7661267D01*
X12101525D01*
Y7660633D01*
X12101683D01*
Y7660158D01*
X12101842D01*
Y7659524D01*
X12102000D01*
Y7658891D01*
X12102158D01*
Y7658416D01*
X12102317D01*
Y7657782D01*
X12102475D01*
Y7657148D01*
X12102634D01*
Y7656515D01*
X12102792D01*
Y7655881D01*
X12102951D01*
Y7655247D01*
X12103109D01*
Y7654614D01*
X12103267D01*
Y7653980D01*
X12103426D01*
Y7653188D01*
X12103584D01*
Y7652554D01*
X12103743D01*
Y7651921D01*
X12103901D01*
Y7651128D01*
X12104060D01*
Y7650495D01*
X12104218D01*
Y7649703D01*
X12104376D01*
Y7648911D01*
X12104535D01*
Y7648119D01*
X12104693D01*
Y7647327D01*
X12104852D01*
Y7646534D01*
X12105010D01*
Y7645742D01*
X12105168D01*
Y7644950D01*
X12105327D01*
Y7644000D01*
X12105485D01*
Y7643208D01*
X12105644D01*
Y7642257D01*
X12105802D01*
Y7641307D01*
X12105961D01*
Y7640198D01*
X12106119D01*
Y7639247D01*
X12106277D01*
Y7638138D01*
X12106436D01*
Y7637029D01*
X12106594D01*
Y7635921D01*
X12106753D01*
Y7634653D01*
X12106911D01*
Y7633386D01*
X12107070D01*
Y7631960D01*
X12107228D01*
Y7630534D01*
X12107386D01*
Y7628950D01*
X12107545D01*
Y7627049D01*
X12107703D01*
Y7625148D01*
X12107861D01*
Y7622614D01*
X12108020D01*
Y7619604D01*
X12108178D01*
Y7613742D01*
X12108337D01*
Y7609624D01*
X12108178D01*
Y7603762D01*
X12108020D01*
Y7600752D01*
X12107861D01*
Y7598376D01*
X12107703D01*
Y7596317D01*
X12107545D01*
Y7594574D01*
X12107386D01*
Y7592831D01*
X12107228D01*
Y7591406D01*
X12107070D01*
Y7589980D01*
X12106911D01*
Y7588713D01*
X12106753D01*
Y7587445D01*
X12106594D01*
Y7586336D01*
X12106436D01*
Y7585228D01*
X12106277D01*
Y7584119D01*
X12106119D01*
Y7583168D01*
X12105961D01*
Y7582059D01*
X12105802D01*
Y7581109D01*
X12105644D01*
Y7580317D01*
X12105485D01*
Y7579366D01*
X12105327D01*
Y7578416D01*
X12105168D01*
Y7577624D01*
X12105010D01*
Y7576831D01*
X12104852D01*
Y7576039D01*
X12104693D01*
Y7575247D01*
X12104535D01*
Y7574455D01*
X12104376D01*
Y7573663D01*
X12104218D01*
Y7572871D01*
X12104060D01*
Y7572237D01*
X12103901D01*
Y7571445D01*
X12103743D01*
Y7570812D01*
X12103584D01*
Y7570178D01*
X12103426D01*
Y7569386D01*
X12103267D01*
Y7568752D01*
X12103109D01*
Y7568119D01*
X12102951D01*
Y7567485D01*
X12102792D01*
Y7566851D01*
X12102634D01*
Y7566218D01*
X12102475D01*
Y7565584D01*
X12102317D01*
Y7564950D01*
X12102158D01*
Y7564475D01*
X12102000D01*
Y7563841D01*
X12101842D01*
Y7563208D01*
X12101683D01*
Y7562732D01*
X12101525D01*
Y7562099D01*
X12101366D01*
Y7561624D01*
X12101208D01*
Y7560990D01*
X12101050D01*
Y7560515D01*
X12100891D01*
Y7559881D01*
X12100733D01*
Y7559406D01*
X12100574D01*
Y7558931D01*
X12100416D01*
Y7558297D01*
X12100257D01*
Y7557822D01*
X12100099D01*
Y7557346D01*
X12099941D01*
Y7556871D01*
X12099782D01*
Y7556237D01*
X12099624D01*
Y7555762D01*
X12099466D01*
Y7555287D01*
X12099307D01*
Y7554812D01*
X12099149D01*
Y7554336D01*
X12098990D01*
Y7553861D01*
X12098832D01*
Y7553386D01*
X12098673D01*
Y7552911D01*
X12098515D01*
Y7552435D01*
X12098357D01*
Y7551960D01*
X12098198D01*
Y7551485D01*
X12098040D01*
Y7551010D01*
X12097881D01*
Y7550693D01*
X12097723D01*
Y7550218D01*
X12097564D01*
Y7549742D01*
X12097406D01*
Y7549267D01*
X12097248D01*
Y7548950D01*
X12097089D01*
Y7548475D01*
X12096931D01*
Y7548000D01*
X12096772D01*
Y7547525D01*
X12096614D01*
Y7547208D01*
X12096456D01*
Y7546732D01*
X12096297D01*
Y7546416D01*
X12096139D01*
Y7545940D01*
X12095980D01*
Y7545465D01*
X12095822D01*
Y7545148D01*
X12095663D01*
Y7544673D01*
X12095505D01*
Y7544356D01*
X12095347D01*
Y7543881D01*
X12095188D01*
Y7543564D01*
X12095030D01*
Y7543089D01*
X12094871D01*
Y7542772D01*
X12094713D01*
Y7542297D01*
X12094554D01*
Y7541980D01*
X12094396D01*
Y7541505D01*
X12094238D01*
Y7541188D01*
X12094079D01*
Y7540871D01*
X12093921D01*
Y7540396D01*
X12093762D01*
Y7540079D01*
X12093604D01*
Y7539762D01*
X12093446D01*
Y7539287D01*
X12093287D01*
Y7538970D01*
X12093129D01*
Y7538653D01*
X12092970D01*
Y7538178D01*
X12092812D01*
Y7537861D01*
X12092653D01*
Y7537544D01*
X12092495D01*
Y7537227D01*
X12092337D01*
Y7536752D01*
X12092178D01*
Y7536436D01*
X12092020D01*
Y7536119D01*
X12091862D01*
Y7535802D01*
X12091703D01*
Y7535485D01*
X12091545D01*
Y7535010D01*
X12091386D01*
Y7534693D01*
X12091228D01*
Y7534376D01*
X12091069D01*
Y7534059D01*
X12090911D01*
Y7533742D01*
X12090753D01*
Y7533426D01*
X12090594D01*
Y7533109D01*
X12090436D01*
Y7532792D01*
X12090277D01*
Y7532317D01*
X12090119D01*
Y7532000D01*
X12089961D01*
Y7531683D01*
X12089802D01*
Y7531366D01*
X12089644D01*
Y7531049D01*
X12089485D01*
Y7530732D01*
X12089327D01*
Y7530416D01*
X12089168D01*
Y7530099D01*
X12089010D01*
Y7529782D01*
X12088852D01*
Y7529465D01*
X12088693D01*
Y7529148D01*
X12088535D01*
Y7528832D01*
X12088376D01*
Y7528515D01*
X12088218D01*
Y7528198D01*
X12088059D01*
Y7527881D01*
X12087901D01*
Y7527723D01*
X12087743D01*
Y7527406D01*
X12087584D01*
Y7527089D01*
X12087426D01*
Y7526772D01*
X12087267D01*
Y7526455D01*
X12087109D01*
Y7526138D01*
X12086951D01*
Y7525822D01*
X12086792D01*
Y7525505D01*
X12086634D01*
Y7525188D01*
X12086475D01*
Y7525030D01*
X12086317D01*
Y7524713D01*
X12086158D01*
Y7524396D01*
X12086000D01*
Y7524079D01*
X12085842D01*
Y7523762D01*
X12085683D01*
Y7523445D01*
X12085525D01*
Y7523287D01*
X12085366D01*
Y7522970D01*
X12085208D01*
Y7522653D01*
X12085049D01*
Y7522336D01*
X12084891D01*
Y7522020D01*
X12084733D01*
Y7521861D01*
X12084574D01*
Y7521545D01*
X12084416D01*
Y7521228D01*
X12084258D01*
Y7520911D01*
X12084099D01*
Y7520752D01*
X12083941D01*
Y7520436D01*
X12083782D01*
Y7520119D01*
X12083624D01*
Y7519802D01*
X12083466D01*
Y7519643D01*
X12083307D01*
Y7519327D01*
X12083149D01*
Y7519010D01*
X12082990D01*
Y7518851D01*
X12082832D01*
Y7518535D01*
X12082673D01*
Y7518218D01*
X12082515D01*
Y7518059D01*
X12082357D01*
Y7517742D01*
X12082198D01*
Y7517426D01*
X12082040D01*
Y7517267D01*
X12081881D01*
Y7516950D01*
X12081723D01*
Y7516633D01*
X12081564D01*
Y7516475D01*
X12081406D01*
Y7516158D01*
X12081248D01*
Y7515841D01*
X12081089D01*
Y7515683D01*
X12080931D01*
Y7515366D01*
X12080772D01*
Y7515208D01*
X12080614D01*
Y7514891D01*
X12080456D01*
Y7514574D01*
X12080297D01*
Y7514416D01*
X12080139D01*
Y7514099D01*
X12079980D01*
Y7513941D01*
X12079822D01*
Y7513624D01*
X12079663D01*
Y7513465D01*
X12079505D01*
Y7513148D01*
X12079347D01*
Y7512832D01*
X12079188D01*
Y7512673D01*
X12079030D01*
Y7512356D01*
X12078871D01*
Y7512198D01*
X12078713D01*
Y7511881D01*
X12078554D01*
Y7511723D01*
X12078396D01*
Y7511406D01*
X12078238D01*
Y7511247D01*
X12078079D01*
Y7510931D01*
X12077921D01*
Y7510772D01*
X12077762D01*
Y7510455D01*
X12077604D01*
Y7510297D01*
X12077446D01*
Y7509980D01*
X12077287D01*
Y7509822D01*
X12077129D01*
Y7509505D01*
X12076971D01*
Y7509346D01*
X12076812D01*
Y7509030D01*
X12076654D01*
Y7508871D01*
X12076495D01*
Y7508554D01*
X12076337D01*
Y7508396D01*
X12076178D01*
Y7508079D01*
X12076020D01*
Y7507921D01*
X12075862D01*
Y7507762D01*
X12075703D01*
Y7507445D01*
X12075545D01*
Y7507287D01*
X12075386D01*
Y7506970D01*
X12075228D01*
Y7506812D01*
X12075069D01*
Y7506495D01*
X12074911D01*
Y7506337D01*
X12074753D01*
Y7506178D01*
X12074594D01*
Y7505861D01*
X12074436D01*
Y7505703D01*
X12074277D01*
Y7505386D01*
X12074119D01*
Y7505228D01*
X12073961D01*
Y7505069D01*
X12073802D01*
Y7504752D01*
X12073644D01*
Y7504594D01*
X12073485D01*
Y7504277D01*
X12073327D01*
Y7504119D01*
X12073168D01*
Y7503960D01*
X12073010D01*
Y7503643D01*
X12072852D01*
Y7503485D01*
X12072693D01*
Y7503327D01*
X12072535D01*
Y7503010D01*
X12072376D01*
Y7502851D01*
X12072218D01*
Y7502693D01*
X12072059D01*
Y7502376D01*
X12071901D01*
Y7502218D01*
X12071743D01*
Y7502059D01*
X12071584D01*
Y7501742D01*
X12071426D01*
Y7501584D01*
X12071267D01*
Y7501426D01*
X12071109D01*
Y7501109D01*
X12070951D01*
Y7500950D01*
X12070792D01*
Y7500792D01*
X12070634D01*
Y7500475D01*
X12070475D01*
Y7500317D01*
X12070317D01*
Y7500158D01*
X12070158D01*
Y7500000D01*
X12070000D01*
Y7499683D01*
X12069842D01*
Y7499524D01*
X12069683D01*
Y7499366D01*
X12069525D01*
Y7499049D01*
X12069367D01*
Y7498891D01*
X12069208D01*
Y7498733D01*
X12069050D01*
Y7498574D01*
X12068891D01*
Y7498257D01*
X12068733D01*
Y7498099D01*
X12068574D01*
Y7497941D01*
X12068416D01*
Y7497782D01*
X12068258D01*
Y7497465D01*
X12068099D01*
Y7497307D01*
X12067941D01*
Y7497148D01*
X12067782D01*
Y7496990D01*
X12067624D01*
Y7496673D01*
X12067465D01*
Y7496515D01*
X12067307D01*
Y7496356D01*
X12067149D01*
Y7496198D01*
X12066990D01*
Y7495881D01*
X12066832D01*
Y7495723D01*
X12066673D01*
Y7495564D01*
X12066515D01*
Y7495406D01*
X12066357D01*
Y7495247D01*
X12066198D01*
Y7494931D01*
X12066040D01*
Y7494772D01*
X12065881D01*
Y7494614D01*
X12065723D01*
Y7494455D01*
X12065564D01*
Y7494297D01*
X12065406D01*
Y7493980D01*
X12065248D01*
Y7493822D01*
X12065089D01*
Y7493663D01*
X12064931D01*
Y7493505D01*
X12064772D01*
Y7493346D01*
X12064614D01*
Y7493188D01*
X12064455D01*
Y7492871D01*
X12064297D01*
Y7492713D01*
X12064139D01*
Y7492554D01*
X12063980D01*
Y7492396D01*
X12063822D01*
Y7492237D01*
X12063663D01*
Y7492079D01*
X12063505D01*
Y7491762D01*
X12063347D01*
Y7491604D01*
X12063188D01*
Y7491446D01*
X12063030D01*
Y7491287D01*
X12062871D01*
Y7491129D01*
X12062713D01*
Y7490970D01*
X12062554D01*
Y7490812D01*
X12062396D01*
Y7490495D01*
X12062238D01*
Y7490337D01*
X12062079D01*
Y7490178D01*
X12061921D01*
Y7490020D01*
X12061763D01*
Y7489861D01*
X12061604D01*
Y7489703D01*
X12061446D01*
Y7489544D01*
X12061287D01*
Y7489386D01*
X12061129D01*
Y7489228D01*
X12060970D01*
Y7488911D01*
X12060812D01*
Y7488752D01*
X12060654D01*
Y7488594D01*
X12060495D01*
Y7488436D01*
X12060337D01*
Y7488277D01*
X12060178D01*
Y7488119D01*
X12060020D01*
Y7487960D01*
X12059862D01*
Y7487802D01*
X12059703D01*
Y7487643D01*
X12059545D01*
Y7487485D01*
X12059386D01*
Y7487327D01*
X12059228D01*
Y7487010D01*
X12059069D01*
Y7486851D01*
X12058911D01*
Y7486693D01*
X12058753D01*
Y7486534D01*
X12058594D01*
Y7486376D01*
X12058436D01*
Y7486218D01*
X12058277D01*
Y7486059D01*
X12058119D01*
Y7485901D01*
X12057960D01*
Y7485742D01*
X12057802D01*
Y7485584D01*
X12057644D01*
Y7485426D01*
X12057485D01*
Y7485267D01*
X12057327D01*
Y7485109D01*
X12057168D01*
Y7484950D01*
X12057010D01*
Y7484792D01*
X12056852D01*
Y7484633D01*
X12056693D01*
Y7484475D01*
X12056535D01*
Y7484317D01*
X12056376D01*
Y7484158D01*
X12056218D01*
Y7484000D01*
X12056059D01*
Y7483842D01*
X12055901D01*
Y7483683D01*
X12055743D01*
Y7483525D01*
X12055584D01*
Y7483366D01*
X12055426D01*
Y7483208D01*
X12055267D01*
Y7483049D01*
X12055109D01*
Y7482891D01*
X12054950D01*
Y7482733D01*
X12054792D01*
Y7482574D01*
X12054634D01*
Y7482416D01*
X12054475D01*
Y7482257D01*
X12054317D01*
Y7482099D01*
X12054159D01*
Y7481941D01*
X12054000D01*
Y7481782D01*
X12053842D01*
Y7481624D01*
X12053683D01*
Y7481465D01*
X12053525D01*
Y7481307D01*
X12053367D01*
Y7481148D01*
X12053208D01*
Y7480990D01*
X12053050D01*
Y7480832D01*
X12052891D01*
Y7480673D01*
X12052733D01*
Y7480515D01*
X12052574D01*
Y7480356D01*
X12052416D01*
Y7480198D01*
X12052258D01*
Y7480039D01*
X12052099D01*
Y7479881D01*
X12051941D01*
Y7479723D01*
X12051782D01*
Y7479564D01*
X12051624D01*
Y7479406D01*
X12051465D01*
Y7479247D01*
X12051307D01*
Y7479089D01*
X12051149D01*
Y7478931D01*
X12050990D01*
Y7478772D01*
X12050832D01*
Y7478614D01*
X12050673D01*
Y7478455D01*
X12050515D01*
Y7478297D01*
X12050357D01*
Y7478138D01*
X12050040D01*
Y7477980D01*
X12049881D01*
Y7477822D01*
X12049723D01*
Y7477663D01*
X12049564D01*
Y7477505D01*
X12049406D01*
Y7477346D01*
X12049248D01*
Y7477188D01*
X12049089D01*
Y7477029D01*
X12048931D01*
Y7476871D01*
X12048772D01*
Y7476713D01*
X12048614D01*
Y7476554D01*
X12048455D01*
Y7476396D01*
X12048297D01*
Y7476238D01*
X12047980D01*
Y7476079D01*
X12047822D01*
Y7475921D01*
X12047663D01*
Y7475762D01*
X12047505D01*
Y7475604D01*
X12047347D01*
Y7475445D01*
X12047188D01*
Y7475287D01*
X12047030D01*
Y7475129D01*
X12046872D01*
Y7474970D01*
X12046555D01*
Y7474812D01*
X12046396D01*
Y7474653D01*
X12046238D01*
Y7474495D01*
X12046079D01*
Y7474337D01*
X12045921D01*
Y7474178D01*
X12045763D01*
Y7474020D01*
X12045604D01*
Y7473861D01*
X12045287D01*
Y7473703D01*
X12045129D01*
Y7473544D01*
X12044970D01*
Y7473386D01*
X12044812D01*
Y7473228D01*
X12044654D01*
Y7473069D01*
X12044495D01*
Y7472911D01*
X12044337D01*
Y7472752D01*
X12044020D01*
Y7472594D01*
X12043862D01*
Y7472435D01*
X12043703D01*
Y7472277D01*
X12043545D01*
Y7472119D01*
X12043386D01*
Y7471960D01*
X12043069D01*
Y7471802D01*
X12042911D01*
Y7471643D01*
X12042753D01*
Y7471485D01*
X12042594D01*
Y7471327D01*
X12042436D01*
Y7471168D01*
X12042119D01*
Y7471010D01*
X12041960D01*
Y7470851D01*
X12041802D01*
Y7470693D01*
X12041644D01*
Y7470534D01*
X12041485D01*
Y7470376D01*
X12041168D01*
Y7470218D01*
X12041010D01*
Y7470059D01*
X12040852D01*
Y7469901D01*
X12040693D01*
Y7469742D01*
X12040535D01*
Y7469584D01*
X12040218D01*
Y7469425D01*
X12040059D01*
Y7469267D01*
X12039901D01*
Y7469109D01*
X12039743D01*
Y7468950D01*
X12039426D01*
Y7468792D01*
X12039268D01*
Y7468634D01*
X12039109D01*
Y7468475D01*
X12038951D01*
Y7468317D01*
X12038634D01*
Y7468158D01*
X12038475D01*
Y7468000D01*
X12038317D01*
Y7467842D01*
X12038000D01*
Y7467683D01*
X12037842D01*
Y7467525D01*
X12037683D01*
Y7467366D01*
X12037525D01*
Y7467208D01*
X12037208D01*
Y7467049D01*
X12037050D01*
Y7466891D01*
X12036891D01*
Y7466733D01*
X12036574D01*
Y7466574D01*
X12036416D01*
Y7466416D01*
X12036258D01*
Y7466257D01*
X12035941D01*
Y7466099D01*
X12035782D01*
Y7465940D01*
X12035624D01*
Y7465782D01*
X12035465D01*
Y7465624D01*
X12035149D01*
Y7465465D01*
X12034990D01*
Y7465307D01*
X12034832D01*
Y7465148D01*
X12034515D01*
Y7464990D01*
X12034356D01*
Y7464832D01*
X12034040D01*
Y7464673D01*
X12033881D01*
Y7464515D01*
X12033723D01*
Y7464356D01*
X12033406D01*
Y7464198D01*
X12033248D01*
Y7464039D01*
X12033089D01*
Y7463881D01*
X12032772D01*
Y7463723D01*
X12032614D01*
Y7463564D01*
X12032455D01*
Y7463406D01*
X12032139D01*
Y7463247D01*
X12031980D01*
Y7463089D01*
X12031664D01*
Y7462930D01*
X12031505D01*
Y7462772D01*
X12031347D01*
Y7462614D01*
X12031030D01*
Y7462455D01*
X12030871D01*
Y7462297D01*
X12030555D01*
Y7462138D01*
X12030396D01*
Y7461980D01*
X12030079D01*
Y7461822D01*
X12029921D01*
Y7461663D01*
X12029763D01*
Y7461505D01*
X12029446D01*
Y7461347D01*
X12029287D01*
Y7461188D01*
X12028970D01*
Y7461030D01*
X12028812D01*
Y7460871D01*
X12028495D01*
Y7460713D01*
X12028337D01*
Y7460554D01*
X12028020D01*
Y7460396D01*
X12027861D01*
Y7460238D01*
X12027545D01*
Y7460079D01*
X12027386D01*
Y7459921D01*
X12027069D01*
Y7459762D01*
X12026911D01*
Y7459604D01*
X12026594D01*
Y7459445D01*
X12026436D01*
Y7459287D01*
X12026119D01*
Y7459129D01*
X12025960D01*
Y7458970D01*
X12025644D01*
Y7458812D01*
X12025485D01*
Y7458653D01*
X12025168D01*
Y7458495D01*
X12025010D01*
Y7458337D01*
X12024693D01*
Y7458178D01*
X12024535D01*
Y7458020D01*
X12024218D01*
Y7457861D01*
X12024060D01*
Y7457703D01*
X12023743D01*
Y7457544D01*
X12023426D01*
Y7457386D01*
X12023268D01*
Y7457228D01*
X12022951D01*
Y7457069D01*
X12022792D01*
Y7456911D01*
X12022475D01*
Y7456752D01*
X12022317D01*
Y7456594D01*
X12022000D01*
Y7456435D01*
X12021683D01*
Y7456277D01*
X12021525D01*
Y7456119D01*
X12021208D01*
Y7455960D01*
X12020891D01*
Y7455802D01*
X12020733D01*
Y7455643D01*
X12020416D01*
Y7455485D01*
X12020258D01*
Y7455327D01*
X12019941D01*
Y7455168D01*
X12019624D01*
Y7455010D01*
X12019465D01*
Y7454851D01*
X12019149D01*
Y7454693D01*
X12018832D01*
Y7454534D01*
X12018673D01*
Y7454376D01*
X12018356D01*
Y7454218D01*
X12018040D01*
Y7454059D01*
X12017723D01*
Y7453901D01*
X12017564D01*
Y7453743D01*
X12017248D01*
Y7453584D01*
X12016931D01*
Y7453426D01*
X12016773D01*
Y7453267D01*
X12016456D01*
Y7453109D01*
X12016139D01*
Y7452950D01*
X12015822D01*
Y7452792D01*
X12015664D01*
Y7452634D01*
X12015347D01*
Y7452475D01*
X12015030D01*
Y7452317D01*
X12014713D01*
Y7452158D01*
X12014396D01*
Y7452000D01*
X12014238D01*
Y7451842D01*
X12013921D01*
Y7451683D01*
X12013604D01*
Y7451525D01*
X12013287D01*
Y7451366D01*
X12012970D01*
Y7451208D01*
X12012812D01*
Y7451049D01*
X12012495D01*
Y7450891D01*
X12012178D01*
Y7450733D01*
X12011861D01*
Y7450574D01*
X12011545D01*
Y7450416D01*
X12011228D01*
Y7450257D01*
X12010911D01*
Y7450099D01*
X12010753D01*
Y7449940D01*
X12010436D01*
Y7449782D01*
X12010119D01*
Y7449624D01*
X12009802D01*
Y7449465D01*
X12009485D01*
Y7449307D01*
X12009169D01*
Y7449148D01*
X12008852D01*
Y7448990D01*
X12008535D01*
Y7448832D01*
X12008218D01*
Y7448673D01*
X12007901D01*
Y7448515D01*
X12007584D01*
Y7448356D01*
X12007268D01*
Y7448198D01*
X12006951D01*
Y7448039D01*
X12006634D01*
Y7447881D01*
X12006317D01*
Y7447723D01*
X12006000D01*
Y7447564D01*
X12005683D01*
Y7447406D01*
X12005366D01*
Y7447247D01*
X12005050D01*
Y7447089D01*
X12004733D01*
Y7446930D01*
X12004416D01*
Y7446772D01*
X12004099D01*
Y7446614D01*
X12003782D01*
Y7446455D01*
X12003307D01*
Y7446297D01*
X12002990D01*
Y7446139D01*
X12002673D01*
Y7445980D01*
X12002356D01*
Y7445822D01*
X12002040D01*
Y7445663D01*
X12001723D01*
Y7445505D01*
X12001248D01*
Y7445346D01*
X12000931D01*
Y7445188D01*
X12000614D01*
Y7445030D01*
X12000297D01*
Y7444871D01*
X11999980D01*
Y7444713D01*
X11999505D01*
Y7444554D01*
X11999188D01*
Y7444396D01*
X11998871D01*
Y7444238D01*
X11998396D01*
Y7444079D01*
X11998079D01*
Y7443921D01*
X11997762D01*
Y7443762D01*
X11997446D01*
Y7443604D01*
X11996970D01*
Y7443445D01*
X11996654D01*
Y7443287D01*
X11996178D01*
Y7443129D01*
X11995861D01*
Y7442970D01*
X11995545D01*
Y7442812D01*
X11995069D01*
Y7442653D01*
X11994752D01*
Y7442495D01*
X11994277D01*
Y7442336D01*
X11993961D01*
Y7442178D01*
X11993485D01*
Y7442020D01*
X11993169D01*
Y7441861D01*
X11992693D01*
Y7441703D01*
X11992376D01*
Y7441544D01*
X11991901D01*
Y7441386D01*
X11991584D01*
Y7441228D01*
X11991109D01*
Y7441069D01*
X11990634D01*
Y7440911D01*
X11990317D01*
Y7440752D01*
X11989842D01*
Y7440594D01*
X11989366D01*
Y7440435D01*
X11989050D01*
Y7440277D01*
X11988574D01*
Y7440119D01*
X11988099D01*
Y7439960D01*
X11987782D01*
Y7439802D01*
X11987307D01*
Y7439643D01*
X11986832D01*
Y7439485D01*
X11986357D01*
Y7439326D01*
X11985881D01*
Y7439168D01*
X11985406D01*
Y7439010D01*
X11985089D01*
Y7438851D01*
X11984614D01*
Y7438693D01*
X11984139D01*
Y7438535D01*
X11983664D01*
Y7438376D01*
X11983188D01*
Y7438218D01*
X11982713D01*
Y7438059D01*
X11982238D01*
Y7437901D01*
X11981762D01*
Y7437743D01*
X11981129D01*
Y7437584D01*
X11980654D01*
Y7437426D01*
X11980178D01*
Y7437267D01*
X11979703D01*
Y7437109D01*
X11979228D01*
Y7436950D01*
X11978594D01*
Y7436792D01*
X11978119D01*
Y7436634D01*
X11977644D01*
Y7436475D01*
X11977010D01*
Y7436317D01*
X11976535D01*
Y7436158D01*
X11975901D01*
Y7436000D01*
X11975426D01*
Y7435841D01*
X11974792D01*
Y7435683D01*
X11974317D01*
Y7435525D01*
X11973683D01*
Y7435366D01*
X11973050D01*
Y7435208D01*
X11972574D01*
Y7435049D01*
X11971941D01*
Y7434891D01*
X11971307D01*
Y7434733D01*
X11970673D01*
Y7434574D01*
X11970040D01*
Y7434416D01*
X11969406D01*
Y7434257D01*
X11968772D01*
Y7434099D01*
X11968139D01*
Y7433940D01*
X11967505D01*
Y7433782D01*
X11966713D01*
Y7433624D01*
X11966079D01*
Y7433465D01*
X11965446D01*
Y7433307D01*
X11964653D01*
Y7433148D01*
X11963862D01*
Y7432990D01*
X11963228D01*
Y7432831D01*
X11962436D01*
Y7432673D01*
X11961644D01*
Y7432515D01*
X11960852D01*
Y7432356D01*
X11960060D01*
Y7432198D01*
X11959109D01*
Y7432039D01*
X11958317D01*
Y7431881D01*
X11957366D01*
Y7431723D01*
X11956575D01*
Y7431564D01*
X11955624D01*
Y7431406D01*
X11954515D01*
Y7431248D01*
X11953565D01*
Y7431089D01*
X11952456D01*
Y7430931D01*
X11951505D01*
Y7430772D01*
X11950238D01*
Y7430614D01*
X11949129D01*
Y7430455D01*
X11947862D01*
Y7430297D01*
X11946436D01*
Y7430139D01*
X11945010D01*
Y7429980D01*
X11943426D01*
Y7429822D01*
X11941842D01*
Y7429663D01*
X11939941D01*
Y7429505D01*
X11937723D01*
Y7429346D01*
X11934871D01*
Y7429188D01*
X11930911D01*
Y7429030D01*
X11788495D01*
Y7663327D01*
Y7663485D01*
Y7931524D01*
X11886079D01*
Y7931366D01*
D02*
G37*
%LPC*%
G36*
X11885921Y7740950D02*
X11881644D01*
Y7740792D01*
X11879426D01*
Y7740633D01*
X11878159D01*
Y7740475D01*
X11877050D01*
Y7740316D01*
X11876099D01*
Y7740158D01*
X11875307D01*
Y7740000D01*
X11874515D01*
Y7739841D01*
X11873881D01*
Y7739683D01*
X11873248D01*
Y7739525D01*
X11872614D01*
Y7739366D01*
X11871980D01*
Y7739208D01*
X11871505D01*
Y7739049D01*
X11871030D01*
Y7738891D01*
X11870555D01*
Y7738733D01*
X11870079D01*
Y7738574D01*
X11869604D01*
Y7738416D01*
X11869129D01*
Y7738257D01*
X11868812D01*
Y7738099D01*
X11868337D01*
Y7737940D01*
X11868020D01*
Y7737782D01*
X11867545D01*
Y7737624D01*
X11867228D01*
Y7737465D01*
X11866911D01*
Y7737307D01*
X11866436D01*
Y7737148D01*
X11866119D01*
Y7736990D01*
X11865802D01*
Y7736831D01*
X11865485D01*
Y7736673D01*
X11865169D01*
Y7736515D01*
X11864852D01*
Y7736356D01*
X11864535D01*
Y7736198D01*
X11864218D01*
Y7736039D01*
X11863901D01*
Y7735881D01*
X11863584D01*
Y7735723D01*
X11863268D01*
Y7735564D01*
X11863109D01*
Y7735406D01*
X11862792D01*
Y7735247D01*
X11862475D01*
Y7735089D01*
X11862317D01*
Y7734930D01*
X11862000D01*
Y7734772D01*
X11861683D01*
Y7734614D01*
X11861525D01*
Y7734455D01*
X11861208D01*
Y7734297D01*
X11861050D01*
Y7734138D01*
X11860733D01*
Y7733980D01*
X11860416D01*
Y7733821D01*
X11860258D01*
Y7733663D01*
X11860099D01*
Y7733505D01*
X11859782D01*
Y7733346D01*
X11859624D01*
Y7733188D01*
X11859307D01*
Y7733029D01*
X11859149D01*
Y7732871D01*
X11858832D01*
Y7732713D01*
X11858674D01*
Y7732554D01*
X11858515D01*
Y7732396D01*
X11858198D01*
Y7732237D01*
X11858040D01*
Y7732079D01*
X11857881D01*
Y7731921D01*
X11857723D01*
Y7731762D01*
X11857406D01*
Y7731604D01*
X11857248D01*
Y7731445D01*
X11857089D01*
Y7731287D01*
X11856931D01*
Y7731129D01*
X11856773D01*
Y7730970D01*
X11856456D01*
Y7730812D01*
X11856297D01*
Y7730653D01*
X11856139D01*
Y7730495D01*
X11855980D01*
Y7730336D01*
X11855822D01*
Y7730178D01*
X11855664D01*
Y7730020D01*
X11855505D01*
Y7729861D01*
X11855347D01*
Y7729703D01*
X11855030D01*
Y7729544D01*
X11854871D01*
Y7729386D01*
X11854713D01*
Y7729227D01*
X11854555D01*
Y7729069D01*
X11854396D01*
Y7728911D01*
X11854238D01*
Y7728752D01*
X11854079D01*
Y7728594D01*
X11853921D01*
Y7728435D01*
X11853763D01*
Y7728277D01*
X11853604D01*
Y7728119D01*
X11853446D01*
Y7727960D01*
X11853287D01*
Y7727802D01*
X11853129D01*
Y7727643D01*
X11852970D01*
Y7727326D01*
X11852812D01*
Y7727168D01*
X11852654D01*
Y7727010D01*
X11852495D01*
Y7726851D01*
X11852337D01*
Y7726693D01*
X11852178D01*
Y7726534D01*
X11852020D01*
Y7726376D01*
X11851861D01*
Y7726217D01*
X11851703D01*
Y7725901D01*
X11851545D01*
Y7725742D01*
X11851386D01*
Y7725584D01*
X11851228D01*
Y7725425D01*
X11851070D01*
Y7725109D01*
X11850911D01*
Y7724950D01*
X11850753D01*
Y7724792D01*
X11850594D01*
Y7724634D01*
X11850436D01*
Y7724317D01*
X11850278D01*
Y7724158D01*
X11850119D01*
Y7724000D01*
X11849961D01*
Y7723683D01*
X11849802D01*
Y7723525D01*
X11849644D01*
Y7723208D01*
X11849485D01*
Y7723049D01*
X11849327D01*
Y7722891D01*
X11849169D01*
Y7722574D01*
X11849010D01*
Y7722416D01*
X11848852D01*
Y7722099D01*
X11848693D01*
Y7721940D01*
X11848535D01*
Y7721624D01*
X11848376D01*
Y7721465D01*
X11848218D01*
Y7721148D01*
X11848060D01*
Y7720831D01*
X11847901D01*
Y7720673D01*
X11847743D01*
Y7720356D01*
X11847584D01*
Y7720039D01*
X11847426D01*
Y7719881D01*
X11847268D01*
Y7719564D01*
X11847109D01*
Y7719247D01*
X11846951D01*
Y7718930D01*
X11846792D01*
Y7718614D01*
X11846634D01*
Y7718297D01*
X11846475D01*
Y7717980D01*
X11846317D01*
Y7717663D01*
X11846159D01*
Y7717346D01*
X11846000D01*
Y7717030D01*
X11845842D01*
Y7716713D01*
X11845683D01*
Y7716396D01*
X11845525D01*
Y7716079D01*
X11845366D01*
Y7715762D01*
X11845208D01*
Y7715287D01*
X11845050D01*
Y7714970D01*
X11844891D01*
Y7714495D01*
X11844733D01*
Y7714178D01*
X11844574D01*
Y7713703D01*
X11844416D01*
Y7713386D01*
X11844258D01*
Y7712911D01*
X11844099D01*
Y7712435D01*
X11843941D01*
Y7711960D01*
X11843782D01*
Y7711485D01*
X11843624D01*
Y7710851D01*
X11843466D01*
Y7710376D01*
X11843307D01*
Y7709742D01*
X11843149D01*
Y7709109D01*
X11842990D01*
Y7708475D01*
X11842832D01*
Y7707683D01*
X11842674D01*
Y7706891D01*
X11842515D01*
Y7706099D01*
X11842357D01*
Y7704990D01*
X11842198D01*
Y7703722D01*
X11842040D01*
Y7701980D01*
X11841881D01*
Y7692158D01*
Y7692000D01*
Y7521386D01*
X11842040D01*
Y7519643D01*
X11842198D01*
Y7518376D01*
X11842357D01*
Y7517267D01*
X11842515D01*
Y7516475D01*
X11842674D01*
Y7515683D01*
X11842832D01*
Y7514891D01*
X11842990D01*
Y7514257D01*
X11843149D01*
Y7513624D01*
X11843307D01*
Y7512990D01*
X11843466D01*
Y7512515D01*
X11843624D01*
Y7511881D01*
X11843782D01*
Y7511406D01*
X11843941D01*
Y7510931D01*
X11844099D01*
Y7510455D01*
X11844258D01*
Y7510138D01*
X11844416D01*
Y7509663D01*
X11844574D01*
Y7509188D01*
X11844733D01*
Y7508871D01*
X11844891D01*
Y7508396D01*
X11845050D01*
Y7508079D01*
X11845208D01*
Y7507604D01*
X11845366D01*
Y7507287D01*
X11845525D01*
Y7506970D01*
X11845683D01*
Y7506653D01*
X11845842D01*
Y7506337D01*
X11846000D01*
Y7506020D01*
X11846159D01*
Y7505703D01*
X11846317D01*
Y7505386D01*
X11846475D01*
Y7505069D01*
X11846634D01*
Y7504752D01*
X11846792D01*
Y7504436D01*
X11846951D01*
Y7504119D01*
X11847109D01*
Y7503802D01*
X11847268D01*
Y7503643D01*
X11847426D01*
Y7503327D01*
X11847584D01*
Y7503010D01*
X11847743D01*
Y7502693D01*
X11847901D01*
Y7502534D01*
X11848060D01*
Y7502218D01*
X11848218D01*
Y7502059D01*
X11848376D01*
Y7501742D01*
X11848535D01*
Y7501426D01*
X11848693D01*
Y7501267D01*
X11848852D01*
Y7500950D01*
X11849010D01*
Y7500792D01*
X11849169D01*
Y7500475D01*
X11849327D01*
Y7500317D01*
X11849485D01*
Y7500158D01*
X11849644D01*
Y7499841D01*
X11849802D01*
Y7499683D01*
X11849961D01*
Y7499366D01*
X11850119D01*
Y7499208D01*
X11850278D01*
Y7499049D01*
X11850436D01*
Y7498733D01*
X11850594D01*
Y7498574D01*
X11850753D01*
Y7498416D01*
X11850911D01*
Y7498257D01*
X11851070D01*
Y7497941D01*
X11851228D01*
Y7497782D01*
X11851386D01*
Y7497624D01*
X11851545D01*
Y7497465D01*
X11851703D01*
Y7497307D01*
X11851861D01*
Y7496990D01*
X11852020D01*
Y7496832D01*
X11852178D01*
Y7496673D01*
X11852337D01*
Y7496515D01*
X11852495D01*
Y7496356D01*
X11852654D01*
Y7496198D01*
X11852812D01*
Y7496039D01*
X11852970D01*
Y7495881D01*
X11853129D01*
Y7495564D01*
X11853287D01*
Y7495406D01*
X11853446D01*
Y7495247D01*
X11853604D01*
Y7495089D01*
X11853763D01*
Y7494931D01*
X11853921D01*
Y7494772D01*
X11854079D01*
Y7494614D01*
X11854238D01*
Y7494455D01*
X11854396D01*
Y7494297D01*
X11854555D01*
Y7494138D01*
X11854713D01*
Y7493980D01*
X11854871D01*
Y7493822D01*
X11855030D01*
Y7493663D01*
X11855347D01*
Y7493505D01*
X11855505D01*
Y7493346D01*
X11855664D01*
Y7493188D01*
X11855822D01*
Y7493029D01*
X11855980D01*
Y7492871D01*
X11856139D01*
Y7492713D01*
X11856297D01*
Y7492554D01*
X11856456D01*
Y7492396D01*
X11856773D01*
Y7492237D01*
X11856931D01*
Y7492079D01*
X11857089D01*
Y7491921D01*
X11857248D01*
Y7491762D01*
X11857406D01*
Y7491604D01*
X11857723D01*
Y7491446D01*
X11857881D01*
Y7491287D01*
X11858040D01*
Y7491129D01*
X11858357D01*
Y7490970D01*
X11858515D01*
Y7490812D01*
X11858674D01*
Y7490653D01*
X11858990D01*
Y7490495D01*
X11859149D01*
Y7490337D01*
X11859307D01*
Y7490178D01*
X11859624D01*
Y7490020D01*
X11859782D01*
Y7489861D01*
X11860099D01*
Y7489703D01*
X11860258D01*
Y7489544D01*
X11860574D01*
Y7489386D01*
X11860733D01*
Y7489228D01*
X11861050D01*
Y7489069D01*
X11861208D01*
Y7488911D01*
X11861525D01*
Y7488752D01*
X11861683D01*
Y7488594D01*
X11862000D01*
Y7488436D01*
X11862317D01*
Y7488277D01*
X11862475D01*
Y7488119D01*
X11862792D01*
Y7487960D01*
X11863109D01*
Y7487802D01*
X11863426D01*
Y7487643D01*
X11863584D01*
Y7487485D01*
X11863901D01*
Y7487327D01*
X11864218D01*
Y7487168D01*
X11864535D01*
Y7487010D01*
X11864852D01*
Y7486851D01*
X11865169D01*
Y7486693D01*
X11865485D01*
Y7486534D01*
X11865802D01*
Y7486376D01*
X11866119D01*
Y7486218D01*
X11866436D01*
Y7486059D01*
X11866911D01*
Y7485901D01*
X11867228D01*
Y7485742D01*
X11867545D01*
Y7485584D01*
X11868020D01*
Y7485426D01*
X11868337D01*
Y7485267D01*
X11868812D01*
Y7485109D01*
X11869129D01*
Y7484950D01*
X11869604D01*
Y7484792D01*
X11870079D01*
Y7484633D01*
X11870555D01*
Y7484475D01*
X11871030D01*
Y7484317D01*
X11871505D01*
Y7484158D01*
X11872139D01*
Y7484000D01*
X11872614D01*
Y7483842D01*
X11873248D01*
Y7483683D01*
X11873881D01*
Y7483525D01*
X11874515D01*
Y7483366D01*
X11875307D01*
Y7483208D01*
X11876099D01*
Y7483049D01*
X11877050D01*
Y7482891D01*
X11878159D01*
Y7482733D01*
X11879584D01*
Y7482574D01*
X11881802D01*
Y7482416D01*
X11885604D01*
Y7482574D01*
X11887822D01*
Y7482733D01*
X11889248D01*
Y7482891D01*
X11890357D01*
Y7483049D01*
X11891307D01*
Y7483208D01*
X11892099D01*
Y7483366D01*
X11892891D01*
Y7483525D01*
X11893525D01*
Y7483683D01*
X11894159D01*
Y7483842D01*
X11894792D01*
Y7484000D01*
X11895426D01*
Y7484158D01*
X11895901D01*
Y7484317D01*
X11896377D01*
Y7484475D01*
X11896852D01*
Y7484633D01*
X11897327D01*
Y7484792D01*
X11897802D01*
Y7484950D01*
X11898277D01*
Y7485109D01*
X11898594D01*
Y7485267D01*
X11899069D01*
Y7485426D01*
X11899545D01*
Y7485584D01*
X11899862D01*
Y7485742D01*
X11900178D01*
Y7485901D01*
X11900654D01*
Y7486059D01*
X11900970D01*
Y7486218D01*
X11901287D01*
Y7486376D01*
X11901604D01*
Y7486534D01*
X11901921D01*
Y7486693D01*
X11902238D01*
Y7486851D01*
X11902555D01*
Y7487010D01*
X11902872D01*
Y7487168D01*
X11903188D01*
Y7487327D01*
X11903505D01*
Y7487485D01*
X11903822D01*
Y7487643D01*
X11904139D01*
Y7487802D01*
X11904297D01*
Y7487960D01*
X11904614D01*
Y7488119D01*
X11904931D01*
Y7488277D01*
X11905248D01*
Y7488436D01*
X11905406D01*
Y7488594D01*
X11905723D01*
Y7488752D01*
X11905881D01*
Y7488911D01*
X11906198D01*
Y7489069D01*
X11906515D01*
Y7489228D01*
X11906673D01*
Y7489386D01*
X11906990D01*
Y7489544D01*
X11907149D01*
Y7489703D01*
X11907465D01*
Y7489861D01*
X11907624D01*
Y7490020D01*
X11907782D01*
Y7490178D01*
X11908099D01*
Y7490337D01*
X11908258D01*
Y7490495D01*
X11908574D01*
Y7490653D01*
X11908733D01*
Y7490812D01*
X11908891D01*
Y7490970D01*
X11909208D01*
Y7491129D01*
X11909367D01*
Y7491287D01*
X11909525D01*
Y7491446D01*
X11909683D01*
Y7491604D01*
X11910000D01*
Y7491762D01*
X11910159D01*
Y7491921D01*
X11910317D01*
Y7492079D01*
X11910475D01*
Y7492237D01*
X11910792D01*
Y7492396D01*
X11910951D01*
Y7492554D01*
X11911109D01*
Y7492713D01*
X11911268D01*
Y7492871D01*
X11911426D01*
Y7493029D01*
X11911584D01*
Y7493188D01*
X11911743D01*
Y7493346D01*
X11912059D01*
Y7493505D01*
X11912218D01*
Y7493663D01*
X11912376D01*
Y7493822D01*
X11912535D01*
Y7493980D01*
X11912693D01*
Y7494138D01*
X11912852D01*
Y7494297D01*
X11913010D01*
Y7494455D01*
X11913168D01*
Y7494614D01*
X11913327D01*
Y7494772D01*
X11913485D01*
Y7494931D01*
X11913644D01*
Y7495089D01*
X11913802D01*
Y7495247D01*
X11913961D01*
Y7495406D01*
X11914119D01*
Y7495564D01*
X11914277D01*
Y7495723D01*
X11914436D01*
Y7495881D01*
X11914594D01*
Y7496039D01*
X11914753D01*
Y7496356D01*
X11914911D01*
Y7496515D01*
X11915069D01*
Y7496673D01*
X11915228D01*
Y7496832D01*
X11915386D01*
Y7496990D01*
X11915545D01*
Y7497148D01*
X11915703D01*
Y7497465D01*
X11915862D01*
Y7497624D01*
X11916020D01*
Y7497782D01*
X11916178D01*
Y7497941D01*
X11916337D01*
Y7498099D01*
X11916495D01*
Y7498416D01*
X11916654D01*
Y7498574D01*
X11916812D01*
Y7498733D01*
X11916971D01*
Y7499049D01*
X11917129D01*
Y7499208D01*
X11917287D01*
Y7499366D01*
X11917446D01*
Y7499683D01*
X11917604D01*
Y7499841D01*
X11917763D01*
Y7500000D01*
X11917921D01*
Y7500317D01*
X11918079D01*
Y7500475D01*
X11918238D01*
Y7500792D01*
X11918396D01*
Y7500950D01*
X11918555D01*
Y7501267D01*
X11918713D01*
Y7501426D01*
X11918872D01*
Y7501742D01*
X11919030D01*
Y7501901D01*
X11919188D01*
Y7502218D01*
X11919347D01*
Y7502376D01*
X11919505D01*
Y7502693D01*
X11919663D01*
Y7503010D01*
X11919822D01*
Y7503168D01*
X11919980D01*
Y7503485D01*
X11920139D01*
Y7503802D01*
X11920297D01*
Y7504119D01*
X11920456D01*
Y7504436D01*
X11920614D01*
Y7504594D01*
X11920772D01*
Y7504911D01*
X11920931D01*
Y7505228D01*
X11921089D01*
Y7505544D01*
X11921248D01*
Y7505861D01*
X11921406D01*
Y7506178D01*
X11921564D01*
Y7506495D01*
X11921723D01*
Y7506970D01*
X11921881D01*
Y7507287D01*
X11922040D01*
Y7507604D01*
X11922198D01*
Y7507921D01*
X11922357D01*
Y7508396D01*
X11922515D01*
Y7508713D01*
X11922673D01*
Y7509188D01*
X11922832D01*
Y7509505D01*
X11922990D01*
Y7509980D01*
X11923149D01*
Y7510455D01*
X11923307D01*
Y7510931D01*
X11923466D01*
Y7511406D01*
X11923624D01*
Y7511881D01*
X11923782D01*
Y7512356D01*
X11923941D01*
Y7512990D01*
X11924099D01*
Y7513465D01*
X11924258D01*
Y7514099D01*
X11924416D01*
Y7514732D01*
X11924574D01*
Y7515525D01*
X11924733D01*
Y7516317D01*
X11924891D01*
Y7517109D01*
X11925050D01*
Y7518218D01*
X11925208D01*
Y7519327D01*
X11925367D01*
Y7520911D01*
X11925525D01*
Y7702455D01*
X11925367D01*
Y7704039D01*
X11925208D01*
Y7705307D01*
X11925050D01*
Y7706257D01*
X11924891D01*
Y7707049D01*
X11924733D01*
Y7707841D01*
X11924574D01*
Y7708634D01*
X11924416D01*
Y7709267D01*
X11924258D01*
Y7709901D01*
X11924099D01*
Y7710534D01*
X11923941D01*
Y7711010D01*
X11923782D01*
Y7711485D01*
X11923624D01*
Y7711960D01*
X11923466D01*
Y7712435D01*
X11923307D01*
Y7712911D01*
X11923149D01*
Y7713386D01*
X11922990D01*
Y7713861D01*
X11922832D01*
Y7714178D01*
X11922673D01*
Y7714653D01*
X11922515D01*
Y7714970D01*
X11922357D01*
Y7715445D01*
X11922198D01*
Y7715762D01*
X11922040D01*
Y7716079D01*
X11921881D01*
Y7716554D01*
X11921723D01*
Y7716871D01*
X11921564D01*
Y7717188D01*
X11921406D01*
Y7717505D01*
X11921248D01*
Y7717821D01*
X11921089D01*
Y7718138D01*
X11920931D01*
Y7718455D01*
X11920772D01*
Y7718772D01*
X11920614D01*
Y7718930D01*
X11920456D01*
Y7719247D01*
X11920297D01*
Y7719564D01*
X11920139D01*
Y7719881D01*
X11919980D01*
Y7720198D01*
X11919822D01*
Y7720356D01*
X11919663D01*
Y7720673D01*
X11919505D01*
Y7720990D01*
X11919347D01*
Y7721148D01*
X11919188D01*
Y7721465D01*
X11919030D01*
Y7721624D01*
X11918872D01*
Y7721940D01*
X11918713D01*
Y7722099D01*
X11918555D01*
Y7722416D01*
X11918396D01*
Y7722574D01*
X11918238D01*
Y7722891D01*
X11918079D01*
Y7723049D01*
X11917921D01*
Y7723366D01*
X11917763D01*
Y7723525D01*
X11917604D01*
Y7723841D01*
X11917446D01*
Y7724000D01*
X11917287D01*
Y7724158D01*
X11917129D01*
Y7724475D01*
X11916971D01*
Y7724634D01*
X11916812D01*
Y7724792D01*
X11916654D01*
Y7724950D01*
X11916495D01*
Y7725267D01*
X11916337D01*
Y7725425D01*
X11916178D01*
Y7725584D01*
X11916020D01*
Y7725742D01*
X11915862D01*
Y7726059D01*
X11915703D01*
Y7726217D01*
X11915545D01*
Y7726376D01*
X11915386D01*
Y7726534D01*
X11915228D01*
Y7726693D01*
X11915069D01*
Y7726851D01*
X11914911D01*
Y7727010D01*
X11914753D01*
Y7727326D01*
X11914594D01*
Y7727485D01*
X11914436D01*
Y7727643D01*
X11914277D01*
Y7727802D01*
X11914119D01*
Y7727960D01*
X11913961D01*
Y7728119D01*
X11913802D01*
Y7728277D01*
X11913644D01*
Y7728435D01*
X11913485D01*
Y7728594D01*
X11913327D01*
Y7728752D01*
X11913168D01*
Y7728911D01*
X11913010D01*
Y7729069D01*
X11912852D01*
Y7729227D01*
X11912693D01*
Y7729386D01*
X11912535D01*
Y7729544D01*
X11912376D01*
Y7729703D01*
X11912218D01*
Y7729861D01*
X11912059D01*
Y7730020D01*
X11911901D01*
Y7730178D01*
X11911584D01*
Y7730336D01*
X11911426D01*
Y7730495D01*
X11911268D01*
Y7730653D01*
X11911109D01*
Y7730812D01*
X11910951D01*
Y7730970D01*
X11910792D01*
Y7731129D01*
X11910475D01*
Y7731287D01*
X11910317D01*
Y7731445D01*
X11910159D01*
Y7731604D01*
X11910000D01*
Y7731762D01*
X11909842D01*
Y7731921D01*
X11909525D01*
Y7732079D01*
X11909367D01*
Y7732237D01*
X11909208D01*
Y7732396D01*
X11908891D01*
Y7732554D01*
X11908733D01*
Y7732713D01*
X11908574D01*
Y7732871D01*
X11908258D01*
Y7733029D01*
X11908099D01*
Y7733188D01*
X11907941D01*
Y7733346D01*
X11907624D01*
Y7733505D01*
X11907465D01*
Y7733663D01*
X11907149D01*
Y7733821D01*
X11906990D01*
Y7733980D01*
X11906673D01*
Y7734138D01*
X11906515D01*
Y7734297D01*
X11906198D01*
Y7734455D01*
X11906040D01*
Y7734614D01*
X11905723D01*
Y7734772D01*
X11905406D01*
Y7734930D01*
X11905248D01*
Y7735089D01*
X11904931D01*
Y7735247D01*
X11904614D01*
Y7735406D01*
X11904455D01*
Y7735564D01*
X11904139D01*
Y7735723D01*
X11903822D01*
Y7735881D01*
X11903505D01*
Y7736039D01*
X11903188D01*
Y7736198D01*
X11902872D01*
Y7736356D01*
X11902555D01*
Y7736515D01*
X11902238D01*
Y7736673D01*
X11901921D01*
Y7736831D01*
X11901604D01*
Y7736990D01*
X11901287D01*
Y7737148D01*
X11900970D01*
Y7737307D01*
X11900654D01*
Y7737465D01*
X11900178D01*
Y7737624D01*
X11899862D01*
Y7737782D01*
X11899545D01*
Y7737940D01*
X11899069D01*
Y7738099D01*
X11898753D01*
Y7738257D01*
X11898277D01*
Y7738416D01*
X11897802D01*
Y7738574D01*
X11897327D01*
Y7738733D01*
X11896852D01*
Y7738891D01*
X11896377D01*
Y7739049D01*
X11895901D01*
Y7739208D01*
X11895426D01*
Y7739366D01*
X11894792D01*
Y7739525D01*
X11894159D01*
Y7739683D01*
X11893525D01*
Y7739841D01*
X11892891D01*
Y7740000D01*
X11892099D01*
Y7740158D01*
X11891307D01*
Y7740316D01*
X11890357D01*
Y7740475D01*
X11889406D01*
Y7740633D01*
X11887980D01*
Y7740792D01*
X11885921D01*
Y7740950D01*
D02*
G37*
G36*
X11887347Y7877980D02*
X11880060D01*
Y7877821D01*
X11878475D01*
Y7877663D01*
X11877366D01*
Y7877505D01*
X11876416D01*
Y7877346D01*
X11875624D01*
Y7877188D01*
X11874832D01*
Y7877029D01*
X11874040D01*
Y7876871D01*
X11873406D01*
Y7876712D01*
X11872773D01*
Y7876554D01*
X11872297D01*
Y7876396D01*
X11871664D01*
Y7876237D01*
X11871188D01*
Y7876079D01*
X11870713D01*
Y7875920D01*
X11870238D01*
Y7875762D01*
X11869763D01*
Y7875604D01*
X11869287D01*
Y7875445D01*
X11868970D01*
Y7875287D01*
X11868495D01*
Y7875129D01*
X11868020D01*
Y7874970D01*
X11867703D01*
Y7874812D01*
X11867386D01*
Y7874653D01*
X11866911D01*
Y7874495D01*
X11866594D01*
Y7874336D01*
X11866278D01*
Y7874178D01*
X11865961D01*
Y7874020D01*
X11865644D01*
Y7873861D01*
X11865327D01*
Y7873703D01*
X11865010D01*
Y7873544D01*
X11864693D01*
Y7873386D01*
X11864376D01*
Y7873227D01*
X11864060D01*
Y7873069D01*
X11863743D01*
Y7872911D01*
X11863426D01*
Y7872752D01*
X11863109D01*
Y7872594D01*
X11862951D01*
Y7872435D01*
X11862634D01*
Y7872277D01*
X11862317D01*
Y7872119D01*
X11862000D01*
Y7871960D01*
X11861842D01*
Y7871802D01*
X11861525D01*
Y7871643D01*
X11861366D01*
Y7871485D01*
X11861050D01*
Y7871326D01*
X11860891D01*
Y7871168D01*
X11860574D01*
Y7871010D01*
X11860416D01*
Y7870851D01*
X11860099D01*
Y7870693D01*
X11859941D01*
Y7870534D01*
X11859624D01*
Y7870376D01*
X11859465D01*
Y7870217D01*
X11859149D01*
Y7870059D01*
X11858990D01*
Y7869901D01*
X11858832D01*
Y7869742D01*
X11858515D01*
Y7869584D01*
X11858357D01*
Y7869425D01*
X11858198D01*
Y7869267D01*
X11857881D01*
Y7869109D01*
X11857723D01*
Y7868950D01*
X11857565D01*
Y7868792D01*
X11857406D01*
Y7868633D01*
X11857089D01*
Y7868475D01*
X11856931D01*
Y7868316D01*
X11856773D01*
Y7868158D01*
X11856614D01*
Y7868000D01*
X11856456D01*
Y7867841D01*
X11856139D01*
Y7867683D01*
X11855980D01*
Y7867525D01*
X11855822D01*
Y7867366D01*
X11855664D01*
Y7867208D01*
X11855505D01*
Y7867049D01*
X11855347D01*
Y7866891D01*
X11855188D01*
Y7866732D01*
X11855030D01*
Y7866574D01*
X11854871D01*
Y7866416D01*
X11854713D01*
Y7866257D01*
X11854555D01*
Y7866099D01*
X11854396D01*
Y7865940D01*
X11854238D01*
Y7865782D01*
X11854079D01*
Y7865624D01*
X11853921D01*
Y7865465D01*
X11853763D01*
Y7865307D01*
X11853604D01*
Y7865148D01*
X11853446D01*
Y7864990D01*
X11853287D01*
Y7864831D01*
X11853129D01*
Y7864673D01*
X11852970D01*
Y7864515D01*
X11852812D01*
Y7864356D01*
X11852654D01*
Y7864198D01*
X11852495D01*
Y7864039D01*
X11852337D01*
Y7863881D01*
X11852178D01*
Y7863564D01*
X11852020D01*
Y7863406D01*
X11851861D01*
Y7863247D01*
X11851703D01*
Y7863089D01*
X11851545D01*
Y7862930D01*
X11851386D01*
Y7862772D01*
X11851228D01*
Y7862455D01*
X11851070D01*
Y7862297D01*
X11850911D01*
Y7862138D01*
X11850753D01*
Y7861980D01*
X11850594D01*
Y7861663D01*
X11850436D01*
Y7861505D01*
X11850278D01*
Y7861346D01*
X11850119D01*
Y7861029D01*
X11849961D01*
Y7860871D01*
X11849802D01*
Y7860712D01*
X11849644D01*
Y7860396D01*
X11849485D01*
Y7860237D01*
X11849327D01*
Y7859921D01*
X11849169D01*
Y7859762D01*
X11849010D01*
Y7859445D01*
X11848852D01*
Y7859287D01*
X11848693D01*
Y7858970D01*
X11848535D01*
Y7858812D01*
X11848376D01*
Y7858495D01*
X11848218D01*
Y7858336D01*
X11848060D01*
Y7858020D01*
X11847901D01*
Y7857703D01*
X11847743D01*
Y7857544D01*
X11847584D01*
Y7857227D01*
X11847426D01*
Y7856911D01*
X11847268D01*
Y7856594D01*
X11847109D01*
Y7856435D01*
X11846951D01*
Y7856118D01*
X11846792D01*
Y7855802D01*
X11846634D01*
Y7855485D01*
X11846475D01*
Y7855168D01*
X11846317D01*
Y7854851D01*
X11846159D01*
Y7854534D01*
X11846000D01*
Y7854217D01*
X11845842D01*
Y7853901D01*
X11845683D01*
Y7853584D01*
X11845525D01*
Y7853267D01*
X11845366D01*
Y7852792D01*
X11845208D01*
Y7852475D01*
X11845050D01*
Y7852158D01*
X11844891D01*
Y7851683D01*
X11844733D01*
Y7851366D01*
X11844574D01*
Y7850891D01*
X11844416D01*
Y7850416D01*
X11844258D01*
Y7849940D01*
X11844099D01*
Y7849623D01*
X11843941D01*
Y7848990D01*
X11843782D01*
Y7848515D01*
X11843624D01*
Y7848039D01*
X11843466D01*
Y7847406D01*
X11843307D01*
Y7846930D01*
X11843149D01*
Y7846297D01*
X11842990D01*
Y7845663D01*
X11842832D01*
Y7844871D01*
X11842674D01*
Y7844079D01*
X11842515D01*
Y7843128D01*
X11842357D01*
Y7842178D01*
X11842198D01*
Y7840911D01*
X11842040D01*
Y7839168D01*
X11841881D01*
Y7833307D01*
X11842040D01*
Y7831564D01*
X11842198D01*
Y7830297D01*
X11842357D01*
Y7829188D01*
X11842515D01*
Y7828396D01*
X11842674D01*
Y7827604D01*
X11842832D01*
Y7826812D01*
X11842990D01*
Y7826178D01*
X11843149D01*
Y7825544D01*
X11843307D01*
Y7824911D01*
X11843466D01*
Y7824435D01*
X11843624D01*
Y7823802D01*
X11843782D01*
Y7823326D01*
X11843941D01*
Y7822851D01*
X11844099D01*
Y7822376D01*
X11844258D01*
Y7821901D01*
X11844416D01*
Y7821584D01*
X11844574D01*
Y7821109D01*
X11844733D01*
Y7820633D01*
X11844891D01*
Y7820317D01*
X11845050D01*
Y7820000D01*
X11845208D01*
Y7819524D01*
X11845366D01*
Y7819208D01*
X11845525D01*
Y7818891D01*
X11845683D01*
Y7818574D01*
X11845842D01*
Y7818257D01*
X11846000D01*
Y7817782D01*
X11846159D01*
Y7817465D01*
X11846317D01*
Y7817148D01*
X11846475D01*
Y7816990D01*
X11846634D01*
Y7816673D01*
X11846792D01*
Y7816356D01*
X11846951D01*
Y7816039D01*
X11847109D01*
Y7815722D01*
X11847268D01*
Y7815406D01*
X11847426D01*
Y7815247D01*
X11847584D01*
Y7814931D01*
X11847743D01*
Y7814614D01*
X11847901D01*
Y7814455D01*
X11848060D01*
Y7814138D01*
X11848218D01*
Y7813822D01*
X11848376D01*
Y7813663D01*
X11848535D01*
Y7813346D01*
X11848693D01*
Y7813188D01*
X11848852D01*
Y7812871D01*
X11849010D01*
Y7812713D01*
X11849169D01*
Y7812396D01*
X11849327D01*
Y7812237D01*
X11849485D01*
Y7811921D01*
X11849644D01*
Y7811762D01*
X11849802D01*
Y7811604D01*
X11849961D01*
Y7811287D01*
X11850119D01*
Y7811128D01*
X11850278D01*
Y7810970D01*
X11850436D01*
Y7810653D01*
X11850594D01*
Y7810495D01*
X11850753D01*
Y7810336D01*
X11850911D01*
Y7810019D01*
X11851070D01*
Y7809861D01*
X11851228D01*
Y7809703D01*
X11851386D01*
Y7809544D01*
X11851545D01*
Y7809386D01*
X11851703D01*
Y7809069D01*
X11851861D01*
Y7808911D01*
X11852020D01*
Y7808752D01*
X11852178D01*
Y7808594D01*
X11852337D01*
Y7808435D01*
X11852495D01*
Y7808277D01*
X11852654D01*
Y7808118D01*
X11852812D01*
Y7807802D01*
X11852970D01*
Y7807643D01*
X11853129D01*
Y7807485D01*
X11853287D01*
Y7807327D01*
X11853446D01*
Y7807168D01*
X11853604D01*
Y7807010D01*
X11853763D01*
Y7806851D01*
X11853921D01*
Y7806693D01*
X11854079D01*
Y7806534D01*
X11854238D01*
Y7806376D01*
X11854396D01*
Y7806218D01*
X11854555D01*
Y7806059D01*
X11854713D01*
Y7805901D01*
X11854871D01*
Y7805742D01*
X11855030D01*
Y7805584D01*
X11855188D01*
Y7805426D01*
X11855347D01*
Y7805267D01*
X11855664D01*
Y7805109D01*
X11855822D01*
Y7804950D01*
X11855980D01*
Y7804792D01*
X11856139D01*
Y7804633D01*
X11856297D01*
Y7804475D01*
X11856456D01*
Y7804317D01*
X11856614D01*
Y7804158D01*
X11856931D01*
Y7804000D01*
X11857089D01*
Y7803841D01*
X11857248D01*
Y7803683D01*
X11857406D01*
Y7803524D01*
X11857565D01*
Y7803366D01*
X11857881D01*
Y7803208D01*
X11858040D01*
Y7803049D01*
X11858198D01*
Y7802891D01*
X11858515D01*
Y7802732D01*
X11858674D01*
Y7802574D01*
X11858832D01*
Y7802416D01*
X11859149D01*
Y7802257D01*
X11859307D01*
Y7802099D01*
X11859465D01*
Y7801940D01*
X11859782D01*
Y7801782D01*
X11859941D01*
Y7801623D01*
X11860258D01*
Y7801465D01*
X11860416D01*
Y7801307D01*
X11860733D01*
Y7801148D01*
X11860891D01*
Y7800990D01*
X11861208D01*
Y7800831D01*
X11861366D01*
Y7800673D01*
X11861683D01*
Y7800514D01*
X11862000D01*
Y7800356D01*
X11862159D01*
Y7800198D01*
X11862475D01*
Y7800039D01*
X11862792D01*
Y7799881D01*
X11862951D01*
Y7799723D01*
X11863268D01*
Y7799564D01*
X11863584D01*
Y7799406D01*
X11863901D01*
Y7799247D01*
X11864218D01*
Y7799089D01*
X11864535D01*
Y7798931D01*
X11864852D01*
Y7798772D01*
X11865169D01*
Y7798614D01*
X11865485D01*
Y7798455D01*
X11865802D01*
Y7798297D01*
X11866119D01*
Y7798138D01*
X11866436D01*
Y7797980D01*
X11866753D01*
Y7797822D01*
X11867069D01*
Y7797663D01*
X11867545D01*
Y7797505D01*
X11867861D01*
Y7797346D01*
X11868337D01*
Y7797188D01*
X11868654D01*
Y7797029D01*
X11869129D01*
Y7796871D01*
X11869604D01*
Y7796713D01*
X11869921D01*
Y7796554D01*
X11870396D01*
Y7796396D01*
X11870871D01*
Y7796237D01*
X11871505D01*
Y7796079D01*
X11871980D01*
Y7795921D01*
X11872614D01*
Y7795762D01*
X11873089D01*
Y7795604D01*
X11873723D01*
Y7795445D01*
X11874515D01*
Y7795287D01*
X11875149D01*
Y7795128D01*
X11875941D01*
Y7794970D01*
X11876891D01*
Y7794812D01*
X11878000D01*
Y7794653D01*
X11879268D01*
Y7794495D01*
X11881169D01*
Y7794336D01*
X11886238D01*
Y7794495D01*
X11888139D01*
Y7794653D01*
X11889564D01*
Y7794812D01*
X11890515D01*
Y7794970D01*
X11891465D01*
Y7795128D01*
X11892258D01*
Y7795287D01*
X11893050D01*
Y7795445D01*
X11893683D01*
Y7795604D01*
X11894317D01*
Y7795762D01*
X11894951D01*
Y7795921D01*
X11895426D01*
Y7796079D01*
X11896060D01*
Y7796237D01*
X11896535D01*
Y7796396D01*
X11897010D01*
Y7796554D01*
X11897485D01*
Y7796713D01*
X11897960D01*
Y7796871D01*
X11898277D01*
Y7797029D01*
X11898753D01*
Y7797188D01*
X11899228D01*
Y7797346D01*
X11899545D01*
Y7797505D01*
X11899862D01*
Y7797663D01*
X11900337D01*
Y7797822D01*
X11900654D01*
Y7797980D01*
X11900970D01*
Y7798138D01*
X11901287D01*
Y7798297D01*
X11901763D01*
Y7798455D01*
X11902079D01*
Y7798614D01*
X11902396D01*
Y7798772D01*
X11902713D01*
Y7798931D01*
X11903030D01*
Y7799089D01*
X11903188D01*
Y7799247D01*
X11903505D01*
Y7799406D01*
X11903822D01*
Y7799564D01*
X11904139D01*
Y7799723D01*
X11904455D01*
Y7799881D01*
X11904614D01*
Y7800039D01*
X11904931D01*
Y7800198D01*
X11905248D01*
Y7800356D01*
X11905564D01*
Y7800514D01*
X11905723D01*
Y7800673D01*
X11906040D01*
Y7800831D01*
X11906198D01*
Y7800990D01*
X11906515D01*
Y7801148D01*
X11906673D01*
Y7801307D01*
X11906990D01*
Y7801465D01*
X11907149D01*
Y7801623D01*
X11907465D01*
Y7801782D01*
X11907624D01*
Y7801940D01*
X11907941D01*
Y7802099D01*
X11908099D01*
Y7802257D01*
X11908416D01*
Y7802416D01*
X11908574D01*
Y7802574D01*
X11908733D01*
Y7802732D01*
X11909050D01*
Y7802891D01*
X11909208D01*
Y7803049D01*
X11909367D01*
Y7803208D01*
X11909525D01*
Y7803366D01*
X11909842D01*
Y7803524D01*
X11910000D01*
Y7803683D01*
X11910159D01*
Y7803841D01*
X11910317D01*
Y7804000D01*
X11910634D01*
Y7804158D01*
X11910792D01*
Y7804317D01*
X11910951D01*
Y7804475D01*
X11911109D01*
Y7804633D01*
X11911268D01*
Y7804792D01*
X11911426D01*
Y7804950D01*
X11911743D01*
Y7805109D01*
X11911901D01*
Y7805267D01*
X11912059D01*
Y7805426D01*
X11912218D01*
Y7805584D01*
X11912376D01*
Y7805742D01*
X11912535D01*
Y7805901D01*
X11912693D01*
Y7806059D01*
X11912852D01*
Y7806218D01*
X11913010D01*
Y7806376D01*
X11913168D01*
Y7806534D01*
X11913327D01*
Y7806693D01*
X11913485D01*
Y7806851D01*
X11913644D01*
Y7807010D01*
X11913802D01*
Y7807168D01*
X11913961D01*
Y7807327D01*
X11914119D01*
Y7807485D01*
X11914277D01*
Y7807643D01*
X11914436D01*
Y7807802D01*
X11914594D01*
Y7807960D01*
X11914753D01*
Y7808118D01*
X11914911D01*
Y7808435D01*
X11915069D01*
Y7808594D01*
X11915228D01*
Y7808752D01*
X11915386D01*
Y7808911D01*
X11915545D01*
Y7809069D01*
X11915703D01*
Y7809227D01*
X11915862D01*
Y7809544D01*
X11916020D01*
Y7809703D01*
X11916178D01*
Y7809861D01*
X11916337D01*
Y7810019D01*
X11916495D01*
Y7810178D01*
X11916654D01*
Y7810495D01*
X11916812D01*
Y7810653D01*
X11916971D01*
Y7810812D01*
X11917129D01*
Y7811128D01*
X11917287D01*
Y7811287D01*
X11917446D01*
Y7811445D01*
X11917604D01*
Y7811762D01*
X11917763D01*
Y7811921D01*
X11917921D01*
Y7812237D01*
X11918079D01*
Y7812396D01*
X11918238D01*
Y7812554D01*
X11918396D01*
Y7812871D01*
X11918555D01*
Y7813029D01*
X11918713D01*
Y7813346D01*
X11918872D01*
Y7813505D01*
X11919030D01*
Y7813822D01*
X11919188D01*
Y7814138D01*
X11919347D01*
Y7814297D01*
X11919505D01*
Y7814614D01*
X11919663D01*
Y7814931D01*
X11919822D01*
Y7815089D01*
X11919980D01*
Y7815406D01*
X11920139D01*
Y7815722D01*
X11920297D01*
Y7816039D01*
X11920456D01*
Y7816198D01*
X11920614D01*
Y7816514D01*
X11920772D01*
Y7816831D01*
X11920931D01*
Y7817148D01*
X11921089D01*
Y7817465D01*
X11921248D01*
Y7817782D01*
X11921406D01*
Y7818099D01*
X11921564D01*
Y7818416D01*
X11921723D01*
Y7818732D01*
X11921881D01*
Y7819208D01*
X11922040D01*
Y7819524D01*
X11922198D01*
Y7819841D01*
X11922357D01*
Y7820317D01*
X11922515D01*
Y7820633D01*
X11922673D01*
Y7820950D01*
X11922832D01*
Y7821426D01*
X11922990D01*
Y7821901D01*
X11923149D01*
Y7822376D01*
X11923307D01*
Y7822693D01*
X11923466D01*
Y7823168D01*
X11923624D01*
Y7823802D01*
X11923782D01*
Y7824277D01*
X11923941D01*
Y7824752D01*
X11924099D01*
Y7825386D01*
X11924258D01*
Y7826020D01*
X11924416D01*
Y7826653D01*
X11924574D01*
Y7827445D01*
X11924733D01*
Y7828237D01*
X11924891D01*
Y7829029D01*
X11925050D01*
Y7829980D01*
X11925208D01*
Y7831247D01*
X11925367D01*
Y7832831D01*
X11925525D01*
Y7839485D01*
X11925367D01*
Y7841227D01*
X11925208D01*
Y7842336D01*
X11925050D01*
Y7843445D01*
X11924891D01*
Y7844237D01*
X11924733D01*
Y7845030D01*
X11924574D01*
Y7845663D01*
X11924416D01*
Y7846455D01*
X11924258D01*
Y7846930D01*
X11924099D01*
Y7847564D01*
X11923941D01*
Y7848198D01*
X11923782D01*
Y7848673D01*
X11923624D01*
Y7849148D01*
X11923466D01*
Y7849623D01*
X11923307D01*
Y7850099D01*
X11923149D01*
Y7850574D01*
X11922990D01*
Y7850891D01*
X11922832D01*
Y7851366D01*
X11922673D01*
Y7851841D01*
X11922515D01*
Y7852158D01*
X11922357D01*
Y7852475D01*
X11922198D01*
Y7852950D01*
X11922040D01*
Y7853267D01*
X11921881D01*
Y7853584D01*
X11921723D01*
Y7853901D01*
X11921564D01*
Y7854217D01*
X11921406D01*
Y7854534D01*
X11921248D01*
Y7854851D01*
X11921089D01*
Y7855168D01*
X11920931D01*
Y7855485D01*
X11920772D01*
Y7855802D01*
X11920614D01*
Y7856118D01*
X11920456D01*
Y7856435D01*
X11920297D01*
Y7856752D01*
X11920139D01*
Y7857069D01*
X11919980D01*
Y7857227D01*
X11919822D01*
Y7857544D01*
X11919663D01*
Y7857861D01*
X11919505D01*
Y7858020D01*
X11919347D01*
Y7858336D01*
X11919188D01*
Y7858495D01*
X11919030D01*
Y7858812D01*
X11918872D01*
Y7859128D01*
X11918713D01*
Y7859287D01*
X11918555D01*
Y7859604D01*
X11918396D01*
Y7859762D01*
X11918238D01*
Y7860079D01*
X11918079D01*
Y7860237D01*
X11917921D01*
Y7860396D01*
X11917763D01*
Y7860712D01*
X11917604D01*
Y7860871D01*
X11917446D01*
Y7861188D01*
X11917287D01*
Y7861346D01*
X11917129D01*
Y7861505D01*
X11916971D01*
Y7861663D01*
X11916812D01*
Y7861980D01*
X11916654D01*
Y7862138D01*
X11916495D01*
Y7862297D01*
X11916337D01*
Y7862614D01*
X11916178D01*
Y7862772D01*
X11916020D01*
Y7862930D01*
X11915862D01*
Y7863089D01*
X11915703D01*
Y7863247D01*
X11915545D01*
Y7863564D01*
X11915386D01*
Y7863722D01*
X11915228D01*
Y7863881D01*
X11915069D01*
Y7864039D01*
X11914911D01*
Y7864198D01*
X11914753D01*
Y7864356D01*
X11914594D01*
Y7864515D01*
X11914436D01*
Y7864673D01*
X11914277D01*
Y7864831D01*
X11914119D01*
Y7865148D01*
X11913961D01*
Y7865307D01*
X11913802D01*
Y7865465D01*
X11913644D01*
Y7865624D01*
X11913485D01*
Y7865782D01*
X11913327D01*
Y7865940D01*
X11913168D01*
Y7866099D01*
X11913010D01*
Y7866257D01*
X11912852D01*
Y7866416D01*
X11912693D01*
Y7866574D01*
X11912376D01*
Y7866732D01*
X11912218D01*
Y7866891D01*
X11912059D01*
Y7867049D01*
X11911901D01*
Y7867208D01*
X11911743D01*
Y7867366D01*
X11911584D01*
Y7867525D01*
X11911426D01*
Y7867683D01*
X11911268D01*
Y7867841D01*
X11911109D01*
Y7868000D01*
X11910792D01*
Y7868158D01*
X11910634D01*
Y7868316D01*
X11910475D01*
Y7868475D01*
X11910317D01*
Y7868633D01*
X11910159D01*
Y7868792D01*
X11909842D01*
Y7868950D01*
X11909683D01*
Y7869109D01*
X11909525D01*
Y7869267D01*
X11909367D01*
Y7869425D01*
X11909050D01*
Y7869584D01*
X11908891D01*
Y7869742D01*
X11908733D01*
Y7869901D01*
X11908416D01*
Y7870059D01*
X11908258D01*
Y7870217D01*
X11907941D01*
Y7870376D01*
X11907782D01*
Y7870534D01*
X11907624D01*
Y7870693D01*
X11907307D01*
Y7870851D01*
X11907149D01*
Y7871010D01*
X11906832D01*
Y7871168D01*
X11906673D01*
Y7871326D01*
X11906357D01*
Y7871485D01*
X11906198D01*
Y7871643D01*
X11905881D01*
Y7871802D01*
X11905564D01*
Y7871960D01*
X11905406D01*
Y7872119D01*
X11905089D01*
Y7872277D01*
X11904772D01*
Y7872435D01*
X11904614D01*
Y7872594D01*
X11904297D01*
Y7872752D01*
X11903980D01*
Y7872911D01*
X11903664D01*
Y7873069D01*
X11903347D01*
Y7873227D01*
X11903188D01*
Y7873386D01*
X11902872D01*
Y7873544D01*
X11902555D01*
Y7873703D01*
X11902238D01*
Y7873861D01*
X11901921D01*
Y7874020D01*
X11901446D01*
Y7874178D01*
X11901129D01*
Y7874336D01*
X11900812D01*
Y7874495D01*
X11900495D01*
Y7874653D01*
X11900178D01*
Y7874812D01*
X11899703D01*
Y7874970D01*
X11899386D01*
Y7875129D01*
X11898911D01*
Y7875287D01*
X11898594D01*
Y7875445D01*
X11898119D01*
Y7875604D01*
X11897644D01*
Y7875762D01*
X11897168D01*
Y7875920D01*
X11896693D01*
Y7876079D01*
X11896218D01*
Y7876237D01*
X11895743D01*
Y7876396D01*
X11895268D01*
Y7876554D01*
X11894634D01*
Y7876712D01*
X11894000D01*
Y7876871D01*
X11893367D01*
Y7877029D01*
X11892574D01*
Y7877188D01*
X11891941D01*
Y7877346D01*
X11890990D01*
Y7877505D01*
X11890040D01*
Y7877663D01*
X11888931D01*
Y7877821D01*
X11887347D01*
Y7877980D01*
D02*
G37*
%LPD*%
D51*
X11474000Y9752380D02*
G03*
X11474000Y9752380I-12500J0D01*
G01*
X9477500Y9155000D02*
G03*
X9477500Y9155000I-12500J0D01*
G01*
X11662075Y8924500D02*
G03*
X11662075Y8924500I-12500J0D01*
G01*
X7413125Y10460625D02*
G03*
X7413125Y10460625I-12500J0D01*
G01*
X9317500Y7645000D02*
G03*
X9317500Y7645000I-12500J0D01*
G01*
X8657500Y7635000D02*
G03*
X8657500Y7635000I-12500J0D01*
G01*
X8735000Y9955000D02*
G03*
X8735000Y9955000I-12500J0D01*
G01*
X8700000Y8902500D02*
G03*
X8700000Y8902500I-12500J0D01*
G01*
X8505000Y9246000D02*
G03*
X8505000Y9246000I-12500J0D01*
G01*
X9955000Y6907500D02*
G03*
X9955000Y6907500I-12500J0D01*
G01*
X7991477Y7635000D02*
G03*
X7991477Y7635000I-12500J0D01*
G01*
D52*
X8452500Y7980000D02*
Y9920000D01*
X6947500D02*
X7547500D01*
X7852500D02*
X8452500D01*
X6947500Y7980000D02*
Y9920000D01*
Y7980000D02*
X7547500D01*
X7852500D02*
X8452500D01*
X12168000Y10529500D02*
X12330500D01*
X11775000D02*
X11893000D01*
X12330500Y9615500D02*
Y10529500D01*
X12168000Y9615500D02*
X12330500D01*
X11775000D02*
X11893000D01*
X11199190Y9269690D02*
X11490810D01*
X11199190Y9495310D02*
X11490810D01*
X9180425Y10395425D02*
Y10410425D01*
X9325425Y10395425D02*
Y10410425D01*
X9530000Y9127500D02*
Y9170000D01*
X9572500D01*
X10227500D02*
X10270000D01*
Y9127500D02*
Y9170000D01*
Y8430000D02*
Y8472500D01*
X10227500Y8430000D02*
X10270000D01*
X9530000D02*
Y8472500D01*
Y8430000D02*
X9572500D01*
X11624825Y8419750D02*
Y8770250D01*
X10974325Y8419750D02*
X11624825D01*
X10974325D02*
Y8770250D01*
X11624825D01*
X9277500Y8617500D02*
Y8632500D01*
X9422500Y8617500D02*
Y8632500D01*
X7140625Y10725625D02*
Y10868125D01*
X7888125Y10725625D02*
X8060625D01*
X7688125D02*
X7713125D01*
X7488125D02*
X7513125D01*
X7140625D02*
X7313125D01*
X8060625D02*
Y10868125D01*
X9037500Y7920239D02*
Y7934761D01*
X9162500Y7920239D02*
Y7934761D01*
X8920000Y7880000D02*
Y7895000D01*
X8775000Y7880000D02*
Y7895000D01*
X8905000Y8925000D02*
X8920000D01*
X8905000Y9070000D02*
X8920000D01*
X8987500Y8642739D02*
Y8657261D01*
X9112500Y8642739D02*
Y8657261D01*
X8942500Y8252500D02*
X8957500D01*
X8942500Y8397500D02*
X8957500D01*
X9060000Y7020000D02*
X9220000D01*
X9060000Y7520000D02*
X9220000D01*
X9385000D02*
X9390000D01*
X9385000Y7020000D02*
X9390000D01*
X8890000D02*
X8895000D01*
X8890000Y7520000D02*
X8895000D01*
X8890000Y7020000D02*
Y7520000D01*
X9390000Y7020000D02*
Y7520000D01*
X8400000Y7010000D02*
X8560000D01*
X8400000Y7510000D02*
X8560000D01*
X8725000D02*
X8730000D01*
X8725000Y7010000D02*
X8730000D01*
X8230000D02*
X8235000D01*
X8230000Y7510000D02*
X8235000D01*
X8230000Y7010000D02*
Y7510000D01*
X8730000Y7010000D02*
Y7510000D01*
X8432739Y10955000D02*
X8447260D01*
X8432739Y11080000D02*
X8447260D01*
X8553236Y10277694D02*
Y10569314D01*
X8327616Y10277694D02*
Y10569314D01*
X8852925Y10570425D02*
X8867926D01*
X8852925Y10715425D02*
X8867926D01*
X8632500Y10035000D02*
X8665000D01*
X8632500D02*
Y10067500D01*
X9030000Y10035000D02*
X9062500D01*
Y10067500D01*
Y10432500D02*
Y10465000D01*
X9030000D02*
X9062500D01*
X8632500D02*
X8665000D01*
X8632500Y10432500D02*
Y10465000D01*
X9180425Y10075425D02*
Y10090425D01*
X9325425Y10075425D02*
Y10090425D01*
X9700239Y10117500D02*
X9714760D01*
X9700239Y10242500D02*
X9714760D01*
X9705239Y9857500D02*
X9719761D01*
X9705239Y9982500D02*
X9719761D01*
X9605000Y9632500D02*
X9630000D01*
X9605000Y9487500D02*
X9630000D01*
X9302500Y9160000D02*
Y9175000D01*
X9447500Y9160000D02*
Y9175000D01*
X9607500Y9440000D02*
X9622500D01*
X9607500Y9295000D02*
X9622500D01*
X11147664Y10605415D02*
Y10619936D01*
X11272664Y10605415D02*
Y10619936D01*
X11272500Y10175239D02*
Y10189761D01*
X11147500Y10175239D02*
Y10189761D01*
X11029690Y9777810D02*
X11360310D01*
X11029690Y9542190D02*
X11360310D01*
X10856690Y9497810D02*
X11148310D01*
X10856690Y9272190D02*
X11148310D01*
X9829690Y8051112D02*
Y8342732D01*
X10055310Y8051112D02*
Y8342732D01*
X10220000Y8190000D02*
X10235000D01*
X10220000Y8335000D02*
X10235000D01*
X10597825Y8317500D02*
X10612346D01*
X10597825Y8442500D02*
X10612346D01*
X11732500Y8192654D02*
Y8207175D01*
X11857500Y8192654D02*
Y8207175D01*
X11722500Y8622414D02*
Y8637414D01*
X11867500Y8622414D02*
Y8637414D01*
X11157500Y9202500D02*
X11172500D01*
X11157500Y9057500D02*
X11172500D01*
X10136500Y10193500D02*
X10191500D01*
X10136500Y10706500D02*
X10191500D01*
X10136500Y10193500D02*
Y10706500D01*
X10858500D02*
X10913500D01*
X10858500Y10193500D02*
X10913500D01*
Y10706500D01*
X8590000Y8507500D02*
Y8827500D01*
X8955000Y8507500D02*
Y8827500D01*
X8736650Y9133150D02*
X8983350D01*
Y9601000D02*
Y9866850D01*
Y9133150D02*
Y9399000D01*
X8736650Y9866850D02*
X8983350D01*
X8736650Y9855000D02*
Y9866850D01*
Y9347000D02*
Y9653000D01*
Y9133150D02*
Y9145000D01*
X9640000Y7134500D02*
Y7385000D01*
X11370000Y7134500D02*
X11595000D01*
X9640000D02*
X9865000D01*
X11595000D02*
Y7385000D01*
X9810000Y7789500D02*
X11425000D01*
X10355000Y9142500D02*
Y9157500D01*
X10500000Y9142500D02*
Y9157500D01*
X10554900Y8652500D02*
X10565100D01*
X10554900Y8527500D02*
X10565100D01*
X8063977Y7010000D02*
Y7510000D01*
X7563977Y7010000D02*
Y7510000D01*
X7568977D01*
X7563977Y7010000D02*
X7568977D01*
X8058977D02*
X8063977D01*
X8058977Y7510000D02*
X8063977D01*
X7733977D02*
X7893977D01*
X7733977Y7010000D02*
X7893977D01*
X7710000Y10066678D02*
X7643355D01*
X7676677Y10033355D02*
Y10100000D01*
X10884212Y10780000D02*
Y10763338D01*
X10867551D01*
Y10780000D01*
X10884212D01*
D53*
X11625000Y8012500D02*
Y8137500D01*
X10775900Y8526500D02*
Y8653500D01*
D54*
X9037000Y9637000D02*
Y9736968D01*
X9070322Y9703645D01*
X9103645Y9736968D01*
Y9637000D01*
X9186951Y9736968D02*
X9153629D01*
X9136968Y9720306D01*
Y9653661D01*
X9153629Y9637000D01*
X9186951D01*
X9203613Y9653661D01*
Y9720306D01*
X9186951Y9736968D01*
X9236935D02*
Y9637000D01*
X9286919D01*
X9303580Y9653661D01*
Y9720306D01*
X9286919Y9736968D01*
X9236935D01*
X9403548D02*
X9336903D01*
Y9637000D01*
X9403548D01*
X9336903Y9686984D02*
X9370226D01*
X9038114Y9780413D02*
Y9880381D01*
X9088098D01*
X9104759Y9863719D01*
Y9830397D01*
X9088098Y9813735D01*
X9038114D01*
X9138082Y9880381D02*
Y9780413D01*
X9171404Y9813735D01*
X9204727Y9780413D01*
Y9880381D01*
X9238050Y9780413D02*
Y9880381D01*
X9288033D01*
X9304695Y9863719D01*
Y9830397D01*
X9288033Y9813735D01*
X9238050D01*
X9271372D02*
X9304695Y9780413D01*
X9136968Y9503000D02*
X9053661D01*
X9037000Y9486338D01*
Y9453016D01*
X9053661Y9436355D01*
X9136968D01*
X9120306Y9336387D02*
X9136968Y9353048D01*
Y9386371D01*
X9120306Y9403032D01*
X9103645D01*
X9086984Y9386371D01*
Y9353048D01*
X9070322Y9336387D01*
X9053661D01*
X9037000Y9353048D01*
Y9386371D01*
X9053661Y9403032D01*
X9136968Y9303064D02*
X9037000D01*
Y9253080D01*
X9053661Y9236419D01*
X9070322D01*
X9086984Y9253080D01*
Y9303064D01*
Y9253080D01*
X9103645Y9236419D01*
X9120306D01*
X9136968Y9253080D01*
Y9303064D01*
X8573032Y9517000D02*
X8673000D01*
Y9566984D01*
X8656339Y9583645D01*
X8639677D01*
X8623016Y9566984D01*
Y9517000D01*
Y9566984D01*
X8606355Y9583645D01*
X8589694D01*
X8573032Y9566984D01*
Y9517000D01*
X8673000Y9616968D02*
X8606355D01*
X8573032Y9650290D01*
X8606355Y9683613D01*
X8673000D01*
X8623016D01*
Y9616968D01*
X8573032Y9716936D02*
Y9783581D01*
Y9750258D01*
X8673000D01*
X10249693Y9793644D02*
X10233032Y9776983D01*
Y9743661D01*
X10249693Y9726999D01*
X10316339D01*
X10333000Y9743661D01*
Y9776983D01*
X10316339Y9793644D01*
X10283016D01*
Y9760322D01*
X10333000Y9826967D02*
X10233032D01*
X10333000Y9893612D01*
X10233032D01*
Y9926935D02*
X10333000D01*
Y9976919D01*
X10316339Y9993580D01*
X10249693D01*
X10233032Y9976919D01*
Y9926935D01*
X10749694Y10907000D02*
X10733032Y10923661D01*
Y10956983D01*
X10749694Y10973645D01*
X10766355D01*
X10783016Y10956983D01*
Y10940322D01*
Y10956983D01*
X10799677Y10973645D01*
X10816339D01*
X10833000Y10956983D01*
Y10923661D01*
X10816339Y10907000D01*
X10733032Y11006967D02*
X10799677D01*
X10833000Y11040290D01*
X10799677Y11073612D01*
X10733032D01*
X10323000Y10907000D02*
X10223032D01*
Y10956983D01*
X10239694Y10973645D01*
X10273016D01*
X10289677Y10956983D01*
Y10907000D01*
Y10940322D02*
X10323000Y10973645D01*
X10239694Y11073612D02*
X10223032Y11056951D01*
Y11023629D01*
X10239694Y11006967D01*
X10256355D01*
X10273016Y11023629D01*
Y11056951D01*
X10289677Y11073612D01*
X10306339D01*
X10323000Y11056951D01*
Y11023629D01*
X10306339Y11006967D01*
X10473032Y10907000D02*
X10573000D01*
Y10956983D01*
X10556339Y10973645D01*
X10489694D01*
X10473032Y10956983D01*
Y10907000D01*
Y11056951D02*
Y11023629D01*
X10489694Y11006967D01*
X10556339D01*
X10573000Y11023629D01*
Y11056951D01*
X10556339Y11073612D01*
X10489694D01*
X10473032Y11056951D01*
X10733032Y9693645D02*
Y9660322D01*
Y9676983D01*
X10816339D01*
X10833000Y9660322D01*
Y9643661D01*
X10816339Y9627000D01*
X10733032Y9726967D02*
Y9793612D01*
Y9760290D01*
X10833000D01*
Y9826935D02*
X10733032D01*
X10766355Y9860258D01*
X10733032Y9893580D01*
X10833000D01*
X10749694Y9993548D02*
X10733032Y9976887D01*
Y9943564D01*
X10749694Y9926903D01*
X10766355D01*
X10783016Y9943564D01*
Y9976887D01*
X10799677Y9993548D01*
X10816339D01*
X10833000Y9976887D01*
Y9943564D01*
X10816339Y9926903D01*
X10489694Y9793644D02*
X10473032Y9776983D01*
Y9743661D01*
X10489694Y9726999D01*
X10556339D01*
X10573000Y9743661D01*
Y9776983D01*
X10556339Y9793644D01*
X10473032Y9826967D02*
X10573000D01*
Y9893612D01*
X10473032Y9926935D02*
X10573000D01*
X10539677D01*
X10473032Y9993580D01*
X10523016Y9943596D01*
X10573000Y9993580D01*
D55*
X7961575Y10667751D02*
X7910792D01*
X7885400Y10642359D01*
Y10540792D01*
X7910792Y10515400D01*
X7961575D01*
X7986967Y10540792D01*
Y10642359D01*
X7961575Y10667751D01*
X8037751D02*
X8139318D01*
X8088534D01*
Y10515400D01*
X9922249Y10376967D02*
Y10326184D01*
Y10351575D01*
X10049208D01*
X10074600Y10326184D01*
Y10300792D01*
X10049208Y10275400D01*
X9922249Y10427751D02*
Y10529318D01*
Y10478534D01*
X10074600D01*
Y10580102D02*
X9973033D01*
X9922249Y10630885D01*
X9973033Y10681669D01*
X10074600D01*
X9998425D01*
Y10580102D01*
X9947641Y10834019D02*
X9922249Y10808628D01*
Y10757844D01*
X9947641Y10732452D01*
X10049208D01*
X10074600Y10757844D01*
Y10808628D01*
X10049208Y10834019D01*
X9998425D01*
Y10783236D01*
X11755400Y9397751D02*
Y9270792D01*
X11780792Y9245400D01*
X11831575D01*
X11856967Y9270792D01*
Y9397751D01*
X12009318Y9372359D02*
X11983926Y9397751D01*
X11933143D01*
X11907751Y9372359D01*
Y9346967D01*
X11933143Y9321575D01*
X11983926D01*
X12009318Y9296184D01*
Y9270792D01*
X11983926Y9245400D01*
X11933143D01*
X11907751Y9270792D01*
X12060101Y9397751D02*
Y9245400D01*
X12136277D01*
X12161669Y9270792D01*
Y9296184D01*
X12136277Y9321575D01*
X12060101D01*
X12136277D01*
X12161669Y9346967D01*
Y9372359D01*
X12136277Y9397751D01*
X12060101D01*
X7045400Y10667751D02*
Y10515400D01*
X7121575D01*
X7146967Y10540792D01*
Y10566184D01*
X7121575Y10591575D01*
X7045400D01*
X7121575D01*
X7146967Y10616967D01*
Y10642359D01*
X7121575Y10667751D01*
X7045400D01*
X7273926D02*
X7223143D01*
X7197751Y10642359D01*
Y10540792D01*
X7223143Y10515400D01*
X7273926D01*
X7299318Y10540792D01*
Y10642359D01*
X7273926Y10667751D01*
X6955400Y10127751D02*
Y9975400D01*
X7031575D01*
X7056967Y10000792D01*
Y10026183D01*
X7031575Y10051575D01*
X6955400D01*
X7031575D01*
X7056967Y10076967D01*
Y10102359D01*
X7031575Y10127751D01*
X6955400D01*
X7107751Y9975400D02*
Y10076967D01*
X7158534Y10127751D01*
X7209318Y10076967D01*
Y9975400D01*
Y10051575D01*
X7107751D01*
X7260102Y10127751D02*
X7361669D01*
X7310885D01*
Y9975400D01*
X7412452Y10127751D02*
X7514020D01*
X7463236D01*
Y9975400D01*
%TF.MD5,c4cf072e514fa04b3d215be3112ce1dc*%
M02*
