%TF.GenerationSoftware,Altium Limited,Altium Designer,24.5.2 (23)*%
G04 Layer_Color=16711935*
%FSLAX45Y45*%
%MOMM*%
%TF.SameCoordinates,DE48C8CA-727C-43F3-B7AC-81352024B8C0*%
%TF.FilePolarity,Negative*%
%TF.FileFunction,Soldermask,Bot*%
%TF.Part,Single*%
G01*
G75*
%TA.AperFunction,ComponentPad*%
%ADD45C,1.00000*%
%ADD46C,1.25000*%
%ADD47C,0.65000*%
%TA.AperFunction,ViaPad*%
%ADD65C,3.20320*%
%ADD66C,0.90320*%
%ADD67C,0.70320*%
D45*
X7700000Y8600000D02*
D03*
D46*
Y9345000D02*
D03*
D47*
X11687500Y10361500D02*
D03*
Y9783500D02*
D03*
D65*
X9730000Y10920000D02*
D03*
X11950000Y10925000D02*
D03*
Y7150000D02*
D03*
X7181605Y7152000D02*
D03*
D66*
X11680000Y9160000D02*
D03*
X10160000Y9970000D02*
D03*
X10650000Y11040000D02*
D03*
X8670000Y9117500D02*
D03*
X11550000Y9370000D02*
D03*
X11457500Y10427500D02*
D03*
X8722500Y9932500D02*
D03*
X7402500Y10930000D02*
D03*
X9087500Y10715000D02*
D03*
X9605000Y10352500D02*
D03*
X9400000Y10175000D02*
D03*
Y10500000D02*
D03*
X9392500Y9985000D02*
D03*
X8152500Y9030000D02*
D03*
X8147500Y7662500D02*
D03*
X8830000Y7665000D02*
D03*
X9365000Y7827500D02*
D03*
X10602500Y7962500D02*
D03*
X10500000Y8200000D02*
D03*
X11067500Y7835000D02*
D03*
X10710000Y7830000D02*
D03*
X7697500Y7807500D02*
D03*
X8697500Y7800000D02*
D03*
X11060000Y10720000D02*
D03*
Y10080000D02*
D03*
X10910000Y9210000D02*
D03*
X11360000Y9120000D02*
D03*
X11660000Y8870000D02*
D03*
Y8980000D02*
D03*
X11930000Y8720000D02*
D03*
X11940000Y8300000D02*
D03*
X11350000Y7525000D02*
D03*
X9875000D02*
D03*
X10200000Y8125000D02*
D03*
X9475000Y9700000D02*
D03*
X9652500Y9765000D02*
D03*
X8375000Y7175000D02*
D03*
X7700000Y7200000D02*
D03*
X9050000D02*
D03*
X8725000Y8325000D02*
D03*
X8575000Y8450000D02*
D03*
X7800000Y10425000D02*
D03*
X8625000Y10675000D02*
D03*
X8475000Y10650000D02*
D03*
X10547500Y9150000D02*
D03*
X9325000Y9425000D02*
D03*
X10100000Y8075000D02*
D03*
X9325000Y8825000D02*
D03*
X9997500Y10217500D02*
D03*
X9515000Y7277500D02*
D03*
X11760000Y9920000D02*
D03*
X11740000Y10167500D02*
D03*
X8457500Y10202500D02*
D03*
X8267500Y10117500D02*
D03*
D67*
X9680000Y9020000D02*
D03*
X9790000D02*
D03*
X9900000D02*
D03*
X10010000D02*
D03*
X10120000D02*
D03*
X9680000Y8910000D02*
D03*
X9790000D02*
D03*
X9900000D02*
D03*
X10010000D02*
D03*
X10120000D02*
D03*
X9680000Y8800000D02*
D03*
X9790000D02*
D03*
X9900000D02*
D03*
X10010000D02*
D03*
X10120000D02*
D03*
X9680000Y8690000D02*
D03*
X9790000D02*
D03*
X9900000D02*
D03*
X10010000D02*
D03*
X10120000D02*
D03*
X9680000Y8580000D02*
D03*
X9790000D02*
D03*
X9900000D02*
D03*
X10010000D02*
D03*
X10120000D02*
D03*
X8902500Y10195000D02*
D03*
Y10305000D02*
D03*
X8792500D02*
D03*
Y10195000D02*
D03*
%TF.MD5,e35cec9c22b3463d96fdae516c1c71d3*%
M02*
