%TF.GenerationSoftware,Altium Limited,Altium Designer,24.5.2 (23)*%
G04 Layer_Color=8421504*
%FSLAX45Y45*%
%MOMM*%
%TF.SameCoordinates,DE48C8CA-727C-43F3-B7AC-81352024B8C0*%
%TF.FilePolarity,Positive*%
%TF.FileFunction,Paste,Top*%
%TF.Part,Single*%
G01*
G75*
%TA.AperFunction,SMDPad,CuDef*%
%ADD11R,2.30000X4.50000*%
%TA.AperFunction,ConnectorPad*%
%ADD12R,2.00000X2.18000*%
%ADD13R,1.00000X0.60000*%
%ADD14R,1.15000X0.60000*%
%ADD15R,1.15000X0.30000*%
%TA.AperFunction,SMDPad,CuDef*%
%ADD16R,1.30464X1.45620*%
%ADD17R,1.40000X0.95000*%
%ADD18O,0.80000X0.25000*%
%ADD19O,0.25000X0.80000*%
%ADD20R,5.60000X5.60000*%
%ADD21R,1.25000X1.50000*%
%ADD22R,4.50000X1.50400*%
%TA.AperFunction,ConnectorPad*%
%ADD23R,1.00000X2.55000*%
%TA.AperFunction,SMDPad,CuDef*%
%ADD24R,1.70000X1.70000*%
%ADD25R,1.50822X1.20651*%
%ADD26R,0.95000X1.40000*%
%ADD27R,0.90000X1.50000*%
%ADD28R,1.20651X1.50822*%
%ADD29R,1.45620X1.30464*%
%ADD30R,0.30000X0.80000*%
%ADD31R,0.85000X0.30000*%
%ADD32R,2.60000X2.70000*%
%ADD33R,1.00000X1.25000*%
%ADD34R,1.45490X1.55620*%
%ADD35R,1.20000X1.20000*%
%ADD36R,1.00000X3.10000*%
%ADD37R,1.20000X1.40000*%
%ADD38R,3.56000X1.27000*%
%ADD39R,1.80000X3.30000*%
%ADD40R,0.80000X2.40000*%
D11*
X7700000Y8130000D02*
D03*
Y9770000D02*
D03*
D12*
X12030500Y9561500D02*
D03*
Y10583500D02*
D03*
X11637500Y9561500D02*
D03*
Y10583500D02*
D03*
D13*
X11580000Y9752500D02*
D03*
Y10392500D02*
D03*
D14*
Y9832500D02*
D03*
Y10312500D02*
D03*
D15*
Y9897500D02*
D03*
Y9947500D02*
D03*
Y9997500D02*
D03*
Y10047500D02*
D03*
Y10097500D02*
D03*
Y10147500D02*
D03*
Y10197500D02*
D03*
Y10247500D02*
D03*
D16*
X11264422Y9382500D02*
D03*
X11425578D02*
D03*
X11083078Y9385000D02*
D03*
X10921922D02*
D03*
D17*
X9252925Y10310425D02*
D03*
Y10495425D02*
D03*
X9350000Y8532500D02*
D03*
Y8717500D02*
D03*
X8847500Y7980000D02*
D03*
Y7795000D02*
D03*
X9252925Y9990425D02*
D03*
Y10175425D02*
D03*
X9375000Y9075000D02*
D03*
Y9260000D02*
D03*
X11795000Y8537414D02*
D03*
Y8722414D02*
D03*
X10427500Y9057500D02*
D03*
Y9242500D02*
D03*
D18*
X9560000Y9075000D02*
D03*
Y9025000D02*
D03*
Y8975000D02*
D03*
Y8925000D02*
D03*
Y8875000D02*
D03*
Y8825000D02*
D03*
Y8775000D02*
D03*
Y8725000D02*
D03*
Y8675000D02*
D03*
Y8625000D02*
D03*
Y8575000D02*
D03*
Y8525000D02*
D03*
X10240000D02*
D03*
Y8575000D02*
D03*
Y8625000D02*
D03*
Y8675000D02*
D03*
Y8725000D02*
D03*
Y8775000D02*
D03*
Y8825000D02*
D03*
Y8875000D02*
D03*
Y8925000D02*
D03*
Y8975000D02*
D03*
Y9025000D02*
D03*
Y9075000D02*
D03*
D19*
X9625000Y8460000D02*
D03*
X9675000D02*
D03*
X9725000D02*
D03*
X9775000D02*
D03*
X9825000D02*
D03*
X9875000D02*
D03*
X9925000D02*
D03*
X9975000D02*
D03*
X10025000D02*
D03*
X10075000D02*
D03*
X10125000D02*
D03*
X10175000D02*
D03*
Y9140000D02*
D03*
X10125000D02*
D03*
X10075000D02*
D03*
X10025000D02*
D03*
X9975000D02*
D03*
X9925000D02*
D03*
X9875000D02*
D03*
X9825000D02*
D03*
X9775000D02*
D03*
X9725000D02*
D03*
X9675000D02*
D03*
X9625000D02*
D03*
D20*
X9900000Y8800000D02*
D03*
D21*
X11528575Y8924500D02*
D03*
X11299575D02*
D03*
X11070575D02*
D03*
D22*
X11299575Y8265500D02*
D03*
D23*
X7800625Y10643125D02*
D03*
X7600625D02*
D03*
X7400625D02*
D03*
D24*
X7110625Y10990625D02*
D03*
X8090625D02*
D03*
D25*
X9100000Y7822414D02*
D03*
Y8032586D02*
D03*
X9050000Y8544914D02*
D03*
Y8755086D02*
D03*
X11210164Y10507590D02*
D03*
Y10717761D02*
D03*
X11210000Y10287586D02*
D03*
Y10077414D02*
D03*
X11795000Y8094829D02*
D03*
Y8305000D02*
D03*
D26*
X9005000Y8997500D02*
D03*
X8820000D02*
D03*
X9042500Y8325000D02*
D03*
X8857500D02*
D03*
X8952925Y10642925D02*
D03*
X8767926D02*
D03*
X9522500Y9367500D02*
D03*
X9707500D02*
D03*
X10320000Y8262500D02*
D03*
X10135000D02*
D03*
X11072500Y9130000D02*
D03*
X11257500D02*
D03*
D27*
X9305000Y7025000D02*
D03*
X8975000D02*
D03*
Y7515000D02*
D03*
X9305000D02*
D03*
X8645000Y7015000D02*
D03*
X8315000D02*
D03*
Y7505000D02*
D03*
X8645000D02*
D03*
X7978977Y7505000D02*
D03*
X7648977D02*
D03*
Y7015000D02*
D03*
X7978977D02*
D03*
D28*
X8545086Y11017500D02*
D03*
X8334914D02*
D03*
X9812585Y10180000D02*
D03*
X9602414D02*
D03*
X9817586Y9920000D02*
D03*
X9607414D02*
D03*
X10710171Y8380000D02*
D03*
X10500000D02*
D03*
D29*
X8440426Y10342925D02*
D03*
Y10504082D02*
D03*
X9942500Y8277500D02*
D03*
Y8116344D02*
D03*
D30*
X8722500Y10050000D02*
D03*
X8772500D02*
D03*
X8822500D02*
D03*
X8872500D02*
D03*
X8922500D02*
D03*
X8972500D02*
D03*
X8722500Y10450000D02*
D03*
X8772500D02*
D03*
X8822500D02*
D03*
X8872500D02*
D03*
X8922500D02*
D03*
X8972500D02*
D03*
D31*
X9045000Y10125000D02*
D03*
Y10175000D02*
D03*
Y10225000D02*
D03*
Y10275000D02*
D03*
Y10325000D02*
D03*
Y10375000D02*
D03*
X8650000Y10125000D02*
D03*
Y10175000D02*
D03*
Y10225000D02*
D03*
Y10275000D02*
D03*
Y10325000D02*
D03*
Y10375000D02*
D03*
D32*
X8847500Y10250000D02*
D03*
D33*
X9517500Y9560000D02*
D03*
X9717500D02*
D03*
D34*
X11287565Y9660000D02*
D03*
X11102435D02*
D03*
D35*
X11515000Y8075000D02*
D03*
X11305000D02*
D03*
X10665000Y8590000D02*
D03*
X10455000D02*
D03*
D36*
X10779000Y10720000D02*
D03*
Y10180000D02*
D03*
X10525000Y10720000D02*
D03*
X10271000D02*
D03*
X10525000Y10180000D02*
D03*
X10271000D02*
D03*
D37*
X8857500Y8777500D02*
D03*
Y8557500D02*
D03*
X8687500D02*
D03*
Y8777500D02*
D03*
D38*
X8726500Y9754000D02*
D03*
X8993500Y9500000D02*
D03*
X8726500Y9246000D02*
D03*
D39*
X11552500Y7587500D02*
D03*
X9682500D02*
D03*
D40*
X11292500Y7082500D02*
D03*
X11142500D02*
D03*
X10992500D02*
D03*
X10842500D02*
D03*
X10692500D02*
D03*
X10542500D02*
D03*
X10392500D02*
D03*
X10242500D02*
D03*
X10092500D02*
D03*
X9942500D02*
D03*
%TF.MD5,d8d08f8d01b2f37abc095013648cb631*%
M02*
