%TF.GenerationSoftware,Altium Limited,Altium Designer,24.5.2 (23)*%
G04 Layer_Physical_Order=2*
G04 Layer_Color=16711680*
%FSLAX45Y45*%
%MOMM*%
%TF.SameCoordinates,DE48C8CA-727C-43F3-B7AC-81352024B8C0*%
%TF.FilePolarity,Positive*%
%TF.FileFunction,Copper,L2,Bot,Signal*%
%TF.Part,Single*%
G01*
G75*
%TA.AperFunction,Conductor*%
%ADD10C,0.50000*%
%ADD41C,0.20000*%
%ADD42C,0.30000*%
%TA.AperFunction,ComponentPad*%
%ADD45C,1.00000*%
%ADD46C,1.25000*%
%ADD47C,0.65000*%
%TA.AperFunction,ViaPad*%
%ADD48C,3.00000*%
%ADD49C,0.70000*%
%ADD50C,0.50000*%
G36*
X12076045Y11143275D02*
X12107893Y11130083D01*
X12136556Y11110931D01*
X12160931Y11086556D01*
X12180083Y11057894D01*
X12193275Y11026046D01*
X12200000Y10992236D01*
Y10975000D01*
Y7050000D01*
Y7032764D01*
X12193275Y6998954D01*
X12180083Y6967106D01*
X12160931Y6938444D01*
X12136556Y6914068D01*
X12107893Y6894917D01*
X12076045Y6881725D01*
X12042236Y6875000D01*
X7057764D01*
X7023954Y6881725D01*
X6992106Y6894917D01*
X6963444Y6914068D01*
X6939068Y6938444D01*
X6919917Y6967106D01*
X6906725Y6998954D01*
X6900000Y7032764D01*
Y7050000D01*
Y10975000D01*
Y10992236D01*
X6906725Y11026046D01*
X6919917Y11057893D01*
X6939068Y11086556D01*
X6963444Y11110931D01*
X6992106Y11130083D01*
X7023954Y11143275D01*
X7057764Y11150000D01*
X12042236D01*
X12076045Y11143275D01*
D02*
G37*
%LPC*%
G36*
X10660940Y11095000D02*
X10639060D01*
X10618845Y11086627D01*
X10618100Y11085882D01*
X10292500D01*
X10274942Y11082389D01*
X10260057Y11072443D01*
X9669359Y10481746D01*
X9650882Y10489399D01*
Y10535000D01*
X9647389Y10552558D01*
X9637443Y10567443D01*
X9457443Y10747443D01*
X9442558Y10757389D01*
X9425000Y10760881D01*
X9119400D01*
X9118655Y10761626D01*
X9098440Y10770000D01*
X9097386D01*
X9009943Y10857443D01*
X8995058Y10867389D01*
X8977500Y10870881D01*
X7526505D01*
X7457500Y10939886D01*
Y10940940D01*
X7449127Y10961155D01*
X7433655Y10976627D01*
X7413440Y10985000D01*
X7391560D01*
X7371345Y10976627D01*
X7355874Y10961155D01*
X7347500Y10940940D01*
Y10919060D01*
X7355874Y10898845D01*
X7371345Y10883373D01*
X7391560Y10875000D01*
X7392614D01*
X7475057Y10792557D01*
X7489942Y10782611D01*
X7507500Y10779118D01*
X8958495D01*
X9032500Y10705113D01*
Y10704060D01*
X9040873Y10683845D01*
X9056345Y10668373D01*
X9076560Y10660000D01*
X9098440D01*
X9118655Y10668373D01*
X9119400Y10669118D01*
X9405995D01*
X9559119Y10515995D01*
Y10384400D01*
X9558374Y10383655D01*
X9550000Y10363440D01*
Y10341560D01*
X9558374Y10321345D01*
X9559119Y10320600D01*
Y10216505D01*
X9382613Y10040000D01*
X9381560D01*
X9361345Y10031627D01*
X9345873Y10016155D01*
X9337500Y9995940D01*
Y9974060D01*
X9345873Y9953845D01*
X9361345Y9938374D01*
X9381560Y9930000D01*
X9403440D01*
X9423655Y9938374D01*
X9439126Y9953845D01*
X9447500Y9974060D01*
Y9975114D01*
X9637443Y10165057D01*
X9647389Y10179942D01*
X9650882Y10197500D01*
Y10320600D01*
X9651627Y10321345D01*
X9660000Y10341560D01*
Y10342614D01*
X10311505Y10994118D01*
X10618100D01*
X10618845Y10993373D01*
X10639060Y10985000D01*
X10660940D01*
X10681155Y10993373D01*
X10696627Y11008845D01*
X10705000Y11029060D01*
Y11050940D01*
X10696627Y11071155D01*
X10681155Y11086627D01*
X10660940Y11095000D01*
D02*
G37*
G36*
X11966743D02*
X11933257D01*
X11900413Y11088467D01*
X11869475Y11075652D01*
X11841631Y11057047D01*
X11817952Y11033369D01*
X11799348Y11005525D01*
X11786533Y10974587D01*
X11780000Y10941743D01*
Y10908257D01*
X11786533Y10875413D01*
X11799348Y10844475D01*
X11817952Y10816631D01*
X11841631Y10792953D01*
X11869475Y10774348D01*
X11900413Y10761533D01*
X11933257Y10755000D01*
X11966743D01*
X11999587Y10761533D01*
X12030525Y10774348D01*
X12058369Y10792953D01*
X12082047Y10816631D01*
X12100652Y10844475D01*
X12113467Y10875413D01*
X12120000Y10908257D01*
Y10941743D01*
X12113467Y10974587D01*
X12100652Y11005525D01*
X12082047Y11033369D01*
X12058369Y11057047D01*
X12030525Y11075652D01*
X11999587Y11088467D01*
X11966743Y11095000D01*
D02*
G37*
G36*
X9746744Y11090000D02*
X9713257D01*
X9680413Y11083467D01*
X9649475Y11070652D01*
X9621632Y11052047D01*
X9597953Y11028369D01*
X9579348Y11000525D01*
X9566533Y10969587D01*
X9560000Y10936743D01*
Y10903257D01*
X9566533Y10870413D01*
X9579348Y10839475D01*
X9597953Y10811631D01*
X9621632Y10787953D01*
X9649475Y10769348D01*
X9680413Y10756533D01*
X9713257Y10750000D01*
X9746744D01*
X9779587Y10756533D01*
X9810525Y10769348D01*
X9838369Y10787953D01*
X9862048Y10811631D01*
X9880652Y10839475D01*
X9893467Y10870413D01*
X9900000Y10903257D01*
Y10936743D01*
X9893467Y10969587D01*
X9880652Y11000525D01*
X9862048Y11028369D01*
X9838369Y11052047D01*
X9810525Y11070652D01*
X9779587Y11083467D01*
X9746744Y11090000D01*
D02*
G37*
G36*
X11697943Y10414000D02*
X11677057D01*
X11657761Y10406007D01*
X11642992Y10391239D01*
X11635000Y10371943D01*
Y10351057D01*
X11642992Y10331761D01*
X11657761Y10316992D01*
X11677057Y10309000D01*
X11697943D01*
X11717239Y10316992D01*
X11732007Y10331761D01*
X11740000Y10351057D01*
Y10371943D01*
X11732007Y10391239D01*
X11717239Y10406007D01*
X11697943Y10414000D01*
D02*
G37*
G36*
X8468440Y10257500D02*
X8446560D01*
X8426345Y10249127D01*
X8412806Y10235588D01*
X8355001D01*
X8355000Y10235588D01*
X8343295Y10233259D01*
X8333371Y10226629D01*
X8333371Y10226628D01*
X8279007Y10172265D01*
X8278440Y10172500D01*
X8256560D01*
X8236345Y10164126D01*
X8220874Y10148655D01*
X8212500Y10128440D01*
Y10106560D01*
X8220874Y10086345D01*
X8236345Y10070873D01*
X8256560Y10062500D01*
X8278440D01*
X8298655Y10070873D01*
X8314127Y10086345D01*
X8322500Y10106560D01*
Y10128440D01*
X8322265Y10129007D01*
X8367670Y10174412D01*
X8409603D01*
X8410873Y10171345D01*
X8426345Y10155874D01*
X8446560Y10147500D01*
X8468440D01*
X8488655Y10155874D01*
X8504127Y10171345D01*
X8512500Y10191560D01*
Y10213440D01*
X8504127Y10233655D01*
X8488655Y10249127D01*
X8468440Y10257500D01*
D02*
G37*
G36*
X11750940Y10222500D02*
X11729060D01*
X11708845Y10214127D01*
X11693373Y10198655D01*
X11685000Y10178440D01*
Y10156560D01*
X11693373Y10136345D01*
X11708845Y10120874D01*
X11729060Y10112500D01*
X11744533D01*
X11774314Y10082718D01*
Y9984782D01*
X11764532Y9975000D01*
X11749060D01*
X11728845Y9966626D01*
X11713374Y9951155D01*
X11705000Y9930940D01*
Y9909060D01*
X11713374Y9888845D01*
X11728845Y9873373D01*
X11749060Y9865000D01*
X11770940D01*
X11791155Y9873373D01*
X11806627Y9888845D01*
X11815000Y9909060D01*
Y9924533D01*
X11835234Y9944766D01*
X11842969Y9956344D01*
X11845686Y9970000D01*
Y10097500D01*
X11842969Y10111156D01*
X11835234Y10122734D01*
X11795000Y10162967D01*
Y10178440D01*
X11786626Y10198655D01*
X11771155Y10214127D01*
X11750940Y10222500D01*
D02*
G37*
G36*
X10008440Y10272500D02*
X9986560D01*
X9966345Y10264127D01*
X9950873Y10248655D01*
X9942500Y10228440D01*
Y10206560D01*
X9950873Y10186345D01*
X9966345Y10170873D01*
X9966912Y10170639D01*
Y10122670D01*
X9664007Y9819765D01*
X9663440Y9820000D01*
X9641560D01*
X9621345Y9811627D01*
X9605874Y9796155D01*
X9597500Y9775940D01*
Y9754060D01*
X9605874Y9733845D01*
X9621345Y9718374D01*
X9641560Y9710000D01*
X9663440D01*
X9683655Y9718374D01*
X9699127Y9733845D01*
X9707500Y9754060D01*
Y9775940D01*
X9707265Y9776507D01*
X10019128Y10088370D01*
X10019129Y10088371D01*
X10025759Y10098295D01*
X10028088Y10110000D01*
X10028088Y10110001D01*
Y10170639D01*
X10028655Y10170873D01*
X10044126Y10186345D01*
X10052500Y10206560D01*
Y10228440D01*
X10044126Y10248655D01*
X10028655Y10264127D01*
X10008440Y10272500D01*
D02*
G37*
G36*
X11697943Y9836000D02*
X11677057D01*
X11657761Y9828007D01*
X11642992Y9813239D01*
X11635000Y9793943D01*
Y9773057D01*
X11642992Y9753761D01*
X11657761Y9738992D01*
X11677057Y9731000D01*
X11697943D01*
X11717239Y9738992D01*
X11732007Y9753761D01*
X11740000Y9773057D01*
Y9793943D01*
X11732007Y9813239D01*
X11717239Y9828007D01*
X11697943Y9836000D01*
D02*
G37*
G36*
X7710861Y9427500D02*
X7689139D01*
X7668156Y9421878D01*
X7649344Y9411016D01*
X7633984Y9395656D01*
X7623122Y9376844D01*
X7617500Y9355861D01*
Y9334139D01*
X7623122Y9313156D01*
X7633984Y9294344D01*
X7649344Y9278983D01*
X7668156Y9268122D01*
X7689139Y9262500D01*
X7710861D01*
X7731844Y9268122D01*
X7750656Y9278983D01*
X7766016Y9294344D01*
X7776878Y9313156D01*
X7782500Y9334139D01*
Y9355861D01*
X7776878Y9376844D01*
X7766016Y9395656D01*
X7750656Y9411016D01*
X7731844Y9421878D01*
X7710861Y9427500D01*
D02*
G37*
G36*
X7709216Y8670000D02*
X7690784D01*
X7672981Y8665229D01*
X7657019Y8656014D01*
X7643986Y8642981D01*
X7634771Y8627019D01*
X7630000Y8609215D01*
Y8590784D01*
X7634771Y8572981D01*
X7643986Y8557019D01*
X7657019Y8543986D01*
X7672981Y8534770D01*
X7690784Y8530000D01*
X7709216D01*
X7727019Y8534770D01*
X7742981Y8543986D01*
X7756014Y8557019D01*
X7765230Y8572981D01*
X7770000Y8590784D01*
Y8609215D01*
X7765230Y8627019D01*
X7756014Y8642981D01*
X7742981Y8656014D01*
X7727019Y8665229D01*
X7709216Y8670000D01*
D02*
G37*
G36*
X8163440Y9085000D02*
X8141560D01*
X8121345Y9076626D01*
X8105874Y9061155D01*
X8097500Y9040940D01*
Y9019060D01*
X8104119Y9003082D01*
Y7696900D01*
X8100874Y7693655D01*
X8092500Y7673440D01*
Y7651560D01*
X8100874Y7631345D01*
X8116345Y7615874D01*
X8136560Y7607500D01*
X8158440D01*
X8178655Y7615874D01*
X8180492Y7617711D01*
X8187568Y7619118D01*
X8798100D01*
X8798845Y7618373D01*
X8819060Y7610000D01*
X8840940D01*
X8861155Y7618373D01*
X8861900Y7619118D01*
X9202500D01*
X9220058Y7622611D01*
X9234943Y7632557D01*
X9374887Y7772500D01*
X9375940D01*
X9396155Y7780873D01*
X9396900Y7781618D01*
X10125000D01*
X10142558Y7785111D01*
X10157443Y7795057D01*
X10396505Y8034119D01*
X10579419D01*
X10583397Y8014119D01*
X10571345Y8009126D01*
X10555873Y7993655D01*
X10547500Y7973440D01*
Y7951560D01*
X10547735Y7950993D01*
X9904830Y7308088D01*
X9561861D01*
X9561627Y7308655D01*
X9546155Y7324127D01*
X9525940Y7332500D01*
X9504060D01*
X9483845Y7324127D01*
X9468373Y7308655D01*
X9460000Y7288440D01*
Y7266560D01*
X9468373Y7246345D01*
X9483845Y7230874D01*
X9504060Y7222500D01*
X9525940D01*
X9546155Y7230874D01*
X9561627Y7246345D01*
X9561861Y7246912D01*
X9917499D01*
X9917500Y7246912D01*
X9929205Y7249241D01*
X9939129Y7255871D01*
X10590993Y7907735D01*
X10591560Y7907500D01*
X10613440D01*
X10633655Y7915873D01*
X10644118Y7926337D01*
X10664118Y7919254D01*
Y7861900D01*
X10663373Y7861155D01*
X10655000Y7840940D01*
Y7819060D01*
X10663373Y7798845D01*
X10678845Y7783374D01*
X10699060Y7775000D01*
X10720940D01*
X10741155Y7783374D01*
X10744400Y7786619D01*
X11040582D01*
X11056560Y7780000D01*
X11078440D01*
X11098655Y7788374D01*
X11114127Y7803845D01*
X11122500Y7824060D01*
Y7845940D01*
X11114127Y7866155D01*
X11098655Y7881627D01*
X11078440Y7890000D01*
X11056560D01*
X11036345Y7881627D01*
X11033100Y7878382D01*
X10755881D01*
Y8015000D01*
X10752389Y8032558D01*
X10742443Y8047443D01*
X10677443Y8112443D01*
X10662558Y8122389D01*
X10645000Y8125882D01*
X10377500D01*
X10359942Y8122389D01*
X10345057Y8112443D01*
X10105995Y7873382D01*
X9396900D01*
X9396155Y7874126D01*
X9375940Y7882500D01*
X9354060D01*
X9333845Y7874126D01*
X9318374Y7858655D01*
X9310000Y7838440D01*
Y7837386D01*
X9183495Y7710881D01*
X8861900D01*
X8861155Y7711626D01*
X8840940Y7720000D01*
X8819060D01*
X8798845Y7711626D01*
X8798100Y7710881D01*
X8195882D01*
Y8995600D01*
X8199127Y8998845D01*
X8207500Y9019060D01*
Y9040940D01*
X8199127Y9061155D01*
X8183655Y9076626D01*
X8163440Y9085000D01*
D02*
G37*
G36*
X7198348Y7322000D02*
X7164861D01*
X7132018Y7315467D01*
X7101080Y7302652D01*
X7073236Y7284048D01*
X7049557Y7260369D01*
X7030953Y7232525D01*
X7018138Y7201587D01*
X7011605Y7168744D01*
Y7135257D01*
X7018138Y7102413D01*
X7030953Y7071475D01*
X7049557Y7043632D01*
X7073236Y7019953D01*
X7101080Y7001348D01*
X7132018Y6988533D01*
X7164861Y6982000D01*
X7198348D01*
X7231192Y6988533D01*
X7262130Y7001348D01*
X7289973Y7019953D01*
X7313652Y7043632D01*
X7332257Y7071475D01*
X7345072Y7102413D01*
X7351605Y7135257D01*
Y7168744D01*
X7345072Y7201587D01*
X7332257Y7232525D01*
X7313652Y7260369D01*
X7289973Y7284048D01*
X7262130Y7302652D01*
X7231192Y7315467D01*
X7198348Y7322000D01*
D02*
G37*
G36*
X11966743Y7320000D02*
X11933257D01*
X11900413Y7313467D01*
X11869475Y7300652D01*
X11841631Y7282047D01*
X11817952Y7258369D01*
X11799348Y7230525D01*
X11786533Y7199587D01*
X11780000Y7166743D01*
Y7133256D01*
X11786533Y7100413D01*
X11799348Y7069475D01*
X11817952Y7041631D01*
X11841631Y7017952D01*
X11869475Y6999348D01*
X11900413Y6986533D01*
X11933257Y6980000D01*
X11966743D01*
X11999587Y6986533D01*
X12030525Y6999348D01*
X12058369Y7017952D01*
X12082047Y7041631D01*
X12100652Y7069475D01*
X12113467Y7100413D01*
X12120000Y7133256D01*
Y7166743D01*
X12113467Y7199587D01*
X12100652Y7230525D01*
X12082047Y7258369D01*
X12058369Y7282047D01*
X12030525Y7300652D01*
X11999587Y7313467D01*
X11966743Y7320000D01*
D02*
G37*
%LPD*%
D10*
X9605000Y10352500D02*
X10292500Y11040000D01*
X10650000D01*
X7402500Y10930000D02*
X7507500Y10825000D01*
X8977500D02*
X9087500Y10715000D01*
X7507500Y10825000D02*
X8977500D01*
X9087500Y10715000D02*
X9425000D01*
X9605000Y10352500D02*
Y10535000D01*
X9425000Y10715000D02*
X9605000Y10535000D01*
X9392500Y9985000D02*
X9605000Y10197500D01*
Y10352500D01*
X8150000Y7665000D02*
Y9027500D01*
X8152500Y9030000D01*
X8147500Y7662500D02*
X8150000Y7665000D01*
X8147500Y7662500D02*
X8175000D01*
X8177500Y7665000D01*
X8830000D01*
X9202500D01*
X9365000Y7827500D01*
X10125000D01*
X10377500Y8080000D02*
X10645000D01*
X10125000Y7827500D02*
X10377500Y8080000D01*
X10710000Y7830000D02*
Y8015000D01*
X10645000Y8080000D02*
X10710000Y8015000D01*
X11065000Y7832500D02*
X11067500Y7835000D01*
X10710000Y7830000D02*
X10712500Y7832500D01*
X11065000D01*
D41*
X9917500Y7277500D02*
X10602500Y7962500D01*
X9652500Y9765000D02*
X9997500Y10110000D01*
Y10217500D01*
X9515000Y7277500D02*
X9917500D01*
X8455000Y10205000D02*
X8457500Y10202500D01*
X8355000Y10205000D02*
X8455000D01*
X8267500Y10117500D02*
X8355000Y10205000D01*
D42*
X11760000Y9920000D02*
Y9920000D01*
X11810000Y9970000D01*
X11740000Y10167500D02*
X11810000Y10097500D01*
Y9970000D02*
Y10097500D01*
D45*
X7700000Y8600000D02*
D03*
D46*
Y9345000D02*
D03*
D47*
X11687500Y10361500D02*
D03*
Y9783500D02*
D03*
D48*
X9730000Y10920000D02*
D03*
X11950000Y10925000D02*
D03*
Y7150000D02*
D03*
X7181605Y7152000D02*
D03*
D49*
X11680000Y9160000D02*
D03*
X10160000Y9970000D02*
D03*
X10650000Y11040000D02*
D03*
X8670000Y9117500D02*
D03*
X11550000Y9370000D02*
D03*
X11457500Y10427500D02*
D03*
X8722500Y9932500D02*
D03*
X7402500Y10930000D02*
D03*
X9087500Y10715000D02*
D03*
X9605000Y10352500D02*
D03*
X9400000Y10175000D02*
D03*
Y10500000D02*
D03*
X9392500Y9985000D02*
D03*
X8152500Y9030000D02*
D03*
X8147500Y7662500D02*
D03*
X8830000Y7665000D02*
D03*
X9365000Y7827500D02*
D03*
X10602500Y7962500D02*
D03*
X10500000Y8200000D02*
D03*
X11067500Y7835000D02*
D03*
X10710000Y7830000D02*
D03*
X7697500Y7807500D02*
D03*
X8697500Y7800000D02*
D03*
X11060000Y10720000D02*
D03*
Y10080000D02*
D03*
X10910000Y9210000D02*
D03*
X11360000Y9120000D02*
D03*
X11660000Y8870000D02*
D03*
Y8980000D02*
D03*
X11930000Y8720000D02*
D03*
X11940000Y8300000D02*
D03*
X11350000Y7525000D02*
D03*
X9875000D02*
D03*
X10200000Y8125000D02*
D03*
X9475000Y9700000D02*
D03*
X9652500Y9765000D02*
D03*
X8375000Y7175000D02*
D03*
X7700000Y7200000D02*
D03*
X9050000D02*
D03*
X8725000Y8325000D02*
D03*
X8575000Y8450000D02*
D03*
X7800000Y10425000D02*
D03*
X8625000Y10675000D02*
D03*
X8475000Y10650000D02*
D03*
X10547500Y9150000D02*
D03*
X9325000Y9425000D02*
D03*
X10100000Y8075000D02*
D03*
X9325000Y8825000D02*
D03*
X9997500Y10217500D02*
D03*
X9515000Y7277500D02*
D03*
X11760000Y9920000D02*
D03*
X11740000Y10167500D02*
D03*
X8457500Y10202500D02*
D03*
X8267500Y10117500D02*
D03*
D50*
X9680000Y9020000D02*
D03*
X9790000D02*
D03*
X9900000D02*
D03*
X10010000D02*
D03*
X10120000D02*
D03*
X9680000Y8910000D02*
D03*
X9790000D02*
D03*
X9900000D02*
D03*
X10010000D02*
D03*
X10120000D02*
D03*
X9680000Y8800000D02*
D03*
X9790000D02*
D03*
X9900000D02*
D03*
X10010000D02*
D03*
X10120000D02*
D03*
X9680000Y8690000D02*
D03*
X9790000D02*
D03*
X9900000D02*
D03*
X10010000D02*
D03*
X10120000D02*
D03*
X9680000Y8580000D02*
D03*
X9790000D02*
D03*
X9900000D02*
D03*
X10010000D02*
D03*
X10120000D02*
D03*
X8902500Y10195000D02*
D03*
Y10305000D02*
D03*
X8792500D02*
D03*
Y10195000D02*
D03*
%TF.MD5,eed8c3f603d71d60bd02a4c7bda3598a*%
M02*
