%TF.GenerationSoftware,Altium Limited,Altium Designer,24.5.2 (23)*%
G04 Layer_Physical_Order=1*
G04 Layer_Color=255*
%FSLAX45Y45*%
%MOMM*%
%TF.SameCoordinates,DE48C8CA-727C-43F3-B7AC-81352024B8C0*%
%TF.FilePolarity,Positive*%
%TF.FileFunction,Copper,L1,Top,Signal*%
%TF.Part,Single*%
G01*
G75*
%TA.AperFunction,Conductor*%
%ADD10C,0.50000*%
%TA.AperFunction,SMDPad,CuDef*%
%ADD11R,2.30000X4.50000*%
%TA.AperFunction,ConnectorPad*%
%ADD12R,2.00000X2.18000*%
%ADD13R,1.00000X0.60000*%
%ADD14R,1.15000X0.60000*%
%ADD15R,1.15000X0.30000*%
%TA.AperFunction,SMDPad,CuDef*%
%ADD16R,1.30464X1.45620*%
%ADD17R,1.40000X0.95000*%
%ADD18O,0.80000X0.25000*%
%ADD19O,0.25000X0.80000*%
%ADD20R,5.60000X5.60000*%
%ADD21R,1.25000X1.50000*%
%ADD22R,4.50000X1.50400*%
%TA.AperFunction,ConnectorPad*%
%ADD23R,1.00000X2.55000*%
%TA.AperFunction,SMDPad,CuDef*%
%ADD24R,1.70000X1.70000*%
%ADD25R,1.50822X1.20651*%
%ADD26R,0.95000X1.40000*%
%ADD27R,0.90000X1.50000*%
%ADD28R,1.20651X1.50822*%
%ADD29R,1.45620X1.30464*%
%ADD30R,0.30000X0.80000*%
%ADD31R,0.85000X0.30000*%
%ADD32R,2.60000X2.70000*%
%ADD33R,1.00000X1.25000*%
%ADD34R,1.45490X1.55620*%
%ADD35R,1.20000X1.20000*%
%ADD36R,1.00000X3.10000*%
%ADD37R,1.20000X1.40000*%
%ADD38R,3.56000X1.27000*%
%ADD39R,1.80000X3.30000*%
%ADD40R,0.80000X2.40000*%
%TA.AperFunction,Conductor*%
%ADD41C,0.20000*%
%ADD42C,0.30000*%
%ADD43C,0.25000*%
%ADD44C,0.26721*%
%TA.AperFunction,ComponentPad*%
%ADD45C,1.00000*%
%ADD46C,1.25000*%
%ADD47C,0.65000*%
%TA.AperFunction,ViaPad*%
%ADD48C,3.00000*%
%ADD49C,0.70000*%
%ADD50C,0.50000*%
G36*
X11047500Y10790000D02*
X11285000D01*
X11305000Y10770000D01*
Y10662500D01*
X11290000Y10647500D01*
X11057500D01*
X11005000Y10595000D01*
Y10222500D01*
X11080000Y10147500D01*
X11285000D01*
X11302500Y10130000D01*
Y10020000D01*
X11282500Y10000000D01*
X11022500D01*
X10965000Y10057500D01*
Y10725000D01*
X11032500Y10792500D01*
X11047500Y10790000D01*
D02*
G37*
G36*
X11502500Y9862500D02*
X11640000D01*
Y9806014D01*
X11638544Y9802500D01*
X11598447D01*
X11595000Y9803185D01*
X11591552Y9802500D01*
X11510000D01*
Y9800000D01*
X11455000D01*
X11372500Y9717500D01*
Y9550000D01*
X11340000Y9517500D01*
Y9297500D01*
X11200000D01*
X11192500Y9305000D01*
Y9502500D01*
X11207500Y9517500D01*
Y9787500D01*
X11340000D01*
X11417500Y9865000D01*
X11502500D01*
Y9862500D01*
D02*
G37*
G36*
X10985000Y9465000D02*
Y9305000D01*
X10955000Y9275000D01*
X10962500Y9267500D01*
Y9180000D01*
X10932500Y9150000D01*
X10877500D01*
X10827500Y9200000D01*
Y9450000D01*
X10845000Y9467500D01*
X10983964D01*
X10985000Y9465000D01*
D02*
G37*
G36*
X11180000Y9750000D02*
Y9485000D01*
X11152500Y9457500D01*
Y8837500D01*
X10995000D01*
Y9265000D01*
X11015000Y9285000D01*
Y9747500D01*
X11020000Y9752500D01*
X11177500D01*
X11180000Y9750000D01*
D02*
G37*
G36*
X11596477Y9782500D02*
X11598447Y9782108D01*
X11635000D01*
Y9773057D01*
X11642992Y9753761D01*
X11657761Y9738992D01*
X11672952Y9732700D01*
X11670426Y9720000D01*
X11507500D01*
X11492500Y9705000D01*
Y9442500D01*
X11520000Y9415000D01*
X11617500D01*
X11627500Y9405000D01*
Y9300000D01*
X11605000Y9277500D01*
X11500000D01*
X11427500Y9205000D01*
Y9087500D01*
X11460000Y9055000D01*
X11682500D01*
X11725000Y9012500D01*
Y8852500D01*
X11720000Y8847500D01*
X11760000Y8807500D01*
X11992500D01*
X12040000Y8760000D01*
Y8292500D01*
X11972500Y8225000D01*
X11717500D01*
X11700000Y8242500D01*
Y8365000D01*
X11727500Y8392500D01*
X11885000D01*
X11935000Y8442500D01*
Y8612500D01*
X11890000Y8657500D01*
X11735000D01*
X11715000Y8677500D01*
Y8770000D01*
X11677500Y8807500D01*
X11497500D01*
X11452500Y8852500D01*
Y8997500D01*
X11400000Y9050000D01*
X11205000D01*
X11195000Y9060000D01*
Y9195000D01*
X11210000Y9210000D01*
X11315000D01*
X11360000Y9255000D01*
Y9295530D01*
X11360392Y9297500D01*
Y9470392D01*
X11452500Y9562500D01*
Y9720000D01*
X11512632Y9780132D01*
X11517804Y9781160D01*
X11519222Y9782108D01*
X11591552D01*
X11593522Y9782500D01*
X11595000D01*
X11596477D01*
D02*
G37*
G36*
X11375000Y9002500D02*
Y8857500D01*
X11635000Y8597500D01*
X11862500D01*
X11876250Y8583750D01*
Y8488750D01*
X11867500Y8480000D01*
X11690000D01*
X11535000Y8325000D01*
Y8187500D01*
X11530000Y8182500D01*
X11405000D01*
X11385000Y8162500D01*
Y8007500D01*
X11370000Y7992500D01*
X11235000D01*
X11222500Y8005000D01*
Y8162500D01*
X11212500Y8172500D01*
X11072500D01*
X11055000Y8190000D01*
Y8347500D01*
X11070000Y8362500D01*
X11195000D01*
X11225000Y8392500D01*
Y9012500D01*
X11365000D01*
X11375000Y9002500D01*
D02*
G37*
D10*
X9325000Y8742500D02*
G03*
X9350000Y8717500I25000J0D01*
G01*
X7401250Y10928750D02*
X7402500Y10930000D01*
X7401250Y10643750D02*
Y10928750D01*
X7400625Y10643125D02*
X7401250Y10643750D01*
X7716000Y9754000D02*
X8726500D01*
X7700000Y9770000D02*
X7716000Y9754000D01*
X10655000Y11040000D02*
X10742500Y10952500D01*
X10650000Y11040000D02*
X10655000D01*
X10472500Y9287500D02*
X10570000Y9385000D01*
Y9755281D02*
X10640000Y9825281D01*
X10570000Y9385000D02*
Y9755281D01*
X10412468Y9227468D02*
X10434968D01*
X10472500Y9265000D01*
Y9287500D01*
X10779000Y10615000D02*
Y10720000D01*
X10640000Y10476000D02*
X10779000Y10615000D01*
X10640000Y9825281D02*
Y10476000D01*
X8952925Y10665425D02*
X8975426Y10687926D01*
X9055013D01*
X9082088Y10715000D02*
X9087500D01*
X8952925Y10642925D02*
Y10665425D01*
X9055013Y10687926D02*
X9082088Y10715000D01*
X9603707Y10351207D02*
X9605000Y10352500D01*
X9602414Y10180000D02*
X9603707Y10181293D01*
Y10351207D01*
X9252925Y9990425D02*
X9255638Y9987713D01*
X9389787D01*
X9392500Y9985000D01*
X9330000Y9567500D02*
X9510000D01*
X9517500Y9560000D01*
X9252925Y9644575D02*
Y9990425D01*
Y9644575D02*
X9330000Y9567500D01*
X9137500Y9987500D02*
X9227500D01*
X9090000Y9940000D02*
X9137500Y9987500D01*
X9022500Y9627500D02*
X9090000Y9695000D01*
Y9940000D01*
X8723000Y9242500D02*
X8726500D01*
X8788000Y9627500D02*
X9022500D01*
X8726500Y9566000D02*
X8788000Y9627500D01*
X8726500Y9246000D02*
Y9566000D01*
X8365000Y9242500D02*
X8723000D01*
X8152500Y9030000D02*
X8365000Y9242500D01*
X9365000Y7827500D02*
Y8340000D01*
X7978977Y7611477D02*
Y7624688D01*
X8016789Y7662500D01*
X8147500D01*
X8735000Y7517500D02*
X8775000D01*
X8732500Y7515000D02*
X8735000Y7517500D01*
X8775000D02*
X8826173Y7568673D01*
Y7661173D02*
X8830000Y7665000D01*
X8826173Y7568673D02*
Y7661173D01*
X9237500Y7827500D02*
X9365000D01*
Y7822088D02*
Y7827500D01*
X9297500Y7754588D02*
X9365000Y7822088D01*
X9297500Y7690000D02*
Y7754588D01*
X10500000Y8200000D02*
Y8380000D01*
X11067500Y7837500D02*
X11305000Y8075000D01*
X11067500Y7835000D02*
Y7837500D01*
X10707500Y7827500D02*
X10710000Y7830000D01*
X10482500Y7827500D02*
X10707500D01*
X9325000Y9425000D02*
X9375000Y9375000D01*
Y9260000D02*
Y9375000D01*
X10096173Y8078827D02*
X10100000Y8075000D01*
X9942500Y8116344D02*
X9980017Y8078827D01*
X10096173D01*
X9325000Y8742500D02*
Y8825000D01*
X9146500Y9281000D02*
X9352500Y9075000D01*
X9520000Y9370000D02*
X9522500Y9367500D01*
X9520000Y9370000D02*
Y9557500D01*
X9517500Y9560000D02*
X9520000Y9557500D01*
X9707500Y9367500D02*
X9712500Y9372500D01*
Y9555000D01*
X9717500Y9560000D01*
X9146500Y9281000D02*
Y9461500D01*
X9108000Y9500000D02*
X9146500Y9461500D01*
X9352500Y9075000D02*
X9375000D01*
X8993500Y9500000D02*
X9108000D01*
D11*
X7700000Y8130000D02*
D03*
Y9770000D02*
D03*
D12*
X12030500Y9561500D02*
D03*
Y10583500D02*
D03*
X11637500Y9561500D02*
D03*
Y10583500D02*
D03*
D13*
X11580000Y9752500D02*
D03*
Y10392500D02*
D03*
D14*
Y9832500D02*
D03*
Y10312500D02*
D03*
D15*
Y9897500D02*
D03*
Y9947500D02*
D03*
Y9997500D02*
D03*
Y10047500D02*
D03*
Y10097500D02*
D03*
Y10147500D02*
D03*
Y10197500D02*
D03*
Y10247500D02*
D03*
D16*
X11264422Y9382500D02*
D03*
X11425578D02*
D03*
X11083078Y9385000D02*
D03*
X10921922D02*
D03*
D17*
X9252925Y10310425D02*
D03*
Y10495425D02*
D03*
X9350000Y8532500D02*
D03*
Y8717500D02*
D03*
X8847500Y7980000D02*
D03*
Y7795000D02*
D03*
X9252925Y9990425D02*
D03*
Y10175425D02*
D03*
X9375000Y9075000D02*
D03*
Y9260000D02*
D03*
X11795000Y8537414D02*
D03*
Y8722414D02*
D03*
X10427500Y9057500D02*
D03*
Y9242500D02*
D03*
D18*
X9560000Y9075000D02*
D03*
Y9025000D02*
D03*
Y8975000D02*
D03*
Y8925000D02*
D03*
Y8875000D02*
D03*
Y8825000D02*
D03*
Y8775000D02*
D03*
Y8725000D02*
D03*
Y8675000D02*
D03*
Y8625000D02*
D03*
Y8575000D02*
D03*
Y8525000D02*
D03*
X10240000D02*
D03*
Y8575000D02*
D03*
Y8625000D02*
D03*
Y8675000D02*
D03*
Y8725000D02*
D03*
Y8775000D02*
D03*
Y8825000D02*
D03*
Y8875000D02*
D03*
Y8925000D02*
D03*
Y8975000D02*
D03*
Y9025000D02*
D03*
Y9075000D02*
D03*
D19*
X9625000Y8460000D02*
D03*
X9675000D02*
D03*
X9725000D02*
D03*
X9775000D02*
D03*
X9825000D02*
D03*
X9875000D02*
D03*
X9925000D02*
D03*
X9975000D02*
D03*
X10025000D02*
D03*
X10075000D02*
D03*
X10125000D02*
D03*
X10175000D02*
D03*
Y9140000D02*
D03*
X10125000D02*
D03*
X10075000D02*
D03*
X10025000D02*
D03*
X9975000D02*
D03*
X9925000D02*
D03*
X9875000D02*
D03*
X9825000D02*
D03*
X9775000D02*
D03*
X9725000D02*
D03*
X9675000D02*
D03*
X9625000D02*
D03*
D20*
X9900000Y8800000D02*
D03*
D21*
X11528575Y8924500D02*
D03*
X11299575D02*
D03*
X11070575D02*
D03*
D22*
X11299575Y8265500D02*
D03*
D23*
X7800625Y10643125D02*
D03*
X7600625D02*
D03*
X7400625D02*
D03*
D24*
X7110625Y10990625D02*
D03*
X8090625D02*
D03*
D25*
X9100000Y7822414D02*
D03*
Y8032586D02*
D03*
X9050000Y8544914D02*
D03*
Y8755086D02*
D03*
X11210164Y10507590D02*
D03*
Y10717761D02*
D03*
X11210000Y10287586D02*
D03*
Y10077414D02*
D03*
X11795000Y8094829D02*
D03*
Y8305000D02*
D03*
D26*
X9005000Y8997500D02*
D03*
X8820000D02*
D03*
X9042500Y8325000D02*
D03*
X8857500D02*
D03*
X8952925Y10642925D02*
D03*
X8767926D02*
D03*
X9522500Y9367500D02*
D03*
X9707500D02*
D03*
X10320000Y8262500D02*
D03*
X10135000D02*
D03*
X11072500Y9130000D02*
D03*
X11257500D02*
D03*
D27*
X9305000Y7025000D02*
D03*
X8975000D02*
D03*
Y7515000D02*
D03*
X9305000D02*
D03*
X8645000Y7015000D02*
D03*
X8315000D02*
D03*
Y7505000D02*
D03*
X8645000D02*
D03*
X7978977Y7505000D02*
D03*
X7648977D02*
D03*
Y7015000D02*
D03*
X7978977D02*
D03*
D28*
X8545086Y11017500D02*
D03*
X8334914D02*
D03*
X9812585Y10180000D02*
D03*
X9602414D02*
D03*
X9817586Y9920000D02*
D03*
X9607414D02*
D03*
X10710171Y8380000D02*
D03*
X10500000D02*
D03*
D29*
X8440426Y10342925D02*
D03*
Y10504082D02*
D03*
X9942500Y8277500D02*
D03*
Y8116344D02*
D03*
D30*
X8722500Y10050000D02*
D03*
X8772500D02*
D03*
X8822500D02*
D03*
X8872500D02*
D03*
X8922500D02*
D03*
X8972500D02*
D03*
X8722500Y10450000D02*
D03*
X8772500D02*
D03*
X8822500D02*
D03*
X8872500D02*
D03*
X8922500D02*
D03*
X8972500D02*
D03*
D31*
X9045000Y10125000D02*
D03*
Y10175000D02*
D03*
Y10225000D02*
D03*
Y10275000D02*
D03*
Y10325000D02*
D03*
Y10375000D02*
D03*
X8650000Y10125000D02*
D03*
Y10175000D02*
D03*
Y10225000D02*
D03*
Y10275000D02*
D03*
Y10325000D02*
D03*
Y10375000D02*
D03*
D32*
X8847500Y10250000D02*
D03*
D33*
X9517500Y9560000D02*
D03*
X9717500D02*
D03*
D34*
X11287565Y9660000D02*
D03*
X11102435D02*
D03*
D35*
X11515000Y8075000D02*
D03*
X11305000D02*
D03*
X10665000Y8590000D02*
D03*
X10455000D02*
D03*
D36*
X10779000Y10720000D02*
D03*
Y10180000D02*
D03*
X10525000Y10720000D02*
D03*
X10271000D02*
D03*
X10525000Y10180000D02*
D03*
X10271000D02*
D03*
D37*
X8857500Y8777500D02*
D03*
Y8557500D02*
D03*
X8687500D02*
D03*
Y8777500D02*
D03*
D38*
X8726500Y9754000D02*
D03*
X8993500Y9500000D02*
D03*
X8726500Y9246000D02*
D03*
D39*
X11552500Y7587500D02*
D03*
X9682500D02*
D03*
D40*
X11292500Y7082500D02*
D03*
X11142500D02*
D03*
X10992500D02*
D03*
X10842500D02*
D03*
X10692500D02*
D03*
X10542500D02*
D03*
X10392500D02*
D03*
X10242500D02*
D03*
X10092500D02*
D03*
X9942500D02*
D03*
D41*
X9559043Y8575957D02*
X9560000Y8575000D01*
X9526498Y8577467D02*
X9528008Y8575957D01*
X9490000Y8561216D02*
X9506251Y8577467D01*
X9528008Y8575957D02*
X9559043D01*
X9490000Y7426005D02*
Y8561216D01*
X9506251Y8577467D02*
X9526498D01*
X10090000Y10350000D02*
X10271000Y10531000D01*
X10090000Y9365000D02*
Y10350000D01*
X10025000Y9300000D02*
X10090000Y9365000D01*
X10645000Y9715000D02*
X10779000Y9849000D01*
X10645000Y9072500D02*
Y9715000D01*
X10779000Y9849000D02*
Y10180000D01*
X10547500Y8975000D02*
X10645000Y9072500D01*
X10492500Y9525000D02*
Y10147500D01*
X10525000Y10180000D01*
X10175000Y9207500D02*
X10492500Y9525000D01*
X10175000Y9140000D02*
Y9207500D01*
X11675000Y9947500D02*
X11850000Y10122500D01*
X11580000Y9947500D02*
X11675000D01*
X11225249Y10507590D02*
X11485339Y10247500D01*
X11580000D01*
X11210164Y10507590D02*
X11225249D01*
X11850000Y10122500D02*
Y10675000D01*
X11737500Y10787500D02*
X11850000Y10675000D01*
X11525000Y10787500D02*
X11737500D01*
X11350000Y10612500D02*
X11525000Y10787500D01*
X11125000Y10612500D02*
X11350000D01*
X11055000Y10542500D02*
X11125000Y10612500D01*
X11055000Y10442586D02*
Y10542500D01*
Y10442586D02*
X11144589Y10352997D01*
Y10337911D02*
Y10352997D01*
Y10337911D02*
X11194914Y10287586D01*
X11210000D01*
X8722500Y9932500D02*
Y10050000D01*
X8722500Y9932500D02*
X8722500Y9932500D01*
X9360000Y10785000D02*
X9703713Y10441287D01*
X9812585Y10180000D02*
Y10437414D01*
X9703713Y9943548D02*
Y10441287D01*
X9392500Y10857500D02*
X9812585Y10437414D01*
X8410000Y10857500D02*
X9392500D01*
X9703713Y9943548D02*
X9727260Y9920000D01*
X10605000Y7965000D02*
Y8465000D01*
X10602500Y7962500D02*
X10605000Y7965000D01*
X10832500Y7322500D02*
Y8622500D01*
X10895000Y7410000D02*
Y8652500D01*
X10357691Y7647309D02*
X10842500Y7162500D01*
X9640570Y9680000D02*
X9757500D01*
X9530000Y9770000D02*
X9550570D01*
X9640570Y9680000D01*
X9495000Y9805000D02*
X9530000Y9770000D01*
X9655000Y9762500D02*
X9731569D01*
X9652500Y9765000D02*
X9655000Y9762500D01*
X9731569D02*
X9837500Y9656568D01*
X9495000Y9805000D02*
Y10580000D01*
X8422500Y10785000D02*
X9360000D01*
X9400000Y10675000D02*
X9495000Y10580000D01*
X9077500Y10542500D02*
X9210000Y10675000D01*
X9400000D01*
X9727260Y9920000D02*
X9817586D01*
X9165411Y8082911D02*
Y8840411D01*
X9225000Y8900000D01*
X9115411Y8420411D02*
Y8494589D01*
X9042500Y8347500D02*
X9115411Y8420411D01*
X9065086Y8544914D02*
X9115411Y8494589D01*
X9042500Y8325000D02*
Y8347500D01*
X9050000Y8544914D02*
X9065086D01*
X9107586Y8805411D02*
Y8855086D01*
X9057260Y8755086D02*
X9107586Y8805411D01*
X9050000Y8755086D02*
X9057260D01*
X9500208Y8825000D02*
X9560000D01*
X9385208Y8940000D02*
X9500208Y8825000D01*
X9192500Y8940000D02*
X9385208D01*
X9107586Y8855086D02*
X9192500Y8940000D01*
X9037414Y8557500D02*
X9050000Y8544914D01*
X8857500Y8557500D02*
X9037414D01*
X9225000Y8900000D02*
X9365000D01*
X9402500Y8980000D02*
X9506543Y8875957D01*
X9007500Y8985000D02*
X9012500Y8980000D01*
X9365000Y8900000D02*
X9490000Y8775000D01*
X9012500Y8980000D02*
X9402500D01*
X8975000Y8890000D02*
X9007500Y8922500D01*
Y8985000D01*
X8732500Y8890000D02*
X8975000D01*
X9005000Y8997500D02*
X9007500Y8995000D01*
Y8985000D02*
Y8995000D01*
X9837500Y9258432D02*
Y9656568D01*
X9825000Y9140000D02*
Y9245931D01*
X9837500Y9258432D01*
X9825000Y8053376D02*
Y8460000D01*
Y8053376D02*
X10231067Y7647309D01*
X10357691D01*
X9725000Y8022500D02*
X10512500Y7235000D01*
X10240000Y8825000D02*
X10817500D01*
X10952500Y7500000D02*
Y8690000D01*
X10817500Y8825000D02*
X10952500Y8690000D01*
X10832500Y7322500D02*
X10992500Y7162500D01*
X9877500Y9257500D02*
X9897500Y9277500D01*
X9817500Y9919914D02*
X9817586Y9920000D01*
X9897500Y9277500D02*
Y9365000D01*
X9834943Y9790057D02*
Y9892643D01*
X9817500Y9910086D02*
X9834943Y9892643D01*
X9875000Y9140000D02*
Y9239363D01*
X9817500Y9910086D02*
Y9919914D01*
X9834943Y9790057D02*
X9945000Y9680000D01*
Y9412500D02*
Y9680000D01*
X9897500Y9365000D02*
X9945000Y9412500D01*
X9877500Y9241863D02*
Y9257500D01*
X9875000Y9239363D02*
X9877500Y9241863D01*
X9775000Y8046807D02*
X10214498Y7607309D01*
X10662537Y7112463D02*
Y7214963D01*
Y7112463D02*
X10692500Y7082500D01*
X10270191Y7607309D02*
X10662537Y7214963D01*
X10214498Y7607309D02*
X10270191D01*
X10895000Y7410000D02*
X11142500Y7162500D01*
X9675000Y7997500D02*
X10362500Y7310000D01*
X10240000Y8575000D02*
X10440000D01*
X9625000Y7955000D02*
X10212500Y7367500D01*
X9560000Y7412573D02*
Y8525000D01*
X11108749Y7346250D02*
X11292500Y7162500D01*
X11106250Y7346250D02*
X11108749D01*
X10952500Y7500000D02*
X11106250Y7346250D01*
X9077500Y10380000D02*
Y10542500D01*
X10435000Y9590000D02*
Y10415000D01*
X9925000Y9140000D02*
Y9242500D01*
X10075000Y9140000D02*
Y9230000D01*
X10435000Y9590000D01*
X9775000Y8046807D02*
Y8460000D01*
X10240000Y8725000D02*
X10730000D01*
X10832500Y8622500D01*
X10240000Y8775000D02*
X10772500D01*
X10895000Y8652500D01*
X9506543Y8875957D02*
X9559043D01*
X9560000Y8875000D01*
X9757500Y9680000D02*
X9797500Y9640000D01*
Y9275000D02*
Y9640000D01*
X9775000Y9252500D02*
X9797500Y9275000D01*
X9775000Y9140000D02*
Y9252500D01*
X10240000Y8625000D02*
X10327573D01*
X10382574Y8680000D01*
X10540000D01*
X10562500Y8657500D01*
Y8507500D02*
Y8657500D01*
Y8507500D02*
X10605000Y8465000D01*
X10240000Y8975000D02*
X10547500D01*
X9725000Y8022500D02*
Y8460000D01*
X9675000Y7997500D02*
Y8460000D01*
X9490000Y8775000D02*
X9560000D01*
X9625000Y7955000D02*
Y8460000D01*
X10025000Y9140000D02*
Y9300000D01*
X10525000Y10505000D02*
Y10720000D01*
X10435000Y10415000D02*
X10525000Y10505000D01*
X9490000Y7426005D02*
X9563505Y7352500D01*
X9620074D01*
X9780073Y7192500D01*
X9912500D01*
X9942500Y7162500D01*
Y7082500D02*
Y7162500D01*
X10271000Y10531000D02*
Y10720000D01*
X9925000Y9242500D02*
X9942500Y9260000D01*
Y9345000D01*
X10015000Y9417500D01*
Y9902500D01*
X9831195Y10086305D02*
X10015000Y9902500D01*
X9831195Y10086305D02*
Y10161390D01*
X9812585Y10180000D02*
X9831195Y10161390D01*
X9560000Y7412573D02*
X9580074Y7392500D01*
X9862500D01*
X10092500Y7162500D01*
Y7082500D02*
Y7162500D01*
X10212500Y7112500D02*
Y7367500D01*
Y7112500D02*
X10242500Y7082500D01*
X9115086Y8032586D02*
X9165411Y8082911D01*
X9100000Y8032586D02*
X9115086D01*
X10440000Y8575000D02*
X10455000Y8590000D01*
X10362500Y7112500D02*
Y7310000D01*
Y7112500D02*
X10392500Y7082500D01*
X10512500Y7112500D02*
Y7235000D01*
Y7112500D02*
X10542500Y7082500D01*
X9072500Y10375000D02*
X9077500Y10380000D01*
X9045000Y10375000D02*
X9072500D01*
X8978587Y8032586D02*
X9100000D01*
X8963502Y8017500D02*
X8978587Y8032586D01*
X8885000Y8017500D02*
X8963502D01*
X11142500Y7082500D02*
Y7162500D01*
X10992500Y7082500D02*
Y7162500D01*
X11292500Y7082500D02*
Y7162500D01*
X10842500Y7082500D02*
Y7162500D01*
X8847500Y7980000D02*
X8885000Y8017500D01*
X8290000Y10652500D02*
X8422500Y10785000D01*
X8290000Y10227500D02*
Y10652500D01*
Y10227500D02*
X8392500Y10125000D01*
X8650000D01*
X7978977Y7045000D02*
X8315000Y7381023D01*
Y7505000D01*
X7978977Y7015000D02*
Y7045000D01*
X8645000Y7015000D02*
Y7045000D01*
X8975000Y7375000D02*
Y7515000D01*
X8645000Y7045000D02*
X8975000Y7375000D01*
X9305000Y7025000D02*
Y7222500D01*
X9360000Y7277500D02*
X9515000D01*
X9305000Y7222500D02*
X9360000Y7277500D01*
X11515000Y8075000D02*
X11775171D01*
X11795000Y8094829D01*
X10665000Y8425171D02*
Y8590000D01*
Y8425171D02*
X10710171Y8380000D01*
X8471030Y10202500D02*
X8498530Y10175000D01*
X8650000D01*
X8457500Y10202500D02*
X8471030D01*
X8265000Y10120000D02*
X8267500Y10117500D01*
X8255000Y10120000D02*
X8265000D01*
X8227500Y10147500D02*
X8255000Y10120000D01*
X8227500Y10147500D02*
Y10675000D01*
X8410000Y10857500D01*
X8715000Y8872500D02*
X8732500Y8890000D01*
X8715000Y8805000D02*
Y8872500D01*
X8687500Y8777500D02*
X8715000Y8805000D01*
D42*
X7800000Y10642500D02*
X7800625Y10643125D01*
X7800000Y10425000D02*
Y10642500D01*
X7697500Y7807500D02*
Y8127500D01*
X7700000Y8130000D01*
X10160000Y9970000D02*
X10166000D01*
X10271000Y10075000D01*
Y10180000D01*
X8670000Y9117500D02*
X8670637Y9116863D01*
Y9037500D02*
Y9116863D01*
Y9037500D02*
X8710637Y8997500D01*
X10397436Y9212436D02*
X10412468Y9227468D01*
X11595000Y9847500D02*
X11656040D01*
X11678461Y9869920D02*
X11699096D01*
X11656040Y9847500D02*
X11678461Y9869920D01*
X11699096D02*
X11749176Y9920000D01*
X11760000D01*
X11580000Y9832500D02*
X11595000Y9847500D01*
X11580000Y9752500D02*
X11595000Y9767500D01*
X11580000Y10392500D02*
X11595000Y10377500D01*
X11493552Y10392500D02*
X11580000D01*
X11458551Y10427500D02*
X11493552Y10392500D01*
X11457500Y10427500D02*
X11458551D01*
X11735000Y10172500D02*
X11740000Y10167500D01*
X11735000Y10172500D02*
Y10214497D01*
X11651997Y10297500D02*
X11735000Y10214497D01*
X11595000Y10297500D02*
X11651997D01*
X11580000Y10312500D02*
X11595000Y10297500D01*
X10779000Y10720000D02*
Y10916000D01*
X10742500Y10952500D02*
X10779000Y10916000D01*
X9253351Y10175000D02*
X9400000D01*
X9252925Y10175425D02*
X9253351Y10175000D01*
X9252925Y10495425D02*
X9257500Y10500000D01*
X9400000D01*
X9602414Y10180000D02*
X9607414Y10175000D01*
Y9920000D02*
Y10175000D01*
X8723000Y9242500D02*
X8726500Y9246000D01*
X9367500Y8447500D02*
Y8515000D01*
X9350000Y8532500D02*
X9367500Y8515000D01*
X9365000Y8445000D02*
X9367500Y8447500D01*
X9365000Y8340000D02*
Y8445000D01*
X7978977Y7505000D02*
Y7611477D01*
X8722500Y7505000D02*
X8732500Y7515000D01*
X8645000Y7505000D02*
X8722500D01*
X9100000Y7822414D02*
X9232414D01*
X9237500Y7827500D01*
X9297500Y7522500D02*
X9305000Y7515000D01*
X9297500Y7522500D02*
Y7690000D01*
X10435000Y7827500D02*
X10482500D01*
X10320000Y7942500D02*
X10435000Y7827500D01*
X10320000Y7942500D02*
Y8262500D01*
X8697500Y7800000D02*
X8842500D01*
X8847500Y7795000D01*
X11412500Y7587500D02*
X11552500D01*
X11350000Y7525000D02*
X11412500Y7587500D01*
X9812500D02*
X9875000Y7525000D01*
X9682500Y7587500D02*
X9812500D01*
X10167500Y8168324D02*
Y8230000D01*
X10135000Y8262500D02*
X10167500Y8230000D01*
Y8168324D02*
X10200000Y8135824D01*
Y8125000D02*
Y8135824D01*
X9482654Y9692346D02*
X9553478D01*
X9638324Y9607500D01*
X9682500D01*
X9717500Y9572500D01*
Y9560000D02*
Y9572500D01*
X9475000Y9700000D02*
X9482654Y9692346D01*
X8345000Y7134176D02*
X8375000Y7164176D01*
Y7175000D01*
X8345000Y7045000D02*
Y7134176D01*
X7648977Y7138153D02*
X7700000Y7189176D01*
X7648977Y7015000D02*
Y7138153D01*
X7700000Y7189176D02*
Y7200000D01*
X8315000Y7015000D02*
X8345000Y7045000D01*
X9050000Y7189176D02*
Y7200000D01*
X8975000Y7025000D02*
X9005000Y7055000D01*
Y7144176D01*
X9050000Y7189176D01*
X8732500Y8642500D02*
X8857500Y8767500D01*
X8732500Y8602500D02*
Y8642500D01*
X8687500Y8557500D02*
X8732500Y8602500D01*
X8857500Y8767500D02*
Y8777500D01*
X8850000Y8317500D02*
Y8325000D01*
X8725000D02*
X8850000D01*
Y8317500D02*
X8857500Y8325000D01*
X8597654Y8457654D02*
X8687500Y8547500D01*
X8575000Y8450000D02*
X8582654Y8457654D01*
X8687500Y8547500D02*
Y8557500D01*
X8582654Y8457654D02*
X8597654D01*
X8710637Y8997500D02*
X8820000D01*
X8625000Y10675000D02*
X8735851D01*
X8767926Y10642925D01*
X8440426Y10504082D02*
Y10613949D01*
X8475000Y10648523D01*
Y10650000D01*
X9225425Y10282925D02*
X9252925Y10310425D01*
X9101998Y10325000D02*
X9147925Y10370928D01*
X9045000Y10225000D02*
X9180851D01*
X9045000Y10325000D02*
X9101998D01*
X9147925Y10370928D02*
Y10372423D01*
X9201357Y10425854D01*
Y10462925D01*
X9233857Y10495425D01*
X9252925D01*
X9140426Y10282925D02*
X9225425D01*
X9132500Y10275000D02*
X9140426Y10282925D01*
X9045000Y10275000D02*
X9132500D01*
X10450000Y9057500D02*
X10542500Y9150000D01*
X10547500D01*
X10427500Y9057500D02*
X10450000D01*
X9350000Y8717500D02*
X9357500Y8725000D01*
X9487500D01*
X9387500Y8565000D02*
Y8587500D01*
X9355000Y8532500D02*
X9387500Y8565000D01*
X9350000Y8532500D02*
X9355000D01*
X9460000Y8607574D02*
Y8622500D01*
X9439926Y8587500D02*
X9460000Y8607574D01*
X9387500Y8587500D02*
X9439926D01*
X9522500Y9365000D02*
X9625000Y9262500D01*
X9680000Y9287500D02*
Y9340000D01*
X9707500Y9367500D01*
X9675000Y9287500D02*
X9680000D01*
X9675000Y9207500D02*
Y9287500D01*
X9522500Y9365000D02*
Y9367500D01*
X9625000Y9210000D02*
Y9262500D01*
X10320000Y8262500D02*
Y8370000D01*
X10242500Y8400000D02*
X10290000D01*
X10299936Y8390064D02*
X10320000Y8370000D01*
X10299936Y8390064D02*
X10299936D01*
X10290000Y8400000D02*
X10299936Y8390064D01*
X8440426Y10342925D02*
X8458351Y10325000D01*
X8650000D01*
X8767926Y10620425D02*
Y10642925D01*
X8722500Y10450000D02*
Y10575000D01*
X8767926Y10620425D01*
X9230425Y10175425D02*
X9252925D01*
X9180851Y10225000D02*
X9230425Y10175425D01*
X9950078Y8277500D02*
X10045078Y8372500D01*
X9942500Y8277500D02*
X9950078D01*
X10045078Y8372500D02*
X10047500D01*
X10315000Y9135000D02*
Y9194862D01*
X10332574Y9212436D02*
X10397436D01*
X10315000Y9194862D02*
X10332574Y9212436D01*
X9375000Y9075000D02*
X9480000D01*
D43*
X7600000Y10643750D02*
Y10967500D01*
Y10643750D02*
X7600625Y10643125D01*
X8334914Y11017500D02*
Y11032586D01*
X8287089Y11080411D02*
X8334914Y11032586D01*
X8272003Y11080411D02*
X8287089D01*
X8232414Y11120000D02*
X8272003Y11080411D01*
X7752500Y11120000D02*
X8232414D01*
X7600000Y10967500D02*
X7752500Y11120000D01*
X9997500Y10217500D02*
Y10360000D01*
X9340000Y11017500D02*
X9997500Y10360000D01*
X8545086Y11017500D02*
X9340000D01*
X10125000Y8432500D02*
X10135000Y8408860D01*
X10125000Y8432500D02*
Y8460000D01*
X10135000Y8262500D02*
Y8408860D01*
X10395000Y9025000D02*
X10427500Y9057500D01*
X10240000Y9025000D02*
X10395000D01*
X9675000Y9140000D02*
Y9207500D01*
X10240000Y9075000D02*
X10287500D01*
X10315000Y9102500D02*
Y9135000D01*
X10287500Y9075000D02*
X10315000Y9102500D01*
X10175000Y8432500D02*
X10207500Y8400000D01*
X9480000Y9075000D02*
X9560000D01*
X10075000Y8400000D02*
Y8460000D01*
X9625000Y9140000D02*
Y9210000D01*
X9460000Y8622500D02*
Y8650000D01*
X9485000Y8675000D01*
X9560000D01*
X10175000Y8432500D02*
Y8460000D01*
X10047500Y8372500D02*
X10075000Y8400000D01*
X10207500Y8400000D02*
X10242500D01*
X9487500Y8725000D02*
X9560000D01*
X8952925Y10642925D02*
X8972500Y10623351D01*
Y10450000D02*
Y10623351D01*
X9135425Y10085426D02*
X9230425Y9990425D01*
X9135425Y10085426D02*
Y10138037D01*
X9100962Y10172500D02*
X9135425Y10138037D01*
X9047500Y10172500D02*
X9100962D01*
X9045000Y10175000D02*
X9047500Y10172500D01*
D44*
X11358771Y10032678D02*
X11474454Y10148360D01*
X11578360Y9999139D02*
X11580000Y9997500D01*
X11508682Y9999139D02*
X11578360D01*
X11489140Y10018682D02*
X11508682Y9999139D01*
X11489140Y10018682D02*
Y10076818D01*
X11510682Y10098360D01*
X11474454Y10148360D02*
X11579140D01*
X11580000Y10147500D01*
X11510682Y10098520D02*
X11535860D01*
X11536881Y10097500D01*
X11580000D01*
Y10047500D02*
X11581640Y10049139D01*
X11651318D01*
X11670860Y10068682D01*
Y10126318D01*
X11651318Y10145860D02*
X11670860Y10126318D01*
X11583640Y10145860D02*
X11651318D01*
X11582000Y10147500D02*
X11583640Y10145860D01*
X11358771Y9945771D02*
Y10032678D01*
X11288000Y9875000D02*
X11358771Y9945771D01*
X10900000Y9875000D02*
X11288000D01*
X10703869Y9678869D02*
X10900000Y9875000D01*
X10703869Y9045394D02*
Y9678869D01*
X10581995Y8923520D02*
X10703869Y9045394D01*
X10268979Y8923520D02*
X10581995D01*
X10268360Y8924140D02*
X10268979Y8923520D01*
X10240860Y8924140D02*
X10268360D01*
X10240000Y8925000D02*
X10240860Y8924140D01*
X11405812Y10013193D02*
X11491140Y10098520D01*
X11405812Y9926286D02*
Y10013193D01*
X10601480Y8876480D02*
X10750909Y9025909D01*
Y9659384D01*
X10919485Y9827959D01*
X10268360Y8875860D02*
X10268979Y8876480D01*
X10601480D01*
X10240000Y8875000D02*
X10240860Y8875860D01*
X10268360D01*
X11491140Y10098520D02*
X11510682D01*
X10919485Y9827959D02*
X11307485D01*
X11405812Y9926286D01*
D45*
X7700000Y8600000D02*
D03*
D46*
Y9345000D02*
D03*
D47*
X11687500Y10361500D02*
D03*
Y9783500D02*
D03*
D48*
X9730000Y10920000D02*
D03*
X11950000Y10925000D02*
D03*
Y7150000D02*
D03*
X7181605Y7152000D02*
D03*
D49*
X11680000Y9160000D02*
D03*
X10160000Y9970000D02*
D03*
X10650000Y11040000D02*
D03*
X8670000Y9117500D02*
D03*
X11550000Y9370000D02*
D03*
X11457500Y10427500D02*
D03*
X8722500Y9932500D02*
D03*
X7402500Y10930000D02*
D03*
X9087500Y10715000D02*
D03*
X9605000Y10352500D02*
D03*
X9400000Y10175000D02*
D03*
Y10500000D02*
D03*
X9392500Y9985000D02*
D03*
X8152500Y9030000D02*
D03*
X8147500Y7662500D02*
D03*
X8830000Y7665000D02*
D03*
X9365000Y7827500D02*
D03*
X10602500Y7962500D02*
D03*
X10500000Y8200000D02*
D03*
X11067500Y7835000D02*
D03*
X10710000Y7830000D02*
D03*
X7697500Y7807500D02*
D03*
X8697500Y7800000D02*
D03*
X11060000Y10720000D02*
D03*
Y10080000D02*
D03*
X10910000Y9210000D02*
D03*
X11360000Y9120000D02*
D03*
X11660000Y8870000D02*
D03*
Y8980000D02*
D03*
X11930000Y8720000D02*
D03*
X11940000Y8300000D02*
D03*
X11350000Y7525000D02*
D03*
X9875000D02*
D03*
X10200000Y8125000D02*
D03*
X9475000Y9700000D02*
D03*
X9652500Y9765000D02*
D03*
X8375000Y7175000D02*
D03*
X7700000Y7200000D02*
D03*
X9050000D02*
D03*
X8725000Y8325000D02*
D03*
X8575000Y8450000D02*
D03*
X7800000Y10425000D02*
D03*
X8625000Y10675000D02*
D03*
X8475000Y10650000D02*
D03*
X10547500Y9150000D02*
D03*
X9325000Y9425000D02*
D03*
X10100000Y8075000D02*
D03*
X9325000Y8825000D02*
D03*
X9997500Y10217500D02*
D03*
X9515000Y7277500D02*
D03*
X11760000Y9920000D02*
D03*
X11740000Y10167500D02*
D03*
X8457500Y10202500D02*
D03*
X8267500Y10117500D02*
D03*
D50*
X9680000Y9020000D02*
D03*
X9790000D02*
D03*
X9900000D02*
D03*
X10010000D02*
D03*
X10120000D02*
D03*
X9680000Y8910000D02*
D03*
X9790000D02*
D03*
X9900000D02*
D03*
X10010000D02*
D03*
X10120000D02*
D03*
X9680000Y8800000D02*
D03*
X9790000D02*
D03*
X9900000D02*
D03*
X10010000D02*
D03*
X10120000D02*
D03*
X9680000Y8690000D02*
D03*
X9790000D02*
D03*
X9900000D02*
D03*
X10010000D02*
D03*
X10120000D02*
D03*
X9680000Y8580000D02*
D03*
X9790000D02*
D03*
X9900000D02*
D03*
X10010000D02*
D03*
X10120000D02*
D03*
X8902500Y10195000D02*
D03*
Y10305000D02*
D03*
X8792500D02*
D03*
Y10195000D02*
D03*
%TF.MD5,96009c1210f527022acc2441ab5613db*%
M02*
