<?xml version="1.0" encoding="utf-8"?>
<!-- Generator: Adobe Illustrator 25.2.0, SVG Export Plug-In . SVG Version: 6.00 Build 0)  -->
<svg version="1.1" id="_x30_" xmlns="http://www.w3.org/2000/svg" xmlns:xlink="http://www.w3.org/1999/xlink" x="0px" y="0px"
	 viewBox="0 0 1920 1080" style="enable-background:new 0 0 1920 1080;" xml:space="preserve">
<style type="text/css">
	.st0{fill-rule:evenodd;clip-rule:evenodd;}
</style>
<g id="HATCH_114_">
	<rect x="982.59" y="536.61" class="st0" width="0.8" height="0.55"/>
</g>
<g id="HATCH_115_">
	<rect x="982.59" y="535.36" class="st0" width="0.8" height="0.55"/>
</g>
<g id="HATCH_116_">
	<rect x="950.17" y="531.39" class="st0" width="3.56" height="1.27"/>
</g>
<g id="HATCH_117_">
	<rect x="952.84" y="533.92" class="st0" width="3.56" height="1.27"/>
</g>
<g id="HATCH_118_">
	<rect x="950.17" y="536.47" class="st0" width="3.56" height="1.27"/>
</g>
<g id="HATCH_119_">
	<rect x="952.66" y="541.09" class="st0" width="1.2" height="1.4"/>
</g>
<g id="HATCH_120_">
	<rect x="952.66" y="543.28" class="st0" width="1.2" height="1.4"/>
</g>
<g id="HATCH_121_">
	<rect x="950.96" y="543.28" class="st0" width="1.2" height="1.4"/>
</g>
<g id="HATCH_122_">
	<rect x="950.96" y="541.09" class="st0" width="1.2" height="1.4"/>
</g>
<g id="HATCH_123_">
	<rect x="944.03" y="553.76" class="st0" width="0.9" height="1.5"/>
</g>
<g id="HATCH_124_">
	<rect x="940.73" y="553.76" class="st0" width="0.9" height="1.5"/>
</g>
<g id="HATCH_125_">
	<rect x="940.73" y="558.66" class="st0" width="0.9" height="1.5"/>
</g>
<g id="HATCH_126_">
	<rect x="944.03" y="558.66" class="st0" width="0.9" height="1.5"/>
</g>
<g id="HATCH_127_">
	<rect x="950.69" y="558.66" class="st0" width="0.9" height="1.5"/>
</g>
<g id="HATCH_128_">
	<rect x="947.39" y="558.66" class="st0" width="0.9" height="1.5"/>
</g>
<g id="HATCH_129_">
	<rect x="947.39" y="553.76" class="st0" width="0.9" height="1.5"/>
</g>
<g id="HATCH_130_">
	<rect x="950.69" y="553.76" class="st0" width="0.9" height="1.5"/>
</g>
<g id="HATCH_131_">
	<rect x="957.29" y="558.56" class="st0" width="0.9" height="1.5"/>
</g>
<g id="HATCH_132_">
	<rect x="953.99" y="558.56" class="st0" width="0.9" height="1.5"/>
</g>
<g id="HATCH_133_">
	<rect x="953.99" y="553.66" class="st0" width="0.9" height="1.5"/>
</g>
<g id="HATCH_134_">
	<rect x="957.29" y="553.66" class="st0" width="0.9" height="1.5"/>
</g>
<g id="HATCH_135_">
	<circle class="st0" cx="961.49" cy="539.36" r="0.25"/>
</g>
<g id="HATCH_136_">
	<circle class="st0" cx="961.49" cy="539.36" r="0.1"/>
</g>
<g id="HATCH_137_">
	<circle class="st0" cx="962.59" cy="539.36" r="0.25"/>
</g>
<g id="HATCH_138_">
	<circle class="st0" cx="962.59" cy="539.36" r="0.1"/>
</g>
<g id="HATCH_139_">
	<circle class="st0" cx="963.69" cy="539.36" r="0.25"/>
</g>
<g id="HATCH_140_">
	<circle class="st0" cx="963.69" cy="539.36" r="0.1"/>
</g>
<g id="HATCH_141_">
	<circle class="st0" cx="964.79" cy="539.36" r="0.25"/>
</g>
<g id="HATCH_142_">
	<circle class="st0" cx="964.79" cy="539.36" r="0.1"/>
</g>
<g id="HATCH_143_">
	<circle class="st0" cx="965.89" cy="539.36" r="0.25"/>
</g>
<g id="HATCH_144_">
	<circle class="st0" cx="965.89" cy="539.36" r="0.1"/>
</g>
<g id="HATCH_145_">
	<circle class="st0" cx="961.49" cy="540.46" r="0.25"/>
</g>
<g id="HATCH_146_">
	<circle class="st0" cx="961.49" cy="540.46" r="0.1"/>
</g>
<g id="HATCH_147_">
	<circle class="st0" cx="962.59" cy="540.46" r="0.25"/>
</g>
<g id="HATCH_148_">
	<circle class="st0" cx="962.59" cy="540.46" r="0.1"/>
</g>
<g id="HATCH_149_">
	<circle class="st0" cx="963.69" cy="540.46" r="0.25"/>
</g>
<g id="HATCH_150_">
	<circle class="st0" cx="963.69" cy="540.46" r="0.1"/>
</g>
<g id="HATCH_151_">
	<circle class="st0" cx="964.79" cy="540.46" r="0.25"/>
</g>
<g id="HATCH_152_">
	<circle class="st0" cx="964.79" cy="540.46" r="0.1"/>
</g>
<g id="HATCH_153_">
	<circle class="st0" cx="965.89" cy="540.46" r="0.25"/>
</g>
<g id="HATCH_154_">
	<circle class="st0" cx="965.89" cy="540.46" r="0.1"/>
</g>
<g id="HATCH_155_">
	<circle class="st0" cx="961.49" cy="541.56" r="0.25"/>
</g>
<g id="HATCH_156_">
	<circle class="st0" cx="961.49" cy="541.56" r="0.1"/>
</g>
<g id="HATCH_157_">
	<circle class="st0" cx="962.59" cy="541.56" r="0.25"/>
</g>
<g id="HATCH_158_">
	<circle class="st0" cx="962.59" cy="541.56" r="0.1"/>
</g>
<g id="HATCH_159_">
	<circle class="st0" cx="963.69" cy="541.56" r="0.25"/>
</g>
<g id="HATCH_160_">
	<circle class="st0" cx="963.69" cy="541.56" r="0.1"/>
</g>
<g id="HATCH_161_">
	<circle class="st0" cx="964.79" cy="541.56" r="0.25"/>
</g>
<g id="HATCH_162_">
	<circle class="st0" cx="964.79" cy="541.56" r="0.1"/>
</g>
<g id="HATCH_163_">
	<circle class="st0" cx="965.89" cy="541.56" r="0.25"/>
</g>
<g id="HATCH_164_">
	<circle class="st0" cx="965.89" cy="541.56" r="0.1"/>
</g>
<g id="HATCH_165_">
	<circle class="st0" cx="961.49" cy="542.66" r="0.25"/>
</g>
<g id="HATCH_166_">
	<circle class="st0" cx="961.49" cy="542.66" r="0.1"/>
</g>
<g id="HATCH_167_">
	<circle class="st0" cx="962.59" cy="542.66" r="0.25"/>
</g>
<g id="HATCH_168_">
	<circle class="st0" cx="962.59" cy="542.66" r="0.1"/>
</g>
<g id="HATCH_169_">
	<circle class="st0" cx="963.69" cy="542.66" r="0.25"/>
</g>
<g id="HATCH_170_">
	<circle class="st0" cx="963.69" cy="542.66" r="0.1"/>
</g>
<g id="HATCH_171_">
	<circle class="st0" cx="964.79" cy="542.66" r="0.25"/>
</g>
<g id="HATCH_172_">
	<circle class="st0" cx="964.79" cy="542.66" r="0.1"/>
</g>
<g id="HATCH_173_">
	<circle class="st0" cx="965.89" cy="542.66" r="0.25"/>
</g>
<g id="HATCH_174_">
	<circle class="st0" cx="965.89" cy="542.66" r="0.1"/>
</g>
<g id="HATCH_175_">
	<circle class="st0" cx="961.49" cy="543.76" r="0.25"/>
</g>
<g id="HATCH_176_">
	<circle class="st0" cx="961.49" cy="543.76" r="0.1"/>
</g>
<g id="HATCH_177_">
	<circle class="st0" cx="962.59" cy="543.76" r="0.25"/>
</g>
<g id="HATCH_178_">
	<circle class="st0" cx="962.59" cy="543.76" r="0.1"/>
</g>
<g id="HATCH_179_">
	<circle class="st0" cx="963.69" cy="543.76" r="0.25"/>
</g>
<g id="HATCH_180_">
	<circle class="st0" cx="963.69" cy="543.76" r="0.1"/>
</g>
<g id="HATCH_181_">
	<circle class="st0" cx="964.79" cy="543.76" r="0.25"/>
</g>
<g id="HATCH_182_">
	<circle class="st0" cx="964.79" cy="543.76" r="0.1"/>
</g>
<g id="HATCH_183_">
	<circle class="st0" cx="965.89" cy="543.76" r="0.25"/>
</g>
<g id="HATCH_184_">
	<circle class="st0" cx="965.89" cy="543.76" r="0.1"/>
</g>
<g id="HATCH_185_">
	<path class="st0" d="M960.56,538.93c0.07,0,0.12-0.06,0.12-0.12s-0.06-0.12-0.12-0.12h-0.55c-0.07,0-0.12,0.06-0.12,0.12
		s0.06,0.12,0.12,0.12H960.56z"/>
</g>
<g id="HATCH_186_">
	<path class="st0" d="M960.56,539.43c0.07,0,0.12-0.06,0.12-0.12s-0.06-0.12-0.12-0.12h-0.55c-0.07,0-0.12,0.06-0.12,0.12
		s0.06,0.12,0.12,0.12H960.56z"/>
</g>
<g id="HATCH_187_">
	<path class="st0" d="M960.56,539.93c0.07,0,0.12-0.06,0.12-0.12s-0.06-0.12-0.12-0.12h-0.55c-0.07,0-0.12,0.06-0.12,0.12
		s0.06,0.12,0.12,0.12H960.56z"/>
</g>
<g id="HATCH_188_">
	<path class="st0" d="M960.56,540.43c0.07,0,0.12-0.06,0.12-0.12s-0.06-0.12-0.12-0.12h-0.55c-0.07,0-0.12,0.06-0.12,0.12
		s0.06,0.12,0.12,0.12H960.56z"/>
</g>
<g id="HATCH_189_">
	<path class="st0" d="M960.56,540.93c0.07,0,0.12-0.06,0.12-0.12s-0.06-0.12-0.12-0.12h-0.55c-0.07,0-0.12,0.06-0.12,0.12
		s0.06,0.12,0.12,0.12H960.56z"/>
</g>
<g id="HATCH_190_">
	<path class="st0" d="M960.56,541.43c0.07,0,0.12-0.06,0.12-0.12s-0.06-0.12-0.12-0.12h-0.55c-0.07,0-0.12,0.06-0.12,0.12
		s0.06,0.12,0.12,0.12H960.56z"/>
</g>
<g id="HATCH_191_">
	<path class="st0" d="M960.56,541.93c0.07,0,0.12-0.06,0.12-0.12s-0.06-0.12-0.12-0.12h-0.55c-0.07,0-0.12,0.06-0.12,0.12
		s0.06,0.12,0.12,0.12H960.56z"/>
</g>
<g id="HATCH_192_">
	<path class="st0" d="M960.56,542.43c0.07,0,0.12-0.06,0.12-0.12s-0.06-0.12-0.12-0.12h-0.55c-0.07,0-0.12,0.06-0.12,0.12
		s0.06,0.12,0.12,0.12H960.56z"/>
</g>
<g id="HATCH_193_">
	<path class="st0" d="M960.56,542.93c0.07,0,0.12-0.06,0.12-0.12s-0.06-0.12-0.12-0.12h-0.55c-0.07,0-0.12,0.06-0.12,0.12
		s0.06,0.12,0.12,0.12H960.56z"/>
</g>
<g id="HATCH_194_">
	<path class="st0" d="M960.56,543.43c0.07,0,0.12-0.06,0.12-0.12s-0.06-0.12-0.12-0.12h-0.55c-0.07,0-0.12,0.06-0.12,0.12
		s0.06,0.12,0.12,0.12H960.56z"/>
</g>
<g id="HATCH_195_">
	<path class="st0" d="M960.56,543.93c0.07,0,0.12-0.06,0.12-0.12s-0.06-0.12-0.12-0.12h-0.55c-0.07,0-0.12,0.06-0.12,0.12
		s0.06,0.12,0.12,0.12H960.56z"/>
</g>
<g id="HATCH_196_">
	<path class="st0" d="M960.56,544.43c0.07,0,0.12-0.06,0.12-0.12s-0.06-0.12-0.12-0.12h-0.55c-0.07,0-0.12,0.06-0.12,0.12
		s0.06,0.12,0.12,0.12H960.56z"/>
</g>
<g id="HATCH_197_">
	<path class="st0" d="M960.81,545.23c0,0.07,0.06,0.12,0.12,0.12s0.12-0.06,0.12-0.12v-0.55c0-0.07-0.06-0.12-0.12-0.12
		s-0.12,0.06-0.12,0.12V545.23z"/>
</g>
<g id="HATCH_198_">
	<path class="st0" d="M961.31,545.23c0,0.07,0.06,0.12,0.12,0.12s0.12-0.06,0.12-0.12v-0.55c0-0.07-0.06-0.12-0.12-0.12
		s-0.12,0.06-0.12,0.12V545.23z"/>
</g>
<g id="HATCH_199_">
	<path class="st0" d="M961.81,545.23c0,0.07,0.06,0.12,0.12,0.12s0.12-0.06,0.12-0.12v-0.55c0-0.07-0.06-0.12-0.12-0.12
		s-0.12,0.06-0.12,0.12V545.23z"/>
</g>
<g id="HATCH_200_">
	<path class="st0" d="M962.31,545.23c0,0.07,0.06,0.12,0.12,0.12s0.12-0.06,0.12-0.12v-0.55c0-0.07-0.06-0.12-0.12-0.12
		s-0.12,0.06-0.12,0.12V545.23z"/>
</g>
<g id="HATCH_201_">
	<path class="st0" d="M962.81,545.23c0,0.07,0.06,0.12,0.12,0.12s0.12-0.06,0.12-0.12v-0.55c0-0.07-0.06-0.12-0.12-0.12
		s-0.12,0.06-0.12,0.12V545.23z"/>
</g>
<g id="HATCH_202_">
	<path class="st0" d="M963.31,545.23c0,0.07,0.06,0.12,0.12,0.12s0.12-0.06,0.12-0.12v-0.55c0-0.07-0.06-0.12-0.12-0.12
		s-0.12,0.06-0.12,0.12V545.23z"/>
</g>
<g id="HATCH_203_">
	<path class="st0" d="M963.81,545.23c0,0.07,0.06,0.12,0.12,0.12s0.12-0.06,0.12-0.12v-0.55c0-0.07-0.06-0.12-0.12-0.12
		s-0.12,0.06-0.12,0.12V545.23z"/>
</g>
<g id="HATCH_204_">
	<path class="st0" d="M964.31,545.23c0,0.07,0.06,0.12,0.12,0.12s0.12-0.06,0.12-0.12v-0.55c0-0.07-0.06-0.12-0.12-0.12
		s-0.12,0.06-0.12,0.12V545.23z"/>
</g>
<g id="HATCH_205_">
	<path class="st0" d="M964.81,545.23c0,0.07,0.06,0.12,0.12,0.12s0.12-0.06,0.12-0.12v-0.55c0-0.07-0.06-0.12-0.12-0.12
		s-0.12,0.06-0.12,0.12V545.23z"/>
</g>
<g id="HATCH_206_">
	<path class="st0" d="M965.31,545.23c0,0.07,0.06,0.12,0.12,0.12s0.12-0.06,0.12-0.12v-0.55c0-0.07-0.06-0.12-0.12-0.12
		s-0.12,0.06-0.12,0.12V545.23z"/>
</g>
<g id="HATCH_207_">
	<path class="st0" d="M965.81,545.23c0,0.07,0.06,0.12,0.12,0.12s0.12-0.06,0.12-0.12v-0.55c0-0.07-0.06-0.12-0.12-0.12
		s-0.12,0.06-0.12,0.12V545.23z"/>
</g>
<g id="HATCH_208_">
	<path class="st0" d="M966.31,545.23c0,0.07,0.06,0.12,0.12,0.12s0.12-0.06,0.12-0.12v-0.55c0-0.07-0.06-0.12-0.12-0.12
		s-0.12,0.06-0.12,0.12V545.23z"/>
</g>
<g id="HATCH_209_">
	<path class="st0" d="M967.36,544.43c0.07,0,0.12-0.06,0.12-0.12s-0.06-0.12-0.12-0.12h-0.55c-0.07,0-0.12,0.06-0.12,0.12
		s0.06,0.12,0.12,0.12H967.36z"/>
</g>
<g id="HATCH_210_">
	<path class="st0" d="M967.36,543.93c0.07,0,0.12-0.06,0.12-0.12s-0.06-0.12-0.12-0.12h-0.55c-0.07,0-0.12,0.06-0.12,0.12
		s0.06,0.12,0.12,0.12H967.36z"/>
</g>
<g id="HATCH_211_">
	<path class="st0" d="M967.36,543.43c0.07,0,0.12-0.06,0.12-0.12s-0.06-0.12-0.12-0.12h-0.55c-0.07,0-0.12,0.06-0.12,0.12
		s0.06,0.12,0.12,0.12H967.36z"/>
</g>
<g id="HATCH_212_">
	<path class="st0" d="M967.36,542.93c0.07,0,0.12-0.06,0.12-0.12s-0.06-0.12-0.12-0.12h-0.55c-0.07,0-0.12,0.06-0.12,0.12
		s0.06,0.12,0.12,0.12H967.36z"/>
</g>
<g id="HATCH_213_">
	<path class="st0" d="M967.36,542.43c0.07,0,0.12-0.06,0.12-0.12s-0.06-0.12-0.12-0.12h-0.55c-0.07,0-0.12,0.06-0.12,0.12
		s0.06,0.12,0.12,0.12H967.36z"/>
</g>
<g id="HATCH_214_">
	<path class="st0" d="M967.36,541.93c0.07,0,0.12-0.06,0.12-0.12s-0.06-0.12-0.12-0.12h-0.55c-0.07,0-0.12,0.06-0.12,0.12
		s0.06,0.12,0.12,0.12H967.36z"/>
</g>
<g id="HATCH_215_">
	<path class="st0" d="M967.36,541.43c0.07,0,0.12-0.06,0.12-0.12s-0.06-0.12-0.12-0.12h-0.55c-0.07,0-0.12,0.06-0.12,0.12
		s0.06,0.12,0.12,0.12H967.36z"/>
</g>
<g id="HATCH_216_">
	<path class="st0" d="M967.36,540.93c0.07,0,0.12-0.06,0.12-0.12s-0.06-0.12-0.12-0.12h-0.55c-0.07,0-0.12,0.06-0.12,0.12
		s0.06,0.12,0.12,0.12H967.36z"/>
</g>
<g id="HATCH_217_">
	<path class="st0" d="M967.36,540.43c0.07,0,0.12-0.06,0.12-0.12s-0.06-0.12-0.12-0.12h-0.55c-0.07,0-0.12,0.06-0.12,0.12
		s0.06,0.12,0.12,0.12H967.36z"/>
</g>
<g id="HATCH_218_">
	<path class="st0" d="M967.36,539.93c0.07,0,0.12-0.06,0.12-0.12s-0.06-0.12-0.12-0.12h-0.55c-0.07,0-0.12,0.06-0.12,0.12
		s0.06,0.12,0.12,0.12H967.36z"/>
</g>
<g id="HATCH_219_">
	<path class="st0" d="M967.36,539.43c0.07,0,0.12-0.06,0.12-0.12s-0.06-0.12-0.12-0.12h-0.55c-0.07,0-0.12,0.06-0.12,0.12
		s0.06,0.12,0.12,0.12H967.36z"/>
</g>
<g id="HATCH_220_">
	<path class="st0" d="M967.36,538.93c0.07,0,0.12-0.06,0.12-0.12s-0.06-0.12-0.12-0.12h-0.55c-0.07,0-0.12,0.06-0.12,0.12
		s0.06,0.12,0.12,0.12H967.36z"/>
</g>
<g id="HATCH_221_">
	<path class="st0" d="M966.31,538.43c0,0.07,0.06,0.12,0.12,0.12s0.12-0.06,0.12-0.12v-0.55c0-0.07-0.06-0.12-0.12-0.12
		s-0.12,0.06-0.12,0.12V538.43z"/>
</g>
<g id="HATCH_222_">
	<path class="st0" d="M965.81,538.43c0,0.07,0.06,0.12,0.12,0.12s0.12-0.06,0.12-0.12v-0.55c0-0.07-0.06-0.12-0.12-0.12
		s-0.12,0.06-0.12,0.12V538.43z"/>
</g>
<g id="HATCH_223_">
	<path class="st0" d="M965.31,538.43c0,0.07,0.06,0.12,0.12,0.12s0.12-0.06,0.12-0.12v-0.55c0-0.07-0.06-0.12-0.12-0.12
		s-0.12,0.06-0.12,0.12V538.43z"/>
</g>
<g id="HATCH_224_">
	<path class="st0" d="M964.81,538.43c0,0.07,0.06,0.12,0.12,0.12s0.12-0.06,0.12-0.12v-0.55c0-0.07-0.06-0.12-0.12-0.12
		s-0.12,0.06-0.12,0.12V538.43z"/>
</g>
<g id="HATCH_225_">
	<path class="st0" d="M964.31,538.43c0,0.07,0.06,0.12,0.12,0.12s0.12-0.06,0.12-0.12v-0.55c0-0.07-0.06-0.12-0.12-0.12
		s-0.12,0.06-0.12,0.12V538.43z"/>
</g>
<g id="HATCH_226_">
	<path class="st0" d="M963.81,538.43c0,0.07,0.06,0.12,0.12,0.12s0.12-0.06,0.12-0.12v-0.55c0-0.07-0.06-0.12-0.12-0.12
		s-0.12,0.06-0.12,0.12V538.43z"/>
</g>
<g id="HATCH_227_">
	<path class="st0" d="M963.31,538.43c0,0.07,0.06,0.12,0.12,0.12s0.12-0.06,0.12-0.12v-0.55c0-0.07-0.06-0.12-0.12-0.12
		s-0.12,0.06-0.12,0.12V538.43z"/>
</g>
<g id="HATCH_228_">
	<path class="st0" d="M962.81,538.43c0,0.07,0.06,0.12,0.12,0.12s0.12-0.06,0.12-0.12v-0.55c0-0.07-0.06-0.12-0.12-0.12
		s-0.12,0.06-0.12,0.12V538.43z"/>
</g>
<g id="HATCH_229_">
	<path class="st0" d="M962.31,538.43c0,0.07,0.06,0.12,0.12,0.12s0.12-0.06,0.12-0.12v-0.55c0-0.07-0.06-0.12-0.12-0.12
		s-0.12,0.06-0.12,0.12V538.43z"/>
</g>
<g id="HATCH_230_">
	<path class="st0" d="M961.81,538.43c0,0.07,0.06,0.12,0.12,0.12s0.12-0.06,0.12-0.12v-0.55c0-0.07-0.06-0.12-0.12-0.12
		s-0.12,0.06-0.12,0.12V538.43z"/>
</g>
<g id="HATCH_231_">
	<path class="st0" d="M961.31,538.43c0,0.07,0.06,0.12,0.12,0.12s0.12-0.06,0.12-0.12v-0.55c0-0.07-0.06-0.12-0.12-0.12
		s-0.12,0.06-0.12,0.12V538.43z"/>
</g>
<g id="HATCH_232_">
	<path class="st0" d="M960.81,538.43c0,0.07,0.06,0.12,0.12,0.12s0.12-0.06,0.12-0.12v-0.55c0-0.07-0.06-0.12-0.12-0.12
		s-0.12,0.06-0.12,0.12V538.43z"/>
</g>
<g id="HATCH_233_">
	<rect x="960.89" y="538.76" class="st0" width="5.6" height="5.6"/>
</g>
<g id="HATCH_234_">
	<rect x="952.01" y="527.43" class="st0" width="0.48" height="0.25"/>
</g>
<g id="HATCH_235_">
	<rect x="952.01" y="526.93" class="st0" width="0.48" height="0.25"/>
</g>
<g id="HATCH_236_">
	<rect x="952.01" y="526.43" class="st0" width="0.48" height="0.25"/>
</g>
<g id="HATCH_237_">
	<rect x="953.84" y="526.43" class="st0" width="0.48" height="0.25"/>
</g>
<g id="HATCH_238_">
	<rect x="953.84" y="526.93" class="st0" width="0.48" height="0.25"/>
</g>
<g id="HATCH_239_">
	<rect x="953.84" y="527.43" class="st0" width="0.48" height="0.25"/>
</g>
<g id="HATCH_240_">
	<rect x="952.29" y="525.66" class="st0" width="0.25" height="0.48"/>
</g>
<g id="HATCH_241_">
	<rect x="952.79" y="525.66" class="st0" width="0.25" height="0.48"/>
</g>
<g id="HATCH_242_">
	<rect x="953.29" y="525.66" class="st0" width="0.25" height="0.48"/>
</g>
<g id="HATCH_243_">
	<rect x="953.79" y="525.66" class="st0" width="0.25" height="0.48"/>
</g>
<g id="HATCH_244_">
	<rect x="953.79" y="527.98" class="st0" width="0.25" height="0.48"/>
</g>
<g id="HATCH_245_">
	<rect x="953.29" y="527.98" class="st0" width="0.25" height="0.48"/>
</g>
<g id="HATCH_246_">
	<rect x="952.79" y="527.98" class="st0" width="0.25" height="0.48"/>
</g>
<g id="HATCH_247_">
	<rect x="952.29" y="527.98" class="st0" width="0.25" height="0.48"/>
</g>
<g id="HATCH_248_">
	<rect x="979.35" y="539.57" class="st0" width="1.25" height="1.5"/>
</g>
<g id="HATCH_249_">
	<rect x="977.06" y="539.57" class="st0" width="1.25" height="1.5"/>
</g>
<g id="HATCH_250_">
	<rect x="974.77" y="539.57" class="st0" width="1.25" height="1.5"/>
</g>
<g id="HATCH_251_">
	<rect x="975.44" y="546.15" class="st0" width="4.5" height="1.5"/>
</g>
<g id="HATCH_256_">
	<rect x="936.79" y="519.06" class="st0" width="1" height="0.8"/>
</g>
<g id="HATCH_257_">
	<rect x="944.09" y="519.06" class="st0" width="1" height="0.8"/>
</g>
<g id="HATCH_258_">
	<rect x="936.79" y="520.99" class="st0" width="1" height="0.8"/>
</g>
<g id="HATCH_259_">
	<rect x="944.09" y="520.99" class="st0" width="1" height="0.8"/>
</g>
<g id="HATCH_260_">
	<rect x="942.84" y="521.42" class="st0" width="0.7" height="1.5"/>
</g>
<g id="HATCH_261_">
	<rect x="938.34" y="521.42" class="st0" width="0.7" height="1.5"/>
</g>
<g id="HATCH_262_">
	<rect x="939.84" y="521.42" class="st0" width="0.7" height="1.5"/>
</g>
<g id="HATCH_263_">
	<rect x="949.54" y="518.63" class="st0" width="1.21" height="1.51"/>
</g>
<g id="HATCH_264_">
	<rect x="947.44" y="518.63" class="st0" width="1.21" height="1.51"/>
</g>
<g id="HATCH_265_">
	<rect x="954.44" y="543.51" class="st0" width="1.51" height="1.21"/>
</g>
<g id="HATCH_266_">
	<rect x="954.44" y="541.41" class="st0" width="1.51" height="1.21"/>
</g>
<g id="HATCH_267_">
	<rect x="971.19" y="545.01" class="st0" width="1.21" height="1.51"/>
</g>
<g id="HATCH_268_">
	<rect x="969.09" y="545.01" class="st0" width="1.21" height="1.51"/>
</g>
<g id="HATCH_269_">
	<rect x="954.94" y="550.73" class="st0" width="1.51" height="1.21"/>
</g>
<g id="HATCH_270_">
	<rect x="954.94" y="548.63" class="st0" width="1.51" height="1.21"/>
</g>
<g id="HATCH_271_">
	<rect x="962.21" y="527.01" class="st0" width="1.21" height="1.51"/>
</g>
<g id="HATCH_272_">
	<rect x="960.11" y="527.01" class="st0" width="1.21" height="1.51"/>
</g>
<g id="HATCH_273_">
	<rect x="962.26" y="529.61" class="st0" width="1.21" height="1.51"/>
</g>
<g id="HATCH_274_">
	<rect x="960.16" y="529.61" class="st0" width="1.21" height="1.51"/>
</g>
<g id="HATCH_275_">
	<rect x="976.04" y="523.88" class="st0" width="1.51" height="1.21"/>
</g>
<g id="HATCH_276_">
	<rect x="976.04" y="521.78" class="st0" width="1.51" height="1.21"/>
</g>
<g id="HATCH_277_">
	<rect x="976.04" y="526.08" class="st0" width="1.51" height="1.21"/>
</g>
<g id="HATCH_278_">
	<rect x="976.04" y="528.18" class="st0" width="1.51" height="1.21"/>
</g>
<g id="HATCH_279_">
	<rect x="981.89" y="548.01" class="st0" width="1.51" height="1.21"/>
</g>
<g id="HATCH_280_">
	<rect x="981.89" y="545.91" class="st0" width="1.51" height="1.21"/>
</g>
<g id="HATCH_281_">
	<rect x="971.98" y="520.76" class="st0" width="1" height="3.1"/>
</g>
<g id="HATCH_282_">
	<rect x="971.98" y="526.21" class="st0" width="1" height="3.1"/>
</g>
<g id="HATCH_283_">
	<rect x="969.44" y="520.81" class="st0" width="1" height="3.1"/>
</g>
<g id="HATCH_284_">
	<rect x="966.9" y="520.81" class="st0" width="1" height="3.1"/>
</g>
<g id="HATCH_285_">
	<rect x="969.44" y="526.21" class="st0" width="1" height="3.1"/>
</g>
<g id="HATCH_286_">
	<rect x="966.9" y="526.21" class="st0" width="1" height="3.1"/>
</g>
<g id="HATCH_287_">
	<rect x="967.47" y="556.6" class="st0" width="1.27" height="3.94"/>
</g>
<g id="HATCH_288_">
	<rect x="970.01" y="556.6" class="st0" width="1.27" height="3.94"/>
</g>
<g id="HATCH_289_">
	<rect x="972.55" y="556.6" class="st0" width="1.27" height="3.94"/>
</g>
<g id="HATCH_290_">
	<rect x="975.09" y="556.6" class="st0" width="1.27" height="3.94"/>
</g>
<g id="HATCH_291_">
	<rect x="977.63" y="556.6" class="st0" width="1.27" height="3.94"/>
</g>
<g id="HATCH_292_">
	<rect x="967.47" y="550.38" class="st0" width="1.27" height="3.94"/>
</g>
<g id="HATCH_293_">
	<rect x="970.01" y="550.38" class="st0" width="1.27" height="3.94"/>
</g>
<g id="HATCH_294_">
	<rect x="972.55" y="550.38" class="st0" width="1.27" height="3.94"/>
</g>
<g id="HATCH_295_">
	<rect x="975.09" y="550.38" class="st0" width="1.27" height="3.94"/>
</g>
<g id="HATCH_296_">
	<rect x="977.63" y="550.38" class="st0" width="1.27" height="3.94"/>
</g>
<g id="HATCH_301_">
	<rect x="983.99" y="532.85" class="st0" width="2" height="2.18"/>
</g>
<g id="HATCH_302_">
	<rect x="983.99" y="522.64" class="st0" width="2" height="2.18"/>
</g>
<g id="HATCH_303_">
	<rect x="980.06" y="532.85" class="st0" width="2" height="2.18"/>
</g>
<g id="HATCH_304_">
	<rect x="980.06" y="522.64" class="st0" width="2" height="2.18"/>
</g>
<g id="HATCH_305_">
	<rect x="979.99" y="531.73" class="st0" width="1" height="0.6"/>
</g>
<g id="HATCH_306_">
	<rect x="979.99" y="525.34" class="st0" width="1" height="0.6"/>
</g>
<g id="HATCH_307_">
	<rect x="979.91" y="530.93" class="st0" width="1.15" height="0.6"/>
</g>
<g id="HATCH_308_">
	<rect x="979.91" y="526.14" class="st0" width="1.15" height="0.6"/>
</g>
<g id="HATCH_309_">
	<rect x="979.91" y="530.43" class="st0" width="1.15" height="0.3"/>
</g>
<g id="HATCH_310_">
	<rect x="979.91" y="529.93" class="st0" width="1.15" height="0.3"/>
</g>
<g id="HATCH_311_">
	<rect x="979.91" y="529.43" class="st0" width="1.15" height="0.3"/>
</g>
<g id="HATCH_312_">
	<rect x="979.91" y="528.93" class="st0" width="1.15" height="0.3"/>
</g>
<g id="HATCH_313_">
	<rect x="979.91" y="528.43" class="st0" width="1.15" height="0.3"/>
</g>
<g id="HATCH_314_">
	<rect x="979.91" y="527.93" class="st0" width="1.15" height="0.3"/>
</g>
<g id="HATCH_315_">
	<rect x="979.91" y="527.43" class="st0" width="1.15" height="0.3"/>
</g>
<g id="HATCH_316_">
	<rect x="979.91" y="526.93" class="st0" width="1.15" height="0.3"/>
</g>
<g id="HATCH_317_">
	<rect x="976.84" y="532.18" class="st0" width="1.45" height="1.56"/>
</g>
<g id="HATCH_318_">
	<rect x="974.99" y="532.18" class="st0" width="1.45" height="1.56"/>
</g>
<g id="HATCH_319_">
	<rect x="970.74" y="543.06" class="st0" width="1.2" height="1.2"/>
</g>
<g id="HATCH_320_">
	<rect x="968.64" y="543.06" class="st0" width="1.2" height="1.2"/>
</g>
<g id="HATCH_321_">
	<rect x="979.24" y="548.21" class="st0" width="1.2" height="1.2"/>
</g>
<g id="HATCH_322_">
	<rect x="977.14" y="548.21" class="st0" width="1.2" height="1.2"/>
</g>
<g id="HATCH_323_">
	<rect x="957.74" y="538.34" class="st0" width="1.4" height="0.95"/>
</g>
<g id="HATCH_324_">
	<rect x="957.74" y="536.48" class="st0" width="1.4" height="0.95"/>
</g>
<g id="HATCH_325_">
	<rect x="967.41" y="546.23" class="st0" width="0.95" height="1.4"/>
</g>
<g id="HATCH_326_">
	<rect x="965.56" y="546.23" class="st0" width="0.95" height="1.4"/>
</g>
<g id="HATCH_327_">
	<rect x="968.26" y="538.51" class="st0" width="1.4" height="0.95"/>
</g>
<g id="HATCH_328_">
	<rect x="968.26" y="536.66" class="st0" width="1.4" height="0.95"/>
</g>
<g id="HATCH_329_">
	<rect x="959.34" y="535.18" class="st0" width="0.95" height="1.4"/>
</g>
<g id="HATCH_330_">
	<rect x="961.19" y="535.18" class="st0" width="0.95" height="1.4"/>
</g>
<g id="HATCH_331_">
	<rect x="957.49" y="543.76" class="st0" width="1.4" height="0.95"/>
</g>
<g id="HATCH_332_">
	<rect x="957.49" y="541.91" class="st0" width="1.4" height="0.95"/>
</g>
<g id="HATCH_333_">
	<rect x="959.26" y="533.34" class="st0" width="1" height="1.25"/>
</g>
<g id="HATCH_334_">
	<rect x="961.26" y="533.34" class="st0" width="1" height="1.25"/>
</g>
<g id="HATCH_335_">
	<rect x="952.46" y="549.28" class="st0" width="1.4" height="0.95"/>
</g>
<g id="HATCH_336_">
	<rect x="952.46" y="551.14" class="st0" width="1.4" height="0.95"/>
</g>
<g id="HATCH_337_">
	<rect x="963.39" y="546.13" class="st0" width="1.46" height="1.3"/>
</g>
<g id="HATCH_338_">
	<rect x="963.39" y="547.74" class="st0" width="1.46" height="1.3"/>
</g>
<g id="HATCH_339_">
	<rect x="954.64" y="545.61" class="st0" width="0.95" height="1.4"/>
</g>
<g id="HATCH_340_">
	<rect x="952.79" y="545.61" class="st0" width="0.95" height="1.4"/>
</g>
<g id="HATCH_341_">
	<rect x="954.26" y="538.89" class="st0" width="0.95" height="1.4"/>
</g>
<g id="HATCH_342_">
	<rect x="952.41" y="538.89" class="st0" width="0.95" height="1.4"/>
</g>
<g id="HATCH_343_">
	<rect x="949.99" y="523.96" class="st0" width="1.4" height="0.95"/>
</g>
<g id="HATCH_344_">
	<rect x="949.99" y="525.81" class="st0" width="1.4" height="0.95"/>
</g>
<g id="HATCH_345_">
	<rect x="954.99" y="527.61" class="st0" width="1.4" height="0.95"/>
</g>
<g id="HATCH_346_">
	<rect x="954.99" y="525.76" class="st0" width="1.4" height="0.95"/>
</g>
<g id="HATCH_347_">
	<rect x="981.94" y="543.71" class="st0" width="1.4" height="0.95"/>
</g>
<g id="HATCH_348_">
	<rect x="981.94" y="541.86" class="st0" width="1.4" height="0.95"/>
</g>
<g id="HATCH_349_">
	<rect x="974.94" y="537.56" class="st0" width="0.95" height="1.4"/>
</g>
<g id="HATCH_350_">
	<rect x="976.79" y="537.56" class="st0" width="0.95" height="1.4"/>
</g>
<g id="HATCH_351_">
	<rect x="974.87" y="534.98" class="st0" width="1.3" height="1.46"/>
</g>
<g id="HATCH_352_">
	<rect x="973.26" y="534.98" class="st0" width="1.3" height="1.46"/>
</g>
<g id="HATCH_353_">
	<rect x="976.68" y="535.01" class="st0" width="1.3" height="1.46"/>
</g>
<g id="HATCH_354_">
	<rect x="978.29" y="535.01" class="st0" width="1.3" height="1.46"/>
</g>
<g id="HATCH_359_">
	<rect x="940.54" y="546.01" class="st0" width="2.3" height="4.5"/>
</g>
<g id="HATCH_360_">
	<rect x="940.54" y="529.61" class="st0" width="2.3" height="4.5"/>
</g>
</svg>
