%TF.GenerationSoftware,Altium Limited,Altium Designer,24.5.2 (23)*%
G04 Layer_Color=0*
%FSLAX45Y45*%
%MOMM*%
%TF.SameCoordinates,2BA89E6E-902A-415B-B0B5-23ADD7A02043*%
%TF.FilePolarity,Positive*%
%TF.FileFunction,Plated,1,2,PTH,Drill*%
%TF.Part,Single*%
G01*
G75*
%TA.AperFunction,OtherDrill,Pad Free-MH (97.3mm,109.2mm)*%
%ADD70C,3.00000*%
%TA.AperFunction,OtherDrill,Pad Free-MH (119.5mm,109.25mm)*%
%ADD71C,3.00000*%
%TA.AperFunction,OtherDrill,Pad Free-MH (119.5mm,71.5mm)*%
%ADD72C,3.00000*%
%TA.AperFunction,OtherDrill,Pad Free-MH1 (71.816mm,71.52mm)*%
%ADD73C,3.00000*%
%TA.AperFunction,ViaDrill,NotFilled*%
%ADD74C,0.30000*%
%ADD75C,0.20000*%
D70*
X9730000Y10920000D02*
D03*
D71*
X11950000Y10925000D02*
D03*
D72*
Y7150000D02*
D03*
D73*
X7181605Y7152000D02*
D03*
D74*
X8980000Y10010000D02*
D03*
X9270000Y10240000D02*
D03*
X8830000Y10520000D02*
D03*
X10205000Y9970000D02*
D03*
X8600000Y10610000D02*
D03*
X8457500Y10202500D02*
D03*
X9820000Y9440000D02*
D03*
X7610000Y11050000D02*
D03*
X7400000Y10580000D02*
D03*
X10600000Y7990000D02*
D03*
X10500000Y8200000D02*
D03*
X11100000Y8080000D02*
D03*
X10440000Y8100000D02*
D03*
X11830000Y9180000D02*
D03*
X10650000Y11040000D02*
D03*
X8670000Y9117500D02*
D03*
X11550000Y9370000D02*
D03*
X11457500Y10427500D02*
D03*
X9087500Y10715000D02*
D03*
X9605000Y10352500D02*
D03*
X9100000Y10430000D02*
D03*
X9392500Y9985000D02*
D03*
X8152500Y9030000D02*
D03*
X8147500Y7662500D02*
D03*
X8830000Y7665000D02*
D03*
X9365000Y7827500D02*
D03*
X7697500Y7807500D02*
D03*
X8697500Y7800000D02*
D03*
X11060000Y10720000D02*
D03*
Y10080000D02*
D03*
X10910000Y9210000D02*
D03*
X11360000Y9120000D02*
D03*
X11660000Y8870000D02*
D03*
Y8980000D02*
D03*
X11930000Y8720000D02*
D03*
X11940000Y8300000D02*
D03*
X10200000Y8125000D02*
D03*
X9475000Y9700000D02*
D03*
X9652500Y9765000D02*
D03*
X8375000Y7175000D02*
D03*
X7700000Y7200000D02*
D03*
X9050000D02*
D03*
X8725000Y8325000D02*
D03*
X8575000Y8450000D02*
D03*
X10547500Y9150000D02*
D03*
X9325000Y9425000D02*
D03*
X10100000Y8075000D02*
D03*
X9325000Y8825000D02*
D03*
X9997500Y10217500D02*
D03*
X9515000Y7277500D02*
D03*
X11760000Y9920000D02*
D03*
X11740000Y10167500D02*
D03*
X8267500Y10117500D02*
D03*
D75*
X9680000Y9020000D02*
D03*
X9790000D02*
D03*
X9900000D02*
D03*
X10010000D02*
D03*
X10120000D02*
D03*
X9680000Y8910000D02*
D03*
X9790000D02*
D03*
X9900000D02*
D03*
X10010000D02*
D03*
X10120000D02*
D03*
X9680000Y8800000D02*
D03*
X9790000D02*
D03*
X9900000D02*
D03*
X10010000D02*
D03*
X10120000D02*
D03*
X9680000Y8690000D02*
D03*
X9790000D02*
D03*
X9900000D02*
D03*
X10010000D02*
D03*
X10120000D02*
D03*
X9680000Y8580000D02*
D03*
X9790000D02*
D03*
X9900000D02*
D03*
X10010000D02*
D03*
X10120000D02*
D03*
%TF.MD5,f0b67e67de54e60ab0a5fcc453ee06d4*%
M02*
