%TF.GenerationSoftware,Altium Limited,Altium Designer,24.5.2 (23)*%
G04 Layer_Color=8388736*
%FSLAX45Y45*%
%MOMM*%
%TF.SameCoordinates,2BA89E6E-902A-415B-B0B5-23ADD7A02043*%
%TF.FilePolarity,Negative*%
%TF.FileFunction,Soldermask,Top*%
%TF.Part,Single*%
G01*
G75*
%TA.AperFunction,SMDPad,CuDef*%
%ADD11R,0.80000X0.55000*%
%ADD12R,0.47500X0.25000*%
%ADD13R,0.25000X0.47500*%
%TA.AperFunction,ConnectorPad*%
%ADD14R,1.00000X0.80000*%
%ADD15R,0.70000X1.50000*%
%TA.AperFunction,SMDPad,CuDef*%
%ADD16R,1.27000X3.94000*%
%ADD17R,1.40000X0.95000*%
%ADD18R,2.30000X4.50000*%
%TA.AperFunction,ConnectorPad*%
%ADD19R,2.00000X2.18000*%
%ADD20R,1.00000X0.60000*%
%ADD21R,1.15000X0.60000*%
%ADD22R,1.15000X0.30000*%
%TA.AperFunction,SMDPad,CuDef*%
%ADD23R,1.30464X1.45620*%
%ADD27R,1.25000X1.50000*%
%ADD28R,4.50000X1.50400*%
%ADD29R,1.50822X1.20651*%
%ADD30R,0.95000X1.40000*%
%ADD32R,1.20651X1.50822*%
%ADD33R,1.00000X1.25000*%
%ADD34R,1.45490X1.55620*%
%ADD35R,1.45620X1.30464*%
%ADD38R,1.20000X1.40000*%
%ADD39R,3.56000X1.27000*%
%TA.AperFunction,ComponentPad*%
%ADD44C,0.90000*%
%ADD45C,1.00000*%
%ADD46C,1.25000*%
%ADD47C,0.65000*%
%TA.AperFunction,SMDPad,CuDef*%
%ADD56O,1.00320X0.45320*%
%ADD57O,0.45320X1.00320*%
%ADD58R,5.80320X5.80320*%
%ADD59R,1.10320X1.70320*%
%ADD60R,1.40320X1.40320*%
%ADD61R,1.20320X3.30320*%
%TA.AperFunction,ViaPad*%
%ADD62C,3.20320*%
%ADD63C,0.90320*%
%ADD64C,0.70320*%
D11*
X11830000Y9267500D02*
D03*
Y9392500D02*
D03*
D12*
X8756250Y10200000D02*
D03*
Y10250000D02*
D03*
Y10300000D02*
D03*
X8938750D02*
D03*
Y10250000D02*
D03*
Y10200000D02*
D03*
D13*
X8772500Y10366250D02*
D03*
X8822500D02*
D03*
X8872500D02*
D03*
X8922500D02*
D03*
Y10133750D02*
D03*
X8872500D02*
D03*
X8822500D02*
D03*
X8772500D02*
D03*
D14*
X7260000Y11010000D02*
D03*
X7990000D02*
D03*
X7260000Y10817000D02*
D03*
X7990000D02*
D03*
D15*
X7850000Y10738500D02*
D03*
X7400000D02*
D03*
X7550000D02*
D03*
D16*
X10342000Y7099000D02*
D03*
X10596000D02*
D03*
X10850000D02*
D03*
X11104000D02*
D03*
X11358000D02*
D03*
X10342000Y7721000D02*
D03*
X10596000D02*
D03*
X10850000D02*
D03*
X11104000D02*
D03*
X11358000D02*
D03*
D17*
X8600000Y10512500D02*
D03*
Y10327500D02*
D03*
X9100000Y10147500D02*
D03*
Y10332500D02*
D03*
X9350000Y8532500D02*
D03*
Y8717500D02*
D03*
X8847500Y7980000D02*
D03*
Y7795000D02*
D03*
X9375000Y9075000D02*
D03*
Y9260000D02*
D03*
X11795000Y8537414D02*
D03*
Y8722414D02*
D03*
X10427500Y9057500D02*
D03*
Y9242500D02*
D03*
D18*
X7700000Y8130000D02*
D03*
Y9770000D02*
D03*
D19*
X12030500Y9561500D02*
D03*
Y10583500D02*
D03*
X11637500Y9561500D02*
D03*
Y10583500D02*
D03*
D20*
X11580000Y9752500D02*
D03*
Y10392500D02*
D03*
D21*
Y9832500D02*
D03*
Y10312500D02*
D03*
D22*
Y9897500D02*
D03*
Y9947500D02*
D03*
Y9997500D02*
D03*
Y10047500D02*
D03*
Y10097500D02*
D03*
Y10147500D02*
D03*
Y10197500D02*
D03*
Y10247500D02*
D03*
D23*
X11264422Y9382500D02*
D03*
X11425578D02*
D03*
X11083078Y9385000D02*
D03*
X10921922D02*
D03*
D27*
X11528575Y8924500D02*
D03*
X11299575D02*
D03*
X11070575D02*
D03*
D28*
X11299575Y8265500D02*
D03*
D29*
X9100000Y7822414D02*
D03*
Y8032586D02*
D03*
X9050000Y8544914D02*
D03*
Y8755086D02*
D03*
X11210164Y10507590D02*
D03*
Y10717761D02*
D03*
X11210000Y10287586D02*
D03*
Y10077414D02*
D03*
X11795000Y8094829D02*
D03*
Y8305000D02*
D03*
D30*
X9005000Y8997500D02*
D03*
X8820000D02*
D03*
X9042500Y8325000D02*
D03*
X8857500D02*
D03*
X9512500Y9367500D02*
D03*
X9697500D02*
D03*
X10320000Y8262500D02*
D03*
X10135000D02*
D03*
X11072500Y9130000D02*
D03*
X11257500D02*
D03*
D32*
X8545086Y11017500D02*
D03*
X8334914D02*
D03*
X9812585Y10180000D02*
D03*
X9602414D02*
D03*
X9817586Y9920000D02*
D03*
X9607414D02*
D03*
X10710171Y8380000D02*
D03*
X10500000D02*
D03*
D33*
X9507500Y9560000D02*
D03*
X9707500D02*
D03*
D34*
X11287565Y9660000D02*
D03*
X11102435D02*
D03*
D35*
X9942500Y8277500D02*
D03*
Y8116344D02*
D03*
D38*
X8857500Y8777500D02*
D03*
Y8557500D02*
D03*
X8687500D02*
D03*
Y8777500D02*
D03*
D39*
X8726500Y9754000D02*
D03*
X8993500Y9500000D02*
D03*
X8726500Y9246000D02*
D03*
D44*
X7475000Y10913500D02*
D03*
X7775000D02*
D03*
D45*
X7700000Y8600000D02*
D03*
D46*
Y9345000D02*
D03*
D47*
X11687500Y10361500D02*
D03*
Y9783500D02*
D03*
D56*
X9560000Y9075000D02*
D03*
Y9025000D02*
D03*
Y8975000D02*
D03*
Y8925000D02*
D03*
Y8875000D02*
D03*
Y8825000D02*
D03*
Y8775000D02*
D03*
Y8725000D02*
D03*
Y8675000D02*
D03*
Y8625000D02*
D03*
Y8575000D02*
D03*
Y8525000D02*
D03*
X10240000D02*
D03*
Y8575000D02*
D03*
Y8625000D02*
D03*
Y8675000D02*
D03*
Y8725000D02*
D03*
Y8775000D02*
D03*
Y8825000D02*
D03*
Y8875000D02*
D03*
Y8925000D02*
D03*
Y8975000D02*
D03*
Y9025000D02*
D03*
Y9075000D02*
D03*
D57*
X9625000Y8460000D02*
D03*
X9675000D02*
D03*
X9725000D02*
D03*
X9775000D02*
D03*
X9825000D02*
D03*
X9875000D02*
D03*
X9925000D02*
D03*
X9975000D02*
D03*
X10025000D02*
D03*
X10075000D02*
D03*
X10125000D02*
D03*
X10175000D02*
D03*
Y9140000D02*
D03*
X10125000D02*
D03*
X10075000D02*
D03*
X10025000D02*
D03*
X9975000D02*
D03*
X9925000D02*
D03*
X9875000D02*
D03*
X9825000D02*
D03*
X9775000D02*
D03*
X9725000D02*
D03*
X9675000D02*
D03*
X9625000D02*
D03*
D58*
X9900000Y8800000D02*
D03*
D59*
X9305000Y7025000D02*
D03*
X8975000D02*
D03*
Y7515000D02*
D03*
X9305000D02*
D03*
X8645000Y7015000D02*
D03*
X8315000D02*
D03*
Y7505000D02*
D03*
X8645000D02*
D03*
X7978977Y7505000D02*
D03*
X7648977D02*
D03*
Y7015000D02*
D03*
X7978977D02*
D03*
D60*
X11515000Y8075000D02*
D03*
X11305000D02*
D03*
X10665000Y8590000D02*
D03*
X10455000D02*
D03*
D61*
X10779000Y10720000D02*
D03*
Y10180000D02*
D03*
X10525000Y10720000D02*
D03*
X10271000D02*
D03*
X10525000Y10180000D02*
D03*
X10271000D02*
D03*
D62*
X9730000Y10920000D02*
D03*
X11950000Y10925000D02*
D03*
Y7150000D02*
D03*
X7181605Y7152000D02*
D03*
D63*
X8980000Y10010000D02*
D03*
X10205000Y9970000D02*
D03*
X8600000Y10610000D02*
D03*
X8457500Y10202500D02*
D03*
X9820000Y9440000D02*
D03*
X7610000Y11050000D02*
D03*
X7400000Y10580000D02*
D03*
X10600000Y7990000D02*
D03*
X10500000Y8200000D02*
D03*
X11100000Y8080000D02*
D03*
X10440000Y8100000D02*
D03*
X11830000Y9180000D02*
D03*
X10650000Y11040000D02*
D03*
X8670000Y9117500D02*
D03*
X11550000Y9370000D02*
D03*
X11457500Y10427500D02*
D03*
X9087500Y10715000D02*
D03*
X9605000Y10352500D02*
D03*
X9100000Y10430000D02*
D03*
X9392500Y9985000D02*
D03*
X8152500Y9030000D02*
D03*
X8147500Y7662500D02*
D03*
X8830000Y7665000D02*
D03*
X9365000Y7827500D02*
D03*
X7697500Y7807500D02*
D03*
X8697500Y7800000D02*
D03*
X11060000Y10720000D02*
D03*
Y10080000D02*
D03*
X10910000Y9210000D02*
D03*
X11360000Y9120000D02*
D03*
X11660000Y8870000D02*
D03*
Y8980000D02*
D03*
X11930000Y8720000D02*
D03*
X11940000Y8300000D02*
D03*
X10200000Y8125000D02*
D03*
X9475000Y9700000D02*
D03*
X9652500Y9765000D02*
D03*
X8375000Y7175000D02*
D03*
X7700000Y7200000D02*
D03*
X9050000D02*
D03*
X8725000Y8325000D02*
D03*
X8575000Y8450000D02*
D03*
X10547500Y9150000D02*
D03*
X9325000Y9425000D02*
D03*
X10100000Y8075000D02*
D03*
X9325000Y8825000D02*
D03*
X9997500Y10217500D02*
D03*
X9515000Y7277500D02*
D03*
X11760000Y9920000D02*
D03*
X11740000Y10167500D02*
D03*
X8267500Y10117500D02*
D03*
D64*
X9680000Y9020000D02*
D03*
X9790000D02*
D03*
X9900000D02*
D03*
X10010000D02*
D03*
X10120000D02*
D03*
X9680000Y8910000D02*
D03*
X9790000D02*
D03*
X9900000D02*
D03*
X10010000D02*
D03*
X10120000D02*
D03*
X9680000Y8800000D02*
D03*
X9790000D02*
D03*
X9900000D02*
D03*
X10010000D02*
D03*
X10120000D02*
D03*
X9680000Y8690000D02*
D03*
X9790000D02*
D03*
X9900000D02*
D03*
X10010000D02*
D03*
X10120000D02*
D03*
X9680000Y8580000D02*
D03*
X9790000D02*
D03*
X9900000D02*
D03*
X10010000D02*
D03*
X10120000D02*
D03*
%TF.MD5,84de33a4766b05a0a206394d97bee340*%
M02*
